<svg xmlns="http://www.w3.org/2000/svg" xmlns:xlink="http://www.w3.org/1999/xlink" width="500" zoomAndPan="magnify" viewBox="0 0 375 374.999991" height="500" preserveAspectRatio="xMidYMid meet" version="1.0"><defs><g/><clipPath id="id1"><path d="M 146.367188 180.695312 L 228.867188 180.695312 L 228.867188 194.195312 L 146.367188 194.195312 Z M 146.367188 180.695312 " clip-rule="nonzero"/></clipPath></defs><rect x="-37.5" width="450" fill="#ffffff" y="-37.499999" height="449.999989" fill-opacity="1"/><rect x="-37.5" width="450" fill="#0c59e7" y="-37.499999" height="449.999989" fill-opacity="1"/><rect x="-37.5" width="450" fill="#ffffff" y="-37.499999" height="449.999989" fill-opacity="1"/><rect x="-37.5" width="450" fill="#0c59e7" y="-37.499999" height="449.999989" fill-opacity="1"/><g fill="#ee500e" fill-opacity="1"><g transform="translate(173.190722, 209.906835)"><g><path d="M 11.140625 -37.613281 L 14.40625 -37.613281 C 16.648438 -37.613281 18.195312 -36.328125 18.195312 -33.558594 L 18.195312 -11.964844 C 18.195312 -9.726562 16.78125 -8.011719 14.570312 -7.945312 L 11.140625 -7.945312 Z M 2.375 -1.253906 C 2.375 -0.460938 2.734375 0 3.496094 0 L 15 0 C 21.722656 -0.0664062 26.964844 -4.121094 26.964844 -11.703125 L 26.964844 -33.921875 C 26.964844 -41.472656 21.757812 -45.558594 14.933594 -45.625 L 3.496094 -45.625 C 2.800781 -45.625 2.375 -45.128906 2.375 -44.339844 Z M 2.375 -1.253906 "/></g></g></g><g clip-path="url(#id1)"><path fill="#0c59e7" d="M 146.378906 180.695312 L 228.855469 180.695312 L 228.855469 194.195312 L 146.378906 194.195312 L 146.378906 180.695312 " fill-opacity="1" fill-rule="nonzero"/></g><g fill="#ffffff" fill-opacity="1"><g transform="translate(157.045108, 189.652061)"><g><path d="M 1.003906 -3.382812 L 1.296875 -3.382812 C 1.496094 -3.382812 1.636719 -3.269531 1.636719 -3.019531 L 1.636719 -1.078125 C 1.636719 -0.875 1.507812 -0.71875 1.3125 -0.714844 L 1.003906 -0.714844 Z M 0.214844 -0.113281 C 0.214844 -0.0429688 0.246094 0 0.3125 0 L 1.347656 0 C 1.953125 -0.0078125 2.425781 -0.371094 2.425781 -1.054688 L 2.425781 -3.050781 C 2.425781 -3.730469 1.957031 -4.097656 1.34375 -4.105469 L 0.3125 -4.105469 C 0.253906 -4.105469 0.214844 -4.058594 0.214844 -3.988281 Z M 0.214844 -0.113281 "/></g></g></g><g fill="#ffffff" fill-opacity="1"><g transform="translate(162.748145, 189.652061)"><g><path d="M 1.640625 -2.542969 C 1.640625 -2.339844 1.515625 -2.207031 1.277344 -2.207031 L 1.003906 -2.207031 L 1.003906 -3.382812 L 1.300781 -3.382812 C 1.503906 -3.382812 1.640625 -3.246094 1.640625 -3.035156 Z M 2.296875 -0.00390625 C 2.378906 -0.00390625 2.40625 -0.0742188 2.40625 -0.128906 L 2.40625 -0.660156 C 2.40625 -1.253906 2.273438 -1.628906 2.007812 -1.855469 C 2.25 -2.015625 2.433594 -2.257812 2.433594 -2.609375 L 2.433594 -3.035156 C 2.433594 -3.625 1.972656 -4.105469 1.359375 -4.105469 L 0.3125 -4.105469 C 0.253906 -4.105469 0.214844 -4.058594 0.214844 -3.988281 L 0.214844 -0.109375 C 0.214844 -0.0429688 0.242188 0 0.3125 0 L 0.90625 0 C 0.96875 0 1.003906 -0.0429688 1.003906 -0.109375 L 1.003906 -1.59375 C 1.410156 -1.570312 1.617188 -1.328125 1.617188 -0.757812 L 1.617188 -0.136719 C 1.617188 -0.046875 1.683594 -0.00390625 1.753906 -0.00390625 Z M 2.296875 -0.00390625 "/></g></g></g><g fill="#ffffff" fill-opacity="1"><g transform="translate(168.468972, 189.652061)"><g><path d="M 1.003906 -3.988281 C 1.003906 -4.058594 0.972656 -4.105469 0.90625 -4.105469 L 0.3125 -4.105469 C 0.25 -4.105469 0.214844 -4.058594 0.214844 -3.988281 L 0.214844 -0.113281 C 0.214844 -0.0429688 0.242188 0 0.3125 0 L 0.90625 0 C 0.972656 0 1.003906 -0.0429688 1.003906 -0.113281 Z M 1.003906 -3.988281 "/></g></g></g><g fill="#ffffff" fill-opacity="1"><g transform="translate(172.81697, 189.652061)"><g><path d="M 2.09375 -3.996094 C 2.09375 -4.070312 2.0625 -4.105469 2.015625 -4.105469 L 0.3125 -4.105469 C 0.253906 -4.105469 0.214844 -4.058594 0.214844 -3.988281 L 0.214844 -0.113281 C 0.214844 -0.0429688 0.246094 0 0.3125 0 L 0.90625 0 C 0.976562 0 1.003906 -0.0429688 1.003906 -0.113281 L 1.003906 -1.660156 L 1.78125 -1.660156 C 1.835938 -1.660156 1.871094 -1.695312 1.871094 -1.765625 L 1.871094 -2.269531 C 1.871094 -2.347656 1.828125 -2.371094 1.78125 -2.371094 L 1.003906 -2.371094 L 1.003906 -3.382812 L 2.015625 -3.382812 C 2.0625 -3.382812 2.09375 -3.417969 2.09375 -3.492188 Z M 2.09375 -3.996094 "/></g></g></g><g fill="#ffffff" fill-opacity="1"><g transform="translate(178.081175, 189.652061)"><g><path d="M 1.976562 -3.382812 C 2.027344 -3.382812 2.0625 -3.417969 2.0625 -3.492188 L 2.0625 -3.996094 C 2.0625 -4.070312 2.027344 -4.105469 1.976562 -4.105469 L 0.0820312 -4.105469 C 0.03125 -4.105469 -0.00390625 -4.066406 -0.00390625 -3.996094 L -0.00390625 -3.492188 C -0.00390625 -3.417969 0.03125 -3.382812 0.0820312 -3.382812 L 0.632812 -3.382812 L 0.632812 -0.105469 C 0.632812 -0.0351562 0.671875 0 0.71875 0 L 1.339844 0 C 1.386719 0 1.425781 -0.0351562 1.425781 -0.105469 L 1.425781 -3.382812 Z M 1.976562 -3.382812 "/></g></g></g><g fill="#ffffff" fill-opacity="1"><g transform="translate(183.268287, 189.652061)"><g/></g></g><g fill="#ffffff" fill-opacity="1"><g transform="translate(187.773432, 189.652061)"><g><path d="M 3.035156 -0.117188 C 3.035156 -0.0546875 3.070312 0 3.132812 0 L 3.734375 0 C 3.800781 0 3.824219 -0.0585938 3.824219 -0.117188 L 3.824219 -3.140625 C 3.824219 -3.710938 3.308594 -4.167969 2.714844 -4.167969 C 2.449219 -4.167969 2.199219 -4.078125 2.003906 -3.921875 C 1.808594 -4.078125 1.558594 -4.167969 1.292969 -4.167969 C 0.699219 -4.167969 0.1875 -3.710938 0.1875 -3.140625 L 0.1875 -0.117188 C 0.1875 -0.0546875 0.222656 0 0.265625 0 L 0.890625 0 C 0.960938 0 0.980469 -0.0507812 0.980469 -0.117188 L 0.980469 -3.097656 C 0.980469 -3.28125 1.09375 -3.453125 1.296875 -3.453125 C 1.496094 -3.453125 1.609375 -3.28125 1.609375 -3.097656 L 1.609375 -0.117188 C 1.609375 -0.0546875 1.648438 0 1.691406 0 L 2.316406 0 C 2.386719 0 2.402344 -0.0507812 2.402344 -0.113281 L 2.402344 -3.109375 C 2.410156 -3.289062 2.523438 -3.453125 2.71875 -3.453125 C 2.917969 -3.453125 3.035156 -3.28125 3.035156 -3.097656 Z M 3.035156 -0.117188 "/></g></g></g><g fill="#ffffff" fill-opacity="1"><g transform="translate(194.914532, 189.652061)"><g><path d="M 1.003906 -3.988281 C 1.003906 -4.058594 0.972656 -4.105469 0.90625 -4.105469 L 0.3125 -4.105469 C 0.25 -4.105469 0.214844 -4.058594 0.214844 -3.988281 L 0.214844 -0.113281 C 0.214844 -0.0429688 0.242188 0 0.3125 0 L 0.90625 0 C 0.972656 0 1.003906 -0.0429688 1.003906 -0.113281 Z M 1.003906 -3.988281 "/></g></g></g><g fill="#ffffff" fill-opacity="1"><g transform="translate(199.262532, 189.652061)"><g><path d="M 2.308594 0 C 2.371094 0 2.402344 -0.0585938 2.402344 -0.117188 L 2.402344 -3.140625 C 2.402344 -3.710938 1.886719 -4.167969 1.292969 -4.167969 C 0.699219 -4.167969 0.1875 -3.710938 0.1875 -3.140625 L 0.1875 -0.117188 C 0.1875 -0.0546875 0.21875 0 0.265625 0 L 0.890625 0 C 0.957031 0 0.980469 -0.0507812 0.980469 -0.117188 L 0.980469 -3.097656 C 0.980469 -3.28125 1.09375 -3.453125 1.296875 -3.453125 C 1.496094 -3.453125 1.609375 -3.28125 1.609375 -3.097656 L 1.609375 -0.117188 C 1.609375 -0.0546875 1.644531 0 1.707031 0 Z M 2.308594 0 "/></g></g></g><g fill="#ffffff" fill-opacity="1"><g transform="translate(204.980397, 189.652061)"><g><path d="M 1.003906 -0.714844 L 1.003906 -1.71875 L 1.867188 -1.71875 C 1.925781 -1.71875 1.964844 -1.75 1.964844 -1.820312 L 1.964844 -2.328125 C 1.964844 -2.402344 1.917969 -2.433594 1.867188 -2.433594 L 1.003906 -2.433594 L 1.003906 -3.382812 L 2.089844 -3.382812 C 2.140625 -3.382812 2.171875 -3.417969 2.171875 -3.492188 L 2.171875 -3.996094 C 2.171875 -4.070312 2.140625 -4.105469 2.089844 -4.105469 L 0.3125 -4.105469 C 0.253906 -4.105469 0.214844 -4.058594 0.214844 -3.988281 L 0.214844 -0.113281 C 0.214844 -0.0429688 0.246094 0 0.3125 0 L 2.101562 0 C 2.148438 0 2.1875 -0.03125 2.1875 -0.105469 L 2.1875 -0.613281 C 2.1875 -0.683594 2.148438 -0.714844 2.101562 -0.714844 Z M 1.003906 -0.714844 "/></g></g></g><g fill="#ffffff" fill-opacity="1"><g transform="translate(210.366173, 189.652061)"><g><path d="M 1.640625 -2.542969 C 1.640625 -2.339844 1.515625 -2.207031 1.277344 -2.207031 L 1.003906 -2.207031 L 1.003906 -3.382812 L 1.300781 -3.382812 C 1.503906 -3.382812 1.640625 -3.246094 1.640625 -3.035156 Z M 2.296875 -0.00390625 C 2.378906 -0.00390625 2.40625 -0.0742188 2.40625 -0.128906 L 2.40625 -0.660156 C 2.40625 -1.253906 2.273438 -1.628906 2.007812 -1.855469 C 2.25 -2.015625 2.433594 -2.257812 2.433594 -2.609375 L 2.433594 -3.035156 C 2.433594 -3.625 1.972656 -4.105469 1.359375 -4.105469 L 0.3125 -4.105469 C 0.253906 -4.105469 0.214844 -4.058594 0.214844 -3.988281 L 0.214844 -0.109375 C 0.214844 -0.0429688 0.242188 0 0.3125 0 L 0.90625 0 C 0.96875 0 1.003906 -0.0429688 1.003906 -0.109375 L 1.003906 -1.59375 C 1.410156 -1.570312 1.617188 -1.328125 1.617188 -0.757812 L 1.617188 -0.136719 C 1.617188 -0.046875 1.683594 -0.00390625 1.753906 -0.00390625 Z M 2.296875 -0.00390625 "/></g></g></g><g fill="#ffffff" fill-opacity="1"><g transform="translate(216.087002, 189.652061)"><g><path d="M 1.492188 -2.914062 C 1.492188 -2.832031 1.503906 -2.800781 1.578125 -2.800781 L 2.109375 -2.800781 C 2.203125 -2.800781 2.222656 -2.832031 2.222656 -2.914062 L 2.222656 -3.085938 C 2.222656 -3.738281 1.785156 -4.167969 1.171875 -4.167969 C 0.757812 -4.167969 0.117188 -3.875 0.117188 -3.101562 C 0.117188 -2.421875 0.398438 -2.226562 1.015625 -1.722656 C 1.382812 -1.425781 1.535156 -1.292969 1.535156 -1.003906 C 1.535156 -0.789062 1.386719 -0.652344 1.199219 -0.652344 C 1.046875 -0.652344 0.859375 -0.746094 0.859375 -1.042969 L 0.859375 -1.175781 C 0.859375 -1.265625 0.84375 -1.300781 0.757812 -1.300781 L 0.21875 -1.300781 C 0.136719 -1.300781 0.117188 -1.257812 0.117188 -1.15625 L 0.117188 -1 C 0.117188 -0.441406 0.476562 0.0664062 1.191406 0.0664062 C 1.847656 0.0664062 2.285156 -0.410156 2.285156 -0.964844 C 2.285156 -1.714844 1.84375 -2.039062 1.289062 -2.46875 C 1.027344 -2.671875 0.851562 -2.800781 0.851562 -3.082031 C 0.851562 -3.351562 1.023438 -3.457031 1.171875 -3.457031 C 1.386719 -3.457031 1.492188 -3.285156 1.492188 -3.082031 Z M 1.492188 -2.914062 "/></g></g></g><path stroke-linecap="butt" transform="matrix(2.240415, 0, 0, 2.25, 155.863353, 181.070321)" fill="none" stroke-linejoin="miter" d="M -0.0000318758 -0.00000373765 L 28.121505 -0.00000373765 " stroke="#ffffff" stroke-width="1" stroke-opacity="1" stroke-miterlimit="4"/><path stroke-linecap="butt" transform="matrix(2.240415, 0, 0, 2.25, 155.863353, 194.173288)" fill="none" stroke-linejoin="miter" d="M -0.0000318758 -0.000628022 L 28.121505 -0.000628022 " stroke="#ffffff" stroke-width="1" stroke-opacity="1" stroke-miterlimit="4"/></svg>