<svg xmlns="http://www.w3.org/2000/svg" xmlns:xlink="http://www.w3.org/1999/xlink" width="500" zoomAndPan="magnify" viewBox="0 0 375 374.999991" height="500" preserveAspectRatio="xMidYMid meet" version="1.0"><defs><g/><clipPath id="id1"><path d="M 156.027344 179.886719 L 256.527344 179.886719 L 256.527344 194.136719 L 156.027344 194.136719 Z M 156.027344 179.886719 " clip-rule="nonzero"/></clipPath></defs><rect x="-37.5" width="450" fill="#ffffff" y="-37.499999" height="449.999989" fill-opacity="1"/><rect x="-37.5" width="450" fill="#ffffff" y="-37.499999" height="449.999989" fill-opacity="1"/><rect x="-37.5" width="450" fill="#ffffff" y="-37.499999" height="449.999989" fill-opacity="1"/><g fill="#ee500e" fill-opacity="1"><g transform="translate(102.903989, 218.639133)"><g/></g></g><g fill="#ee500e" fill-opacity="1"><g transform="translate(128.515864, 218.639133)"><g/></g></g><g fill="#ee500e" fill-opacity="1"><g transform="translate(154.119705, 218.639133)"><g><path d="M 15.289062 -51.605469 L 19.765625 -51.605469 C 22.839844 -51.605469 24.96875 -49.84375 24.96875 -46.042969 L 24.96875 -16.417969 C 24.96875 -13.34375 23.023438 -10.992188 19.992188 -10.902344 L 15.289062 -10.902344 Z M 3.257812 -1.71875 C 3.257812 -0.632812 3.753906 0 4.792969 0 L 20.578125 0 C 29.804688 -0.0898438 36.996094 -5.652344 36.996094 -16.054688 L 36.996094 -46.542969 C 36.996094 -56.898438 29.851562 -62.507812 20.488281 -62.597656 L 4.792969 -62.597656 C 3.84375 -62.597656 3.257812 -61.917969 3.257812 -60.835938 Z M 3.257812 -1.71875 "/></g></g></g><g fill="#ee500e" fill-opacity="1"><g transform="translate(197.997985, 218.639133)"><g><path d="M 46.316406 -1.808594 C 46.316406 -0.859375 46.8125 0 47.761719 0 L 56.945312 0 C 57.941406 0 58.347656 -0.90625 58.347656 -1.808594 L 58.347656 -47.898438 C 58.347656 -56.582031 50.476562 -63.59375 41.429688 -63.59375 C 37.359375 -63.59375 33.515625 -62.191406 30.574219 -59.839844 C 27.589844 -62.191406 23.746094 -63.59375 19.71875 -63.59375 C 10.675781 -63.59375 2.847656 -56.582031 2.847656 -47.898438 L 2.847656 -1.765625 C 2.847656 -0.8125 3.390625 0 4.027344 0 L 13.570312 0 C 14.65625 0 14.925781 -0.769531 14.925781 -1.765625 L 14.925781 -47.21875 C 14.925781 -50.070312 16.691406 -52.648438 19.765625 -52.648438 C 22.796875 -52.648438 24.558594 -50.070312 24.558594 -47.21875 L 24.558594 -1.765625 C 24.558594 -0.8125 25.148438 0 25.78125 0 L 35.324219 0 C 36.410156 0 36.636719 -0.769531 36.636719 -1.71875 L 36.636719 -47.402344 C 36.726562 -50.160156 38.492188 -52.648438 41.476562 -52.648438 C 44.507812 -52.648438 46.316406 -50.070312 46.316406 -47.21875 Z M 46.316406 -1.808594 "/></g></g></g><g clip-path="url(#id1)"><path fill="#ffffff" d="M 156.039062 179.886719 L 256.515625 179.886719 L 256.515625 194.136719 L 156.039062 194.136719 L 156.039062 179.886719 " fill-opacity="1" fill-rule="nonzero"/></g><g fill="#000000" fill-opacity="1"><g transform="translate(170.33353, 189.932942)"><g><path d="M 1.285156 -4.335938 L 1.660156 -4.335938 C 1.917969 -4.335938 2.097656 -4.1875 2.097656 -3.867188 L 2.097656 -1.378906 C 2.097656 -1.121094 1.933594 -0.921875 1.679688 -0.914062 L 1.285156 -0.914062 Z M 0.273438 -0.144531 C 0.273438 -0.0546875 0.316406 0 0.402344 0 L 1.730469 0 C 2.503906 -0.0078125 3.109375 -0.476562 3.109375 -1.347656 L 3.109375 -3.910156 C 3.109375 -4.78125 2.507812 -5.25 1.722656 -5.257812 L 0.402344 -5.257812 C 0.324219 -5.257812 0.273438 -5.203125 0.273438 -5.109375 Z M 0.273438 -0.144531 "/></g></g></g><g fill="#000000" fill-opacity="1"><g transform="translate(177.640606, 189.932942)"><g><path d="M 2.101562 -3.257812 C 2.101562 -3 1.941406 -2.828125 1.636719 -2.828125 L 1.285156 -2.828125 L 1.285156 -4.335938 L 1.664062 -4.335938 C 1.925781 -4.335938 2.101562 -4.160156 2.101562 -3.886719 Z M 2.945312 -0.00390625 C 3.046875 -0.00390625 3.082031 -0.09375 3.082031 -0.164062 L 3.082031 -0.847656 C 3.082031 -1.605469 2.914062 -2.085938 2.574219 -2.375 C 2.878906 -2.582031 3.117188 -2.890625 3.117188 -3.34375 L 3.117188 -3.886719 C 3.117188 -4.644531 2.527344 -5.257812 1.746094 -5.257812 L 0.402344 -5.257812 C 0.324219 -5.257812 0.273438 -5.203125 0.273438 -5.109375 L 0.273438 -0.140625 C 0.273438 -0.0546875 0.3125 0 0.398438 0 L 1.160156 0 C 1.242188 0 1.285156 -0.0546875 1.285156 -0.140625 L 1.285156 -2.042969 C 1.804688 -2.011719 2.070312 -1.703125 2.070312 -0.96875 L 2.070312 -0.175781 C 2.070312 -0.0625 2.160156 -0.00390625 2.246094 -0.00390625 Z M 2.945312 -0.00390625 "/></g></g></g><g fill="#000000" fill-opacity="1"><g transform="translate(184.970476, 189.932942)"><g><path d="M 1.285156 -5.109375 C 1.285156 -5.203125 1.246094 -5.257812 1.160156 -5.257812 L 0.398438 -5.257812 C 0.320312 -5.257812 0.273438 -5.203125 0.273438 -5.109375 L 0.273438 -0.144531 C 0.273438 -0.0546875 0.3125 0 0.398438 0 L 1.160156 0 C 1.246094 0 1.285156 -0.0546875 1.285156 -0.144531 Z M 1.285156 -5.109375 "/></g></g></g><g fill="#000000" fill-opacity="1"><g transform="translate(190.541396, 189.932942)"><g><path d="M 2.683594 -5.121094 C 2.683594 -5.214844 2.640625 -5.257812 2.582031 -5.257812 L 0.402344 -5.257812 C 0.324219 -5.257812 0.273438 -5.203125 0.273438 -5.109375 L 0.273438 -0.144531 C 0.273438 -0.0546875 0.316406 0 0.402344 0 L 1.164062 0 C 1.25 0 1.285156 -0.0546875 1.285156 -0.144531 L 1.285156 -2.128906 L 2.285156 -2.128906 C 2.351562 -2.128906 2.398438 -2.171875 2.398438 -2.261719 L 2.398438 -2.90625 C 2.398438 -3.003906 2.34375 -3.039062 2.285156 -3.039062 L 1.285156 -3.039062 L 1.285156 -4.335938 L 2.582031 -4.335938 C 2.640625 -4.335938 2.683594 -4.382812 2.683594 -4.476562 Z M 2.683594 -5.121094 "/></g></g></g><g fill="#000000" fill-opacity="1"><g transform="translate(197.286213, 189.932942)"><g><path d="M 2.535156 -4.335938 C 2.597656 -4.335938 2.644531 -4.382812 2.644531 -4.472656 L 2.644531 -5.121094 C 2.644531 -5.214844 2.597656 -5.257812 2.535156 -5.257812 L 0.105469 -5.257812 C 0.0429688 -5.257812 -0.00390625 -5.210938 -0.00390625 -5.117188 L -0.00390625 -4.472656 C -0.00390625 -4.382812 0.0429688 -4.335938 0.105469 -4.335938 L 0.8125 -4.335938 L 0.8125 -0.132812 C 0.8125 -0.046875 0.859375 0 0.921875 0 L 1.71875 0 C 1.777344 0 1.828125 -0.046875 1.828125 -0.132812 L 1.828125 -4.335938 Z M 2.535156 -4.335938 "/></g></g></g><g fill="#000000" fill-opacity="1"><g transform="translate(203.932257, 189.932942)"><g/></g></g><g fill="#000000" fill-opacity="1"><g transform="translate(209.704521, 189.932942)"><g><path d="M 3.890625 -0.152344 C 3.890625 -0.0703125 3.933594 0 4.011719 0 L 4.785156 0 C 4.867188 0 4.902344 -0.0742188 4.902344 -0.152344 L 4.902344 -4.023438 C 4.902344 -4.753906 4.242188 -5.34375 3.480469 -5.34375 C 3.140625 -5.34375 2.816406 -5.226562 2.570312 -5.027344 C 2.316406 -5.226562 1.996094 -5.34375 1.65625 -5.34375 C 0.898438 -5.34375 0.238281 -4.753906 0.238281 -4.023438 L 0.238281 -0.148438 C 0.238281 -0.0703125 0.285156 0 0.339844 0 L 1.140625 0 C 1.230469 0 1.253906 -0.0664062 1.253906 -0.148438 L 1.253906 -3.96875 C 1.253906 -4.207031 1.402344 -4.421875 1.660156 -4.421875 C 1.914062 -4.421875 2.0625 -4.207031 2.0625 -3.96875 L 2.0625 -0.148438 C 2.0625 -0.0703125 2.113281 0 2.164062 0 L 2.96875 0 C 3.058594 0 3.078125 -0.0664062 3.078125 -0.144531 L 3.078125 -3.980469 C 3.085938 -4.214844 3.234375 -4.421875 3.484375 -4.421875 C 3.738281 -4.421875 3.890625 -4.207031 3.890625 -3.96875 Z M 3.890625 -0.152344 "/></g></g></g><g fill="#000000" fill-opacity="1"><g transform="translate(218.854131, 189.932942)"><g><path d="M 1.285156 -5.109375 C 1.285156 -5.203125 1.246094 -5.257812 1.160156 -5.257812 L 0.398438 -5.257812 C 0.320312 -5.257812 0.273438 -5.203125 0.273438 -5.109375 L 0.273438 -0.144531 C 0.273438 -0.0546875 0.3125 0 0.398438 0 L 1.160156 0 C 1.246094 0 1.285156 -0.0546875 1.285156 -0.144531 Z M 1.285156 -5.109375 "/></g></g></g><g fill="#000000" fill-opacity="1"><g transform="translate(224.425052, 189.932942)"><g><path d="M 2.957031 0 C 3.039062 0 3.078125 -0.0742188 3.078125 -0.152344 L 3.078125 -4.023438 C 3.078125 -4.753906 2.417969 -5.34375 1.65625 -5.34375 C 0.898438 -5.34375 0.238281 -4.753906 0.238281 -4.023438 L 0.238281 -0.148438 C 0.238281 -0.0703125 0.28125 0 0.339844 0 L 1.140625 0 C 1.226562 0 1.253906 -0.0664062 1.253906 -0.148438 L 1.253906 -3.96875 C 1.253906 -4.207031 1.402344 -4.421875 1.660156 -4.421875 C 1.914062 -4.421875 2.0625 -4.207031 2.0625 -3.96875 L 2.0625 -0.152344 C 2.0625 -0.0703125 2.109375 0 2.183594 0 Z M 2.957031 0 "/></g></g></g><g fill="#000000" fill-opacity="1"><g transform="translate(231.751128, 189.932942)"><g><path d="M 1.285156 -0.914062 L 1.285156 -2.203125 L 2.394531 -2.203125 C 2.464844 -2.203125 2.515625 -2.242188 2.515625 -2.332031 L 2.515625 -2.984375 C 2.515625 -3.078125 2.457031 -3.117188 2.394531 -3.117188 L 1.285156 -3.117188 L 1.285156 -4.335938 L 2.675781 -4.335938 C 2.742188 -4.335938 2.78125 -4.382812 2.78125 -4.472656 L 2.78125 -5.117188 C 2.78125 -5.214844 2.742188 -5.257812 2.675781 -5.257812 L 0.402344 -5.257812 C 0.324219 -5.257812 0.273438 -5.203125 0.273438 -5.109375 L 0.273438 -0.144531 C 0.273438 -0.0546875 0.316406 0 0.402344 0 L 2.695312 0 C 2.753906 0 2.804688 -0.0429688 2.804688 -0.132812 L 2.804688 -0.785156 C 2.804688 -0.875 2.753906 -0.914062 2.695312 -0.914062 Z M 1.285156 -0.914062 "/></g></g></g><g fill="#000000" fill-opacity="1"><g transform="translate(238.651711, 189.932942)"><g><path d="M 2.101562 -3.257812 C 2.101562 -3 1.941406 -2.828125 1.636719 -2.828125 L 1.285156 -2.828125 L 1.285156 -4.335938 L 1.664062 -4.335938 C 1.925781 -4.335938 2.101562 -4.160156 2.101562 -3.886719 Z M 2.945312 -0.00390625 C 3.046875 -0.00390625 3.082031 -0.09375 3.082031 -0.164062 L 3.082031 -0.847656 C 3.082031 -1.605469 2.914062 -2.085938 2.574219 -2.375 C 2.878906 -2.582031 3.117188 -2.890625 3.117188 -3.34375 L 3.117188 -3.886719 C 3.117188 -4.644531 2.527344 -5.257812 1.746094 -5.257812 L 0.402344 -5.257812 C 0.324219 -5.257812 0.273438 -5.203125 0.273438 -5.109375 L 0.273438 -0.140625 C 0.273438 -0.0546875 0.3125 0 0.398438 0 L 1.160156 0 C 1.242188 0 1.285156 -0.0546875 1.285156 -0.140625 L 1.285156 -2.042969 C 1.804688 -2.011719 2.070312 -1.703125 2.070312 -0.96875 L 2.070312 -0.175781 C 2.070312 -0.0625 2.160156 -0.00390625 2.246094 -0.00390625 Z M 2.945312 -0.00390625 "/></g></g></g><g fill="#000000" fill-opacity="1"><g transform="translate(245.981583, 189.932942)"><g><path d="M 1.910156 -3.734375 C 1.910156 -3.628906 1.925781 -3.589844 2.023438 -3.589844 L 2.703125 -3.589844 C 2.824219 -3.589844 2.851562 -3.628906 2.851562 -3.734375 L 2.851562 -3.953125 C 2.851562 -4.792969 2.289062 -5.339844 1.5 -5.339844 C 0.96875 -5.339844 0.152344 -4.960938 0.152344 -3.976562 C 0.152344 -3.105469 0.507812 -2.855469 1.304688 -2.207031 C 1.769531 -1.828125 1.96875 -1.65625 1.96875 -1.289062 C 1.96875 -1.011719 1.773438 -0.835938 1.535156 -0.835938 C 1.339844 -0.835938 1.101562 -0.957031 1.101562 -1.335938 L 1.101562 -1.507812 C 1.101562 -1.621094 1.078125 -1.664062 0.972656 -1.664062 L 0.28125 -1.664062 C 0.175781 -1.664062 0.152344 -1.609375 0.152344 -1.480469 L 0.152344 -1.28125 C 0.152344 -0.566406 0.613281 0.0820312 1.527344 0.0820312 C 2.367188 0.0820312 2.929688 -0.523438 2.929688 -1.234375 C 2.929688 -2.195312 2.363281 -2.609375 1.652344 -3.160156 C 1.316406 -3.421875 1.089844 -3.585938 1.089844 -3.949219 C 1.089844 -4.292969 1.3125 -4.425781 1.5 -4.425781 C 1.773438 -4.425781 1.910156 -4.210938 1.910156 -3.949219 Z M 1.910156 -3.734375 "/></g></g></g><path stroke-linecap="butt" transform="matrix(2.243096, 0, 0, 2.128079, 156.027503, 180.95161)" fill="none" stroke-linejoin="miter" d="M -0.0000710198 0.000712042 L 44.138833 0.000712042 " stroke="#0c59e7" stroke-width="1" stroke-opacity="1" stroke-miterlimit="4"/><path stroke-linecap="butt" transform="matrix(2.258163, 0, 0, 2.128079, 156.027503, 193.137995)" fill="none" stroke-linejoin="miter" d="M -0.0000705459 -0.000599868 L 44.510327 -0.000599868 " stroke="#0c59e7" stroke-width="1" stroke-opacity="1" stroke-miterlimit="4"/></svg>