<?xml version="1.0" encoding="utf-8"?>
<!-- Generator: Adobe Illustrator 22.1.0, SVG Export Plug-In . SVG Version: 6.00 Build 0)  -->
<svg version="1.1" id="Layer_1" xmlns="http://www.w3.org/2000/svg" xmlns:xlink="http://www.w3.org/1999/xlink" x="0px" y="0px"
	 viewBox="0 0 500 500" style="enable-background:new 0 0 500 500;" xml:space="preserve">
<style type="text/css">
	.st0{fill:#7508B5;}
	.st1{fill:#FFD6B0;}
	.st2{fill:#002B45;}
	.st3{fill:#004E7A;}
	.st4{fill:#FFDC12;}
	.st5{fill:#FF8C00;}
	.st6{fill:#FFBB00;}
	.st7{fill:#E3E3E3;}
	.st8{fill:#D4D4D4;}
	.st9{fill:#00B0B3;}
	.st10{clip-path:url(#SVGID_1_);}
	.st11{fill:#FF453B;}
	.st12{fill:#EF261A;}
	.st13{clip-path:url(#SVGID_2_);}
	.st14{fill:#FFFFFF;}
</style>
<rect class="st0" width="500" height="500"/>
<g>
	<g>
		<path class="st1" d="M212.9,347.1c0.1-8.5-6-8.4-6.6,0.3v8.6c0-4.4-0.1-10-0.1-11.3c0.1-7.6-7.6-7.7-7.7-1.6c0,1,0,2.1,0,3.3
			c0,2.3,0,4.7,0,6.5c0-1.8,0-4.1,0-6.5c0-3.2-0.1-6.3-0.4-7.1c-1.1-3.1-8.1-3.8-8.1,3.7l0.2-22.2c-1.9-5.9-8.4-5.3-8.4,3.4
			c-0.1,9.9,0.5,23.5,0.4,31c-1.1-5.4-5.3-13.5-11.7-10.2c-1.2,0.6,3.1,5.6,4.7,13.7c1.1,5.4,0.3,13.1,3.9,16.1
			c3.3,2.7,4.3,4.7,4.6,6.6c0.1,0.7,0.1,3.8,0.1,6.6h20.7l0-5.3c0.3-1.6,0.8-3.2,1.7-4.5c4.7-7.5,5.4-7.9,6.3-23.5
			C213.1,347.7,212.9,354.6,212.9,347.1z M189.8,355.8l0.1-12.6C190.1,348.1,189.8,355.8,189.8,355.8z"/>
		<rect x="178.1" y="388" class="st2" width="32.3" height="13.4"/>
		<path class="st3" d="M204.2,393h-3.9c-0.9,0-1.7,0.8-1.7,1.7c0,0.9,0.8,1.7,1.7,1.7h3.9c0.9,0,1.7-0.8,1.7-1.7
			C205.9,393.8,205.1,393,204.2,393z"/>
	</g>
	<g>
		<g>
			
				<ellipse transform="matrix(0.1885 -0.9821 0.9821 0.1885 -135.3191 420.1313)" class="st4" cx="186.6" cy="291.9" rx="16.9" ry="16.9"/>
			<path class="st5" d="M193.7,291.9c-0.2-0.3-0.6-0.6-0.9-0.9c0-0.1,0.1-0.1,0.2-0.2c0.4-0.7,0.6-1.6,0.6-2.5c0-1-0.3-1.8-0.7-2.6
				c-0.5-0.7-1.2-1.2-2.2-1.6v-3.2c0-0.9-0.8-1.7-1.7-1.7c-0.9,0-1.7,0.8-1.7,1.7v2.6c-0.1,0-0.1,0-0.2,0h-0.6v-2.6
				c0-0.9-0.8-1.7-1.7-1.7c-0.9,0-1.7,0.8-1.7,1.7v2.6h-2.9c-0.9,0-1.7,0.8-1.7,1.7c0,0.9,0.8,1.7,1.7,1.7h1.7v4.4v5h-1.7
				c-0.9,0-1.7,0.8-1.7,1.7c0,0.9,0.8,1.7,1.7,1.7h2.9v2.9c0,0.9,0.8,1.7,1.7,1.7c0.9,0,1.7-0.8,1.7-1.7v-2.9c0.3,0,0.5,0,0.8,0v3
				c0,0.9,0.8,1.7,1.7,1.7c0.9,0,1.7-0.8,1.7-1.7v-3.4c0.5-0.1,1-0.3,1.4-0.5c0.6-0.3,1-0.7,1.4-1.1c0.4-0.5,0.7-1,0.9-1.5
				c0.2-0.5,0.2-1,0.2-1.6C194.6,293.6,194.3,292.7,193.7,291.9z M188.5,287.2c0.3,0,0.6,0.1,0.8,0.1c0.4,0.1,0.6,0.3,0.7,0.4
				c0.1,0.2,0.2,0.5,0.2,0.7c0,0.3-0.1,0.6-0.2,0.8c-0.1,0.2-0.4,0.3-0.6,0.4c-0.2,0.1-0.7,0.2-2,0.2h-2.2v-2.7h1.9
				C187.7,287.1,188.2,287.1,188.5,287.2z M191.1,295.2c0,0.1-0.1,0.2-0.2,0.3c-0.1,0.1-0.3,0.3-0.5,0.4c-0.2,0.1-0.5,0.2-1.1,0.4
				c-0.3,0.1-0.7,0.1-1.1,0.2c-0.5,0-1.1,0.1-1.8,0.1h-1.1v-3.3h2.2h0.2c0.6,0,1.2,0,1.6,0.1c0.3,0,0.6,0.1,0.9,0.2
				c0.4,0.1,0.7,0.3,0.9,0.5c0.2,0.2,0.2,0.4,0.2,0.7C191.2,294.9,191.2,295,191.1,295.2z"/>
		</g>
		<g>
			
				<ellipse transform="matrix(9.505991e-02 -0.9955 0.9955 9.505991e-02 -117.7222 505.6312)" class="st4" cx="219.2" cy="317.6" rx="16.9" ry="16.9"/>
			<path class="st5" d="M226.4,317.6c-0.2-0.3-0.6-0.6-0.9-0.9c0-0.1,0.1-0.1,0.2-0.2c0.4-0.7,0.6-1.6,0.6-2.5c0-1-0.3-1.8-0.7-2.6
				c-0.5-0.7-1.2-1.2-2.2-1.6v-3.2c0-0.9-0.8-1.7-1.7-1.7c-0.9,0-1.7,0.8-1.7,1.7v2.6c-0.1,0-0.1,0-0.2,0h-0.6v-2.6
				c0-0.9-0.8-1.7-1.7-1.7c-0.9,0-1.7,0.8-1.7,1.7v2.6h-2.9c-0.9,0-1.7,0.8-1.7,1.7c0,0.9,0.8,1.7,1.7,1.7h1.7v4.4v5h-1.7
				c-0.9,0-1.7,0.8-1.7,1.7c0,0.9,0.8,1.7,1.7,1.7h2.9v2.9c0,0.9,0.8,1.7,1.7,1.7c0.9,0,1.7-0.8,1.7-1.7v-2.9c0.3,0,0.5,0,0.8,0v3
				c0,0.9,0.8,1.7,1.7,1.7c0.9,0,1.7-0.8,1.7-1.7V325c0.5-0.1,1-0.3,1.4-0.5c0.6-0.3,1-0.7,1.4-1.1c0.4-0.5,0.7-1,0.9-1.5
				c0.2-0.5,0.2-1,0.2-1.6C227.3,319.3,227,318.3,226.4,317.6z M221.2,312.8c0.3,0,0.6,0.1,0.8,0.1c0.4,0.1,0.6,0.3,0.7,0.4
				c0.1,0.2,0.2,0.5,0.2,0.7c0,0.3-0.1,0.6-0.2,0.8c-0.1,0.2-0.4,0.3-0.6,0.4c-0.2,0.1-0.7,0.2-2,0.2H218v-2.7h1.9
				C220.4,312.7,220.8,312.7,221.2,312.8z M223.8,320.8c0,0.1-0.1,0.2-0.2,0.3c-0.1,0.1-0.3,0.3-0.5,0.4c-0.3,0.1-0.6,0.3-1.1,0.4
				c-0.3,0.1-0.7,0.1-1.1,0.2c-0.5,0-1.1,0.1-1.8,0.1H218v-3.3h2.2h0.2c0.6,0,1.2,0,1.6,0.1c0.3,0,0.6,0.1,0.9,0.2
				c0.4,0.1,0.7,0.3,0.9,0.5c0.2,0.2,0.2,0.4,0.2,0.7C223.9,320.5,223.9,320.7,223.8,320.8z"/>
		</g>
		<g>
			<path class="st4" d="M168.9,314.5c0,9.3-7.6,16.9-16.9,16.9c-9.3,0-16.9-7.6-16.9-16.9c0-9.3,7.6-16.9,16.9-16.9
				C161.4,297.6,168.9,305.2,168.9,314.5z"/>
			<path class="st5" d="M159.2,314.5c-0.2-0.3-0.6-0.6-0.9-0.9c0-0.1,0.1-0.1,0.2-0.2c0.4-0.7,0.6-1.6,0.6-2.5c0-1-0.3-1.8-0.7-2.6
				c-0.5-0.7-1.2-1.2-2.2-1.6v-3.2c0-0.9-0.8-1.7-1.7-1.7s-1.7,0.8-1.7,1.7v2.6c-0.1,0-0.1,0-0.2,0H152v-2.6c0-0.9-0.8-1.7-1.7-1.7
				s-1.7,0.8-1.7,1.7v2.6h-2.9c-0.9,0-1.7,0.8-1.7,1.7c0,0.9,0.8,1.7,1.7,1.7h1.7v4.4v5h-1.7c-0.9,0-1.7,0.8-1.7,1.7
				c0,0.9,0.8,1.7,1.7,1.7h2.9v2.9c0,0.9,0.8,1.7,1.7,1.7s1.7-0.8,1.7-1.7v-2.9c0.3,0,0.5,0,0.8,0v3c0,0.9,0.8,1.7,1.7,1.7
				s1.7-0.8,1.7-1.7v-3.4c0.5-0.1,1-0.3,1.4-0.5c0.6-0.3,1-0.7,1.4-1.1c0.4-0.5,0.7-1,0.9-1.5c0.2-0.5,0.2-1,0.2-1.6
				C160.1,316.2,159.8,315.3,159.2,314.5z M154,309.7c0.3,0,0.6,0.1,0.8,0.1c0.4,0.1,0.6,0.3,0.7,0.4c0.1,0.2,0.2,0.5,0.2,0.7
				c0,0.3-0.1,0.6-0.2,0.8c-0.1,0.2-0.4,0.3-0.6,0.4c-0.2,0.1-0.7,0.2-2,0.2h-2.2v-2.7h1.9C153.2,309.6,153.6,309.7,154,309.7z
				 M156.6,317.8c0,0.1-0.1,0.2-0.2,0.3c-0.1,0.1-0.3,0.3-0.5,0.4c-0.2,0.1-0.5,0.2-1.1,0.4c-0.3,0.1-0.7,0.1-1.1,0.2
				c-0.5,0-1.1,0.1-1.8,0.1h-1.1v-3.3h2.2h0.2c0.6,0,1.2,0,1.6,0.1c0.3,0,0.6,0.1,0.9,0.2c0.4,0.1,0.7,0.3,0.9,0.5
				c0.2,0.2,0.2,0.4,0.2,0.7C156.7,317.4,156.7,317.6,156.6,317.8z"/>
		</g>
	</g>
</g>
<g>
	<rect x="358" y="126.5" class="st6" width="108.5" height="55.2"/>
	<g>
		<path class="st4" d="M466.5,126.5v15.9c-8.8,0-15.9-7.1-15.9-15.9H466.5z"/>
		<path class="st4" d="M466.5,165.8v15.9h-15.9C450.6,172.9,457.7,165.8,466.5,165.8z"/>
		<path class="st4" d="M373.9,126.5c0,8.8-7.1,15.9-15.9,15.9v-15.9H373.9z"/>
		<path class="st4" d="M373.9,181.7H358v-15.9C366.8,165.8,373.9,172.9,373.9,181.7z"/>
	</g>
	<g>
		
			<ellipse transform="matrix(0.3854 -0.9228 0.9228 0.3854 111.1639 475.133)" class="st4" cx="412.3" cy="154.1" rx="21.3" ry="21.3"/>
		<g>
			<g>
				<path class="st5" d="M413.5,155h-5.4c-0.8,0-1.4-0.6-1.4-1.4v-8.4c0-0.8,0.6-1.4,1.4-1.4h4.9c0.9,0,1.7,0,2.3,0.1
					c0.7,0.1,1.3,0.2,1.8,0.3c1.4,0.4,2.4,1.1,3,2.1c0.6,0.9,0.9,2,0.9,3.1c0,1.1-0.3,2.1-0.8,3c-0.5,0.9-1.4,1.7-2.6,2.2
					C416.7,154.8,415.4,155,413.5,155z M409.6,152.1h3.9c1.8,0,2.7-0.2,3.1-0.4c0.6-0.2,1-0.6,1.2-0.9c0.3-0.4,0.4-0.9,0.4-1.5
					c0-0.6-0.1-1.1-0.4-1.5c-0.2-0.4-0.7-0.7-1.5-0.9c-0.3-0.1-0.8-0.2-1.3-0.2c-0.5-0.1-1.2-0.1-2-0.1h-3.5V152.1z"/>
			</g>
			<g>
				<path class="st5" d="M412.1,164.2h-3.9c-0.8,0-1.4-0.6-1.4-1.4v-9.2c0-0.8,0.6-1.4,1.4-1.4h5.7c1.1,0,1.9,0,2.6,0.1
					c0.7,0.1,1.4,0.2,1.9,0.4c1.4,0.4,2.4,1.1,3.1,2.1c0.7,0.9,1,2,1,3.3c0,0.7-0.1,1.3-0.3,1.9c-0.2,0.7-0.6,1.3-1,1.8
					c-0.4,0.5-1,1-1.7,1.3c-0.7,0.4-1.5,0.7-2.5,0.9c-0.6,0.1-1.3,0.2-2.1,0.3C414.1,164.2,413.1,164.2,412.1,164.2z M409.6,161.3
					h2.5c1,0,1.9,0,2.6-0.1c0.7-0.1,1.2-0.1,1.7-0.2c0.7-0.2,1.3-0.4,1.7-0.6c0.4-0.2,0.7-0.5,1-0.7c0.2-0.2,0.3-0.5,0.4-0.7
					c0.1-0.3,0.2-0.7,0.2-1c0-0.6-0.2-1.1-0.5-1.5c-0.3-0.4-0.9-0.8-1.6-1c-0.4-0.1-0.8-0.2-1.4-0.3c-0.6-0.1-1.4-0.1-2.3-0.1h-4.2
					V161.3z"/>
			</g>
			<g>
				<path class="st5" d="M408.2,146.5h-4.7c-0.8,0-1.4-0.6-1.4-1.4c0-0.8,0.6-1.4,1.4-1.4h4.7c0.8,0,1.4,0.6,1.4,1.4
					C409.6,145.9,408.9,146.5,408.2,146.5z"/>
			</g>
			<g>
				<path class="st5" d="M408.2,164.2h-4.7c-0.8,0-1.4-0.6-1.4-1.4c0-0.8,0.6-1.4,1.4-1.4h4.7c0.8,0,1.4,0.6,1.4,1.4
					C409.6,163.5,408.9,164.2,408.2,164.2z"/>
			</g>
			<g>
				<path class="st5" d="M410,146.5c-0.8,0-1.4-0.6-1.4-1.4v-6c0-0.8,0.6-1.4,1.4-1.4c0.8,0,1.4,0.6,1.4,1.4v6
					C411.5,145.9,410.8,146.5,410,146.5z"/>
			</g>
			<g>
				<path class="st5" d="M415.5,146.5c-0.8,0-1.4-0.6-1.4-1.4v-6c0-0.8,0.6-1.4,1.4-1.4c0.8,0,1.4,0.6,1.4,1.4v6
					C416.9,145.9,416.3,146.5,415.5,146.5z"/>
			</g>
			<g>
				<path class="st5" d="M410,170.6c-0.8,0-1.4-0.6-1.4-1.4v-6c0-0.8,0.6-1.4,1.4-1.4c0.8,0,1.4,0.6,1.4,1.4v6
					C411.5,169.9,410.8,170.6,410,170.6z"/>
			</g>
			<g>
				<path class="st5" d="M415.5,170.6c-0.8,0-1.4-0.6-1.4-1.4v-6c0-0.8,0.6-1.4,1.4-1.4c0.8,0,1.4,0.6,1.4,1.4v6
					C416.9,169.9,416.3,170.6,415.5,170.6z"/>
			</g>
		</g>
	</g>
</g>
<g>
	<g>
		<g>
			<polygon class="st7" points="342.3,299.3 342.3,396.4 257,396.4 257,276.3 319.3,276.3 319.3,299.3 			"/>
			<polygon class="st8" points="342.3,299.3 319.3,299.3 319.3,276.3 			"/>
		</g>
		<g>
			<rect x="267.6" y="301.2" class="st9" width="16.2" height="4"/>
			<rect x="289.8" y="301.2" class="st9" width="16.2" height="4"/>
			<rect x="267.6" y="335.3" class="st9" width="16.2" height="4"/>
			<rect x="289.8" y="335.3" class="st9" width="16.2" height="4"/>
			<rect x="267.6" y="380.8" class="st9" width="16.2" height="4"/>
			<rect x="289.8" y="380.8" class="st9" width="16.2" height="4"/>
			<rect x="289.8" y="324" class="st9" width="41.9" height="4"/>
			<rect x="279.7" y="346.7" class="st9" width="41.9" height="4"/>
			<rect x="278.2" y="312.6" class="st9" width="9.4" height="4"/>
			<rect x="292.7" y="312.6" class="st9" width="34.2" height="4"/>
			<rect x="278.2" y="369.4" class="st9" width="9.4" height="4"/>
			<rect x="292.7" y="369.4" class="st9" width="34.2" height="4"/>
			<rect x="291.2" y="358.5" class="st9" width="7.9" height="4"/>
			<rect x="303.2" y="358.5" class="st9" width="28.5" height="4"/>
		</g>
	</g>
	<path class="st6" d="M265.6,345.3c0-7.2-7.8-13-17.5-13c-9.6,0-17.5,5.8-17.5,13c0,6.7,6.8,12.2,15.5,12.9v27.6h-6.9
		c-1.1,0-2,0.9-2,2c0,1.1,0.9,2,2,2h6.9v4.6h-12.3c-1.1,0-2,0.9-2,2s0.9,2,2,2h14.3c1.1,0,2-0.9,2-2v-38.2
		C258.8,357.4,265.6,351.9,265.6,345.3z M248.1,354.3c-7.3,0-13.5-4.1-13.5-9c0-4.9,6.2-9,13.5-9s13.5,4.1,13.5,9
		C261.6,350.1,255.4,354.3,248.1,354.3z"/>
</g>
<g>
	<g>
		<path class="st5" d="M360.9,285.3c-0.6,0-1,0.5-1,1v8.7c0,0.6,0.5,1,1,1s1-0.5,1-1v-8.7C361.9,285.7,361.5,285.3,360.9,285.3z"/>
		<path class="st5" d="M365.9,285.3c-0.6,0-1,0.5-1,1v8.7c0,0.6,0.5,1,1,1c0.6,0,1-0.5,1-1v-8.7
			C366.9,285.7,366.5,285.3,365.9,285.3z"/>
		<path class="st5" d="M370.9,285.3c-0.6,0-1,0.5-1,1v8.7c0,0.6,0.5,1,1,1c0.6,0,1-0.5,1-1v-8.7
			C371.9,285.7,371.5,285.3,370.9,285.3z"/>
		<path class="st5" d="M375.9,285.3c-0.6,0-1,0.5-1,1v8.7c0,0.6,0.5,1,1,1c0.6,0,1-0.5,1-1v-8.7
			C376.9,285.7,376.5,285.3,375.9,285.3z"/>
		<path class="st5" d="M380.9,285.3c-0.6,0-1,0.5-1,1v8.7c0,0.6,0.5,1,1,1c0.6,0,1-0.5,1-1v-8.7
			C381.9,285.7,381.5,285.3,380.9,285.3z"/>
		<path class="st5" d="M385.9,285.3c-0.6,0-1,0.5-1,1v8.7c0,0.6,0.5,1,1,1c0.6,0,1-0.5,1-1v-8.7
			C386.9,285.7,386.5,285.3,385.9,285.3z"/>
		<path class="st5" d="M390.9,285.3c-0.6,0-1,0.5-1,1v8.7c0,0.6,0.5,1,1,1s1-0.5,1-1v-8.7C391.9,285.7,391.5,285.3,390.9,285.3z"/>
		<path class="st5" d="M395.9,285.3c-0.6,0-1,0.5-1,1v8.7c0,0.6,0.5,1,1,1s1-0.5,1-1v-8.7C397,285.7,396.5,285.3,395.9,285.3z"/>
		<path class="st5" d="M360.9,337.9c-0.6,0-1,0.5-1,1v8.7c0,0.6,0.5,1,1,1s1-0.5,1-1V339C361.9,338.4,361.5,337.9,360.9,337.9z"/>
		<path class="st5" d="M365.9,337.9c-0.6,0-1,0.5-1,1v8.7c0,0.6,0.5,1,1,1c0.6,0,1-0.5,1-1V339C366.9,338.4,366.5,337.9,365.9,337.9
			z"/>
		<path class="st5" d="M370.9,337.9c-0.6,0-1,0.5-1,1v8.7c0,0.6,0.5,1,1,1c0.6,0,1-0.5,1-1V339C371.9,338.4,371.5,337.9,370.9,337.9
			z"/>
		<path class="st5" d="M375.9,337.9c-0.6,0-1,0.5-1,1v8.7c0,0.6,0.5,1,1,1c0.6,0,1-0.5,1-1V339C376.9,338.4,376.5,337.9,375.9,337.9
			z"/>
		<path class="st5" d="M380.9,337.9c-0.6,0-1,0.5-1,1v8.7c0,0.6,0.5,1,1,1c0.6,0,1-0.5,1-1V339C381.9,338.4,381.5,337.9,380.9,337.9
			z"/>
		<path class="st5" d="M385.9,337.9c-0.6,0-1,0.5-1,1v8.7c0,0.6,0.5,1,1,1c0.6,0,1-0.5,1-1V339C386.9,338.4,386.5,337.9,385.9,337.9
			z"/>
		<path class="st5" d="M390.9,337.9c-0.6,0-1,0.5-1,1v8.7c0,0.6,0.5,1,1,1s1-0.5,1-1V339C391.9,338.4,391.5,337.9,390.9,337.9z"/>
		<path class="st5" d="M395.9,337.9c-0.6,0-1,0.5-1,1v8.7c0,0.6,0.5,1,1,1s1-0.5,1-1V339C397,338.4,396.5,337.9,395.9,337.9z"/>
		<path class="st5" d="M400.4,300.5h8.7c0.6,0,1-0.5,1-1c0-0.6-0.5-1-1-1h-8.7c-0.6,0-1,0.5-1,1C399.4,300,399.8,300.5,400.4,300.5z
			"/>
		<path class="st5" d="M409.1,303.5h-8.7c-0.6,0-1,0.5-1,1c0,0.6,0.5,1,1,1h8.7c0.6,0,1-0.5,1-1
			C410.1,303.9,409.7,303.5,409.1,303.5z"/>
		<path class="st5" d="M409.1,308.5h-8.7c-0.6,0-1,0.5-1,1c0,0.6,0.5,1,1,1h8.7c0.6,0,1-0.5,1-1
			C410.1,308.9,409.7,308.5,409.1,308.5z"/>
		<path class="st5" d="M409.1,313.5h-8.7c-0.6,0-1,0.5-1,1c0,0.6,0.5,1,1,1h8.7c0.6,0,1-0.5,1-1
			C410.1,313.9,409.7,313.5,409.1,313.5z"/>
		<path class="st5" d="M409.1,318.5h-8.7c-0.6,0-1,0.5-1,1s0.5,1,1,1h8.7c0.6,0,1-0.5,1-1S409.7,318.5,409.1,318.5z"/>
		<path class="st5" d="M409.1,323.5h-8.7c-0.6,0-1,0.5-1,1c0,0.6,0.5,1,1,1h8.7c0.6,0,1-0.5,1-1
			C410.1,323.9,409.7,323.5,409.1,323.5z"/>
		<path class="st5" d="M409.1,328.5h-8.7c-0.6,0-1,0.5-1,1c0,0.6,0.5,1,1,1h8.7c0.6,0,1-0.5,1-1
			C410.1,328.9,409.7,328.5,409.1,328.5z"/>
		<path class="st5" d="M409.1,333.5h-8.7c-0.6,0-1,0.5-1,1c0,0.6,0.5,1,1,1h8.7c0.6,0,1-0.5,1-1C410.1,334,409.7,333.5,409.1,333.5z
			"/>
		<path class="st5" d="M356.4,298.4h-8.7c-0.6,0-1,0.5-1,1c0,0.6,0.5,1,1,1h8.7c0.6,0,1-0.5,1-1C357.5,298.9,357,298.4,356.4,298.4z
			"/>
		<path class="st5" d="M356.4,303.5h-8.7c-0.6,0-1,0.5-1,1c0,0.6,0.5,1,1,1h8.7c0.6,0,1-0.5,1-1C357.5,303.9,357,303.5,356.4,303.5z
			"/>
		<path class="st5" d="M356.4,308.5h-8.7c-0.6,0-1,0.5-1,1c0,0.6,0.5,1,1,1h8.7c0.6,0,1-0.5,1-1C357.5,308.9,357,308.5,356.4,308.5z
			"/>
		<path class="st5" d="M356.4,313.5h-8.7c-0.6,0-1,0.5-1,1c0,0.6,0.5,1,1,1h8.7c0.6,0,1-0.5,1-1C357.5,313.9,357,313.5,356.4,313.5z
			"/>
		<path class="st5" d="M356.4,318.5h-8.7c-0.6,0-1,0.5-1,1s0.5,1,1,1h8.7c0.6,0,1-0.5,1-1S357,318.5,356.4,318.5z"/>
		<path class="st5" d="M356.4,323.5h-8.7c-0.6,0-1,0.5-1,1c0,0.6,0.5,1,1,1h8.7c0.6,0,1-0.5,1-1C357.5,323.9,357,323.5,356.4,323.5z
			"/>
		<path class="st5" d="M356.4,328.5h-8.7c-0.6,0-1,0.5-1,1c0,0.6,0.5,1,1,1h8.7c0.6,0,1-0.5,1-1C357.5,328.9,357,328.5,356.4,328.5z
			"/>
		<path class="st5" d="M356.4,333.5h-8.7c-0.6,0-1,0.5-1,1c0,0.6,0.5,1,1,1h8.7c0.6,0,1-0.5,1-1C357.5,334,357,333.5,356.4,333.5z"
			/>
	</g>
	<g>
		<rect x="356.4" y="295" class="st6" width="44" height="44"/>
		<rect x="362.9" y="301.2" class="st4" width="31.1" height="31.1"/>
	</g>
	<path class="st5" d="M385,317.4c-0.3-0.4-0.8-0.8-1.3-1.1c0.2-0.2,0.4-0.4,0.5-0.7c0.4-0.6,0.5-1.3,0.5-2.1c0-0.8-0.2-1.6-0.6-2.2
		c-0.4-0.7-1.2-1.2-2.2-1.5c0,0-0.1,0-0.1,0v-3.5c0-0.6-0.5-1-1-1c-0.6,0-1,0.5-1,1v3.3c-0.2,0-0.5,0-0.8,0h-1.2v-3.3
		c0-0.6-0.5-1-1-1s-1,0.5-1,1v3.3h-0.2h-3.3c-0.6,0-1,0.5-1,1c0,0.6,0.5,1,1,1h2.3v5v5.6h-2.3c-0.6,0-1,0.5-1,1c0,0.6,0.5,1,1,1h3.3
		h0.2v3.6c0,0.6,0.5,1,1,1s1-0.5,1-1v-3.6h0.5c0.6,0,1.1,0,1.5,0v3.6c0,0.6,0.5,1,1,1c0.6,0,1-0.5,1-1v-3.9c0.7-0.1,1.2-0.3,1.7-0.6
		c0.5-0.3,0.9-0.6,1.2-1c0.3-0.4,0.6-0.8,0.7-1.3c0.1-0.4,0.2-0.9,0.2-1.4C385.7,318.8,385.5,318,385,317.4z M380.4,311.6
		c0.4,0,0.7,0.1,0.9,0.2c0.5,0.2,0.9,0.4,1.1,0.7c0.2,0.3,0.3,0.7,0.3,1.1c0,0.4-0.1,0.8-0.3,1.1c-0.2,0.3-0.5,0.5-0.9,0.7
		c-0.3,0.1-0.9,0.3-2.2,0.3h-2.8v-4h2.5C379.6,311.6,380.1,311.6,380.4,311.6z M383.6,320.4c-0.1,0.2-0.2,0.4-0.3,0.5
		c-0.2,0.2-0.4,0.4-0.7,0.5c-0.3,0.2-0.7,0.3-1.2,0.4c-0.3,0.1-0.7,0.1-1.2,0.2c-0.5,0-1.1,0.1-1.8,0.1h-1.8v-4.5h2.8h0.2
		c0.7,0,1.2,0,1.6,0.1c0.4,0,0.7,0.1,1,0.2c0.6,0.2,1,0.4,1.2,0.7c0.2,0.3,0.3,0.7,0.3,1.1C383.7,320,383.6,320.2,383.6,320.4z"/>
</g>
<g>
	<g>
		<polygon class="st9" points="134,118.8 109.6,142.8 32.1,219.1 39.3,226.3 115.5,149 139.7,124.4 		"/>
		<path class="st7" d="M121.1,137.3c15.8,15.8,24.2,35.7,24.8,54.5c9-19.3,3.5-45.4-15.2-64.1C112,109,85.9,103.5,66.6,112.5
			C85.4,113.1,105.3,121.6,121.1,137.3z"/>
	</g>
	<g>
		<g>
			
				<ellipse transform="matrix(0.8397 -0.543 0.543 0.8397 -84.2147 71.9749)" class="st6" cx="79.8" cy="178.6" rx="46.4" ry="46.4"/>
			
				<ellipse transform="matrix(0.4062 -0.9138 0.9138 0.4062 -115.8448 179.0003)" class="st4" cx="79.8" cy="178.6" rx="35.8" ry="35.8"/>
			<g>
				<path class="st4" d="M78.3,132.3v10.5c0.5,0,1,0,1.5,0c0.5,0,1,0,1.5,0c0,0,0-10.6,0-10.6c-0.5,0-1,0-1.5,0
					C79.3,132.2,78.8,132.3,78.3,132.3z"/>
				<path class="st4" d="M38.9,156.8l9.1,5.3c0.5-0.9,1-1.8,1.6-2.7c0,0-9.1-5.3-9.1-5.3C39.9,155,39.4,155.9,38.9,156.8z"/>
				<path class="st4" d="M60.6,148.4c0.9-0.5,1.8-1,2.7-1.5c0,0-5.3-9.2-5.3-9.2c-0.9,0.5-1.8,1-2.7,1.6L60.6,148.4z"/>
				<path class="st4" d="M115.6,177.1c0,0.5,0,1,0,1.5c0,0.5,0,1,0,1.5c0,0,10.6,0,10.6,0c0-0.5,0-1,0-1.5c0-0.5,0-1,0-1.5
					L115.6,177.1C115.6,177.1,115.6,177.1,115.6,177.1z"/>
				<path class="st4" d="M119.2,154.1l-9.1,5.3c0.5,0.9,1,1.8,1.5,2.7c0,0,9.2-5.3,9.2-5.3C120.3,155.9,119.7,155,119.2,154.1z"/>
				<path class="st4" d="M96.4,146.8c0.9,0.5,1.8,1,2.7,1.6c0,0,5.3-9.1,5.3-9.1c-0.9-0.5-1.8-1.1-2.7-1.6L96.4,146.8z"/>
				<path class="st4" d="M99.1,208.9c-0.9,0.5-1.8,1-2.7,1.5c0,0,5.3,9.2,5.3,9.2c0.9-0.5,1.8-1,2.7-1.6L99.1,208.9z"/>
				<path class="st4" d="M81.4,225v-10.5c-0.5,0-1,0-1.5,0c-0.5,0-1,0-1.5,0c0,0,0,10.6,0,10.6c0.5,0,1,0,1.5,0
					C80.3,225,80.8,225,81.4,225z"/>
				<path class="st4" d="M120.7,200.5l-9.1-5.3c-0.5,0.9-1,1.8-1.6,2.7c0,0,9.1,5.3,9.1,5.3C119.7,202.3,120.3,201.4,120.7,200.5z"
					/>
				<path class="st4" d="M33.5,180.2H44c0-0.5,0-1,0-1.5c0-0.5,0-1,0-1.5c0,0-10.6,0-10.6,0c0,0.5,0,1,0,1.5
					C33.4,179.2,33.4,179.7,33.5,180.2z"/>
				<path class="st4" d="M49.5,197.9c-0.5-0.9-1-1.8-1.5-2.7c0,0-9.2,5.3-9.2,5.3c0.5,0.9,1,1.8,1.6,2.7L49.5,197.9z"/>
				<path class="st4" d="M63.2,210.4c-0.9-0.5-1.8-1-2.7-1.6c0,0-5.3,9.1-5.3,9.1c0.9,0.5,1.8,1.1,2.7,1.6L63.2,210.4z"/>
			</g>
		</g>
		<path class="st5" d="M95.6,182.9c-0.3-0.8-0.7-1.5-1.2-2.2c-0.5-0.6-1.2-1.2-1.9-1.7c-0.7-0.5-1.5-0.9-2.4-1.2v-0.1
			c1.6-0.9,2.7-1.9,3.4-3.2c0.7-1.3,1-2.7,1-4.2c0-0.9-0.1-1.7-0.4-2.6c-0.3-0.9-0.7-1.7-1.3-2.4c-0.6-0.8-1.3-1.5-2.2-2.1
			c-0.9-0.6-1.9-1.1-3.1-1.5c-0.9-0.3-2.1-0.5-3.3-0.7v-5.4h-3.7v5.2h-4v-5.2h-3.7v5.2h-3.9h-5.2v6h5.2v23.7h-5.2v6h5.2h3.9v5.2h3.7
			v-5.2h2.7c0.5,0,0.9,0,1.3,0v5.2h3.7v-5.4c0.5-0.1,1-0.1,1.4-0.2c0.5-0.1,1-0.2,1.5-0.3c1.8-0.5,3.2-1.1,4.4-1.9
			c1.2-0.8,2.1-1.6,2.8-2.6c0.7-0.9,1.2-1.9,1.5-2.9c0.3-1,0.4-1.9,0.4-2.8C96.1,184.6,95.9,183.7,95.6,182.9z M80.6,166.3
			c0.9,0,1.7,0,2.4,0.1c0.6,0.1,1.2,0.2,1.7,0.3c1.2,0.4,2,0.9,2.4,1.6c0.5,0.7,0.7,1.6,0.7,2.5c0,0.9-0.2,1.7-0.6,2.4
			c-0.4,0.7-1.1,1.3-2.1,1.7c-0.9,0.4-2.2,0.5-4,0.5h-5.9v-9.2H80.6z M89.1,187.3c-0.2,0.5-0.4,1-0.8,1.4c-0.4,0.4-0.9,0.8-1.5,1.1
			c-0.6,0.3-1.4,0.6-2.3,0.8c-0.6,0.1-1.3,0.2-2.1,0.3c-0.8,0.1-1.8,0.1-2.9,0.1h-4.3v-10h6.2c1.1,0,2,0,2.7,0.1
			c0.7,0.1,1.3,0.2,1.8,0.3c1.2,0.4,2,0.9,2.6,1.7c0.6,0.7,0.8,1.6,0.8,2.6C89.3,186.3,89.3,186.8,89.1,187.3z"/>
	</g>
</g>
<g>
	<polygon class="st8" points="351.6,195.2 351.6,231.9 355.8,231.9 379.7,231.9 459.4,231.9 459.4,195.2 	"/>
	<polygon class="st2" points="361.1,204.7 361.1,222.4 377.3,222.4 379.7,222.4 449.9,222.4 449.9,204.7 	"/>
	<g>
		<defs>
			<rect id="SVGID_20_" x="381.1" y="213.5" width="48.8" height="65.4"/>
		</defs>
		<clipPath id="SVGID_1_">
			<use xlink:href="#SVGID_20_"  style="overflow:visible;"/>
		</clipPath>
		<g class="st10">
			<rect x="381.1" y="183" class="st6" width="48.8" height="96"/>
			<g>
				<path class="st4" d="M429.9,278.9h-14.1c0-7.8,6.3-14.1,14.1-14.1V278.9z"/>
				<path class="st4" d="M395.1,278.9h-14.1v-14.1C388.8,264.9,395.1,271.2,395.1,278.9z"/>
				<path class="st4" d="M429.9,197c-7.8,0-14.1-6.3-14.1-14.1h14.1V197z"/>
				<path class="st4" d="M381.1,197V183h14.1C395.1,190.7,388.8,197,381.1,197z"/>
			</g>
			<g>
				
					<ellipse transform="matrix(0.1597 -0.9872 0.9872 0.1597 112.7486 594.361)" class="st4" cx="405.5" cy="231" rx="18.9" ry="18.9"/>
				<g>
					<g>
						<path class="st5" d="M404.7,232.1v-4.8c0-0.7,0.6-1.3,1.3-1.3h7.5c0.7,0,1.3,0.6,1.3,1.3v4.3c0,0.8,0,1.5-0.1,2
							c-0.1,0.6-0.2,1.1-0.3,1.6c-0.4,1.2-1,2.1-1.9,2.7c-0.8,0.5-1.7,0.8-2.7,0.8c-1,0-1.8-0.2-2.6-0.7c-0.8-0.5-1.5-1.3-1.9-2.3
							C404.9,234.9,404.7,233.7,404.7,232.1z M407.3,228.6v3.5c0,1.6,0.2,2.4,0.3,2.7c0.2,0.5,0.5,0.9,0.8,1.1
							c0.4,0.2,0.8,0.3,1.3,0.3c0.5,0,1-0.1,1.3-0.4c0.3-0.2,0.6-0.7,0.8-1.3c0.1-0.3,0.2-0.7,0.2-1.1c0-0.5,0.1-1.1,0.1-1.8v-3.1
							H407.3z"/>
					</g>
					<g>
						<path class="st5" d="M396.6,230.8v-3.5c0-0.7,0.6-1.3,1.3-1.3h8.1c0.7,0,1.3,0.6,1.3,1.3v5c0,0.9,0,1.7-0.1,2.3
							c-0.1,0.6-0.2,1.2-0.3,1.7c-0.4,1.2-1,2.1-1.8,2.7c-0.8,0.6-1.8,0.9-2.9,0.9c-0.6,0-1.2-0.1-1.7-0.3c-0.6-0.2-1.1-0.5-1.6-0.9
							c-0.4-0.4-0.8-0.9-1.2-1.5c-0.3-0.6-0.6-1.3-0.8-2.2c-0.1-0.5-0.2-1.1-0.3-1.9C396.6,232.6,396.6,231.7,396.6,230.8z
							 M399.1,228.6v2.2c0,0.9,0,1.6,0.1,2.3c0,0.6,0.1,1.1,0.2,1.5c0.1,0.6,0.3,1.1,0.5,1.5c0.2,0.4,0.4,0.6,0.6,0.8
							c0.2,0.2,0.4,0.3,0.7,0.4c0.3,0.1,0.6,0.1,0.9,0.1c0.5,0,1-0.1,1.4-0.4c0.4-0.3,0.7-0.8,0.9-1.5c0.1-0.3,0.2-0.7,0.2-1.2
							c0.1-0.5,0.1-1.2,0.1-2v-3.7H399.1z"/>
					</g>
					<g>
						<path class="st5" d="M412.2,227.3v-4.1c0-0.7,0.6-1.3,1.3-1.3s1.3,0.6,1.3,1.3v4.1c0,0.7-0.6,1.3-1.3,1.3
							S412.2,228,412.2,227.3z"/>
					</g>
					<g>
						<path class="st5" d="M396.6,227.3v-4.1c0-0.7,0.6-1.3,1.3-1.3s1.3,0.6,1.3,1.3v4.1c0,0.7-0.6,1.3-1.3,1.3
							S396.6,228,396.6,227.3z"/>
					</g>
					<g>
						<path class="st5" d="M412.2,229c0-0.7,0.6-1.3,1.3-1.3h5.3c0.7,0,1.3,0.6,1.3,1.3c0,0.7-0.6,1.3-1.3,1.3h-5.3
							C412.8,230.2,412.2,229.7,412.2,229z"/>
					</g>
					<g>
						<path class="st5" d="M412.2,233.8c0-0.7,0.6-1.3,1.3-1.3h5.3c0.7,0,1.3,0.6,1.3,1.3c0,0.7-0.6,1.3-1.3,1.3h-5.3
							C412.8,235.1,412.2,234.5,412.2,233.8z"/>
					</g>
					<g>
						<path class="st5" d="M390.9,229c0-0.7,0.6-1.3,1.3-1.3h5.3c0.7,0,1.3,0.6,1.3,1.3c0,0.7-0.6,1.3-1.3,1.3h-5.3
							C391.5,230.2,390.9,229.7,390.9,229z"/>
					</g>
					<g>
						<path class="st5" d="M390.9,233.8c0-0.7,0.6-1.3,1.3-1.3h5.3c0.7,0,1.3,0.6,1.3,1.3c0,0.7-0.6,1.3-1.3,1.3h-5.3
							C391.5,235.1,390.9,234.5,390.9,233.8z"/>
					</g>
				</g>
			</g>
		</g>
	</g>
</g>
<g>
	<g>
		<path class="st11" d="M92.8,227.5c0,0-20.6,17.6-43.7,17.6c0,77.5,43.7,88.9,43.7,88.9l0.5,0.2c0,0,43.6-11.8,42.8-89.3
			C113.1,245.1,92.8,227.5,92.8,227.5z"/>
		<path class="st12" d="M93.1,322.1c-7.6-3.6-29.8-18.1-32.5-66.9c13.4-2.6,25-9,32.1-13.8c7,4.7,18.6,11.2,32,13.6
			C122.4,302.7,100.9,318.1,93.1,322.1z"/>
	</g>
	<path class="st4" d="M106.5,282.3c-0.8-1-1.8-1.9-3.2-2.5c0.6-0.5,1.1-1.1,1.5-1.7c0.7-1.3,1.1-2.8,1.1-4.4c0-1.7-0.4-3.2-1.3-4.5
		c-0.9-1.4-2.4-2.4-4.5-3.1c-0.6-0.2-1.3-0.3-2.1-0.4V258c0-1-0.8-1.8-1.8-1.8c-1,0-1.8,0.8-1.8,1.8v7.5c-0.2,0-0.4,0-0.6,0h-1.6
		V258c0-1-0.8-1.8-1.8-1.8c-1,0-1.8,0.8-1.8,1.8v7.5h-2.5H79c-1,0-1.8,0.8-1.8,1.8c0,1,0.8,1.8,1.8,1.8h5.5v11.3v12.5H79
		c-1,0-1.8,0.8-1.8,1.8c0,1,0.8,1.8,1.8,1.8h7.2h2.5v8.1c0,1,0.8,1.8,1.8,1.8c1,0,1.8-0.8,1.8-1.8v-8.1c0.8,0,1.5,0,2.2,0v8.2
		c0,1,0.8,1.8,1.8,1.8c1,0,1.8-0.8,1.8-1.8v-8.4c0.7-0.1,1.3-0.2,1.8-0.3c1.4-0.3,2.7-0.7,3.7-1.3c1-0.6,1.9-1.2,2.6-2
		c0.7-0.8,1.2-1.7,1.5-2.6c0.3-0.9,0.4-1.8,0.4-2.8C108,285.3,107.5,283.7,106.5,282.3z M97,269.2c0.8,0.1,1.5,0.2,2,0.4
		c1.2,0.4,2.1,0.9,2.5,1.6c0.5,0.8,0.7,1.6,0.7,2.6c0,1-0.2,1.8-0.6,2.6c-0.4,0.7-1.1,1.2-2.1,1.7c-0.7,0.3-2.1,0.6-5,0.6H88v-9.5
		h5.8C95.1,269.1,96.2,269.1,97,269.2z M104.2,288.9c-0.2,0.5-0.4,0.9-0.8,1.3c-0.4,0.4-0.9,0.8-1.6,1.2c-0.7,0.4-1.6,0.7-2.8,1
		c-0.7,0.2-1.6,0.3-2.7,0.4c-1.1,0.1-2.5,0.1-4,0.1H88v-10.7h6.6H95c1.5,0,2.7,0,3.6,0.1c0.9,0.1,1.6,0.2,2.2,0.4
		c1.3,0.4,2.2,1,2.8,1.7c0.6,0.8,0.8,1.6,0.8,2.7C104.4,287.7,104.3,288.3,104.2,288.9z"/>
</g>
<g>
	<path class="st7" d="M140.8,248c0,0,0,5.2,0,11.7c0,6.5,8.1,11.7,18.2,11.7h181.8c10,0,18.2-5.2,18.2-11.7V248H140.8z"/>
	<rect x="239" y="256.1" class="st3" width="21.8" height="7.3"/>
	<rect x="153.8" y="118.2" class="st2" width="192.2" height="129.9"/>
	<g>
		<defs>
			
				<rect id="SVGID_4_" x="195.9" y="97.9" transform="matrix(6.123234e-17 -1 1 6.123234e-17 66.826 433.0202)" width="108.1" height="170.4"/>
		</defs>
		<clipPath id="SVGID_2_">
			<use xlink:href="#SVGID_4_"  style="overflow:visible;"/>
		</clipPath>
		<g class="st13">
			<g>
				<polygon class="st6" points="335.5,143 314.9,149.9 290.5,181.4 263.3,167.2 239.1,191 210.8,185.4 185.7,215.4 159.8,244.4 
					159.8,112.6 335.3,112.6 				"/>
				<polygon class="st5" points="335.3,244.4 159.8,244.4 185.7,215.4 210.8,185.4 239.1,191 263.3,167.2 290.5,181.4 314.9,149.9 
					335.5,143 				"/>
			</g>
			<path class="st4" d="M285.7,190.3c-0.6-1.6-1.4-3-2.4-4.3c-1-1.3-2.3-2.4-3.7-3.3c-1.4-0.9-3-1.7-4.8-2.3v-0.2
				c3.1-1.7,5.4-3.8,6.7-6.3c1.4-2.5,2-5.3,2-8.3c0-1.7-0.3-3.4-0.8-5.1c-0.5-1.7-1.4-3.3-2.5-4.8c-1.1-1.5-2.6-2.9-4.3-4.1
				c-1.7-1.2-3.8-2.2-6.2-3c-1.8-0.6-4-1-6.6-1.3v-10.5h-7.3V147H248v-10.3h-7.3V147H233h-10.3v11.7H233v46.4h-10.3v11.7H233h7.7
				v10.3h7.3v-10.3h5.3c0.9,0,1.8,0,2.6,0v10.3h7.3v-10.7c1-0.1,2-0.2,2.8-0.4c1-0.2,2-0.4,2.8-0.6c3.4-0.9,6.3-2.1,8.6-3.7
				c2.3-1.5,4.1-3.2,5.4-5c1.4-1.8,2.3-3.7,2.8-5.7c0.5-1.9,0.8-3.8,0.8-5.5C286.5,193.6,286.2,191.9,285.7,190.3z M256.2,157.7
				c1.8,0,3.4,0.1,4.6,0.2c1.3,0.1,2.3,0.3,3.3,0.6c2.3,0.7,3.9,1.8,4.8,3.2c0.9,1.4,1.4,3.1,1.4,4.9c0,1.8-0.4,3.4-1.2,4.8
				c-0.8,1.4-2.2,2.5-4.1,3.3c-1.7,0.7-4.3,1-7.8,1h-11.5v-18.1H256.2z M272.8,198.9c-0.3,1-0.8,1.9-1.6,2.7
				c-0.7,0.8-1.7,1.5-2.9,2.2c-1.2,0.6-2.7,1.2-4.4,1.5c-1.1,0.3-2.5,0.5-4.1,0.6c-1.6,0.1-3.5,0.2-5.7,0.2h-8.4v-19.7h12.1
				c2.1,0,3.9,0.1,5.2,0.2c1.4,0.1,2.5,0.4,3.5,0.7c2.3,0.7,4,1.8,5.1,3.3c1.1,1.5,1.6,3.2,1.6,5.1
				C273.3,196.8,273.2,197.9,272.8,198.9z"/>
			<polygon class="st14" points="335.3,141.3 313.9,148.6 290,179.4 263,165.2 238.5,189.3 210.2,183.7 184.5,214.3 159.8,242 
				159.8,244.4 161.9,244.4 187,216.4 211.4,187.2 239.6,192.8 263.6,169.2 290.9,183.4 315.8,151.3 335.3,144.7 			"/>
			<g>
				<path class="st12" d="M192.7,215.4c0,3.9-3.1,7-7,7c-3.9,0-7-3.1-7-7c0-3.9,3.1-7,7-7C189.6,208.4,192.7,211.5,192.7,215.4z"/>
				<path class="st12" d="M217.8,185.8c0,3.9-3.1,7-7,7c-3.9,0-7-3.1-7-7s3.1-7,7-7C214.7,178.8,217.8,181.9,217.8,185.8z"/>
				<circle class="st12" cx="239.1" cy="190.6" r="7"/>
				<path class="st12" d="M270.3,167.3c0,3.9-3.1,7-7,7s-7-3.1-7-7c0-3.9,3.1-7,7-7S270.3,163.4,270.3,167.3z"/>
				<path class="st12" d="M297.5,181.8c0,3.9-3.1,7-7,7c-3.9,0-7-3.1-7-7c0-3.9,3.1-7,7-7C294.3,174.8,297.5,177.9,297.5,181.8z"/>
				<path class="st12" d="M322,149.7c0,3.9-3.1,7-7,7c-3.9,0-7-3.1-7-7c0-3.9,3.1-7,7-7C318.9,142.6,322,145.8,322,149.7z"/>
			</g>
		</g>
	</g>
</g>
<g>
	<path class="st4" d="M149.7,221.4c0,9.3-7.6,16.9-16.9,16.9c-9.3,0-16.9-7.6-16.9-16.9c0-9.3,7.6-16.9,16.9-16.9
		C142.2,204.6,149.7,212.1,149.7,221.4z"/>
	<path class="st5" d="M140,221.4c-0.2-0.3-0.6-0.6-0.9-0.9c0-0.1,0.1-0.1,0.2-0.2c0.4-0.7,0.6-1.6,0.6-2.5c0-1-0.3-1.8-0.7-2.6
		c-0.5-0.7-1.2-1.2-2.2-1.6v-3.2c0-0.9-0.8-1.7-1.7-1.7c-0.9,0-1.7,0.8-1.7,1.7v2.6c-0.1,0-0.1,0-0.2,0h-0.6v-2.6
		c0-0.9-0.8-1.7-1.7-1.7c-0.9,0-1.7,0.8-1.7,1.7v2.6h-2.9c-0.9,0-1.7,0.8-1.7,1.7s0.8,1.7,1.7,1.7h1.7v4.4v5h-1.7
		c-0.9,0-1.7,0.8-1.7,1.7c0,0.9,0.8,1.7,1.7,1.7h2.9v2.9c0,0.9,0.8,1.7,1.7,1.7c0.9,0,1.7-0.8,1.7-1.7v-2.9c0.3,0,0.5,0,0.8,0v3
		c0,0.9,0.8,1.7,1.7,1.7c0.9,0,1.7-0.8,1.7-1.7v-3.4c0.5-0.1,1-0.3,1.4-0.5c0.6-0.3,1-0.7,1.4-1.1c0.4-0.5,0.7-1,0.9-1.5
		c0.2-0.5,0.2-1,0.2-1.6C140.9,223.1,140.6,222.2,140,221.4z M134.8,216.7c0.3,0,0.6,0.1,0.8,0.1c0.4,0.1,0.6,0.3,0.7,0.4
		c0.1,0.2,0.2,0.5,0.2,0.7c0,0.3-0.1,0.6-0.2,0.8c-0.1,0.2-0.4,0.3-0.6,0.4c-0.2,0.1-0.7,0.2-2,0.2h-2.2v-2.7h1.9
		C134,216.6,134.5,216.6,134.8,216.7z M137.4,224.7c0,0.1-0.1,0.2-0.2,0.3c-0.1,0.1-0.3,0.3-0.5,0.4c-0.2,0.1-0.5,0.2-1.1,0.4
		c-0.3,0.1-0.7,0.1-1.1,0.2c-0.5,0-1.1,0.1-1.8,0.1h-1.1v-3.3h2.2h0.2c0.6,0,1.2,0,1.6,0.1c0.3,0,0.6,0.1,0.9,0.2
		c0.4,0.1,0.7,0.3,0.9,0.5c0.2,0.2,0.2,0.4,0.2,0.7C137.5,224.4,137.5,224.6,137.4,224.7z"/>
</g>
<g id="Eye_3_">
	<path class="st7" d="M136.6,339.1c-16.2,0-28.2,15.3-28.2,15.3c-0.9,0,11.4,15.3,28.2,15.3c16.8,0,28-15.3,28-15.3
		S151.4,339.1,136.6,339.1z"/>
	<path class="st9" d="M150.1,354.3c0,7.4-6,13.4-13.4,13.4c-7.4,0-13.4-6-13.4-13.4c0-7.4,6-13.4,13.4-13.4
		C144.1,340.9,150.1,346.9,150.1,354.3z"/>
	<path class="st2" d="M143.7,354.3c0,3.9-3.2,7.1-7.1,7.1c-3.9,0-7.1-3.2-7.1-7.1c0-3.9,3.2-7.1,7.1-7.1
		C140.5,347.3,143.7,350.4,143.7,354.3z"/>
	<path class="st14" d="M145.2,349.3c0,1.9-1.6,3.5-3.5,3.5c-1.9,0-3.5-1.6-3.5-3.5c0-2,1.6-3.5,3.5-3.5
		C143.7,345.7,145.2,347.3,145.2,349.3z"/>
</g>
</svg>
