<svg xmlns="http://www.w3.org/2000/svg" xmlns:xlink="http://www.w3.org/1999/xlink" width="500" zoomAndPan="magnify" viewBox="0 0 375 374.999991" height="500" preserveAspectRatio="xMidYMid meet" version="1.0"><defs><g/><clipPath id="id1"><path d="M 65.652344 167.34375 L 309.402344 167.34375 L 309.402344 207.84375 L 65.652344 207.84375 Z M 65.652344 167.34375 " clip-rule="nonzero"/></clipPath></defs><g fill="#ee500e" fill-opacity="1"><g transform="translate(145.112134, 253.874983)"><g><path d="M 33.007812 -111.421875 L 42.675781 -111.421875 C 49.316406 -111.421875 53.90625 -107.613281 53.90625 -99.410156 L 53.90625 -35.449219 C 53.90625 -28.808594 49.707031 -23.730469 43.164062 -23.535156 L 33.007812 -23.535156 Z M 7.03125 -3.710938 C 7.03125 -1.367188 8.105469 0 10.351562 0 L 44.433594 0 C 64.355469 -0.195312 79.878906 -12.207031 79.878906 -34.667969 L 79.878906 -100.484375 C 79.878906 -122.847656 64.453125 -134.957031 44.238281 -135.152344 L 10.351562 -135.152344 C 8.300781 -135.152344 7.03125 -133.6875 7.03125 -131.34375 Z M 7.03125 -3.710938 "/></g></g></g><g clip-path="url(#id1)"><path fill="#0c59e7" d="M 65.65625 167.34375 L 309.398438 167.34375 L 309.398438 207.84375 L 65.65625 207.84375 L 65.65625 167.34375 " fill-opacity="1" fill-rule="nonzero"/></g><g fill="#ffffff" fill-opacity="1"><g transform="translate(97.284571, 193.874987)"><g><path d="M 2.96875 -10.023438 L 3.839844 -10.023438 C 4.4375 -10.023438 4.847656 -9.679688 4.847656 -8.945312 L 4.847656 -3.1875 C 4.847656 -2.589844 4.472656 -2.136719 3.882812 -2.117188 L 2.96875 -2.117188 Z M 0.632812 -0.332031 C 0.632812 -0.121094 0.730469 0 0.929688 0 L 3.996094 0 C 5.789062 -0.015625 7.1875 -1.097656 7.1875 -3.117188 L 7.1875 -9.039062 C 7.1875 -11.050781 5.796875 -12.140625 3.980469 -12.160156 L 0.929688 -12.160156 C 0.746094 -12.160156 0.632812 -12.027344 0.632812 -11.816406 Z M 0.632812 -0.332031 "/></g></g></g><g fill="#ffffff" fill-opacity="1"><g transform="translate(114.178472, 193.874987)"><g><path d="M 4.859375 -7.527344 C 4.859375 -6.933594 4.488281 -6.535156 3.785156 -6.535156 L 2.96875 -6.535156 L 2.96875 -10.023438 L 3.847656 -10.023438 C 4.453125 -10.023438 4.859375 -9.621094 4.859375 -8.988281 Z M 6.808594 -0.0078125 C 7.046875 -0.0078125 7.125 -0.21875 7.125 -0.378906 L 7.125 -1.960938 C 7.125 -3.714844 6.738281 -4.824219 5.949219 -5.492188 C 6.660156 -5.964844 7.203125 -6.6875 7.203125 -7.730469 L 7.203125 -8.988281 C 7.203125 -10.734375 5.84375 -12.160156 4.03125 -12.160156 L 0.929688 -12.160156 C 0.746094 -12.160156 0.632812 -12.027344 0.632812 -11.816406 L 0.632812 -0.324219 C 0.632812 -0.121094 0.71875 0 0.921875 0 L 2.679688 0 C 2.871094 0 2.96875 -0.121094 2.96875 -0.324219 L 2.96875 -4.726562 C 4.171875 -4.648438 4.789062 -3.9375 4.789062 -2.242188 L 4.789062 -0.402344 C 4.789062 -0.140625 4.988281 -0.0078125 5.191406 -0.0078125 Z M 6.808594 -0.0078125 "/></g></g></g><g fill="#ffffff" fill-opacity="1"><g transform="translate(131.125072, 193.874987)"><g><path d="M 2.96875 -11.816406 C 2.96875 -12.027344 2.882812 -12.160156 2.679688 -12.160156 L 0.921875 -12.160156 C 0.738281 -12.160156 0.632812 -12.027344 0.632812 -11.816406 L 0.632812 -0.332031 C 0.632812 -0.121094 0.71875 0 0.921875 0 L 2.679688 0 C 2.882812 0 2.96875 -0.121094 2.96875 -0.332031 Z M 2.96875 -11.816406 "/></g></g></g><g fill="#ffffff" fill-opacity="1"><g transform="translate(144.004993, 193.874987)"><g><path d="M 6.203125 -11.84375 C 6.203125 -12.054688 6.105469 -12.160156 5.964844 -12.160156 L 0.929688 -12.160156 C 0.746094 -12.160156 0.632812 -12.027344 0.632812 -11.816406 L 0.632812 -0.332031 C 0.632812 -0.121094 0.730469 0 0.929688 0 L 2.6875 0 C 2.890625 0 2.96875 -0.121094 2.96875 -0.332031 L 2.96875 -4.917969 L 5.28125 -4.917969 C 5.4375 -4.917969 5.542969 -5.023438 5.542969 -5.226562 L 5.542969 -6.722656 C 5.542969 -6.949219 5.421875 -7.027344 5.28125 -7.027344 L 2.96875 -7.027344 L 2.96875 -10.023438 L 5.964844 -10.023438 C 6.105469 -10.023438 6.203125 -10.128906 6.203125 -10.347656 Z M 6.203125 -11.84375 "/></g></g></g><g fill="#ffffff" fill-opacity="1"><g transform="translate(159.598958, 193.874987)"><g><path d="M 5.859375 -10.023438 C 6.007812 -10.023438 6.113281 -10.128906 6.113281 -10.339844 L 6.113281 -11.84375 C 6.113281 -12.054688 6.007812 -12.160156 5.859375 -12.160156 L 0.246094 -12.160156 C 0.0976562 -12.160156 -0.0078125 -12.042969 -0.0078125 -11.832031 L -0.0078125 -10.339844 C -0.0078125 -10.128906 0.0976562 -10.023438 0.246094 -10.023438 L 1.878906 -10.023438 L 1.878906 -0.308594 C 1.878906 -0.105469 1.984375 0 2.136719 0 L 3.972656 0 C 4.113281 0 4.226562 -0.105469 4.226562 -0.308594 L 4.226562 -10.023438 Z M 5.859375 -10.023438 "/></g></g></g><g fill="#ffffff" fill-opacity="1"><g transform="translate(174.964555, 193.874987)"><g/></g></g><g fill="#ffffff" fill-opacity="1"><g transform="translate(188.309985, 193.874987)"><g><path d="M 8.996094 -0.351562 C 8.996094 -0.167969 9.09375 0 9.277344 0 L 11.0625 0 C 11.253906 0 11.332031 -0.175781 11.332031 -0.351562 L 11.332031 -9.304688 C 11.332031 -10.992188 9.804688 -12.351562 8.046875 -12.351562 C 7.257812 -12.351562 6.511719 -12.078125 5.9375 -11.625 C 5.359375 -12.078125 4.613281 -12.351562 3.832031 -12.351562 C 2.074219 -12.351562 0.554688 -10.992188 0.554688 -9.304688 L 0.554688 -0.34375 C 0.554688 -0.15625 0.660156 0 0.78125 0 L 2.636719 0 C 2.847656 0 2.898438 -0.148438 2.898438 -0.34375 L 2.898438 -9.171875 C 2.898438 -9.726562 3.242188 -10.226562 3.839844 -10.226562 C 4.429688 -10.226562 4.769531 -9.726562 4.769531 -9.171875 L 4.769531 -0.34375 C 4.769531 -0.15625 4.882812 0 5.007812 0 L 6.863281 0 C 7.070312 0 7.117188 -0.148438 7.117188 -0.332031 L 7.117188 -9.207031 C 7.132812 -9.742188 7.476562 -10.226562 8.054688 -10.226562 C 8.644531 -10.226562 8.996094 -9.726562 8.996094 -9.171875 Z M 8.996094 -0.351562 "/></g></g></g><g fill="#ffffff" fill-opacity="1"><g transform="translate(209.463809, 193.874987)"><g><path d="M 2.96875 -11.816406 C 2.96875 -12.027344 2.882812 -12.160156 2.679688 -12.160156 L 0.921875 -12.160156 C 0.738281 -12.160156 0.632812 -12.027344 0.632812 -11.816406 L 0.632812 -0.332031 C 0.632812 -0.121094 0.71875 0 0.921875 0 L 2.679688 0 C 2.882812 0 2.96875 -0.121094 2.96875 -0.332031 Z M 2.96875 -11.816406 "/></g></g></g><g fill="#ffffff" fill-opacity="1"><g transform="translate(222.343733, 193.874987)"><g><path d="M 6.835938 0 C 7.027344 0 7.117188 -0.175781 7.117188 -0.351562 L 7.117188 -9.304688 C 7.117188 -10.992188 5.585938 -12.351562 3.832031 -12.351562 C 2.074219 -12.351562 0.554688 -10.992188 0.554688 -9.304688 L 0.554688 -0.34375 C 0.554688 -0.15625 0.648438 0 0.78125 0 L 2.636719 0 C 2.835938 0 2.898438 -0.148438 2.898438 -0.34375 L 2.898438 -9.171875 C 2.898438 -9.726562 3.242188 -10.226562 3.839844 -10.226562 C 4.429688 -10.226562 4.769531 -9.726562 4.769531 -9.171875 L 4.769531 -0.351562 C 4.769531 -0.167969 4.875 0 5.050781 0 Z M 6.835938 0 "/></g></g></g><g fill="#ffffff" fill-opacity="1"><g transform="translate(239.28156, 193.874987)"><g><path d="M 2.96875 -2.117188 L 2.96875 -5.09375 L 5.535156 -5.09375 C 5.703125 -5.09375 5.816406 -5.183594 5.816406 -5.394531 L 5.816406 -6.898438 C 5.816406 -7.117188 5.683594 -7.203125 5.535156 -7.203125 L 2.96875 -7.203125 L 2.96875 -10.023438 L 6.183594 -10.023438 C 6.34375 -10.023438 6.429688 -10.128906 6.429688 -10.339844 L 6.429688 -11.832031 C 6.429688 -12.054688 6.34375 -12.160156 6.183594 -12.160156 L 0.929688 -12.160156 C 0.746094 -12.160156 0.632812 -12.027344 0.632812 -11.816406 L 0.632812 -0.332031 C 0.632812 -0.121094 0.730469 0 0.929688 0 L 6.230469 0 C 6.371094 0 6.484375 -0.0976562 6.484375 -0.308594 L 6.484375 -1.820312 C 6.484375 -2.019531 6.371094 -2.117188 6.230469 -2.117188 Z M 2.96875 -2.117188 "/></g></g></g><g fill="#ffffff" fill-opacity="1"><g transform="translate(255.235653, 193.874987)"><g><path d="M 4.859375 -7.527344 C 4.859375 -6.933594 4.488281 -6.535156 3.785156 -6.535156 L 2.96875 -6.535156 L 2.96875 -10.023438 L 3.847656 -10.023438 C 4.453125 -10.023438 4.859375 -9.621094 4.859375 -8.988281 Z M 6.808594 -0.0078125 C 7.046875 -0.0078125 7.125 -0.21875 7.125 -0.378906 L 7.125 -1.960938 C 7.125 -3.714844 6.738281 -4.824219 5.949219 -5.492188 C 6.660156 -5.964844 7.203125 -6.6875 7.203125 -7.730469 L 7.203125 -8.988281 C 7.203125 -10.734375 5.84375 -12.160156 4.03125 -12.160156 L 0.929688 -12.160156 C 0.746094 -12.160156 0.632812 -12.027344 0.632812 -11.816406 L 0.632812 -0.324219 C 0.632812 -0.121094 0.71875 0 0.921875 0 L 2.679688 0 C 2.871094 0 2.96875 -0.121094 2.96875 -0.324219 L 2.96875 -4.726562 C 4.171875 -4.648438 4.789062 -3.9375 4.789062 -2.242188 L 4.789062 -0.402344 C 4.789062 -0.140625 4.988281 -0.0078125 5.191406 -0.0078125 Z M 6.808594 -0.0078125 "/></g></g></g><g fill="#ffffff" fill-opacity="1"><g transform="translate(272.182257, 193.874987)"><g><path d="M 4.417969 -8.636719 C 4.417969 -8.390625 4.453125 -8.300781 4.675781 -8.300781 L 6.246094 -8.300781 C 6.527344 -8.300781 6.589844 -8.390625 6.589844 -8.636719 L 6.589844 -9.136719 C 6.589844 -11.078125 5.289062 -12.34375 3.46875 -12.34375 C 2.242188 -12.34375 0.351562 -11.472656 0.351562 -9.191406 C 0.351562 -7.175781 1.175781 -6.597656 3.011719 -5.105469 C 4.09375 -4.226562 4.550781 -3.832031 4.550781 -2.976562 C 4.550781 -2.335938 4.101562 -1.933594 3.550781 -1.933594 C 3.101562 -1.933594 2.546875 -2.214844 2.546875 -3.09375 L 2.546875 -3.488281 C 2.546875 -3.75 2.496094 -3.847656 2.25 -3.847656 L 0.648438 -3.847656 C 0.402344 -3.847656 0.351562 -3.726562 0.351562 -3.425781 L 0.351562 -2.960938 C 0.351562 -1.308594 1.414062 0.191406 3.53125 0.191406 C 5.472656 0.191406 6.773438 -1.210938 6.773438 -2.855469 C 6.773438 -5.078125 5.464844 -6.035156 3.820312 -7.308594 C 3.039062 -7.914062 2.519531 -8.292969 2.519531 -9.128906 C 2.519531 -9.925781 3.03125 -10.234375 3.46875 -10.234375 C 4.101562 -10.234375 4.417969 -9.734375 4.417969 -9.128906 Z M 4.417969 -8.636719 "/></g></g></g><path stroke-linecap="butt" transform="matrix(1.500563, 0, 0, 1.5, 93.783896, 168.092773)" fill="none" stroke-linejoin="miter" d="M 0.000839891 0.000651359 L 124.953974 0.000651359 " stroke="#ffffff" stroke-width="1" stroke-opacity="1" stroke-miterlimit="4"/><path stroke-linecap="butt" transform="matrix(1.500563, 0, 0, 1.5, 93.783896, 206.907217)" fill="none" stroke-linejoin="miter" d="M 0.000839891 -0.000644542 L 124.953974 -0.000644542 " stroke="#ffffff" stroke-width="1" stroke-opacity="1" stroke-miterlimit="4"/></svg>