<svg xmlns="http://www.w3.org/2000/svg" xmlns:xlink="http://www.w3.org/1999/xlink" width="157" zoomAndPan="magnify" viewBox="0 0 117.75 39.749999" height="53" preserveAspectRatio="xMidYMid meet" version="1.0"><defs><g/><clipPath id="id1"><path d="M 49.035156 17.414062 L 80.402344 17.414062 L 80.402344 21.894531 L 49.035156 21.894531 Z M 49.035156 17.414062 " clip-rule="nonzero"/></clipPath></defs><g fill="#ee500e" fill-opacity="1"><g transform="translate(32.421827, 29.529927)"><g/></g></g><g fill="#ee500e" fill-opacity="1"><g transform="translate(40.43066, 29.529927)"><g/></g></g><g fill="#ee500e" fill-opacity="1"><g transform="translate(48.436981, 29.529927)"><g><path d="M 4.78125 -16.136719 L 6.179688 -16.136719 C 7.140625 -16.136719 7.808594 -15.585938 7.808594 -14.398438 L 7.808594 -5.132812 C 7.808594 -4.171875 7.199219 -3.4375 6.25 -3.410156 L 4.78125 -3.410156 Z M 1.019531 -0.539062 C 1.019531 -0.199219 1.175781 0 1.5 0 L 6.433594 0 C 9.320312 -0.0273438 11.570312 -1.769531 11.570312 -5.019531 L 11.570312 -14.554688 C 11.570312 -17.792969 9.335938 -19.546875 6.40625 -19.574219 L 1.5 -19.574219 C 1.203125 -19.574219 1.019531 -19.363281 1.019531 -19.023438 Z M 1.019531 -0.539062 "/></g></g></g><g fill="#ee500e" fill-opacity="1"><g transform="translate(62.157718, 29.529927)"><g><path d="M 14.484375 -0.566406 C 14.484375 -0.269531 14.636719 0 14.933594 0 L 17.804688 0 C 18.117188 0 18.246094 -0.28125 18.246094 -0.566406 L 18.246094 -14.976562 C 18.246094 -17.695312 15.785156 -19.886719 12.957031 -19.886719 C 11.683594 -19.886719 10.480469 -19.445312 9.5625 -18.710938 C 8.628906 -19.445312 7.425781 -19.886719 6.167969 -19.886719 C 3.335938 -19.886719 0.890625 -17.695312 0.890625 -14.976562 L 0.890625 -0.550781 C 0.890625 -0.253906 1.0625 0 1.257812 0 L 4.242188 0 C 4.582031 0 4.667969 -0.242188 4.667969 -0.550781 L 4.667969 -14.765625 C 4.667969 -15.65625 5.21875 -16.464844 6.179688 -16.464844 C 7.128906 -16.464844 7.679688 -15.65625 7.679688 -14.765625 L 7.679688 -0.550781 C 7.679688 -0.253906 7.863281 0 8.0625 0 L 11.046875 0 C 11.386719 0 11.457031 -0.242188 11.457031 -0.539062 L 11.457031 -14.820312 C 11.484375 -15.683594 12.035156 -16.464844 12.96875 -16.464844 C 13.917969 -16.464844 14.484375 -15.65625 14.484375 -14.765625 Z M 14.484375 -0.566406 "/></g></g></g><g clip-path="url(#id1)"><path fill="#ffffff" d="M 49.039062 17.414062 L 80.398438 17.414062 L 80.398438 21.894531 L 49.039062 21.894531 L 49.039062 17.414062 " fill-opacity="1" fill-rule="nonzero"/></g><g fill="#000000" fill-opacity="1"><g transform="translate(53.507046, 20.553501)"><g><path d="M 0.402344 -1.355469 L 0.519531 -1.355469 C 0.601562 -1.355469 0.65625 -1.308594 0.65625 -1.210938 L 0.65625 -0.429688 C 0.65625 -0.351562 0.605469 -0.289062 0.523438 -0.285156 L 0.402344 -0.285156 Z M 0.0859375 -0.046875 C 0.0859375 -0.015625 0.0976562 0 0.125 0 L 0.539062 0 C 0.78125 -0.00390625 0.972656 -0.148438 0.972656 -0.421875 L 0.972656 -1.222656 C 0.972656 -1.496094 0.785156 -1.640625 0.539062 -1.644531 L 0.125 -1.644531 C 0.101562 -1.644531 0.0859375 -1.625 0.0859375 -1.597656 Z M 0.0859375 -0.046875 "/></g></g></g><g fill="#000000" fill-opacity="1"><g transform="translate(55.791969, 20.553501)"><g><path d="M 0.65625 -1.019531 C 0.65625 -0.9375 0.605469 -0.882812 0.511719 -0.882812 L 0.402344 -0.882812 L 0.402344 -1.355469 L 0.519531 -1.355469 C 0.601562 -1.355469 0.65625 -1.300781 0.65625 -1.214844 Z M 0.921875 0 C 0.953125 0 0.964844 -0.03125 0.964844 -0.0507812 L 0.964844 -0.265625 C 0.964844 -0.503906 0.910156 -0.652344 0.804688 -0.742188 C 0.902344 -0.808594 0.972656 -0.902344 0.972656 -1.046875 L 0.972656 -1.214844 C 0.972656 -1.453125 0.789062 -1.644531 0.546875 -1.644531 L 0.125 -1.644531 C 0.101562 -1.644531 0.0859375 -1.625 0.0859375 -1.597656 L 0.0859375 -0.0429688 C 0.0859375 -0.015625 0.0976562 0 0.125 0 L 0.363281 0 C 0.386719 0 0.402344 -0.015625 0.402344 -0.0429688 L 0.402344 -0.640625 C 0.5625 -0.628906 0.648438 -0.53125 0.648438 -0.304688 L 0.648438 -0.0546875 C 0.648438 -0.0195312 0.675781 0 0.703125 0 Z M 0.921875 0 "/></g></g></g><g fill="#000000" fill-opacity="1"><g transform="translate(58.084019, 20.553501)"><g><path d="M 0.402344 -1.597656 C 0.402344 -1.625 0.390625 -1.644531 0.363281 -1.644531 L 0.125 -1.644531 C 0.101562 -1.644531 0.0859375 -1.625 0.0859375 -1.597656 L 0.0859375 -0.046875 C 0.0859375 -0.015625 0.0976562 0 0.125 0 L 0.363281 0 C 0.390625 0 0.402344 -0.015625 0.402344 -0.046875 Z M 0.402344 -1.597656 "/></g></g></g><g fill="#000000" fill-opacity="1"><g transform="translate(59.826046, 20.553501)"><g><path d="M 0.839844 -1.601562 C 0.839844 -1.628906 0.824219 -1.644531 0.808594 -1.644531 L 0.125 -1.644531 C 0.101562 -1.644531 0.0859375 -1.625 0.0859375 -1.597656 L 0.0859375 -0.046875 C 0.0859375 -0.015625 0.0976562 0 0.125 0 L 0.363281 0 C 0.390625 0 0.402344 -0.015625 0.402344 -0.046875 L 0.402344 -0.664062 L 0.714844 -0.664062 C 0.734375 -0.664062 0.75 -0.679688 0.75 -0.707031 L 0.75 -0.910156 C 0.75 -0.941406 0.734375 -0.949219 0.714844 -0.949219 L 0.402344 -0.949219 L 0.402344 -1.355469 L 0.808594 -1.355469 C 0.824219 -1.355469 0.839844 -1.371094 0.839844 -1.398438 Z M 0.839844 -1.601562 "/></g></g></g><g fill="#000000" fill-opacity="1"><g transform="translate(61.93515, 20.553501)"><g><path d="M 0.792969 -1.355469 C 0.8125 -1.355469 0.828125 -1.371094 0.828125 -1.398438 L 0.828125 -1.601562 C 0.828125 -1.628906 0.8125 -1.644531 0.792969 -1.644531 L 0.0351562 -1.644531 C 0.0117188 -1.644531 0 -1.628906 0 -1.601562 L 0 -1.398438 C 0 -1.371094 0.0117188 -1.355469 0.0351562 -1.355469 L 0.253906 -1.355469 L 0.253906 -0.0429688 C 0.253906 -0.015625 0.269531 0 0.289062 0 L 0.535156 0 C 0.554688 0 0.570312 -0.015625 0.570312 -0.0429688 L 0.570312 -1.355469 Z M 0.792969 -1.355469 "/></g></g></g><g fill="#000000" fill-opacity="1"><g transform="translate(64.013368, 20.553501)"><g/></g></g><g fill="#000000" fill-opacity="1"><g transform="translate(65.818355, 20.553501)"><g><path d="M 1.214844 -0.046875 C 1.214844 -0.0234375 1.230469 0 1.253906 0 L 1.496094 0 C 1.523438 0 1.53125 -0.0234375 1.53125 -0.046875 L 1.53125 -1.257812 C 1.53125 -1.488281 1.324219 -1.671875 1.089844 -1.671875 C 0.980469 -1.671875 0.878906 -1.632812 0.804688 -1.570312 C 0.726562 -1.632812 0.625 -1.671875 0.519531 -1.671875 C 0.28125 -1.671875 0.0742188 -1.488281 0.0742188 -1.257812 L 0.0742188 -0.046875 C 0.0742188 -0.0195312 0.0898438 0 0.105469 0 L 0.355469 0 C 0.386719 0 0.390625 -0.0195312 0.390625 -0.046875 L 0.390625 -1.242188 C 0.390625 -1.316406 0.4375 -1.382812 0.519531 -1.382812 C 0.597656 -1.382812 0.644531 -1.316406 0.644531 -1.242188 L 0.644531 -0.046875 C 0.644531 -0.0195312 0.660156 0 0.675781 0 L 0.929688 0 C 0.957031 0 0.960938 -0.0195312 0.960938 -0.046875 L 0.960938 -1.246094 C 0.964844 -1.316406 1.011719 -1.382812 1.089844 -1.382812 C 1.167969 -1.382812 1.214844 -1.316406 1.214844 -1.242188 Z M 1.214844 -0.046875 "/></g></g></g><g fill="#000000" fill-opacity="1"><g transform="translate(68.679438, 20.553501)"><g><path d="M 0.402344 -1.597656 C 0.402344 -1.625 0.390625 -1.644531 0.363281 -1.644531 L 0.125 -1.644531 C 0.101562 -1.644531 0.0859375 -1.625 0.0859375 -1.597656 L 0.0859375 -0.046875 C 0.0859375 -0.015625 0.0976562 0 0.125 0 L 0.363281 0 C 0.390625 0 0.402344 -0.015625 0.402344 -0.046875 Z M 0.402344 -1.597656 "/></g></g></g><g fill="#000000" fill-opacity="1"><g transform="translate(70.421465, 20.553501)"><g><path d="M 0.925781 0 C 0.949219 0 0.960938 -0.0234375 0.960938 -0.046875 L 0.960938 -1.257812 C 0.960938 -1.488281 0.753906 -1.671875 0.519531 -1.671875 C 0.28125 -1.671875 0.0742188 -1.488281 0.0742188 -1.257812 L 0.0742188 -0.046875 C 0.0742188 -0.0195312 0.0898438 0 0.105469 0 L 0.355469 0 C 0.382812 0 0.390625 -0.0195312 0.390625 -0.046875 L 0.390625 -1.242188 C 0.390625 -1.316406 0.4375 -1.382812 0.519531 -1.382812 C 0.597656 -1.382812 0.644531 -1.316406 0.644531 -1.242188 L 0.644531 -0.046875 C 0.644531 -0.0234375 0.660156 0 0.683594 0 Z M 0.925781 0 "/></g></g></g><g fill="#000000" fill-opacity="1"><g transform="translate(72.712329, 20.553501)"><g><path d="M 0.402344 -0.285156 L 0.402344 -0.6875 L 0.75 -0.6875 C 0.769531 -0.6875 0.785156 -0.699219 0.785156 -0.730469 L 0.785156 -0.933594 C 0.785156 -0.960938 0.769531 -0.972656 0.75 -0.972656 L 0.402344 -0.972656 L 0.402344 -1.355469 L 0.835938 -1.355469 C 0.859375 -1.355469 0.871094 -1.371094 0.871094 -1.398438 L 0.871094 -1.601562 C 0.871094 -1.628906 0.859375 -1.644531 0.835938 -1.644531 L 0.125 -1.644531 C 0.101562 -1.644531 0.0859375 -1.625 0.0859375 -1.597656 L 0.0859375 -0.046875 C 0.0859375 -0.015625 0.0976562 0 0.125 0 L 0.84375 0 C 0.863281 0 0.875 -0.0117188 0.875 -0.0429688 L 0.875 -0.246094 C 0.875 -0.273438 0.863281 -0.285156 0.84375 -0.285156 Z M 0.402344 -0.285156 "/></g></g></g><g fill="#000000" fill-opacity="1"><g transform="translate(74.870141, 20.553501)"><g><path d="M 0.65625 -1.019531 C 0.65625 -0.9375 0.605469 -0.882812 0.511719 -0.882812 L 0.402344 -0.882812 L 0.402344 -1.355469 L 0.519531 -1.355469 C 0.601562 -1.355469 0.65625 -1.300781 0.65625 -1.214844 Z M 0.921875 0 C 0.953125 0 0.964844 -0.03125 0.964844 -0.0507812 L 0.964844 -0.265625 C 0.964844 -0.503906 0.910156 -0.652344 0.804688 -0.742188 C 0.902344 -0.808594 0.972656 -0.902344 0.972656 -1.046875 L 0.972656 -1.214844 C 0.972656 -1.453125 0.789062 -1.644531 0.546875 -1.644531 L 0.125 -1.644531 C 0.101562 -1.644531 0.0859375 -1.625 0.0859375 -1.597656 L 0.0859375 -0.0429688 C 0.0859375 -0.015625 0.0976562 0 0.125 0 L 0.363281 0 C 0.386719 0 0.402344 -0.015625 0.402344 -0.0429688 L 0.402344 -0.640625 C 0.5625 -0.628906 0.648438 -0.53125 0.648438 -0.304688 L 0.648438 -0.0546875 C 0.648438 -0.0195312 0.675781 0 0.703125 0 Z M 0.921875 0 "/></g></g></g><g fill="#000000" fill-opacity="1"><g transform="translate(77.162192, 20.553501)"><g><path d="M 0.597656 -1.167969 C 0.597656 -1.136719 0.601562 -1.121094 0.632812 -1.121094 L 0.84375 -1.121094 C 0.882812 -1.121094 0.890625 -1.136719 0.890625 -1.167969 L 0.890625 -1.234375 C 0.890625 -1.5 0.714844 -1.667969 0.46875 -1.667969 C 0.304688 -1.667969 0.046875 -1.550781 0.046875 -1.242188 C 0.046875 -0.972656 0.160156 -0.890625 0.40625 -0.691406 C 0.554688 -0.570312 0.617188 -0.519531 0.617188 -0.402344 C 0.617188 -0.316406 0.554688 -0.261719 0.480469 -0.261719 C 0.417969 -0.261719 0.34375 -0.300781 0.34375 -0.417969 L 0.34375 -0.472656 C 0.34375 -0.507812 0.335938 -0.519531 0.304688 -0.519531 L 0.0898438 -0.519531 C 0.0546875 -0.519531 0.046875 -0.503906 0.046875 -0.464844 L 0.046875 -0.402344 C 0.046875 -0.175781 0.191406 0.0273438 0.476562 0.0273438 C 0.742188 0.0273438 0.917969 -0.164062 0.917969 -0.386719 C 0.917969 -0.6875 0.738281 -0.816406 0.515625 -0.988281 C 0.410156 -1.070312 0.339844 -1.121094 0.339844 -1.234375 C 0.339844 -1.34375 0.410156 -1.382812 0.46875 -1.382812 C 0.554688 -1.382812 0.597656 -1.316406 0.597656 -1.234375 Z M 0.597656 -1.167969 "/></g></g></g><path stroke-linecap="butt" transform="matrix(0.754473, 0, 0, 0.746895, 49.03355, 17.785757)" fill="none" stroke-linejoin="miter" d="M 0.00212882 -0.000804459 L 41.577077 -0.000804459 " stroke="#0c59e7" stroke-width="1" stroke-opacity="1" stroke-miterlimit="4"/><path stroke-linecap="butt" transform="matrix(0.748287, 0, 0, 0.746895, 49.03355, 21.596445)" fill="none" stroke-linejoin="miter" d="M 0.00214642 0.00162112 L 41.926042 0.00162112 " stroke="#0c59e7" stroke-width="1" stroke-opacity="1" stroke-miterlimit="4"/></svg>