<svg xmlns="http://www.w3.org/2000/svg" xmlns:xlink="http://www.w3.org/1999/xlink" width="128" zoomAndPan="magnify" viewBox="0 0 96 95.999999" height="128" preserveAspectRatio="xMidYMid meet" version="1.0"><defs><g/></defs><rect x="-9.6" width="115.2" fill="#ffffff" y="-9.6" height="115.199999" fill-opacity="1"/><rect x="-9.6" width="115.2" fill="#ffffff" y="-9.6" height="115.199999" fill-opacity="1"/><rect x="-9.6" width="115.2" fill="#ffffff" y="-9.6" height="115.199999" fill-opacity="1"/><rect x="-9.6" width="115.2" fill="#ffffff" y="-9.6" height="115.199999" fill-opacity="1"/><g fill="#0c59e7" fill-opacity="1"><g transform="translate(26.018999, 52.550397)"><g><path d="M 1.382812 0 C 1.75 0 2.144531 -0.0234375 2.558594 -0.09375 C 2.972656 -0.160156 3.363281 -0.300781 3.777344 -0.507812 C 4.171875 -0.714844 4.5625 -1.015625 4.929688 -1.382812 C 5.300781 -1.75 5.621094 -2.257812 5.898438 -2.855469 C 6.359375 -1.914062 6.933594 -1.199219 7.625 -0.738281 C 8.316406 -0.277344 9.054688 -0.0234375 9.839844 0 C 10.691406 0.046875 11.566406 -0.183594 12.441406 -0.644531 C 13.316406 -1.105469 14.148438 -1.796875 14.929688 -2.765625 C 15.460938 -3.410156 15.921875 -4.125 16.289062 -4.882812 C 16.65625 -5.621094 16.933594 -6.40625 17.117188 -7.1875 C 17.304688 -7.972656 17.394531 -8.730469 17.394531 -9.515625 C 17.394531 -10.300781 17.304688 -11.035156 17.117188 -11.773438 C 16.820312 -12.789062 16.359375 -13.6875 15.757812 -14.445312 C 15.136719 -15.183594 14.421875 -15.804688 13.59375 -16.265625 C 12.765625 -16.726562 11.84375 -17.074219 10.875 -17.257812 C 9.90625 -17.441406 8.917969 -17.464844 7.925781 -17.324219 C 6.933594 -17.1875 5.96875 -16.910156 5.023438 -16.496094 C 4.078125 -16.058594 3.226562 -15.460938 2.464844 -14.722656 C 1.914062 -14.191406 1.519531 -13.59375 1.265625 -12.902344 C 0.992188 -12.210938 0.875 -11.566406 0.898438 -10.96875 C 0.921875 -10.367188 1.082031 -9.839844 1.382812 -9.421875 C 1.683594 -9.007812 2.121094 -8.800781 2.71875 -8.800781 C 3.292969 -8.800781 3.871094 -9.007812 4.421875 -9.445312 C 4.976562 -9.859375 5.4375 -10.484375 5.78125 -11.265625 C 5.34375 -11.152344 5.023438 -11.199219 4.816406 -11.429688 C 4.609375 -11.660156 4.492188 -11.957031 4.46875 -12.328125 C 4.445312 -12.695312 4.515625 -13.109375 4.652344 -13.570312 C 4.792969 -14.007812 5.023438 -14.398438 5.300781 -14.722656 C 5.804688 -15.296875 6.40625 -15.734375 7.050781 -16.035156 C 7.695312 -16.335938 8.339844 -16.496094 9.03125 -16.542969 C 9.699219 -16.566406 10.367188 -16.472656 11.035156 -16.265625 C 11.679688 -16.035156 12.28125 -15.714844 12.832031 -15.277344 C 13.386719 -14.835938 13.847656 -14.285156 14.261719 -13.640625 C 14.652344 -12.996094 14.929688 -12.257812 15.089844 -11.449219 C 15.183594 -10.828125 15.230469 -10.207031 15.207031 -9.5625 C 15.183594 -8.917969 15.089844 -8.269531 14.929688 -7.648438 C 14.769531 -7.027344 14.539062 -6.429688 14.238281 -5.875 C 13.9375 -5.300781 13.570312 -4.792969 13.132812 -4.355469 C 12.765625 -3.984375 12.304688 -3.710938 11.703125 -3.480469 C 11.105469 -3.25 10.484375 -3.109375 9.839844 -3.109375 C 9.191406 -3.085938 8.546875 -3.203125 7.949219 -3.457031 C 7.351562 -3.710938 6.867188 -4.148438 6.496094 -4.769531 C 6.636719 -5.253906 6.84375 -5.851562 7.164062 -6.542969 C 7.488281 -7.234375 7.832031 -7.972656 8.25 -8.730469 C 8.664062 -9.46875 9.101562 -10.207031 9.5625 -10.945312 C 10.023438 -11.660156 10.460938 -12.28125 10.875 -12.832031 C 11.289062 -13.363281 11.679688 -13.753906 12.027344 -14.03125 C 12.371094 -14.308594 12.648438 -14.355469 12.855469 -14.214844 L 11.636719 -15.253906 C 11.40625 -15.253906 11.105469 -15.089844 10.738281 -14.769531 C 10.367188 -14.445312 9.953125 -14.03125 9.492188 -13.523438 C 9.03125 -13.019531 8.570312 -12.417969 8.085938 -11.75 C 7.601562 -11.082031 7.140625 -10.390625 6.703125 -9.699219 C 6.242188 -8.984375 5.851562 -8.269531 5.484375 -7.582031 C 5.113281 -6.890625 4.839844 -6.242188 4.632812 -5.691406 C 4.007812 -5.898438 3.433594 -5.96875 2.902344 -5.898438 C 2.351562 -5.828125 1.867188 -5.667969 1.429688 -5.414062 C 0.992188 -5.160156 0.621094 -4.839844 0.300781 -4.445312 C -0.0234375 -4.03125 -0.253906 -3.617188 -0.390625 -3.203125 C -0.53125 -2.8125 -0.621094 -2.417969 -0.621094 -2.050781 C -0.644531 -1.683594 -0.574219 -1.335938 -0.4375 -1.035156 C -0.300781 -0.738281 -0.09375 -0.484375 0.207031 -0.300781 C 0.507812 -0.113281 0.898438 0 1.382812 0 Z M 0.96875 -2.671875 C 1.035156 -3.085938 1.199219 -3.433594 1.453125 -3.710938 C 1.683594 -3.960938 1.957031 -4.148438 2.257812 -4.261719 C 2.535156 -4.378906 2.832031 -4.421875 3.109375 -4.421875 C 3.386719 -4.402344 3.617188 -4.332031 3.777344 -4.214844 C 3.457031 -3.480469 3.042969 -2.972656 2.535156 -2.71875 C 2.027344 -2.441406 1.496094 -2.441406 0.96875 -2.671875 Z M 0.96875 -2.671875 "/></g></g></g><g fill="#0c59e7" fill-opacity="1"><g transform="translate(42.676903, 52.550397)"><g><path d="M 1.265625 -0.113281 C 1.636719 0.0234375 2.074219 0 2.605469 -0.183594 C 3.109375 -0.367188 3.640625 -0.644531 4.191406 -1.058594 C 4.746094 -1.472656 5.253906 -1.957031 5.761719 -2.535156 C 6.265625 -3.085938 6.679688 -3.710938 7.050781 -4.378906 L 6.589844 -5.09375 C 6.105469 -4.238281 5.621094 -3.664062 5.113281 -3.339844 C 4.609375 -3.019531 4.171875 -2.902344 3.824219 -2.996094 C 3.503906 -3.0625 3.363281 -3.316406 3.410156 -3.777344 C 3.457031 -4.214844 3.640625 -4.769531 3.960938 -5.414062 C 4.261719 -6.058594 4.652344 -6.75 5.136719 -7.511719 C 5.621094 -8.269531 6.128906 -9.007812 6.679688 -9.746094 L 2.902344 -9.722656 C 2.996094 -9.953125 2.972656 -10.183594 2.832031 -10.390625 C 2.695312 -10.597656 2.488281 -10.738281 2.234375 -10.804688 C 1.957031 -10.875 1.683594 -10.851562 1.359375 -10.757812 C 1.035156 -10.667969 0.738281 -10.4375 0.507812 -10.070312 C 0.738281 -9.859375 0.828125 -9.515625 0.804688 -9.03125 C 0.761719 -8.546875 0.667969 -8.019531 0.484375 -7.464844 C 0.300781 -6.910156 0.09375 -6.359375 -0.160156 -5.804688 C -0.4375 -5.253906 -0.691406 -4.839844 -0.921875 -4.515625 L -0.207031 -4.148438 L 2.1875 -8.457031 L 3.664062 -8.5 L 1.40625 -4.863281 C 0.992188 -4.171875 0.691406 -3.570312 0.507812 -3.042969 C 0.324219 -2.488281 0.253906 -2.027344 0.253906 -1.636719 C 0.253906 -1.222656 0.34375 -0.898438 0.53125 -0.644531 C 0.714844 -0.390625 0.945312 -0.207031 1.265625 -0.113281 Z M 1.265625 -0.113281 "/></g></g></g><g fill="#0c59e7" fill-opacity="1"><g transform="translate(49.174176, 52.550397)"><g><path d="M 4.125 -10.414062 C 4.445312 -10.414062 4.699219 -10.507812 4.90625 -10.714844 C 5.113281 -10.921875 5.253906 -11.152344 5.300781 -11.40625 C 5.34375 -11.660156 5.320312 -11.886719 5.207031 -12.117188 C 5.070312 -12.328125 4.839844 -12.441406 4.515625 -12.441406 C 4.191406 -12.441406 3.917969 -12.328125 3.710938 -12.117188 C 3.503906 -11.886719 3.363281 -11.660156 3.316406 -11.40625 C 3.273438 -11.152344 3.292969 -10.921875 3.433594 -10.714844 C 3.546875 -10.507812 3.777344 -10.414062 4.125 -10.414062 Z M 1.035156 0.136719 C 1.40625 0.207031 1.820312 0.160156 2.28125 0.0234375 C 2.742188 -0.113281 3.203125 -0.34375 3.710938 -0.691406 C 4.214844 -1.035156 4.699219 -1.496094 5.207031 -2.074219 C 5.714844 -2.648438 6.199219 -3.339844 6.660156 -4.171875 L 6.199219 -4.882812 C 5.761719 -4.171875 5.277344 -3.640625 4.722656 -3.292969 C 4.171875 -2.925781 3.6875 -2.765625 3.273438 -2.789062 C 2.855469 -2.8125 2.582031 -3.019531 2.441406 -3.433594 C 2.304688 -3.824219 2.441406 -4.421875 2.855469 -5.230469 L 5.070312 -9.746094 L 2.441406 -9.769531 C 2.488281 -9.628906 2.511719 -9.515625 2.511719 -9.398438 C 2.488281 -9.285156 2.464844 -9.148438 2.417969 -8.984375 L 0.644531 -5.300781 C -0.136719 -3.664062 -0.484375 -2.375 -0.34375 -1.453125 C -0.207031 -0.507812 0.253906 0.0234375 1.035156 0.136719 Z M 1.035156 0.136719 "/></g></g></g><g fill="#0c59e7" fill-opacity="1"><g transform="translate(55.210651, 52.550397)"><g><path d="M 9.882812 -11.382812 C 10.160156 -11.886719 10.34375 -12.371094 10.484375 -12.855469 C 10.597656 -13.339844 10.621094 -13.777344 10.574219 -14.191406 C 10.507812 -14.605469 10.34375 -14.953125 10.089844 -15.253906 C 9.839844 -15.550781 9.46875 -15.757812 9.007812 -15.898438 C 8.410156 -16.035156 7.8125 -15.898438 7.234375 -15.484375 C 6.660156 -15.066406 6.105469 -14.445312 5.550781 -13.640625 C 5 -12.832031 4.445312 -11.886719 3.894531 -10.78125 C 3.339844 -9.675781 2.789062 -8.546875 2.234375 -7.351562 C 1.636719 -6.082031 1.082031 -4.863281 0.574219 -3.664062 C 0.0703125 -2.464844 -0.300781 -1.359375 -0.484375 -0.390625 C -0.691406 0.574219 -0.691406 1.40625 -0.460938 2.097656 C -0.230469 2.789062 0.300781 3.226562 1.175781 3.457031 C 1.773438 3.640625 2.304688 3.640625 2.8125 3.480469 C 3.316406 3.316406 3.753906 3.042969 4.125 2.671875 C 4.492188 2.304688 4.816406 1.867188 5.046875 1.3125 C 5.277344 0.785156 5.460938 0.207031 5.550781 -0.390625 C 5.644531 -0.992188 5.667969 -1.589844 5.621094 -2.210938 C 5.574219 -2.832031 5.4375 -3.410156 5.207031 -3.941406 C 5.390625 -3.480469 5.644531 -3.132812 5.945312 -2.949219 C 6.242188 -2.765625 6.566406 -2.695312 6.890625 -2.742188 C 7.210938 -2.789062 7.511719 -2.925781 7.832031 -3.203125 C 8.132812 -3.457031 8.386719 -3.800781 8.570312 -4.261719 L 8.039062 -4.863281 C 7.8125 -4.492188 7.535156 -4.261719 7.1875 -4.214844 C 6.84375 -4.148438 6.519531 -4.191406 6.222656 -4.355469 C 5.921875 -4.492188 5.691406 -4.746094 5.53125 -5.09375 C 5.367188 -5.414062 5.367188 -5.804688 5.507812 -6.222656 L 4.308594 -5.851562 L 4.816406 -6.933594 C 5.34375 -7.097656 5.875 -7.328125 6.382812 -7.648438 C 6.890625 -7.972656 7.351562 -8.316406 7.789062 -8.730469 C 8.226562 -9.148438 8.617188 -9.5625 8.984375 -10.023438 C 9.332031 -10.484375 9.628906 -10.921875 9.882812 -11.382812 Z M 9.054688 -14.46875 C 9.308594 -14.378906 9.445312 -14.191406 9.445312 -13.871094 C 9.445312 -13.546875 9.355469 -13.15625 9.191406 -12.71875 C 9.007812 -12.28125 8.777344 -11.820312 8.480469 -11.3125 C 8.15625 -10.804688 7.832031 -10.34375 7.464844 -9.929688 C 7.097656 -9.492188 6.726562 -9.125 6.359375 -8.824219 C 5.992188 -8.5 5.644531 -8.316406 5.34375 -8.269531 C 5.597656 -8.847656 5.898438 -9.515625 6.222656 -10.253906 C 6.542969 -10.988281 6.867188 -11.703125 7.210938 -12.347656 C 7.535156 -12.996094 7.855469 -13.546875 8.179688 -13.960938 C 8.5 -14.378906 8.777344 -14.539062 9.054688 -14.46875 Z M 2.464844 1.703125 C 2.097656 1.613281 1.933594 1.335938 1.957031 0.851562 C 1.957031 0.367188 2.074219 -0.207031 2.28125 -0.851562 C 2.488281 -1.496094 2.765625 -2.1875 3.085938 -2.902344 C 3.410156 -3.59375 3.734375 -4.214844 4.007812 -4.769531 C 4.125 -4.355469 4.214844 -3.917969 4.308594 -3.433594 C 4.378906 -2.925781 4.402344 -2.441406 4.402344 -1.933594 C 4.402344 -1.429688 4.355469 -0.921875 4.285156 -0.460938 C 4.214844 0.0234375 4.101562 0.4375 3.941406 0.785156 C 3.777344 1.152344 3.570312 1.40625 3.339844 1.589844 C 3.085938 1.773438 2.789062 1.796875 2.464844 1.703125 Z M 2.464844 1.703125 "/></g></g></g><g fill="#0c59e7" fill-opacity="1"><g transform="translate(63.389843, 52.550397)"><g><path d="M 1.636719 -0.046875 C 2.003906 0.0234375 2.417969 -0.0234375 2.878906 -0.160156 C 3.339844 -0.300781 3.800781 -0.53125 4.308594 -0.875 C 4.816406 -1.222656 5.300781 -1.683594 5.804688 -2.257812 C 6.3125 -2.832031 6.796875 -3.523438 7.257812 -4.355469 L 6.796875 -5.070312 C 6.359375 -4.355469 5.875 -3.824219 5.320312 -3.480469 C 4.769531 -3.109375 4.285156 -2.949219 3.871094 -2.972656 C 3.457031 -2.996094 3.179688 -3.203125 3.042969 -3.617188 C 2.902344 -4.007812 3.042969 -4.609375 3.457031 -5.414062 L 5.230469 -8.847656 L 6.980469 -8.847656 L 7.558594 -9.792969 L 5.621094 -9.792969 L 8.753906 -16.21875 L 6.199219 -16.21875 C 6.265625 -16.035156 6.242188 -15.828125 6.128906 -15.550781 C 6.011719 -15.277344 5.921875 -15.066406 5.851562 -14.929688 L 3.386719 -9.792969 L 1.683594 -9.792969 L 1.105469 -8.847656 L 2.949219 -8.847656 L 1.246094 -5.484375 C 0.828125 -4.652344 0.53125 -3.941406 0.390625 -3.292969 C 0.230469 -2.648438 0.183594 -2.121094 0.230469 -1.660156 C 0.277344 -1.199219 0.4375 -0.828125 0.691406 -0.554688 C 0.921875 -0.277344 1.246094 -0.09375 1.636719 -0.046875 Z M 1.636719 -0.046875 "/></g></g></g><g fill="#0c59e7" fill-opacity="1"><g transform="translate(31.971397, 61.766396)"><g><path d="M 3.40625 -2.828125 L 3.40625 0 L 2.84375 0 L 2.84375 -1.3125 C 2.84375 -1.757812 2.847656 -2.078125 2.859375 -2.265625 C 2.773438 -1.941406 2.6875 -1.625 2.59375 -1.3125 L 2.1875 0 L 1.578125 0 L 1.171875 -1.3125 C 1.066406 -1.65625 0.984375 -1.972656 0.921875 -2.265625 C 0.921875 -2.066406 0.921875 -1.75 0.921875 -1.3125 L 0.921875 0 L 0.359375 0 L 0.359375 -2.828125 L 1.25 -2.828125 L 1.890625 -0.515625 L 2.53125 -2.828125 Z M 3.40625 -2.828125 "/></g></g></g><g fill="#0c59e7" fill-opacity="1"><g transform="translate(38.921421, 61.766396)"><g><path d="M 0.921875 0 L 0.359375 0 L 0.359375 -2.828125 L 0.921875 -2.828125 Z M 0.921875 0 "/></g></g></g><g fill="#0c59e7" fill-opacity="1"><g transform="translate(43.393962, 61.766396)"><g><path d="M 2.84375 0 L 2.078125 0 L 0.90625 -2.140625 C 0.914062 -1.890625 0.921875 -1.601562 0.921875 -1.28125 L 0.921875 0 L 0.359375 0 L 0.359375 -2.828125 L 1.109375 -2.828125 L 2.296875 -0.640625 C 2.285156 -0.890625 2.28125 -1.1875 2.28125 -1.53125 L 2.28125 -2.828125 L 2.84375 -2.828125 Z M 2.84375 0 "/></g></g></g><g fill="#0c59e7" fill-opacity="1"><g transform="translate(49.78297, 61.766396)"><g><path d="M 2.40625 -0.453125 L 2.40625 0 L 0.359375 0 L 0.359375 -2.828125 L 2.359375 -2.828125 L 2.359375 -2.375 L 0.921875 -2.375 L 0.921875 -1.640625 L 2.265625 -1.640625 L 2.265625 -1.1875 L 0.921875 -1.1875 L 0.921875 -0.453125 Z M 2.40625 -0.453125 "/></g></g></g><g fill="#0c59e7" fill-opacity="1"><g transform="translate(55.582295, 61.766396)"><g><path d="M 2.40625 -0.71875 C 2.445312 -0.375 2.515625 -0.132812 2.609375 0 L 2 0 C 1.925781 -0.1875 1.878906 -0.394531 1.859375 -0.625 C 1.816406 -0.945312 1.691406 -1.117188 1.484375 -1.140625 C 1.429688 -1.140625 1.351562 -1.140625 1.25 -1.140625 L 0.921875 -1.140625 L 0.921875 0 L 0.359375 0 L 0.359375 -2.828125 L 1.390625 -2.828125 C 1.546875 -2.828125 1.6875 -2.816406 1.8125 -2.796875 C 2.03125 -2.773438 2.207031 -2.703125 2.34375 -2.578125 C 2.476562 -2.460938 2.546875 -2.289062 2.546875 -2.0625 C 2.546875 -1.875 2.492188 -1.722656 2.390625 -1.609375 C 2.296875 -1.492188 2.164062 -1.414062 2 -1.375 C 2.238281 -1.28125 2.375 -1.0625 2.40625 -0.71875 Z M 0.921875 -1.5625 L 1.3125 -1.5625 C 1.425781 -1.5625 1.503906 -1.5625 1.546875 -1.5625 C 1.816406 -1.582031 1.953125 -1.71875 1.953125 -1.96875 C 1.953125 -2.09375 1.921875 -2.1875 1.859375 -2.25 C 1.796875 -2.3125 1.703125 -2.351562 1.578125 -2.375 C 1.515625 -2.375 1.4375 -2.375 1.34375 -2.375 L 0.921875 -2.375 Z M 0.921875 -1.5625 "/></g></g></g><g fill="#0c59e7" fill-opacity="1"><g transform="translate(61.53723, 61.766396)"><g><path d="M 1.296875 -2.875 C 1.617188 -2.875 1.863281 -2.796875 2.03125 -2.640625 C 2.207031 -2.484375 2.3125 -2.269531 2.34375 -2 L 1.765625 -2 C 1.753906 -2.144531 1.707031 -2.253906 1.625 -2.328125 C 1.539062 -2.410156 1.425781 -2.453125 1.28125 -2.453125 C 1.164062 -2.453125 1.070312 -2.421875 1 -2.359375 C 0.925781 -2.304688 0.890625 -2.226562 0.890625 -2.125 C 0.890625 -2 0.929688 -1.898438 1.015625 -1.828125 C 1.109375 -1.765625 1.265625 -1.707031 1.484375 -1.65625 C 1.796875 -1.59375 2.023438 -1.488281 2.171875 -1.34375 C 2.316406 -1.195312 2.390625 -1.007812 2.390625 -0.78125 C 2.390625 -0.519531 2.285156 -0.3125 2.078125 -0.15625 C 1.878906 -0.0078125 1.632812 0.0625 1.34375 0.0625 C 1 0.0625 0.722656 -0.0078125 0.515625 -0.15625 C 0.316406 -0.3125 0.203125 -0.535156 0.171875 -0.828125 L 0.75 -0.828125 C 0.78125 -0.679688 0.847656 -0.566406 0.953125 -0.484375 C 1.054688 -0.398438 1.179688 -0.359375 1.328125 -0.359375 C 1.460938 -0.359375 1.570312 -0.390625 1.65625 -0.453125 C 1.75 -0.523438 1.796875 -0.613281 1.796875 -0.71875 C 1.796875 -0.84375 1.753906 -0.941406 1.671875 -1.015625 C 1.585938 -1.085938 1.441406 -1.148438 1.234375 -1.203125 C 0.910156 -1.273438 0.671875 -1.375 0.515625 -1.5 C 0.367188 -1.625 0.296875 -1.8125 0.296875 -2.0625 C 0.296875 -2.3125 0.390625 -2.507812 0.578125 -2.65625 C 0.773438 -2.800781 1.015625 -2.875 1.296875 -2.875 Z M 1.296875 -2.875 "/></g></g></g></svg>