<?xml version="1.0" encoding="UTF-8"?>
<svg viewBox="0 0 168.50922 172.66716" xmlns="http://www.w3.org/2000/svg">
 <defs>
  <clipPath id="aa">
   <text transform="translate(174.29 -1065.7)" x="-2043.1331" y="909.42334">
    <tspan>Rémi BERTHOLET</tspan>
   </text>
  </clipPath>
  <clipPath id="z">
   <path d="m293.56-220.47v9.5938h0.09375c0.4163 8.6591 16.318 15.625 35.844 15.625s35.395-6.9663 35.812-15.625h0.09375v-8.3125c1e-5 7.1408-16.057 12.938-35.844 12.938s-35.844-5.7967-35.844-12.938c0-0.43624 0.07044-0.85606 0.1875-1.2812h-0.34375zm71.844 1.2812v-1.2812h-0.1875c0.11696 0.425 0.1875 0.84521 0.1875 1.2812z" fill-rule="evenodd"/>
  </clipPath>
  <clipPath id="y">
   <path d="m421.78421,17.09382c-5.20067,1.31227-11.19089,2.0625-17.59375,2.0625-5.95424,0-11.5874-.63527-16.53125-1.78125l-5.875,56.03125c-.23308.58529-.32094,1.19873-.34375,1.8125-.00161.08254-.0307.16723-.03125.25 .0088.71049.14165,1.3915.4375,2.0625 .30453.69059.76546,1.36529 1.34375,2s1.27236,1.21668 2.09375,1.78125 1.77871,1.11357 2.8125,1.59375 2.15952.89973 3.375,1.28125 2.50852.73139 3.875,1 2.79446.48357 4.28125.625 3.04861.1875 4.625.1875 3.10697-.04607 4.59375-.1875 2.91476-.35639 4.28125-.625 2.65951-.61848 3.875-1 2.34121-.80107 3.375-1.28125 1.9911-1.02918 2.8125-1.59375 1.51546-1.14654 2.09375-1.78125 1.03926-1.30941 1.34375-2c.15454-.35044.14069-.70044.21875-1.0625 .01404-.29559.09375-.57632.09375-.875 0-.55352-.13975-1.08249-.1875-1.625-.06851-.23338-.02432-.49044-.125-.71875-.09621-.21823-.2491-.41216-.375-.625l-4.46875-55.53125z" fill-rule="evenodd"/>
  </clipPath>
  <clipPath id="x">
   <path d="m168.84-47.468c-20.105-1.614-35.808-8.7122-39.258-17.746-0.80175-2.099-1.0226-4.2947-0.72796-7.2365 1.1994-11.975 7.6403-22.51 18.37-30.048 1.3765-0.96704 5.9685-3.6596 5.9485-3.4879-0.03124 0.2682-0.82959 6.8059-0.94027 7.6998-0.55933 4.5176 5.9976 8.9055 15.698 10.505 3.005 0.49555 10.636 0.5565 13.594 0.10858 6.1675-0.93386 11.205-2.9227 14.054-5.5486 1.909-1.7597 2.5431-3.5369 2.1037-5.8968-0.56125-3.0147-0.7102-4.0468-0.8437-5.8461l-0.13895-1.8728 1.6026 0.80413c10.792 5.4149 18.885 14.276 22.42 24.543 1.496 4.3463 1.9252 6.8916 1.945 11.534 0.01867 4.3887 0.01658 4.4051-0.75781 5.954-0.99146 1.9832-4.7324 5.7902-7.3779 7.5083-6.4244 4.1722-15.389 7.0418-26.793 8.5766-2.7435 0.36923-15.975 0.68345-18.898 0.44879z"/>
  </clipPath>
  <clipPath id="w">
   <path d="m425.78901,68.88538 .5,6.25c.1259.21284.27878.40676.375.625 .10068.22831.05648.48537.125.71875 .04775.54252.18749,1.07148.1875,1.625 0,.29868-.07972.57941-.09375.875-.07806.36207-.06422.71206-.21875,1.0625-.30449.69059-.76544,1.36529-1.34375,2s-1.27235,1.21668-2.09375,1.78125-1.77873,1.11357-2.8125,1.59375-2.15952.89973-3.375,1.28125-2.50851.73139-3.875,1-2.79445.48357-4.28125.625-3.01736.1875-4.59375.1875-3.13821-.04607-4.625-.1875-2.91475-.3564-4.28125-.625-2.65952-.61847-3.875-1-2.34123-.80107-3.375-1.28125-1.99111-1.02918-2.8125-1.59375-1.51547-1.14655-2.09375-1.78125-1.03923-1.30941-1.34375-2c-.29585-.671-.42871-1.35201-.4375-2.0625 .00055-.08277.02963-.16746.03125-.25 .02281-.61376.11066-1.22721.34375-1.8125l.65625-6.25c-14.72852,7.21675-24.75,21.27672-24.75,37.4375 0,14.16064 7.7147,26.6987 19.53125,34.4375-11.7661-7.74752-19.40625-20.30544-19.40625-34.4375 0-.08593.03069-.16418.03125-.25 .01825,1.47325.324,2.92112.9375,4.3125 .6314,1.43199 1.55087,2.80888 2.75,4.125s2.67177,2.54806 4.375,3.71875 3.6376,2.28556 5.78125,3.28125 4.47958,1.89638 7,2.6875 5.22897,1.47427 8.0625,2.03125 5.79202.98798 8.875,1.28125 6.29373.4375 9.5625.4375 6.44827-.14423 9.53125-.4375 6.07272-.72427 8.90625-1.28125 5.51083-1.24013 8.03125-2.03125 4.85635-1.69181 7-2.6875 4.10927-2.11056 5.8125-3.28125 3.14461-2.40263 4.34375-3.71875 2.14985-2.69301 2.78125-4.125c.32041-.72667.33815-1.49923.5-2.25-.08818,1.85802-.28368,3.6809-.625,5.46875 .46332-2.3702.71875-4.78936.71875-7.28125 0-16.7807-10.77593-31.27856-26.4375-38.21875zm25.71875,45.5c-.22324,1.16937-.48624,2.33394-.8125,3.46875 .32968-1.1281.5853-2.30648.8125-3.46875zm-.90625,3.71875c-.15153.51389-.32793,1.02507-.5,1.53125 .17532-.50869.34527-1.01482.5-1.53125zm-1.03125,3c-.24414.62724-.5067,1.26094-.78125,1.875 .27425-.61697.53855-1.24455.78125-1.875zm-72.28125,20.4375c2.14203,1.40115 4.38985,2.65235 6.78125,3.71875-2.3834-1.06993-4.6475-2.31541-6.78125-3.71875zm10.5,5.1875c1.24574.43966 2.51812.84269 3.8125,1.1875-1.30092-.34916-2.56116-.74239-3.8125-1.1875z" fill-rule="evenodd"/>
  </clipPath>
  <clipPath id="v">
   <path d="m350.71619,7.53276 .5,6.25c.1259.21284.27878.40676.375.625 .10068.22831.05648.48536.125.71875 .04775.54251.18749,1.07147.1875,1.625 0,.29868-.07972.5794-.09375.875-.07806.36206-.06422.71205-.21875,1.0625-.30449.69059-.76544,1.36528-1.34375,2s-1.27235,1.21667-2.09375,1.78125-1.77873,1.11357-2.8125,1.59375-2.15952.89973-3.375,1.28125-2.50851.73138-3.875,1-2.79445.48356-4.28125.625-3.01736.1875-4.59375.1875-3.13821-.04608-4.625-.1875-2.91476-.3564-4.28125-.625-2.65952-.61848-3.875-1-2.34123-.80108-3.375-1.28125-1.99111-1.02918-2.8125-1.59375-1.51547-1.14655-2.09375-1.78125-1.03923-1.30942-1.34375-2c-.29585-.671-.42871-1.35202-.4375-2.0625 .00055-.08277.02963-.16746.03125-.25 .02281-.61377.11066-1.22721.34375-1.8125l.65625-6.25c-14.72852,7.21674-24.75,21.27672-24.75,37.4375 0,14.16064 7.7147,26.6987 19.53125,34.4375-11.7661-7.74752-19.40625-20.30544-19.40625-34.4375 0-.08593.03069-.16418.03125-.25 .01825,1.47325.324,2.92112.9375,4.3125 .6314,1.43199 1.55087,2.80888 2.75,4.125s2.67177,2.54806 4.375,3.71875 3.6376,2.28556 5.78125,3.28125 4.47958,1.89638 7,2.6875 5.22897,1.47427 8.0625,2.03125 5.79202.98798 8.875,1.28125 6.29373.4375 9.5625.4375 6.44827-.14423 9.53125-.4375 6.07272-.72427 8.90625-1.28125 5.51083-1.24013 8.03125-2.03125 4.85635-1.69181 7-2.6875 4.10927-2.11056 5.8125-3.28125 3.14461-2.40263 4.34375-3.71875 2.14985-2.69301 2.78125-4.125c.32041-.72667.33815-1.49923.5-2.25-.08818,1.85802-.28368,3.6809-.625,5.46875 .46332-2.3702.71875-4.78936.71875-7.28125 0-16.78071-10.77593-31.27856-26.4375-38.21875zm25.71875,45.5c-.22324,1.16937-.48624,2.33394-.8125,3.46875 .32968-1.1281.5853-2.30648.8125-3.46875zm-.90625,3.71875c-.15153.51389-.32793,1.02507-.5,1.53125 .17532-.50869.34527-1.01482.5-1.53125zm-1.03125,3c-.24414.62724-.5067,1.26094-.78125,1.875 .27425-.61697.53855-1.24455.78125-1.875zm-72.28125,20.4375c2.14203,1.40115 4.38985,2.65235 6.78125,3.71875-2.3834-1.06993-4.6475-2.31541-6.78125-3.71875zm10.5,5.1875c1.24574.43966 2.51812.84269 3.8125,1.1875-1.30092-.34916-2.56116-.74239-3.8125-1.1875z" fill-rule="evenodd"/>
  </clipPath>
  <clipPath id="u">
   <path d="m404.11 101.8 10.617-0.3661s0.93936 21.265 1.2814 29.288c-0.30808 0.81126-0.7703 1.0088-1.5615 1.4209-0.77751 0.40501-2.1923 0.29328-3.9522 0.0222s-2.6699-0.89399-3.4557-1.4431c-0.87489-0.6114-0.89399-0.57041-1.8305-2.0136-0.91868-1.4157-1.0983-2.7458-1.0983-2.7458v-24.163z"/>
  </clipPath>
  <clipPath id="t">
   <path d="m398.22 94.615 11.523-0.3661s0.93936 21.265 1.2814 29.288c-0.30808 0.81126-0.7703 1.0088-1.5615 1.4209-0.77751 0.40501-2.1923 0.29328-3.9522 0.0222s-2.6699-0.89399-3.4557-1.4431c-0.87489-0.6114-0.89399-0.57041-1.8305-2.0136-0.91868-1.4157-1.0983-2.7458-1.0983-2.7458l-0.90605-24.163z"/>
  </clipPath>
  <clipPath id="s">
   <path d="m380.27 99.759 11.523-0.3661s0.93936 21.265 1.2814 29.288c-0.30808 0.81126-0.7703 1.0088-1.5615 1.4209-0.77751 0.40501-2.1923 0.29328-3.9522 0.0222s-2.6699-0.89399-3.4557-1.4431c-0.87489-0.6114-0.89399-0.57041-1.8305-2.0136-0.91868-1.4157-1.0983-2.7458-1.0983-2.7458l-0.90605-24.163z"/>
  </clipPath>
  <filter id="r" x="-.05448" y="-.17075" width="1.109" height="1.3415">
   <feGaussianBlur stdDeviation="1.62673"/>
  </filter>
  <filter id="q" x="-.30245" y="-.23614" width="1.6049" height="1.4723">
   <feGaussianBlur stdDeviation="7.2618"/>
  </filter>
  <filter id="p" x="-.1796" y="-.11946" width="1.3592" height="1.2389">
   <feGaussianBlur stdDeviation="2.8089"/>
  </filter>
  <filter id="o" x="-.13259" y="-.54174" width="1.2652" height="2.0835">
   <feGaussianBlur stdDeviation="2.50639"/>
  </filter>
  <filter id="n" x="-.54625" y="-.32097" width="2.0925" height="1.6419">
   <feGaussianBlur stdDeviation="7.95065"/>
  </filter>
  <filter id="m" x="-.05275" y="-.1904" width="1.1055" height="1.3808">
   <feGaussianBlur stdDeviation="2.04998"/>
  </filter>
  <filter id="l" x="-.08242" y="-.11394" width="1.1648" height="1.2279">
   <feGaussianBlur stdDeviation=".41785"/>
  </filter>
  <filter id="k" x="-.1342" y="-.33303" width="1.2684" height="1.666">
   <feGaussianBlur stdDeviation=".33232"/>
  </filter>
  <filter id="j" x="-.49722" y="-.04764" width="1.9944" height="1.0953">
   <feGaussianBlur stdDeviation=".61145"/>
  </filter>
  <filter id="i" x="-.33795" y="-.05278" width="1.6759" height="1.1056">
   <feGaussianBlur stdDeviation=".64653"/>
  </filter>
  <filter id="h" x="-.42798" y="-.32518" width="1.856" height="1.6504">
   <feGaussianBlur stdDeviation="4.86493"/>
  </filter>
  <filter id="g" x="-.13613" y="-.2143" width="1.2723" height="1.4286">
   <feGaussianBlur stdDeviation="10.14409"/>
  </filter>
  <linearGradient id="f" x1="-208.57" x2="-348.57" y1="1549.5" y2="1643.8" gradientUnits="userSpaceOnUse">
   <stop stop-color="#0f0" offset="0"/>
   <stop stop-color="#0ff" stop-opacity="0" offset="1"/>
  </linearGradient>
  <linearGradient id="e" x1="114.29" x2="257.14" y1="469.51" y2="106.65" gradientUnits="userSpaceOnUse">
   <stop stop-color="#ff0" offset="0"/>
   <stop stop-color="#ff0" stop-opacity="0" offset="1"/>
  </linearGradient>
  <linearGradient id="d" x1="314.29" x2="185.71" y1="338.08" y2="466.65" gradientUnits="userSpaceOnUse">
   <stop stop-color="#f00" offset="0"/>
   <stop stop-color="#f00" stop-opacity="0" offset="1"/>
  </linearGradient>
  <linearGradient id="c" x1="494.29" x2="337.14" y1="1512.4" y2="1198.1" gradientUnits="userSpaceOnUse">
   <stop stop-color="#f0f" offset="0"/>
   <stop stop-color="#f0f" stop-opacity="0" offset="1"/>
  </linearGradient>
  <linearGradient id="b" x1="-197.14" x2="-645.71" y1="1505.2" y2="1543.8" gradientUnits="userSpaceOnUse">
   <stop stop-color="#0f0" offset="0"/>
   <stop stop-color="#0f0" stop-opacity="0" offset="1"/>
  </linearGradient>
  <linearGradient id="a" x1="146.19" x2="203.93" y1="-99.078" y2="-25.858" gradientUnits="userSpaceOnUse">
   <stop stop-color="#34434f" offset="0"/>
   <stop stop-color="#43acff" offset="1"/>
  </linearGradient>
 </defs>
 <g transform="matrix(1.3266 -.08311 -.76937 .80198 1328.9 216.03)" clip-path="url(#aa)" fill-rule="evenodd" stroke="#000">
  <path d="m-190 1266.8h494.29a215.57 215.57 0 0 1 215.57 215.57v1e-5a215.57 215.57 0 0 1 -215.57 215.57h-494.29a215.57 215.57 0 0 1 -215.57 -215.57v-1e-5a215.57 215.57 0 0 1 215.57 -215.57" fill="url(#f)" stroke-width="1.2961"/>
  <path transform="translate(-157.14 1185.7)" d="m300 500.93-136.8 61.684-140.35-53.112-61.684-136.8 53.112-140.35 136.8-61.684 140.35 53.112 61.684 136.8-53.112 140.35z" fill="url(#e)"/>
  <path transform="translate(-157.14 1185.7)" d="m522.86 303.79a210 117.14 0 1 1 -420 0 210 117.14 0 1 1 420 0z" fill="url(#d)"/>
  <path transform="translate(34.286 114.29)" d="m668.57 1580.9-192.53-48.628 0.23517 198.57-101.75-170.52-140.24 140.58 48.628-192.53-198.57 0.2352 170.52-101.75-140.58-140.24 192.53 48.628-0.23517-198.57 101.75 170.52 140.24-140.58-48.628 192.53 198.57-0.2351-170.52 101.75 140.58 140.24z" fill="url(#c)"/>
  <path transform="translate(45.714 -17.143)" d="m-225.71 1505.2a167.14 132.86 0 1 1 -334.29 0 167.14 132.86 0 1 1 334.29 0z" fill="url(#b)"/>
 </g>
 <g transform="matrix(.98515 -.17169 .17169 .98515 123.85 -22.907)">
  <path d="m-50.053 165.09 6.6468-10.351s14.827 20.347 20.414 28.033c0.35994 1.0743 0.21598 1.6714 0.01921 2.7673-0.19337 1.0769-1.1146 2.1919-2.3491 3.4475-1.2313 1.2524-2.1967 1.4244-3.0351 1.5591-0.93345 0.14988-0.91738 0.20721-2.4456-0.41716-1.4992-0.61248-2.4989-1.7803-2.4989-1.7803l-16.751-23.258z" filter="url(#h)" opacity=".61029"/>
  <path transform="matrix(.83168 .11563 -.3233 .8085 -170.57 11.883)" d="m223.11 162.74c-16.131 6.9374-34.363 10.064-47.598 8.1618-5.9221-0.85095-10.048-2.5546-14.167-5.8498-11.664-9.3318-15.756-20.757-11.094-30.976 0.5967-1.3079 0.79664-2.1741 0.54254-2.3504-0.47702-0.33102-40.15-32.991-41.293-33.993-0.77338-0.67842-0.80408-0.68443-2.0511-0.40177-9.1806 2.081-18.734 2.2799-24.484 0.50986-2.4665-0.75926-3.0852-1.1106-8.5251-4.8402-4.5471-3.1175-4.6226-3.1799-5.0907-4.2012-4.1247-9.0001 23.003-26.165 47.752-30.216 6.8876-1.1272 13.216-0.96314 16.704 0.43296 3.8164 1.5275 10.694 6.6169 11.927 8.825 1.2124 2.1728 0.89422 5.0976-0.90492 8.3195-0.77216 1.3828-4.4921 5.7057-5.203 6.0464-0.19186 0.09195-0.19739 0.2723-0.0123 0.40075s11.35 6.9526 24.811 15.165 24.674 15.069 24.918 15.238 0.47893 0.2123 0.5228 0.09657 1.3801-0.30972 2.9694-0.4311c9.2936-0.70977 20.153 0.20191 30.037 2.5218 3.7978 0.89138 9.7786 2.8401 13.397 4.3651 5.4904 2.3141 7.2456 3.2681 11.794 6.4105 4.1343 2.8563 4.1757 2.8917 4.762 4.0707 1.4285 2.8727 1.3871 5.8284-0.13449 9.5954-2.3957 5.931-10.695 13.488-20.447 18.617-1.7287 0.90929-3.5856 1.9007-4.1266 2.2032s-2.7927 1.3281-5.004 2.279h1e-5z" filter="url(#g)" opacity=".5"/>
  <g transform="matrix(.99916 .04103 -.04103 .99916 -411.19 93.96)">
   <path d="m380.64 53.631 11.523-0.3661s0.93936 21.265 1.2814 29.288c-0.30808 0.81126-0.7703 1.0088-1.5615 1.4209-0.77751 0.40501-2.1923 0.29328-3.9522 0.0222s-2.6699-0.89399-3.4557-1.4431c-0.87489-0.6114-0.89399-0.57041-1.8305-2.0136-0.91868-1.4157-1.0983-2.7458-1.0983-2.7458l-0.90605-24.163z" fill="#b8b17a"/>
   <g transform="translate(.3661 -46.129)" clip-path="url(#s)">
    <path transform="matrix(2.5569 .036779 -.042224 1.0598 -663.15 -23.945)" d="m413.27644,131.73365c.46347-.24434.94858-.67046 1.11526-.97963 .10282-.19073-.83894-24.13318-1.11765-28.41376l-.07795-1.19728h.65253c.5734,0 .65947.03531.70987.29123 .03155.16017.1524,2.62107.26856,5.46866s.29578,6.71329.39914,8.59044 .24483,5.08068.31438,7.11897 .16527,4.65313.2127,5.81076l.08625,2.10478-.52585.50023c-.53371.5077-1.48738.92491-2.09266.91549l-.33289-.00519 .38831-.2047z" clip-path="url(#u)" fill="#85807d" filter="url(#j)"/>
    <path transform="matrix(1.768 0 0 1.1557 -325.37 -11.57)" d="m402.08492,123.81544c-.7624-.52025-.97421-.71105-1.37402-1.23777-.78012-1.02772-1.37427-2.22936-1.59884-3.23359-.08592-.38421-.18701-2.67013-.52191-11.80215-.22845-6.2291-.43258-11.63415-.45362-12.01122l-.03827-.68559 .85648-.04097c.47107-.02253.86602-.03143.87767-.01978s.20947,5.63283.43959,12.49151c.44656,13.30981.40674,12.61367.78884,13.79209 .25035.77214.99253,2.19274 1.49707,2.86553 .08748.11666.14552.22562.129.24215s-.28742-.14557-.60199-.36022z" clip-path="url(#t)" fill="#464845" filter="url(#i)"/>
   </g>
  </g>
  <g transform="translate(-310.79 62.969)">
   <g transform="translate(19.933 184.31)" fill="#347fb6">
    <path d="m256.7-84.119c-20.105-1.614-35.808-8.7122-39.258-17.746-0.80175-2.099-1.0226-4.2947-0.72796-7.2365 1.1994-11.975 7.6403-22.51 18.37-30.048 1.3765-0.96704 5.9685-3.6596 5.9485-3.4879-0.03124 0.2682 1.2414 7.0648 1.1307 7.9587-0.55933 4.5176 5.9976 6.5756 15.698 8.1753 3.005 0.49555 7.788 0.81537 10.746 0.36745 6.1675-0.93386 9.134-2.1461 11.983-4.772 1.909-1.7597 2.5431-1.9837 2.1037-4.3436-0.56125-3.0147 0.84303-4.5646 0.70953-6.3638l0.24936-1.8728 2.5086 0.80412c10.792 5.4149 18.885 14.276 22.42 24.543 1.496 4.3463 1.9252 6.8916 1.945 11.534 0.01867 4.3887 0.01658 4.4051-0.75781 5.954-0.99146 1.9832-4.7324 5.7902-7.3779 7.5083-6.4244 4.1722-15.389 7.0418-26.793 8.5766-2.7435 0.36923-15.975 0.68345-18.898 0.44879z"/>
    <path d="m256.7-84.119c-20.105-1.614-35.808-8.7122-39.258-17.746-0.80175-2.099-1.0226-4.2947-0.72796-7.2365 1.1994-11.975 7.6403-22.51 18.37-30.048 1.3765-0.96704 5.9685-3.6596 5.9485-3.4879-0.03124 0.2682-0.82959 6.8059-0.94027 7.6998-0.55933 4.5176 5.9976 8.9055 15.698 10.505 3.005 0.49555 10.636 0.5565 13.594 0.10858 6.1675-0.93386 11.205-2.9227 14.054-5.5486 1.909-1.7597 2.5431-3.5369 2.1037-5.8968-0.56125-3.0147-0.7102-4.0468-0.8437-5.8461l-0.13895-1.8728 1.6026 0.80412c10.792 5.4149 18.885 14.276 22.42 24.543 1.496 4.3463 1.9252 6.8916 1.945 11.534 0.01867 4.3887 0.01658 4.4051-0.75781 5.954-0.99146 1.9832-4.7324 5.7902-7.3779 7.5082-6.4244 4.1722-15.389 7.0418-26.793 8.5766-2.7435 0.36923-15.975 0.68345-18.898 0.44879z"/>
   </g>
   <path d="m299.8898-9.09817c-5.20067,1.31227-11.19089,2.0625-17.59375,2.0625-5.95424,0-11.5874-.63527-16.53125-1.78125l-5.875,56.03125c-.23308.58529-.32094,1.19874-.34375,1.8125-.00161.08254-.0307.16723-.03125.25 .0088.71049.14165,1.3915.4375,2.0625 .30453.69059.76546,1.36529 1.34375,2s1.27236,1.21668 2.09375,1.78125 1.77871,1.11357 2.8125,1.59375 2.15952.89973 3.375,1.28125 2.50852.73139 3.875,1 2.79446.48357 4.28125.625 3.04861.1875 4.625.1875 3.10697-.04607 4.59375-.1875 2.91476-.35639 4.28125-.625 2.65951-.61848 3.875-1 2.34121-.80107 3.375-1.28125 1.9911-1.02918 2.8125-1.59375 1.51546-1.14654 2.09375-1.78125 1.03926-1.30941 1.34375-2c.15454-.35044.14069-.70044.21875-1.0625 .01404-.29559.09375-.57632.09375-.875 0-.55352-.13975-1.08249-.1875-1.625-.06851-.23338-.02432-.49044-.125-.71875-.09621-.21823-.2491-.41216-.375-.625l-4.46875-55.53125z" fill="#347fb6" fill-rule="evenodd"/>
   <path transform="translate(-121.89 -25.674)" d="m374.15 12.455 51.254 4.0271s-5.8576 6.2237-11.898 9.1525-12.447 3.2949-13.363 5.4915c-2.9453 18.527-1.8479 35.783-2.9288 54.549-0.3661 2.0136-28.19-1.8305-29.288-1.8305s4.3932-40.454 4.0271-49.057 2.5627-21.966 2.1966-22.332z" clip-path="url(#y)" fill="#32597d" filter="url(#q)"/>
   <path d="m279.68 61.223c-4.3013-0.29113-8.636-1.2544-12.07-2.6825-3.2479-1.3505-5.8459-3.41-6.8228-5.4086-0.4126-0.84415-0.55741-1.4508-0.55276-2.3155l0.0033-0.61329 0.17576 0.48853c1.459 4.0555 8.023 7.415 16.661 8.527 4.3116 0.55507 10.048 0.41032 14.184-0.35792 2.4787-0.46039 4.9626-1.1832 7.0854-2.062 3.7074-1.5347 6.6488-4.0537 7.1921-6.1594 0.06868-0.26618 0.07985-0.13331 0.04905 0.58362-0.06422 1.495-0.47382 2.4084-1.6455 3.6694-3.1673 3.4086-9.8594 5.7906-17.806 6.3379-1.5271 0.10518-4.8472 0.1015-6.4525-0.00716z" fill="#004080" filter="url(#o)"/>
   <path transform="translate(107.41 147.8)" d="m151.57-111.84 5.8576 15.376s-10.983 6.5898-10.983 10.983 6.5898 8.0542 8.7864 14.644 10.251 17.573 8.0542 25.627-46.861 13.912-46.861 13.912l-29.288-43.2 23.43-33.681 41.003-3.661z" clip-path="url(#x)" fill="url(#a)" filter="url(#n)"/>
   <path transform="translate(-121.41 -28.088)" d="m420.67 74.603s3.1642 0.41201 5.4363 1.2944 6.413 2.3282 9.3194 5.1774 6.791 10.378 8.2839 14.238 2.4541 8.3112 2.3298 10.873-0.94633 4.2726-1.8121 5.6952-3.6242 3.6242-3.6242 3.6242l2.3298 2.071 13.461-13.461-9.0605-37.278-17.344-5.6952-11.131 6.7307 1.8121 6.7307z" clip-path="url(#w)" fill="#366889" filter="url(#p)"/>
   <path transform="translate(-46.132 33.336)" d="m322.59 66.739c-17.062-1.072-31.934-6.6434-37.978-14.227-1.5242-1.9124-2.7676-4.8972-2.7432-6.5847 0.00713-0.49183 0.0085-0.49132 0.2658 0.10068 1.1494 2.6444 4.2366 5.8553 7.8728 8.1882 7.9225 5.0829 19.241 8.2205 32.674 9.0582 13.122 0.81821 27.179-1.2125 37.342-5.3943 2.9773-1.2251 7.0219-3.4853 8.9874-5.0222 2.6646-2.0836 5.3246-5.187 5.9528-6.945 0.21026-0.58844 0.24058-0.61155 0.26941-0.20541 0.06297 0.88689 0.31811-1.3954 0.3581-3.2034 0.03578-1.6174 0.05709-1.724 0.18305-0.91525 0.20995 1.348 0.20291 5.2009-0.01157 6.3318-0.10241 0.54001-0.42916 1.478-0.72611 2.0843l-0.5399 1.1024 0.0794-0.7322c0.06918-0.63783 0.04725-0.60794-0.17015 0.23197-0.3102 1.1984-0.54239 1.554-2.0787 3.1838-8.421 8.933-28.878 14.259-49.737 12.948z" clip-path="url(#v)" fill="#67a6c0" filter="url(#m)"/>
   <path d="m290.86 71.996 3.3653 5.6952 8.8016-3.1065-2.8476-5.6952-9.3194 3.1065z" fill="#c3f2ff" filter="url(#l)"/>
   <path d="m289.03 58.049 0.43654 1.485 5.5067-1.276-0.28489-1.1189-5.6584 0.90986z" fill="#c3f2ff" filter="url(#k)"/>
   <path d="m246.42-31.761v9.5938h0.09375c0.41629 8.6591 16.318 15.625 35.844 15.625s35.395-6.9663 35.812-15.625h0.09375v-8.3125c0 7.1408-16.057 12.938-35.844 12.938s-35.844-5.7967-35.844-12.938c0-0.43624 0.07044-0.85606 0.1875-1.2812h-0.34375zm71.844 1.2812v-1.2812h-0.1875c0.11696 0.425 0.1875 0.84521 0.1875 1.2812z" fill="#347fb6" fill-rule="evenodd"/>
   <path transform="translate(-47.13 188.63)" d="m326.71-195.52c-16.794-0.62813-30.368-6.4468-32.51-13.936-0.17432-0.60948-0.22122-1.5302-0.2556-5.0178-0.03882-3.9396-0.02731-4.2183 0.14827-3.5877 0.10471 0.37604 0.39495 1.0692 0.64498 1.5404s0.45461 1.0424 0.45461 1.2695c0 0.589 0.46143 2.3142 0.84033 3.1418 1.5948 3.4836 5.7868 6.9884 11.391 9.5241 5.8544 2.6488 12.454 4.2709 20.451 5.0263 2.7845 0.26304 10.341 0.22329 12.944-0.06808 6.7336-0.75386 11.412-1.9672 15.791-4.0951 4.9996-2.4295 7.952-5.4481 8.6659-8.86 0.21955-1.0493 0.39005-1.3045 0.26493-0.39642-0.3286 2.3848-1.0802 3.8936-2.8754 5.7727-4.5859 4.8-13.735 8.2078-25.147 9.3669-1.7354 0.17626-3.369 0.26537-6.8601 0.3742-0.7475 0.02331-2.524-0.0012-3.9478-0.05445z" clip-path="url(#z)" fill="#365677" filter="url(#r)"/>
   <path transform="matrix(1.1078 0 0 .94286 -162.37 -39.616)" d="m433.87 9.8854a32.359 13.72 0 1 1 -64.718 0 32.359 13.72 0 1 1 64.718 0z" fill="#336894" fill-rule="evenodd"/>
  </g>
 </g>
</svg>
