<?xml version="1.0" encoding="utf-8"?>
<!-- Generator: Adobe Illustrator 22.1.0, SVG Export Plug-In . SVG Version: 6.00 Build 0)  -->
<svg version="1.1" id="Layer_1" xmlns="http://www.w3.org/2000/svg" xmlns:xlink="http://www.w3.org/1999/xlink" x="0px" y="0px"
	 viewBox="0 0 500 500" style="enable-background:new 0 0 500 500;" xml:space="preserve">
<style type="text/css">
	.st0{fill:#31A9AF;}
	.st1{fill:#B7B7B7;}
	.st2{fill:#8F8F8F;}
	.st3{fill:#FFFFFF;}
	.st4{fill:#CCCCCC;}
	.st5{opacity:0.3;fill:#020202;enable-background:new    ;}
	.st6{opacity:0.3;enable-background:new    ;}
	.st7{fill:#578223;}
	.st8{fill:#B1FF59;}
	.st9{fill:#8DDB37;}
	.st10{fill:#AD902F;}
	.st11{fill:#FFD959;}
	.st12{fill:#DCDCDC;}
	.st13{fill:#EFC73C;}
	.st14{fill:#AD3A2F;}
	.st15{fill:#FF6959;}
	.st16{fill:#EF4E3C;}
	.st17{fill:#2F6FAD;}
	.st18{fill:#59AAFF;}
	.st19{fill:#3C90EF;}
</style>
<title>Artboard 1</title>
<rect class="st0" width="500" height="500"/>
<polygon class="st1" points="328.4,125.1 320.7,120.6 324.1,120.9 331.8,125.4 "/>
<polygon class="st2" points="130.7,323.4 123,319 123,314.5 130.7,319 "/>
<path class="st3" d="M130.7,319l-7.7-4.5c44.4-25.8,85.6-56.8,122.6-92.4c37.4-36.2,63.4-71.3,75.2-101.5l7.7,4.5
	c-11.7,30.2-37.7,65.2-75.2,101.5C216.2,262.2,175.1,293.2,130.7,319z"/>
<path class="st4" d="M328.4,125.1l3.4,0.3c-12.2,31.4-38.9,67.6-77.3,104.7c-37.4,35.9-79,67.3-123.8,93.3v-4.5
	c44.4-25.8,85.6-56.8,122.6-92.4C290.7,190.4,316.7,155.3,328.4,125.1z"/>
<g>
	<polygon class="st4" points="348.7,64.1 351.5,64.8 349.1,136.5 346.3,135.9 	"/>
	<polygon class="st3" points="348.7,64.1 346.3,135.9 306.6,112.4 	"/>
</g>
<g>
	<polygon class="st5" points="174,406.3 341.8,308.6 332.4,303.2 164.7,400.9 	"/>
	<polygon class="st6" points="154.4,395.3 184.6,377.8 214.7,395.3 184.5,412.8 	"/>
	<polygon class="st6" points="207.3,364.7 237.5,347.3 267.6,364.8 237.4,382.2 	"/>
	<polygon class="st6" points="260.2,334.2 290.4,316.7 320.5,334.2 290.3,351.7 	"/>
	<polygon class="st6" points="312.9,303.6 343.1,286.2 373.2,303.6 343,321.1 	"/>
</g>
<g>
	<polygon class="st7" points="184.6,407.7 161.8,394.4 161.5,334.8 184.4,348 	"/>
	<polygon class="st8" points="184.4,348 161.5,334.8 184.5,321.5 207.3,334.8 	"/>
	<polygon class="st9" points="207.3,334.8 207.6,394.4 184.6,407.7 184.4,348 	"/>
</g>
<g>
	<polygon class="st10" points="237.5,377.1 214.7,363.9 214.4,285.3 237.2,298.6 	"/>
	<polygon class="st11" points="237.2,298.6 214.4,285.3 237.4,272.1 260.2,285.3 	"/>
	<polygon class="st12" points="230.6,294.8 253.5,281.5 243.6,275.7 220.7,289 	"/>
	<polygon class="st13" points="260.2,285.3 260.5,363.9 237.5,377.1 237.2,298.6 	"/>
</g>
<g>
	<polygon class="st14" points="290.4,346.6 267.6,333.3 267.3,235.9 290.1,249.2 	"/>
	<polygon class="st15" points="290.1,249.2 267.3,235.9 290.3,222.7 313.1,235.9 	"/>
	<polygon class="st16" points="313.1,235.9 313.4,333.3 290.4,346.6 290.1,249.2 	"/>
</g>
<g>
	<polygon class="st17" points="343.4,316 320.5,302.7 320.1,167.9 343,181.2 	"/>
	<polygon class="st18" points="343,181.2 320.1,167.9 343.1,154.7 365.9,167.9 	"/>
	<polygon class="st19" points="365.9,167.9 366.3,302.7 343.4,316 343,181.2 	"/>
</g>
<polygon class="st12" points="168,338.5 177.9,344.3 200.8,331 190.9,325.2 "/>
<polygon class="st12" points="273.5,239.6 283.5,245.4 306.4,232 296.4,226.3 "/>
<polygon class="st12" points="353.4,160.6 353.4,160.6 339.2,156.9 336.6,158.5 342.6,162.1 326.3,171.5 326.5,171.6 328.6,172.8 
	336.3,177.3 352.5,167.8 359.4,171.7 361.5,170.5 "/>
</svg>
