<svg xmlns="http://www.w3.org/2000/svg" xmlns:xlink="http://www.w3.org/1999/xlink" width="157" zoomAndPan="magnify" viewBox="0 0 117.75 39.749999" height="53" preserveAspectRatio="xMidYMid meet" version="1.0"><defs><g/><clipPath id="id1"><path d="M 57 9.984375 L 66.886719 9.984375 L 66.886719 24.175781 L 57 24.175781 Z M 57 9.984375 " clip-rule="nonzero"/></clipPath><clipPath id="id2"><path d="M 51.203125 13 L 63 13 L 63 24.175781 L 51.203125 24.175781 Z M 51.203125 13 " clip-rule="nonzero"/></clipPath></defs><g clip-path="url(#id1)"><path fill="#0c59e7" d="M 59.085938 9.988281 L 58.414062 11.210938 L 57.351562 13.144531 L 58.351562 14.964844 L 59.085938 13.625 L 60.113281 15.492188 L 64.886719 24.171875 L 66.886719 24.171875 Z M 59.085938 9.988281 " fill-opacity="1" fill-rule="nonzero"/></g><g clip-path="url(#id2)"><path fill="#ee500e" d="M 52.882812 22.164062 L 57.035156 17.199219 L 60.871094 24.171875 L 62.871094 24.171875 L 57.035156 13.5625 L 55.101562 17.078125 L 51.238281 24.109375 L 51.203125 24.171875 Z M 52.882812 22.164062 " fill-opacity="1" fill-rule="nonzero"/></g><g fill="#000000" fill-opacity="1"><g transform="translate(43.283545, 27.796522)"><g><path d="M 0.4375 -2.9375 L 1.671875 -2.9375 C 1.984375 -2.9375 2.257812 -2.875 2.5 -2.75 C 2.738281 -2.625 2.925781 -2.445312 3.0625 -2.21875 C 3.195312 -2 3.265625 -1.75 3.265625 -1.46875 C 3.265625 -1.175781 3.195312 -0.921875 3.0625 -0.703125 C 2.925781 -0.484375 2.738281 -0.3125 2.5 -0.1875 C 2.257812 -0.0625 1.984375 0 1.671875 0 L 0.4375 0 Z M 1.65625 -0.359375 C 1.882812 -0.359375 2.085938 -0.40625 2.265625 -0.5 C 2.453125 -0.59375 2.59375 -0.722656 2.6875 -0.890625 C 2.789062 -1.054688 2.84375 -1.25 2.84375 -1.46875 C 2.84375 -1.6875 2.789062 -1.878906 2.6875 -2.046875 C 2.59375 -2.210938 2.453125 -2.335938 2.265625 -2.421875 C 2.085938 -2.515625 1.882812 -2.5625 1.65625 -2.5625 L 0.859375 -2.5625 L 0.859375 -0.359375 Z M 1.65625 -0.359375 "/></g></g></g><g fill="#000000" fill-opacity="1"><g transform="translate(46.741315, 27.796522)"><g><path d="M 2.40625 0 L 1.765625 -0.90625 C 1.691406 -0.894531 1.628906 -0.890625 1.578125 -0.890625 L 0.859375 -0.890625 L 0.859375 0 L 0.4375 0 L 0.4375 -2.9375 L 1.578125 -2.9375 C 1.960938 -2.9375 2.265625 -2.84375 2.484375 -2.65625 C 2.703125 -2.476562 2.8125 -2.226562 2.8125 -1.90625 C 2.8125 -1.6875 2.753906 -1.492188 2.640625 -1.328125 C 2.523438 -1.171875 2.363281 -1.054688 2.15625 -0.984375 L 2.859375 0 Z M 1.578125 -1.25 C 1.835938 -1.25 2.035156 -1.304688 2.171875 -1.421875 C 2.316406 -1.535156 2.390625 -1.695312 2.390625 -1.90625 C 2.390625 -2.125 2.316406 -2.285156 2.171875 -2.390625 C 2.035156 -2.503906 1.835938 -2.5625 1.578125 -2.5625 L 0.859375 -2.5625 L 0.859375 -1.25 Z M 1.578125 -1.25 "/></g></g></g><g fill="#000000" fill-opacity="1"><g transform="translate(49.784655, 27.796522)"><g><path d="M 0.4375 -2.9375 L 0.859375 -2.9375 L 0.859375 0 L 0.4375 0 Z M 0.4375 -2.9375 "/></g></g></g><g fill="#000000" fill-opacity="1"><g transform="translate(51.082366, 27.796522)"><g><path d="M 0.859375 -2.5625 L 0.859375 -1.546875 L 2.328125 -1.546875 L 2.328125 -1.1875 L 0.859375 -1.1875 L 0.859375 0 L 0.4375 0 L 0.4375 -2.9375 L 2.515625 -2.9375 L 2.515625 -2.5625 Z M 0.859375 -2.5625 "/></g></g></g><g fill="#000000" fill-opacity="1"><g transform="translate(53.740579, 27.796522)"><g><path d="M 1.015625 -2.5625 L 0.015625 -2.5625 L 0.015625 -2.9375 L 2.4375 -2.9375 L 2.4375 -2.5625 L 1.4375 -2.5625 L 1.4375 0 L 1.015625 0 Z M 1.015625 -2.5625 "/></g></g></g><g fill="#000000" fill-opacity="1"><g transform="translate(56.197856, 27.796522)"><g/></g></g><g fill="#000000" fill-opacity="1"><g transform="translate(57.323934, 27.796522)"><g><path d="M 3.15625 0 L 3.15625 -2.140625 L 2.09375 -0.359375 L 1.90625 -0.359375 L 0.84375 -2.125 L 0.84375 0 L 0.4375 0 L 0.4375 -2.9375 L 0.78125 -2.9375 L 2 -0.875 L 3.21875 -2.9375 L 3.5625 -2.9375 L 3.5625 0 Z M 3.15625 0 "/></g></g></g><g fill="#000000" fill-opacity="1"><g transform="translate(61.321719, 27.796522)"><g><path d="M 0.4375 -2.9375 L 0.859375 -2.9375 L 0.859375 0 L 0.4375 0 Z M 0.4375 -2.9375 "/></g></g></g><g fill="#000000" fill-opacity="1"><g transform="translate(62.619429, 27.796522)"><g><path d="M 2.953125 -2.9375 L 2.953125 0 L 2.625 0 L 0.859375 -2.1875 L 0.859375 0 L 0.4375 0 L 0.4375 -2.9375 L 0.78125 -2.9375 L 2.546875 -0.75 L 2.546875 -2.9375 Z M 2.953125 -2.9375 "/></g></g></g><g fill="#000000" fill-opacity="1"><g transform="translate(66.018593, 27.796522)"><g><path d="M 2.5625 -0.359375 L 2.5625 0 L 0.4375 0 L 0.4375 -2.9375 L 2.515625 -2.9375 L 2.515625 -2.5625 L 0.859375 -2.5625 L 0.859375 -1.671875 L 2.328125 -1.671875 L 2.328125 -1.3125 L 0.859375 -1.3125 L 0.859375 -0.359375 Z M 2.5625 -0.359375 "/></g></g></g><g fill="#000000" fill-opacity="1"><g transform="translate(68.823321, 27.796522)"><g><path d="M 2.40625 0 L 1.765625 -0.90625 C 1.691406 -0.894531 1.628906 -0.890625 1.578125 -0.890625 L 0.859375 -0.890625 L 0.859375 0 L 0.4375 0 L 0.4375 -2.9375 L 1.578125 -2.9375 C 1.960938 -2.9375 2.265625 -2.84375 2.484375 -2.65625 C 2.703125 -2.476562 2.8125 -2.226562 2.8125 -1.90625 C 2.8125 -1.6875 2.753906 -1.492188 2.640625 -1.328125 C 2.523438 -1.171875 2.363281 -1.054688 2.15625 -0.984375 L 2.859375 0 Z M 1.578125 -1.25 C 1.835938 -1.25 2.035156 -1.304688 2.171875 -1.421875 C 2.316406 -1.535156 2.390625 -1.695312 2.390625 -1.90625 C 2.390625 -2.125 2.316406 -2.285156 2.171875 -2.390625 C 2.035156 -2.503906 1.835938 -2.5625 1.578125 -2.5625 L 0.859375 -2.5625 L 0.859375 -1.25 Z M 1.578125 -1.25 "/></g></g></g><g fill="#000000" fill-opacity="1"><g transform="translate(71.866661, 27.796522)"><g><path d="M 1.296875 0.03125 C 1.078125 0.03125 0.863281 0 0.65625 -0.0625 C 0.445312 -0.132812 0.285156 -0.222656 0.171875 -0.328125 L 0.328125 -0.65625 C 0.441406 -0.5625 0.582031 -0.484375 0.75 -0.421875 C 0.925781 -0.359375 1.109375 -0.328125 1.296875 -0.328125 C 1.535156 -0.328125 1.710938 -0.363281 1.828125 -0.4375 C 1.953125 -0.519531 2.015625 -0.632812 2.015625 -0.78125 C 2.015625 -0.875 1.984375 -0.953125 1.921875 -1.015625 C 1.859375 -1.078125 1.773438 -1.125 1.671875 -1.15625 C 1.578125 -1.195312 1.441406 -1.238281 1.265625 -1.28125 C 1.046875 -1.332031 0.867188 -1.382812 0.734375 -1.4375 C 0.597656 -1.488281 0.484375 -1.566406 0.390625 -1.671875 C 0.296875 -1.785156 0.25 -1.9375 0.25 -2.125 C 0.25 -2.28125 0.285156 -2.421875 0.359375 -2.546875 C 0.441406 -2.671875 0.566406 -2.769531 0.734375 -2.84375 C 0.910156 -2.925781 1.117188 -2.96875 1.359375 -2.96875 C 1.535156 -2.96875 1.707031 -2.941406 1.875 -2.890625 C 2.039062 -2.847656 2.1875 -2.785156 2.3125 -2.703125 L 2.171875 -2.375 C 2.046875 -2.445312 1.910156 -2.503906 1.765625 -2.546875 C 1.628906 -2.585938 1.492188 -2.609375 1.359375 -2.609375 C 1.128906 -2.609375 0.953125 -2.5625 0.828125 -2.46875 C 0.710938 -2.382812 0.65625 -2.273438 0.65625 -2.140625 C 0.65625 -2.046875 0.6875 -1.96875 0.75 -1.90625 C 0.820312 -1.84375 0.90625 -1.789062 1 -1.75 C 1.101562 -1.71875 1.238281 -1.679688 1.40625 -1.640625 C 1.625 -1.585938 1.800781 -1.535156 1.9375 -1.484375 C 2.070312 -1.429688 2.1875 -1.347656 2.28125 -1.234375 C 2.375 -1.128906 2.421875 -0.984375 2.421875 -0.796875 C 2.421875 -0.640625 2.378906 -0.5 2.296875 -0.375 C 2.210938 -0.25 2.085938 -0.148438 1.921875 -0.078125 C 1.753906 -0.00390625 1.546875 0.03125 1.296875 0.03125 Z M 1.296875 0.03125 "/></g></g></g></svg>