<svg xmlns="http://www.w3.org/2000/svg" xmlns:xlink="http://www.w3.org/1999/xlink" width="128" zoomAndPan="magnify" viewBox="0 0 96 95.999999" height="128" preserveAspectRatio="xMidYMid meet" version="1.0"><defs><g/><clipPath id="id1"><path d="M 43 24.871094 L 67.449219 24.871094 L 67.449219 58.621094 L 43 58.621094 Z M 43 24.871094 " clip-rule="nonzero"/></clipPath><clipPath id="id2"><path d="M 28.449219 33 L 58 33 L 58 58.621094 L 28.449219 58.621094 Z M 28.449219 33 " clip-rule="nonzero"/></clipPath></defs><g clip-path="url(#id1)"><path fill="#0c59e7" d="M 48.054688 24.875 L 46.378906 27.789062 L 43.738281 32.386719 L 46.226562 36.714844 L 48.054688 33.53125 L 50.609375 37.972656 L 62.46875 58.621094 L 67.445312 58.621094 Z M 48.054688 24.875 " fill-opacity="1" fill-rule="nonzero"/></g><g clip-path="url(#id2)"><path fill="#ee500e" d="M 32.628906 53.847656 L 42.957031 42.035156 L 52.488281 58.621094 L 57.460938 58.621094 L 42.957031 33.375 L 38.148438 41.746094 L 28.542969 58.472656 L 28.453125 58.621094 Z M 32.628906 53.847656 " fill-opacity="1" fill-rule="nonzero"/></g><g fill="#000000" fill-opacity="1"><g transform="translate(10.188631, 67.410313)"><g><path d="M 1.0625 -7.109375 L 4.0625 -7.109375 C 4.8125 -7.109375 5.476562 -6.957031 6.0625 -6.65625 C 6.644531 -6.363281 7.097656 -5.945312 7.421875 -5.40625 C 7.742188 -4.863281 7.90625 -4.242188 7.90625 -3.546875 C 7.90625 -2.859375 7.742188 -2.242188 7.421875 -1.703125 C 7.097656 -1.160156 6.644531 -0.738281 6.0625 -0.4375 C 5.476562 -0.144531 4.8125 0 4.0625 0 L 1.0625 0 Z M 4 -0.890625 C 4.570312 -0.890625 5.078125 -1 5.515625 -1.21875 C 5.953125 -1.4375 6.289062 -1.75 6.53125 -2.15625 C 6.769531 -2.5625 6.890625 -3.023438 6.890625 -3.546875 C 6.890625 -4.078125 6.769531 -4.546875 6.53125 -4.953125 C 6.289062 -5.359375 5.953125 -5.671875 5.515625 -5.890625 C 5.078125 -6.109375 4.570312 -6.21875 4 -6.21875 L 2.078125 -6.21875 L 2.078125 -0.890625 Z M 4 -0.890625 "/></g></g></g><g fill="#000000" fill-opacity="1"><g transform="translate(18.574191, 67.410313)"><g><path d="M 5.8125 0 L 4.28125 -2.1875 C 4.09375 -2.164062 3.945312 -2.15625 3.84375 -2.15625 L 2.078125 -2.15625 L 2.078125 0 L 1.0625 0 L 1.0625 -7.109375 L 3.84375 -7.109375 C 4.757812 -7.109375 5.476562 -6.882812 6 -6.4375 C 6.53125 -6 6.796875 -5.394531 6.796875 -4.625 C 6.796875 -4.082031 6.660156 -3.617188 6.390625 -3.234375 C 6.117188 -2.847656 5.734375 -2.566406 5.234375 -2.390625 L 6.921875 0 Z M 3.8125 -3.03125 C 4.445312 -3.03125 4.929688 -3.164062 5.265625 -3.4375 C 5.609375 -3.71875 5.78125 -4.113281 5.78125 -4.625 C 5.78125 -5.144531 5.609375 -5.539062 5.265625 -5.8125 C 4.929688 -6.082031 4.445312 -6.21875 3.8125 -6.21875 L 2.078125 -6.21875 L 2.078125 -3.03125 Z M 3.8125 -3.03125 "/></g></g></g><g fill="#000000" fill-opacity="1"><g transform="translate(25.9547, 67.410313)"><g><path d="M 1.0625 -7.109375 L 2.078125 -7.109375 L 2.078125 0 L 1.0625 0 Z M 1.0625 -7.109375 "/></g></g></g><g fill="#000000" fill-opacity="1"><g transform="translate(29.101823, 67.410313)"><g><path d="M 2.078125 -6.21875 L 2.078125 -3.75 L 5.640625 -3.75 L 5.640625 -2.875 L 2.078125 -2.875 L 2.078125 0 L 1.0625 0 L 1.0625 -7.109375 L 6.078125 -7.109375 L 6.078125 -6.21875 Z M 2.078125 -6.21875 "/></g></g></g><g fill="#000000" fill-opacity="1"><g transform="translate(35.548348, 67.410313)"><g><path d="M 2.484375 -6.21875 L 0.046875 -6.21875 L 0.046875 -7.109375 L 5.921875 -7.109375 L 5.921875 -6.21875 L 3.484375 -6.21875 L 3.484375 0 L 2.484375 0 Z M 2.484375 -6.21875 "/></g></g></g><g fill="#000000" fill-opacity="1"><g transform="translate(41.507575, 67.410313)"><g/></g></g><g fill="#000000" fill-opacity="1"><g transform="translate(44.238466, 67.410313)"><g><path d="M 7.65625 0 L 7.640625 -5.171875 L 5.078125 -0.859375 L 4.609375 -0.859375 L 2.046875 -5.15625 L 2.046875 0 L 1.0625 0 L 1.0625 -7.109375 L 1.90625 -7.109375 L 4.859375 -2.109375 L 7.796875 -7.109375 L 8.625 -7.109375 L 8.625 0 Z M 7.65625 0 "/></g></g></g><g fill="#000000" fill-opacity="1"><g transform="translate(53.933634, 67.410313)"><g><path d="M 1.0625 -7.109375 L 2.078125 -7.109375 L 2.078125 0 L 1.0625 0 Z M 1.0625 -7.109375 "/></g></g></g><g fill="#000000" fill-opacity="1"><g transform="translate(57.080756, 67.410313)"><g><path d="M 7.1875 -7.109375 L 7.1875 0 L 6.34375 0 L 2.078125 -5.296875 L 2.078125 0 L 1.0625 0 L 1.0625 -7.109375 L 1.90625 -7.109375 L 6.171875 -1.8125 L 6.171875 -7.109375 Z M 7.1875 -7.109375 "/></g></g></g><g fill="#000000" fill-opacity="1"><g transform="translate(65.324188, 67.410313)"><g><path d="M 6.21875 -0.890625 L 6.21875 0 L 1.0625 0 L 1.0625 -7.109375 L 6.078125 -7.109375 L 6.078125 -6.21875 L 2.078125 -6.21875 L 2.078125 -4.046875 L 5.640625 -4.046875 L 5.640625 -3.171875 L 2.078125 -3.171875 L 2.078125 -0.890625 Z M 6.21875 -0.890625 "/></g></g></g><g fill="#000000" fill-opacity="1"><g transform="translate(72.126031, 67.410313)"><g><path d="M 5.8125 0 L 4.28125 -2.1875 C 4.09375 -2.164062 3.945312 -2.15625 3.84375 -2.15625 L 2.078125 -2.15625 L 2.078125 0 L 1.0625 0 L 1.0625 -7.109375 L 3.84375 -7.109375 C 4.757812 -7.109375 5.476562 -6.882812 6 -6.4375 C 6.53125 -6 6.796875 -5.394531 6.796875 -4.625 C 6.796875 -4.082031 6.660156 -3.617188 6.390625 -3.234375 C 6.117188 -2.847656 5.734375 -2.566406 5.234375 -2.390625 L 6.921875 0 Z M 3.8125 -3.03125 C 4.445312 -3.03125 4.929688 -3.164062 5.265625 -3.4375 C 5.609375 -3.71875 5.78125 -4.113281 5.78125 -4.625 C 5.78125 -5.144531 5.609375 -5.539062 5.265625 -5.8125 C 4.929688 -6.082031 4.445312 -6.21875 3.8125 -6.21875 L 2.078125 -6.21875 L 2.078125 -3.03125 Z M 3.8125 -3.03125 "/></g></g></g><g fill="#000000" fill-opacity="1"><g transform="translate(79.506541, 67.410313)"><g><path d="M 3.140625 0.078125 C 2.597656 0.078125 2.078125 -0.00390625 1.578125 -0.171875 C 1.085938 -0.335938 0.703125 -0.550781 0.421875 -0.8125 L 0.796875 -1.609375 C 1.066406 -1.359375 1.410156 -1.15625 1.828125 -1 C 2.253906 -0.851562 2.691406 -0.78125 3.140625 -0.78125 C 3.722656 -0.78125 4.160156 -0.878906 4.453125 -1.078125 C 4.742188 -1.273438 4.890625 -1.539062 4.890625 -1.875 C 4.890625 -2.125 4.8125 -2.320312 4.65625 -2.46875 C 4.5 -2.625 4.300781 -2.738281 4.0625 -2.8125 C 3.832031 -2.894531 3.503906 -2.988281 3.078125 -3.09375 C 2.546875 -3.226562 2.113281 -3.359375 1.78125 -3.484375 C 1.457031 -3.609375 1.175781 -3.804688 0.9375 -4.078125 C 0.707031 -4.347656 0.59375 -4.707031 0.59375 -5.15625 C 0.59375 -5.539062 0.691406 -5.882812 0.890625 -6.1875 C 1.085938 -6.488281 1.390625 -6.726562 1.796875 -6.90625 C 2.203125 -7.09375 2.707031 -7.1875 3.3125 -7.1875 C 3.726562 -7.1875 4.140625 -7.128906 4.546875 -7.015625 C 4.953125 -6.910156 5.300781 -6.757812 5.59375 -6.5625 L 5.265625 -5.75 C 4.960938 -5.9375 4.640625 -6.078125 4.296875 -6.171875 C 3.960938 -6.273438 3.632812 -6.328125 3.3125 -6.328125 C 2.738281 -6.328125 2.304688 -6.222656 2.015625 -6.015625 C 1.722656 -5.804688 1.578125 -5.535156 1.578125 -5.203125 C 1.578125 -4.953125 1.660156 -4.75 1.828125 -4.59375 C 1.992188 -4.445312 2.195312 -4.332031 2.4375 -4.25 C 2.675781 -4.164062 3 -4.078125 3.40625 -3.984375 C 3.945312 -3.847656 4.378906 -3.71875 4.703125 -3.59375 C 5.023438 -3.46875 5.300781 -3.269531 5.53125 -3 C 5.769531 -2.738281 5.890625 -2.382812 5.890625 -1.9375 C 5.890625 -1.5625 5.785156 -1.21875 5.578125 -0.90625 C 5.378906 -0.601562 5.070312 -0.363281 4.65625 -0.1875 C 4.25 -0.0078125 3.742188 0.078125 3.140625 0.078125 Z M 3.140625 0.078125 "/></g></g></g></svg>