<svg xmlns="http://www.w3.org/2000/svg" xmlns:xlink="http://www.w3.org/1999/xlink" width="157" zoomAndPan="magnify" viewBox="0 0 117.75 39.749999" height="53" preserveAspectRatio="xMidYMid meet" version="1.0"><defs><g/><clipPath id="id1"><path d="M 0.242188 12 L 117.257812 12 L 117.257812 27 L 0.242188 27 Z M 0.242188 12 " clip-rule="nonzero"/></clipPath></defs><g fill="#f2eddb" fill-opacity="1"><g transform="translate(1.962613, 23.919359)"><g><path d="M 0.25 -2.109375 L 0.90625 -2.109375 L 0.90625 -7.90625 L 0.25 -7.90625 L 0.25 -10.03125 L 5.484375 -10.03125 C 6.921875 -10.03125 8.0625 -9.632812 8.90625 -8.84375 C 9.757812 -8.0625 10.1875 -6.785156 10.1875 -5.015625 C 10.1875 -3.242188 9.757812 -1.960938 8.90625 -1.171875 C 8.0625 -0.390625 6.921875 0 5.484375 0 L 0.25 0 Z M 5.265625 -2.109375 C 5.554688 -2.109375 5.773438 -2.1875 5.921875 -2.34375 C 6.066406 -2.5 6.140625 -2.738281 6.140625 -3.0625 L 6.140625 -6.953125 C 6.140625 -7.597656 5.847656 -7.921875 5.265625 -7.921875 L 4.515625 -7.921875 L 4.515625 -2.109375 Z M 5.265625 -2.109375 "/></g></g></g><g fill="#f2eddb" fill-opacity="1"><g transform="translate(12.862516, 23.919359)"><g><path d="M 0.25 -2.109375 L 0.90625 -2.109375 L 0.90625 -7.921875 L 0.25 -7.921875 L 0.25 -10.03125 L 6.171875 -10.03125 C 7.285156 -10.03125 8.132812 -9.800781 8.71875 -9.34375 C 9.300781 -8.882812 9.59375 -8.144531 9.59375 -7.125 C 9.59375 -6.550781 9.472656 -6.050781 9.234375 -5.625 C 9.003906 -5.207031 8.675781 -4.914062 8.25 -4.75 L 8.265625 -4.625 C 9.085938 -4.5 9.5 -3.992188 9.5 -3.109375 L 9.5 -2.109375 L 10.109375 -2.109375 L 10.109375 0 L 6.015625 0 L 6.015625 -3.03125 C 6.015625 -3.363281 5.960938 -3.613281 5.859375 -3.78125 C 5.765625 -3.957031 5.613281 -4.078125 5.40625 -4.140625 C 5.195312 -4.203125 4.898438 -4.234375 4.515625 -4.234375 L 4.515625 -2.109375 L 5.359375 -2.109375 L 5.359375 0 L 0.25 0 Z M 5.203125 -5.796875 C 5.453125 -5.796875 5.640625 -5.863281 5.765625 -6 C 5.890625 -6.132812 5.953125 -6.34375 5.953125 -6.625 L 5.953125 -7.09375 C 5.953125 -7.375 5.890625 -7.582031 5.765625 -7.71875 C 5.640625 -7.851562 5.453125 -7.921875 5.203125 -7.921875 L 4.515625 -7.921875 L 4.515625 -5.796875 Z M 5.203125 -5.796875 "/></g></g></g><g fill="#f2eddb" fill-opacity="1"><g transform="translate(23.710883, 23.919359)"><g><path d="M 0.25 0 L 0.25 -2.109375 L 0.90625 -2.109375 L 0.90625 -7.921875 L 0.25 -7.921875 L 0.25 -10.03125 L 5.15625 -10.03125 L 5.15625 -7.921875 L 4.515625 -7.921875 L 4.515625 -2.109375 L 5.15625 -2.109375 L 5.15625 0 Z M 0.25 0 "/></g></g></g><g fill="#f2eddb" fill-opacity="1"><g transform="translate(29.663338, 23.919359)"><g><path d="M 0.25 0 L 0.25 -2.109375 L 0.90625 -2.109375 L 0.90625 -7.921875 L 0.25 -7.921875 L 0.25 -10.03125 L 7.96875 -10.03125 L 7.96875 -6.6875 L 5.6875 -6.6875 L 5.6875 -7.921875 L 4.515625 -7.921875 L 4.515625 -5.78125 L 6.453125 -5.78125 L 6.453125 -4.3125 L 4.515625 -4.3125 L 4.515625 -2.109375 L 6.203125 -2.109375 L 6.203125 0 Z M 0.25 0 "/></g></g></g><g fill="#f2eddb" fill-opacity="1"><g transform="translate(38.347196, 23.919359)"><g><path d="M 9.875 -6.90625 L 7.65625 -6.90625 L 7.65625 -7.921875 L 6.828125 -7.921875 L 6.828125 -2.109375 L 7.734375 -2.109375 L 7.734375 0 L 2.3125 0 L 2.3125 -2.109375 L 3.21875 -2.109375 L 3.21875 -7.921875 L 2.390625 -7.921875 L 2.390625 -6.90625 L 0.1875 -6.90625 L 0.1875 -10.03125 L 9.875 -10.03125 Z M 9.875 -6.90625 "/></g></g></g><g fill="#f2eddb" fill-opacity="1"><g transform="translate(48.937882, 23.919359)"><g/></g></g><g fill="#f2eddb" fill-opacity="1"><g transform="translate(53.344261, 23.919359)"><g><path d="M 14.46875 -7.921875 L 13.828125 -7.921875 L 13.828125 -2.109375 L 14.46875 -2.109375 L 14.46875 0 L 9.609375 0 L 9.609375 -2.109375 L 10.21875 -2.109375 L 10.21875 -6.625 L 8.03125 0 L 6.125 0 L 3.859375 -6.5625 L 3.859375 -2.109375 L 4.484375 -2.109375 L 4.484375 0 L 0.25 0 L 0.25 -2.109375 L 0.90625 -2.109375 L 0.90625 -7.921875 L 0.25 -7.921875 L 0.25 -10.03125 L 6.15625 -10.03125 L 7.5 -6 L 8.796875 -10.03125 L 14.46875 -10.03125 Z M 14.46875 -7.921875 "/></g></g></g><g fill="#f2eddb" fill-opacity="1"><g transform="translate(68.611841, 23.919359)"><g><path d="M 0.25 0 L 0.25 -2.109375 L 0.90625 -2.109375 L 0.90625 -7.921875 L 0.25 -7.921875 L 0.25 -10.03125 L 5.15625 -10.03125 L 5.15625 -7.921875 L 4.515625 -7.921875 L 4.515625 -2.109375 L 5.15625 -2.109375 L 5.15625 0 Z M 0.25 0 "/></g></g></g><g fill="#f2eddb" fill-opacity="1"><g transform="translate(74.564298, 23.919359)"><g><path d="M 7.6875 -10.03125 L 11.90625 -10.03125 L 11.90625 -7.921875 L 11.265625 -7.921875 L 11.265625 0 L 7.640625 0 L 3.859375 -5.8125 L 3.859375 -2.109375 L 4.484375 -2.109375 L 4.484375 0 L 0.25 0 L 0.25 -2.109375 L 0.90625 -2.109375 L 0.90625 -7.921875 L 0.25 -7.921875 L 0.25 -10.03125 L 4.90625 -10.03125 L 8.296875 -4.859375 L 8.296875 -7.921875 L 7.6875 -7.921875 Z M 7.6875 -10.03125 "/></g></g></g><g fill="#f2eddb" fill-opacity="1"><g transform="translate(87.242192, 23.919359)"><g><path d="M 0.25 0 L 0.25 -2.109375 L 0.90625 -2.109375 L 0.90625 -7.921875 L 0.25 -7.921875 L 0.25 -10.03125 L 8.953125 -10.03125 L 8.953125 -6.140625 L 6.078125 -6.140625 L 6.078125 -7.921875 L 4.515625 -7.921875 L 4.515625 -5.875 L 5.640625 -5.875 L 5.640625 -4.40625 L 4.515625 -4.40625 L 4.515625 -2.109375 L 6.078125 -2.109375 L 6.078125 -4.15625 L 8.953125 -4.15625 L 8.953125 0 Z M 0.25 0 "/></g></g></g><g fill="#f2eddb" fill-opacity="1"><g transform="translate(96.969661, 23.919359)"><g><path d="M 0.25 -2.109375 L 0.90625 -2.109375 L 0.90625 -7.921875 L 0.25 -7.921875 L 0.25 -10.03125 L 6.171875 -10.03125 C 7.285156 -10.03125 8.132812 -9.800781 8.71875 -9.34375 C 9.300781 -8.882812 9.59375 -8.144531 9.59375 -7.125 C 9.59375 -6.550781 9.472656 -6.050781 9.234375 -5.625 C 9.003906 -5.207031 8.675781 -4.914062 8.25 -4.75 L 8.265625 -4.625 C 9.085938 -4.5 9.5 -3.992188 9.5 -3.109375 L 9.5 -2.109375 L 10.109375 -2.109375 L 10.109375 0 L 6.015625 0 L 6.015625 -3.03125 C 6.015625 -3.363281 5.960938 -3.613281 5.859375 -3.78125 C 5.765625 -3.957031 5.613281 -4.078125 5.40625 -4.140625 C 5.195312 -4.203125 4.898438 -4.234375 4.515625 -4.234375 L 4.515625 -2.109375 L 5.359375 -2.109375 L 5.359375 0 L 0.25 0 Z M 5.203125 -5.796875 C 5.453125 -5.796875 5.640625 -5.863281 5.765625 -6 C 5.890625 -6.132812 5.953125 -6.34375 5.953125 -6.625 L 5.953125 -7.09375 C 5.953125 -7.375 5.890625 -7.582031 5.765625 -7.71875 C 5.640625 -7.851562 5.453125 -7.921875 5.203125 -7.921875 L 4.515625 -7.921875 L 4.515625 -5.796875 Z M 5.203125 -5.796875 "/></g></g></g><g fill="#f2eddb" fill-opacity="1"><g transform="translate(107.81803, 23.919359)"><g><path d="M 4.25 0.1875 C 3.425781 0.1875 2.644531 0.113281 1.90625 -0.03125 C 1.175781 -0.175781 0.613281 -0.335938 0.21875 -0.515625 L 0.21875 -3.0625 L 3.0625 -3.0625 C 3.0625 -2.800781 3.117188 -2.609375 3.234375 -2.484375 C 3.359375 -2.367188 3.578125 -2.3125 3.890625 -2.3125 C 4.160156 -2.3125 4.351562 -2.347656 4.46875 -2.421875 C 4.582031 -2.503906 4.640625 -2.628906 4.640625 -2.796875 C 4.640625 -2.929688 4.582031 -3.046875 4.46875 -3.140625 C 4.363281 -3.242188 4.171875 -3.347656 3.890625 -3.453125 L 2.78125 -3.84375 C 1.832031 -4.195312 1.148438 -4.617188 0.734375 -5.109375 C 0.316406 -5.609375 0.109375 -6.273438 0.109375 -7.109375 C 0.109375 -8.117188 0.4375 -8.882812 1.09375 -9.40625 C 1.757812 -9.9375 2.875 -10.203125 4.4375 -10.203125 C 5.1875 -10.203125 5.890625 -10.128906 6.546875 -9.984375 C 7.203125 -9.835938 7.734375 -9.640625 8.140625 -9.390625 L 8.140625 -7.078125 L 5.5625 -7.078125 C 5.5625 -7.503906 5.289062 -7.71875 4.75 -7.71875 C 4.5 -7.71875 4.316406 -7.6875 4.203125 -7.625 C 4.097656 -7.5625 4.046875 -7.445312 4.046875 -7.28125 C 4.046875 -7.132812 4.109375 -7.019531 4.234375 -6.9375 C 4.359375 -6.851562 4.5625 -6.765625 4.84375 -6.671875 L 5.96875 -6.28125 C 6.875 -5.96875 7.535156 -5.5625 7.953125 -5.0625 C 8.367188 -4.570312 8.578125 -3.925781 8.578125 -3.125 C 8.578125 -2.039062 8.207031 -1.21875 7.46875 -0.65625 C 6.738281 -0.09375 5.664062 0.1875 4.25 0.1875 Z M 4.25 0.1875 "/></g></g></g><g clip-path="url(#id1)"><path stroke-linecap="butt" transform="matrix(0.746895, 0, 0, 0.746895, -12.215472, 13.706012)" fill="none" stroke-linejoin="miter" d="M 18.844483 11.167386 L 19.707431 11.167386 L 19.707431 3.427006 L 18.844483 3.427006 L 18.844483 0.576663 L 25.847435 0.576663 C 27.76684 0.576663 29.293996 1.104892 30.428903 2.156119 C 31.55858 3.212576 32.128649 4.922782 32.128649 7.291966 C 32.128649 9.65592 31.55858 11.366126 30.428903 12.422583 C 29.293996 13.47381 27.76684 14.002039 25.847435 14.002039 L 18.844483 14.002039 Z M 25.538866 11.167386 C 25.925885 11.167386 26.218764 11.068016 26.417504 10.864047 C 26.616243 10.654847 26.710383 10.330588 26.710383 9.891269 L 26.710383 4.682203 C 26.710383 3.834945 26.318134 3.406086 25.538866 3.406086 L 24.539938 3.406086 L 24.539938 11.167386 Z M 33.441376 11.167386 L 34.304323 11.167386 L 34.304323 3.406086 L 33.441376 3.406086 L 33.441376 0.576663 L 41.354346 0.576663 C 42.839662 0.576663 43.969339 0.885232 44.748607 1.491911 C 45.533105 2.103819 45.925354 3.092287 45.925354 4.462543 C 45.925354 5.231351 45.768454 5.895559 45.459885 6.460398 C 45.151316 7.025237 44.706767 7.417486 44.131468 7.637145 L 44.152388 7.809735 C 45.255916 7.982324 45.810294 8.656992 45.810294 9.844199 L 45.810294 11.167386 L 46.615712 11.167386 L 46.615712 14.002039 L 41.150376 14.002039 L 41.150376 9.943569 C 41.150376 9.49902 41.082386 9.159071 40.951637 8.928952 C 40.820887 8.698832 40.611687 8.547163 40.329268 8.468713 C 40.046849 8.385033 39.64937 8.343193 39.131601 8.343193 L 39.131601 11.167386 L 40.271738 11.167386 L 40.271738 14.002039 L 33.441376 14.002039 Z M 40.062539 6.240739 C 40.397258 6.240739 40.648297 6.151829 40.815657 5.974009 C 40.977786 5.79096 41.061466 5.51377 41.061466 5.137211 L 41.061466 4.509613 C 41.061466 4.133054 40.977786 3.855865 40.815657 3.678045 C 40.648297 3.500226 40.397258 3.406086 40.062539 3.406086 L 39.131601 3.406086 L 39.131601 6.240739 Z M 47.965049 14.002039 L 47.965049 11.167386 L 48.827997 11.167386 L 48.827997 3.406086 L 47.965049 3.406086 L 47.965049 0.576663 L 54.518222 0.576663 L 54.518222 3.406086 L 53.655274 3.406086 L 53.655274 11.167386 L 54.518222 11.167386 L 54.518222 14.002039 Z M 55.935548 14.002039 L 55.935548 11.167386 L 56.798496 11.167386 L 56.798496 3.406086 L 55.935548 3.406086 L 55.935548 0.576663 L 66.249082 0.576663 L 66.249082 5.048302 L 63.19477 5.048302 L 63.19477 3.406086 L 61.625774 3.406086 L 61.625774 6.272118 L 64.230307 6.272118 L 64.230307 8.238593 L 61.625774 8.238593 L 61.625774 11.167386 L 63.885128 11.167386 L 63.885128 14.002039 Z M 80.427576 4.755422 L 77.462174 4.755422 L 77.462174 3.406086 L 76.358646 3.406086 L 76.358646 11.167386 L 77.566773 11.167386 L 77.566773 14.002039 L 70.318012 14.002039 L 70.318012 11.167386 L 71.526139 11.167386 L 71.526139 3.406086 L 70.422612 3.406086 L 70.422612 4.755422 L 67.451979 4.755422 L 67.451979 0.576663 L 80.427576 0.576663 Z M 106.666419 3.406086 L 105.803472 3.406086 L 105.803472 11.167386 L 106.666419 11.167386 L 106.666419 14.002039 L 100.144626 14.002039 L 100.144626 11.167386 L 100.970964 11.167386 L 100.970964 5.137211 L 98.042171 14.002039 L 95.489938 14.002039 L 92.467005 5.220891 L 92.467005 11.167386 L 93.293343 11.167386 L 93.293343 14.002039 L 87.639728 14.002039 L 87.639728 11.167386 L 88.502676 11.167386 L 88.502676 3.406086 L 87.639728 3.406086 L 87.639728 0.576663 L 95.542238 0.576663 L 97.336123 5.958319 L 99.056789 0.576663 L 106.666419 0.576663 Z M 108.078516 14.002039 L 108.078516 11.167386 L 108.941464 11.167386 L 108.941464 3.406086 L 108.078516 3.406086 L 108.078516 0.576663 L 114.631689 0.576663 L 114.631689 3.406086 L 113.773971 3.406086 L 113.773971 11.167386 L 114.631689 11.167386 L 114.631689 14.002039 Z M 125.98599 0.576663 L 131.644836 0.576663 L 131.644836 3.406086 L 130.781888 3.406086 L 130.781888 14.002039 L 125.93369 14.002039 L 120.881523 6.219819 L 120.881523 11.167386 L 121.707861 11.167386 L 121.707861 14.002039 L 116.049015 14.002039 L 116.049015 11.167386 L 116.911963 11.167386 L 116.911963 3.406086 L 116.049015 3.406086 L 116.049015 0.576663 L 122.27793 0.576663 L 126.812328 7.495935 L 126.812328 3.406086 L 125.98599 3.406086 Z M 133.025552 14.002039 L 133.025552 11.167386 L 133.8885 11.167386 L 133.8885 3.406086 L 133.025552 3.406086 L 133.025552 0.576663 L 144.667503 0.576663 L 144.667503 5.78573 L 140.802542 5.78573 L 140.802542 3.406086 L 138.715778 3.406086 L 138.715778 6.130909 L 140.232474 6.130909 L 140.232474 8.097384 L 138.715778 8.097384 L 138.715778 11.167386 L 140.802542 11.167386 L 140.802542 8.442563 L 144.667503 8.442563 L 144.667503 14.002039 Z M 146.048219 11.167386 L 146.911167 11.167386 L 146.911167 3.406086 L 146.048219 3.406086 L 146.048219 0.576663 L 153.966419 0.576663 C 155.446505 0.576663 156.581412 0.885232 157.36068 1.491911 C 158.145178 2.103819 158.537427 3.092287 158.537427 4.462543 C 158.537427 5.231351 158.380528 5.895559 158.066729 6.460398 C 157.758159 7.025237 157.31884 7.417486 156.738312 7.637145 L 156.764462 7.809735 C 157.862759 7.982324 158.417138 8.656992 158.417138 9.844199 L 158.417138 11.167386 L 159.227786 11.167386 L 159.227786 14.002039 L 153.75722 14.002039 L 153.75722 9.943569 C 153.75722 9.49902 153.69446 9.159071 153.56371 8.928952 C 153.42773 8.698832 153.223761 8.547163 152.936112 8.468713 C 152.658922 8.385033 152.256213 8.343193 151.743675 8.343193 L 151.743675 11.167386 L 152.878582 11.167386 L 152.878582 14.002039 L 146.048219 14.002039 Z M 152.674612 6.240739 C 153.009331 6.240739 153.255141 6.151829 153.4225 5.974009 C 153.58986 5.79096 153.66831 5.51377 153.66831 5.137211 L 153.66831 4.509613 C 153.66831 4.133054 153.58986 3.855865 153.4225 3.678045 C 153.255141 3.500226 153.009331 3.406086 152.674612 3.406086 L 151.743675 3.406086 L 151.743675 6.240739 Z M 165.922169 14.242618 C 164.813411 14.242618 163.772644 14.148478 162.789407 13.960199 C 161.806169 13.766689 161.047821 13.55226 160.519592 13.311681 L 160.519592 9.891269 L 164.316563 9.891269 C 164.316563 10.252138 164.395012 10.508408 164.557142 10.670537 C 164.719272 10.832667 165.012151 10.911117 165.43578 10.911117 C 165.791419 10.911117 166.047688 10.858817 166.204588 10.748987 C 166.361487 10.639157 166.439937 10.477028 166.439937 10.257368 C 166.439937 10.074319 166.361487 9.917419 166.209818 9.78667 C 166.063378 9.65069 165.807109 9.51471 165.43578 9.373501 L 163.955694 8.855732 C 162.679577 8.374573 161.759099 7.804505 161.199491 7.150756 C 160.645112 6.497008 160.367923 5.60791 160.367923 4.493923 C 160.367923 3.139356 160.812472 2.109049 161.701569 1.397771 C 162.595897 0.691723 164.081213 0.336084 166.162748 0.336084 C 167.161675 0.336084 168.097843 0.440683 168.976481 0.639423 C 169.860349 0.838162 170.571627 1.104892 171.115545 1.439611 L 171.115545 4.530533 L 167.658524 4.530533 C 167.658524 3.955234 167.302885 3.667585 166.591607 3.667585 C 166.246428 3.667585 166.005848 3.714655 165.859409 3.798335 C 165.712969 3.882015 165.644979 4.033684 165.644979 4.253344 C 165.644979 4.446853 165.728659 4.603753 165.890789 4.718812 C 166.058148 4.833872 166.335337 4.954162 166.711897 5.079682 L 168.212903 5.59745 C 169.43149 6.015849 170.320587 6.554538 170.880196 7.213516 C 171.434575 7.877724 171.716994 8.740672 171.716994 9.80759 C 171.716994 11.271986 171.225375 12.375513 170.242138 13.118171 C 169.2589 13.866059 167.820654 14.242618 165.922169 14.242618 Z M 165.922169 14.242618 " stroke="#5e17eb" stroke-width="0.398948" stroke-opacity="1" stroke-miterlimit="4"/></g></svg>