<?xml version='1.0' encoding='utf-8'?>
<svg xmlns="http://www.w3.org/2000/svg" version="1.1" width="1279px" height="960px" viewBox="-113 593 1279 960"> <g id="layer1"> <g style="fill:rgb(0,174,199); fill-opacity:1.0; stroke-linejoin: miter"> <path d="M-147.0116,590.97235C-147.26143,590.97235,-147.50099,591.0717,-147.67752,591.2484C-147.85419,591.42505,-147.95348,591.66455,-147.95348,591.91437L-147.95226,1558.6008C-147.95226,1559.1216,-147.53053,1559.5435,-147.01039,1559.5435L1205.3486,1559.5446C1205.598,1559.5446,1205.8374,1559.4452,1206.0145,1559.2684C1206.1908,1559.0922,1206.2903,1558.8524,1206.2903,1558.6022L1206.2891,591.91565C1206.2891,591.39545,1205.8674,590.97394,1205.3474,590.97394L-147.0116,590.97235 Z"/> </g> <g> <g style="fill:rgb(255,183,13); fill-opacity:1.0; stroke-linejoin: miter"> <path d="M298.90018,1022.91754L299.4366,1012.965Q303.78897,982.85016,326.62204,964.5225Q349.6163,946.2071,381.15012,949.1857Q411.26477,953.53766,429.59314,976.3724Q435.46515,983.7542,439.32074,992.4997L442.58447,1001.50165Q445.29816,1010.8001,445.4632,1020.9476Q445.09613,1052.099,424.69464,1073.0543Q404.2951,1094.0114,373.16434,1095.2152Q342.01443,1094.8463,321.05942,1074.4464Q300.10507,1054.0463,298.90018,1022.91754 Z"/> </g> <g> <g style="fill:rgb(253,217,8); fill-opacity:1.0; stroke-linejoin: miter"> <path d="M283.12778,1023.3831L283.77762,1011.28815Q289.06638,974.69086,316.81497,952.42Q344.75833,930.1606,383.079,933.7808Q419.6767,939.0688,441.94977,966.8173Q449.08734,975.7878,453.77374,986.4179L457.73798,997.35626Q461.03595,1008.6573,461.2365,1020.98834Q460.78986,1058.8448,435.99805,1084.3119Q411.2063,1109.7775,373.37637,1111.2406Q335.52042,1110.7926,310.05484,1086.0018Q284.58987,1061.2113,283.12778,1023.3831 Z"/> </g> <g style="fill:rgb(238,170,1); fill-opacity:1.0; stroke-linejoin: miter"> <path d="M297.06406,1022.9711L297.61417,1012.7692Q302.07553,981.8997,325.48056,963.1121Q349.05075,944.3388,381.3746,947.3923Q412.24353,951.8532,431.03107,975.2596Q437.0501,982.82684,441.0025,991.7912L444.34808,1001.01825Q447.1297,1010.54926,447.29895,1020.95197Q446.9223,1052.8829,426.0099,1074.3636Q405.09955,1095.8458,373.18887,1097.0795Q341.25858,1096.7015,319.7786,1075.7909Q298.2993,1054.8793,297.06406,1022.9711 Z"/> </g> <g style="fill:rgb(238,170,1); fill-opacity:1.0; stroke-linejoin: miter"> <path d="M365.42166,981.549L365.42172,989.1026Q359.1083,991.6951,355.16263,997.3321Q351.21695,1002.9687,351.2169,1010.18414Q351.2169,1014.80646,353.0206,1018.9775Q354.8243,1023.0358,357.8685,1026.0804Q360.91245,1029.1237,365.0836,1030.9271Q369.1418,1032.7311,373.7643,1032.7313L374.4409,1032.7318Q375.79324,1032.9564,376.69528,1033.9713Q377.59714,1034.986,377.59714,1036.4518Q377.59732,1038.0297,376.47,1039.1573Q375.34256,1040.284,373.7643,1040.2845Q372.18588,1040.2843,371.0587,1039.1573Q369.93112,1038.0297,369.93112,1036.4518L351.21695,1036.4523Q351.217,1040.0592,352.3441,1043.3278Q353.35892,1046.485,355.2753,1049.3033Q357.07895,1052.0089,359.6722,1054.1508Q362.26517,1056.1808,365.42172,1057.4203L365.42178,1065.9891L384.36145,1065.9894L384.36157,1056.4061Q389.77264,1053.4745,393.04242,1048.1761Q396.3117,1042.9908,396.31177,1036.4523Q396.31146,1031.8297,394.5078,1027.6583Q392.70416,1023.59955,389.66022,1020.5561Q386.61615,1017.5119,382.4448,1015.70807Q378.38638,1013.9041,373.76407,1013.90424L373.08774,1013.90485Q371.73483,1013.6789,370.83292,1012.5512Q369.93112,1011.5369,369.93112,1010.18414Q369.93112,1008.6055,371.05826,1007.3652Q372.18594,1006.23834,373.76425,1006.23834Q375.34256,1006.2382,376.47,1007.4786Q377.59726,1008.6059,377.59726,1010.18414L396.3117,1010.18475Q396.31177,1003.64606,393.0421,998.3465Q389.77258,993.04816,384.3614,990.11725L384.36127,981.549 Z"/> </g> <g style="fill:rgb(253,217,8); fill-opacity:1.0; stroke-linejoin: miter"> <path d="M363.83536,982.49554L363.83536,990.04913Q357.5222,992.64215,353.57614,998.27875Q349.63065,1003.91547,349.63058,1011.1307Q349.6307,1015.7531,351.43454,1019.925Q353.23856,1023.98334,356.28238,1027.0267Q359.32578,1030.0702,363.4974,1031.8739Q367.55582,1033.6779,372.1779,1033.6786L372.85428,1033.6791Q374.20724,1033.9037,375.10904,1034.9178Q376.01096,1035.933,376.01096,1037.3978Q376.01096,1038.9769,374.88358,1040.1036Q373.75632,1041.2311,372.17795,1041.2311Q370.59976,1041.2308,369.47232,1040.1039Q368.34482,1038.9769,368.34482,1037.3981L349.6307,1037.399Q349.6307,1041.0057,350.75797,1044.2748Q351.77255,1047.432,353.68918,1050.2499Q355.49295,1052.9559,358.08597,1055.098Q360.679,1057.1273,363.83536,1058.3673L363.83536,1066.9352L382.77524,1066.9362L382.77518,1057.3527Q388.18658,1054.422,391.456,1049.1227Q394.72522,1043.9374,394.72546,1037.3986Q394.72546,1032.7762,392.92163,1028.6056Q391.11792,1024.5463,388.0741,1021.50287Q385.0299,1018.4588,380.85867,1016.65485Q376.8002,1014.85077,372.17795,1014.85114L371.5013,1014.85175Q370.1486,1014.6254,369.24673,1013.498Q368.34482,1012.4832,368.34482,1011.13055Q368.34482,1009.55194,369.47226,1008.31244Q370.59964,1007.185,372.17795,1007.185Q373.75638,1007.18524,374.8837,1008.4251Q376.01114,1009.5523,376.01114,1011.1308L394.7254,1011.1318Q394.7254,1004.5927,391.456,999.2935Q388.18652,993.9948,382.77518,991.06415L382.77512,982.4958 Z"/> </g> </g> </g> <g> <g style="fill:rgb(0,0,0); fill-opacity:1.0; stroke-linejoin: miter"> <path d="M549.844,1140.8601L776.95435,1026.0537L864.62665,1199.4829L637.5165,1314.2909L549.844,1140.8601 Z M549.844,1140.8601L776.95435,1026.0537L864.62665,1199.4829L637.5165,1314.2909L549.844,1140.8601 Z M549.844,1140.8601L776.95435,1026.0537L864.62665,1199.4829L637.5165,1314.2909L549.844,1140.8601 Z M549.844,1140.8601L776.95435,1026.0537L864.62665,1199.4829L637.5165,1314.2909L549.844,1140.8601 Z"/> </g> <g style="fill:rgb(84,94,115); fill-opacity:1.0; stroke-linejoin: miter"> <path d="M870.8436,1201.5249L635.4765,1320.5118L543.6274,1138.8184L778.99854,1019.84125L870.8436,1201.5249 Z M639.5583,1308.0743L858.412,1197.4451L774.9125,1032.2703L556.063,1142.9062L639.5583,1308.0743 Z"/> </g> <g style="fill:rgb(84,94,115); fill-opacity:1.0; stroke-linejoin: miter"> <path d="M574.71106,1149.0278L768.78735,1050.9202L839.7601,1191.3157L645.684,1289.4247L574.71106,1149.0278 Z M574.71106,1149.0278L768.78735,1050.9202L839.7601,1191.3157L645.684,1289.4247L574.71106,1149.0278 Z M574.71106,1149.0278L768.78735,1050.9202L839.7601,1191.3157L645.684,1289.4247L574.71106,1149.0278 Z M574.71106,1149.0278L768.78735,1050.9202L839.7601,1191.3157L645.684,1289.4247L574.71106,1149.0278 Z"/> </g> <g style="fill:rgb(236,240,241); fill-opacity:1.0; stroke-linejoin: miter"> <path d="M845.9767,1193.3577L643.6439,1295.6447L568.4944,1146.9861L770.83124,1044.7078L845.9767,1193.3577 Z M647.7257,1283.2074L833.54553,1189.2781L766.7453,1057.137L580.93005,1151.0742L647.7257,1283.2074 Z"/> </g> <g style="fill:rgb(252,184,38); fill-opacity:1.0; stroke-linejoin: miter"> <path d="M652.758,1154.0002C658.0254,1164.4199,653.8484,1177.137,643.4285,1182.4043C633.0088,1187.6714,620.2919,1183.4946,615.0243,1173.075C609.7571,1162.6553,613.9338,1149.938,624.3537,1144.6709C634.7735,1139.4036,647.49066,1143.5806,652.758,1154.0002 Z"/> </g> <g style="fill:rgb(17,160,133); fill-opacity:1.0; stroke-linejoin: miter"> <path d="M814.98804,1152.5686L808.53955,1150.0681L736.0266,1129.6948L716.6746,1199.0994L750.7609,1210.2947L775.7334,1218.4971L833.54553,1189.2781 Z"/> </g> <g style="fill:rgb(38,185,153); fill-opacity:1.0; stroke-linejoin: miter"> <path d="M647.7257,1283.2074L775.7356,1218.5012L750.7609,1210.2947L682.58844,1187.9038L645.6382,1279.0779 Z"/> </g> <g style="fill:rgb(0,0,0); fill-opacity:1.0; stroke-linejoin: miter"> <path d="M651.0745,1080.9031L717.7936,1047.1763L784.5126,1013.44977Q801.7631,1047.574,819.01373,1081.699Q752.29535,1115.426,685.57666,1149.1538Q668.3256,1115.0286,651.0745,1080.9031"/> </g> <g style="fill:rgb(252,184,38); fill-opacity:1.0; stroke-linejoin: miter"> <path d="M673.21106,1080.8743L698.5318,1130.9631L710.5156,1124.9055L698.05927,1100.2649L723.9804,1118.0989L735.42584,1112.3137L710.1047,1062.2246L698.1213,1068.283L710.54315,1092.8555L684.72345,1075.0547 Z M713.8748,1060.3188L739.19556,1110.4075L750.506,1104.69L740.70435,1085.3008L754.97723,1078.0862L749.2594,1066.7756L734.9871,1073.9912L730.90265,1065.9114L750.292,1056.1101L744.57446,1044.7996 Z M746.93066,1043.6084L752.6482,1054.919L764.0262,1049.168L783.6291,1087.9456L794.9399,1082.2285L775.33624,1043.45L786.71423,1037.699L780.99646,1026.3882 Z"/> </g> </g> <g style="fill:rgb(255,183,153); fill-opacity:1.0; stroke-linejoin: miter"> <path d="M186.15652,1097.505L188.66266,1098.0875Q214.17662,1103.6288,222.05382,1110.495L227.96037,1115.4261Q259.15604,1146.6276,269.31973,1154.7748Q287.45578,1170.1749,297.8215,1175.289Q310.64847,1182.1115,328.18503,1184.3751Q348.29465,1187.0448,355.40543,1183.3312Q383.70187,1170.4508,423.6715,1153.6066Q435.4718,1148.014,439.4897,1145.0787Q445.18317,1141.3221,449.63293,1136.7252L469.29382,1114.0243L475.70624,1108.9279L493.2826,1097.2543Q496.4989,1095.0621,502.1914,1087.7633L519.3126,1059.5458Q521.93756,1054.8815,522.38116,1050.0663Q519.68256,1028.6991,505.11896,1030.7684L510.4007,988.39667Q510.21613,977.37714,505.3518,977.2297Q499.4218,976.00726,489.80304,979.85065Q483.45715,984.3077,476.5716,993.1756Q468.9084,1002.3298,469.58893,1021.9034Q460.94153,1029.4926,455.49213,1037.4618L438.66223,1068.5302Q435.24377,1074.3661,428.29645,1082.079Q422.05988,1088.5643,416.2829,1091.1825L397.0382,1099.1337Q393.22174,1100.4835,391.823,1100.319Q390.32373,1100.6183,387.10583,1098.6927Q376.05637,1085.7836,365.20847,1080.2863L356.20676,1076.4369Q334.71072,1069.6322,316.94553,1061.9576Q301.99332,1055.411,293.05478,1048.6051Q287.00308,1044.5216,275.5972,1032.2821L237.75835,988.0661Q225.94069,976.67316,220.88725,974.6541Q202.8491,963.80597,168.65651,977.1878Q150.35689,983.8061,129.30196,997.67914L186.15652,1097.505 Z"/> </g> <g style="fill:rgb(255,183,153); fill-opacity:1.0; stroke-linejoin: miter"> <path d="M361.32278,1088.5155L361.32278,1088.5162Q372.82242,1095.8856,374.97952,1098.8148Q379.0184,1102.9972,379.30307,1108.1749Q379.37503,1109.8834,379.03555,1111.5685Q378.69638,1113.2535,377.98172,1114.8107L377.18228,1116.3097Q374.11807,1120.9435,369.78403,1121.847Q367.83853,1122.3383,364.8857,1122.1461Q364.16275,1122.2086,359.94278,1121.337Q359.12595,1121.2152,354.62436,1119.7941Q351.91306,1118.921,345.30826,1116.341L361.32278,1088.5155 Z"/> </g> <g style="fill:rgb(255,255,255); fill-opacity:1.0; stroke-linejoin: miter"> <path d="M85.23127,986.5859L121.26796,976.4506L157.30452,966.3143Q177.46121,1037.9764,197.61806,1109.639L125.545166,1129.9117Q105.388245,1058.2489,85.23127,986.5859 Z"/> </g> <g style="fill:rgb(255,183,153); fill-opacity:1.0; stroke-linejoin: miter"> <path d="M874.7949,1291.7174L872.2888,1292.3004Q846.7744,1297.8414,838.89716,1304.7074L832.99054,1309.6385Q801.79425,1340.8407,791.6306,1348.9874Q773.49414,1364.3876,763.1288,1369.5018Q750.3014,1376.3241,732.7647,1378.5875Q712.6551,1381.2574,705.5443,1377.5436Q677.24744,1364.664,637.2779,1347.8187Q625.4776,1342.2264,621.4598,1339.2914Q615.766,1335.5345,611.3169,1330.9381L591.6556,1308.236L585.24347,1303.14L567.6667,1291.4664Q564.4507,1289.2745,558.758,1281.9757L541.6371,1253.7583Q539.01215,1249.0942,538.56854,1244.2788Q541.26715,1222.9114,555.8309,1224.981L550.5493,1182.6091Q550.7339,1171.5898,555.5983,1171.4419Q561.52844,1170.2197,571.1471,1174.0635Q577.49286,1178.5203,584.37836,1187.3882Q592.04156,1196.5422,591.3608,1216.116Q600.0083,1223.7048,605.4576,1231.6741L622.2873,1262.7424Q625.70593,1268.5789,632.6534,1276.2917Q638.8898,1282.7767,644.6669,1285.3951L663.9117,1293.3463Q667.72784,1294.6959,669.1268,1294.5314Q670.62616,1294.8307,673.84393,1292.9054Q684.8935,1279.9958,695.7417,1274.4985L704.7433,1270.6499Q726.23956,1263.8445,744.0049,1256.1699Q758.9571,1249.6233,767.89557,1242.8174Q773.9476,1238.7341,785.3535,1226.4949L823.19324,1182.2781Q835.0108,1170.8853,840.06445,1168.8657Q858.1029,1158.0173,892.2961,1171.4001Q910.5959,1178.0181,931.651,1191.8914L874.7949,1291.7174 Z"/> </g> <g style="fill:rgb(255,183,153); fill-opacity:1.0; stroke-linejoin: miter"> <path d="M699.6274,1282.7279L699.6274,1282.7286Q688.1273,1290.0975,685.97034,1293.027Q681.9316,1297.2094,681.64667,1302.3871Q681.5748,1304.0961,681.9142,1305.7811Q682.2535,1307.4662,682.968,1309.0233L683.7676,1310.5223Q686.8318,1315.1556,691.16595,1316.0594Q693.11145,1316.5507,696.0644,1316.3588Q696.78754,1316.4208,701.0072,1315.5494Q701.82404,1315.4283,706.32574,1314.0067Q709.0372,1313.1337,715.6418,1310.5533L699.6274,1282.7279 Z"/> </g> <g style="fill:rgb(255,255,255); fill-opacity:1.0; stroke-linejoin: miter"> <path d="M975.7221,1180.7979L939.6848,1170.6624L903.6482,1160.5264Q883.4905,1232.189,863.33325,1303.8517L935.4072,1324.1254Q955.56445,1252.4617,975.7221,1180.7979 Z"/> </g> <g style="fill:rgb(0,0,0); fill-opacity:1.0; stroke-linejoin: miter"> <path d="M947.7595,1144.3618Q922.9534,1236.5894,898.1474,1328.8173Q1052.2189,1370.2565,1206.2899,1411.6954L1206.2897,1213.8982L1132.251,1193.9841L947.7595,1144.3618 Z"/> </g> <g style="fill:rgb(0,0,0); fill-opacity:1.0; stroke-linejoin: miter"> <path d="M111.45555,954.7668L-57.8322,1008.6424L-147.95287,1037.3231L-147.95253,1237.7797Q10.715585,1187.285,169.3837,1136.7902Q166.57822,1127.9747,163.77281,1119.1595L125.545166,1129.9117L163.77118,1119.1595Q141.18416,1048.1808,118.59563,977.20245L118.594406,977.2038Q115.02556,965.9847,111.45555,954.7668 Z"/> </g> <g style="fill:rgb(179,7,7); fill-opacity:0.2509804; stroke-linejoin: miter"> <path d="M830.0513,1253.8188L778.5775,1291.8822Q766.81616,1303.9117,759.8219,1309.4296Q746.3958,1319.7172,740.249,1321.5992Q730.3137,1325.5675,717.4201,1326.5253Q699.6639,1327.8514,678.91174,1326.1112Q706.68494,1328.7074,714.639,1328.3209Q724.30396,1327.6993,729.6211,1326.5875Q740.45374,1323.9489,746.0228,1320.9108Q752.0854,1317.85,762.7324,1309.6666L789.32153,1286.982Q828.58246,1256.1685,830.0513,1253.8188"/> </g> <g style="fill:rgb(255,0,0); fill-opacity:1.0; stroke-linejoin: miter"> <path d="M788.31146,1318.8566L788.3115,1318.8568L788.3115,1318.8573L788.31146,1318.8566"/> </g> <g style="fill:rgb(241,226,226); fill-opacity:1.0; stroke-linejoin: miter"> <path d="M697.86847,1285.5721L707.17914,1317.7662Q698.89624,1319.5255,694.4522,1319.5773Q690.50757,1319.6981,687.18555,1318.4481Q684.7188,1317.3539,683.6882,1316.3605Q682.3484,1315.2318,681.2573,1313.7743Q679.0509,1310.8033,678.1303,1307.1876Q677.2098,1303.5717,677.9638,1300.2045L678.47595,1298.6063Q679.11566,1297.0638,680.20605,1295.7323Q682.42773,1293.0878,685.9602,1291.0558Q691.3613,1288.0555,697.86847,1285.5721"/> </g> <g style="fill:rgb(179,7,7); fill-opacity:0.2509804; stroke-linejoin: miter"> <path d="M227.10097,1053.7404L278.57474,1091.8041Q290.3361,1103.8334,297.3304,1109.3512Q310.75644,1119.639,316.90323,1121.5209Q326.83853,1125.4891,339.73215,1126.4469Q357.48837,1127.7733,378.2405,1126.0328Q350.46732,1128.629,342.51328,1128.2426Q332.8483,1127.621,327.53116,1126.5092Q316.69852,1123.8705,311.12943,1120.8324Q305.06686,1117.7716,294.41983,1109.5885L267.83078,1086.9034Q228.56978,1056.0902,227.10097,1053.7404"/> </g> <g style="fill:rgb(255,0,0); fill-opacity:1.0; stroke-linejoin: miter"> <path d="M268.84085,1118.7782L268.84073,1118.7784L268.84073,1118.7787L268.84085,1118.7782"/> </g> <g style="fill:rgb(241,226,226); fill-opacity:1.0; stroke-linejoin: miter"> <path d="M359.28378,1085.4938L349.9731,1117.6881Q358.25607,1119.4471,362.70004,1119.4989Q366.64468,1119.62,369.96677,1118.37Q372.43344,1117.2758,373.46414,1116.2821Q374.80386,1115.1534,375.89493,1113.6959Q378.1014,1110.725,379.02194,1107.1093Q379.94247,1103.4935,379.18845,1100.1261L378.6763,1098.528Q378.0366,1096.9855,376.9462,1095.6539Q374.72452,1093.0094,371.19205,1090.9774Q365.79092,1087.9772,359.28378,1085.4938"/> </g> </g> </svg>