<?xml version="1.0" encoding="UTF-8"?>
<svg width="500" height="500" version="1.1" viewBox="0 0 500.00001 500.00001" xmlns="http://www.w3.org/2000/svg">
 <g transform="translate(0 -552.36)">
  <rect y="552.36" width="500" height="500" fill="#fafcf6"/>
 </g>
 <g transform="translate(-12.112 8.1228)">
  <path d="m363 148.46-207.09 22.889v144.63h207.09c6.8303 0 12.33-5.4978 12.33-12.328v-130.39l-10.553-2.2504 1.1758-22.177c-0.94712-0.23159-1.9327-0.36914-2.9531-0.36914z" fill="#a50000"/>
  <path d="m145.91 164.52v141.46h207.09c0.4269 0 0.84859-0.0215 1.2641-0.0634 0.41548-0.0419 0.82475-0.10433 1.2268-0.18616 0.40204-0.0818 0.79684-0.18312 1.1834-0.30282s0.76485-0.25783 1.1339-0.41336c0.36903-0.15554 0.72879-0.32848 1.0783-0.51782 0.34947-0.18933 0.68866-0.39506 1.0165-0.61616s0.64446-0.45757 0.94871-0.70841c0.30426-0.25083 0.59619-0.51602 0.87478-0.79455s0.54384-0.5704 0.79473-0.87459 0.48743-0.62071 0.70858-0.94854c0.22116-0.32782 0.42694-0.66695 0.61633-1.0164s0.36238-0.70913 0.51796-1.0781c0.15558-0.36898 0.29375-0.74724 0.41349-1.1338s0.22105-0.78128 0.30291-1.1833c0.0819-0.40201 0.14428-0.81126 0.18623-1.2267 0.042-0.41546 0.0634-0.83715 0.0634-1.264v-139.69c0-0.4269-0.0215-0.84859-0.0634-1.2641-0.0419-0.41548-0.10437-0.82475-0.18623-1.2268-0.0819-0.40204-0.18317-0.79684-0.30291-1.1834s-0.25791-0.76485-0.41349-1.1339c-0.15558-0.36903-0.32857-0.72879-0.51796-1.0783-0.18939-0.34947-0.39517-0.68866-0.61633-1.0165-0.22115-0.32788-0.45769-0.64446-0.70858-0.94871-0.25089-0.30426-0.51614-0.59619-0.79473-0.87478s-0.57117-0.54967-0.87647-0.81003-0.62333-0.51-0.95282-0.74572c-0.32949-0.23573-0.67045-0.45753-1.0216-0.66221s-0.71253-0.39224-1.0828-0.55948c-0.37032-0.16723-0.74958-0.31414-1.1365-0.43752-0.38696-0.12338-0.7816-0.22324-1.1827-0.29636-0.40107-0.0731-0.80857-0.11951-1.2212-0.13597-0.41267-0.0165-0.83051-3e-3 -1.2522 0.0436l-12.943 1.4305-12.943 1.4305-12.943 1.4305-12.943 1.4305-12.943 1.4305-12.943 1.4305-12.943 1.4305-12.943 1.4305-12.943 1.4305-12.943 1.4305-12.943 1.4305-12.943 1.4305-12.943 1.4305-12.943 1.4305-12.943 1.4305z" fill="none" stroke="#000" stroke-linecap="round" stroke-linejoin="round" stroke-width="8"/>
  <path d="m380.38 209.55-2.2942-33.496s-22.942-8.2592-31.201-8.2592c-8.2592 0-199.6-3.2119-199.6-3.2119l-3.2119 169.31 211.99 8.718 16.977-1.3765 4.5884-10.553z" fill="#fafcf6" fill-rule="evenodd"/>
  <path d="m152.34 172.78v163.07l214.73 6.873 11.471-14.561 0.44336-152.3c-1.1-0.33071-1.8025 1.9947-3.0083 1.9675z" fill="#a50000"/>
  <path d="m378.31 271.77v-8.0997m0-11.77v-70.005c0-6.8303-5.5015-12.173-12.33-12.33l-13.754-0.31545-13.754-0.31546-13.754-0.31545-13.754-0.31546-13.754-0.31545-13.754-0.31546-13.754-0.31545-13.754-0.31546-13.754-0.31545-13.754-0.31545-13.754-0.31546-13.754-0.31545-13.754-0.31546-13.754-0.31545-13.754-0.31546-13.754-0.31545v172.61l13.754 0.31545 13.754 0.31546 13.754 0.31545 113.47 2.6025 9.2756 0.12731m11.356 0.34587 6.8771 0.15773 7.6797 0.17614m12.952 0.29704 17.195 0.39433c6.8285 0.1566 12.33-5.4978 12.33-12.328v-46.234" fill="none" stroke="#000" stroke-linecap="round" stroke-linejoin="round" stroke-width="8"/>
 </g>
</svg>
