<?xml version="1.0" encoding="utf-8"?>
<!-- Generator: Adobe Illustrator 22.1.0, SVG Export Plug-In . SVG Version: 6.00 Build 0)  -->
<svg version="1.1" id="Layer_1" xmlns="http://www.w3.org/2000/svg" xmlns:xlink="http://www.w3.org/1999/xlink" x="0px" y="0px"
	 viewBox="0 0 500 500" style="enable-background:new 0 0 500 500;" xml:space="preserve">
<style type="text/css">
	.st0{fill:#0BBAFF;}
	.st1{opacity:0.8;fill:#EC8457;}
	.st2{fill:#73BCC4;}
	.st3{fill:#211F1F;}
	.st4{opacity:0.34;}
	.st5{fill:#CDCDCE;}
	.st6{fill:#F1F1F1;}
	.st7{fill:#5B6375;}
	.st8{fill:#F5F3F4;}
	.st9{fill:#2F363E;}
	.st10{opacity:0.16;fill:#3D3835;}
	.st11{opacity:0.3;fill:#FFFFFF;}
	.st12{opacity:0.3;fill:#C0C0C0;}
	.st13{fill:#EC8457;}
	.st14{fill:#F69874;}
</style>
<rect x="0.3" class="st0" width="500" height="500"/>
<g>
	<g>
		<rect x="379.6" y="270.4" class="st1" width="10.1" height="23.8"/>
		<rect x="394.3" y="262.6" class="st1" width="10.1" height="31.6"/>
		<rect x="438.2" y="262.6" class="st1" width="10.1" height="31.6"/>
		<rect x="408.9" y="232.4" class="st1" width="10.1" height="61.8"/>
		<rect x="423.6" y="245" class="st1" width="10.1" height="49.3"/>
		<rect x="452.9" y="223.6" class="st1" width="10.1" height="70.6"/>
	</g>
	<path class="st2" d="M121.9,152.7l-16.9,7.4l-48.5,21.2l-16.9,7.4c-3.9,1.7-6.1,5.8-4.6,9.1l8.2,18.7L84,310.2
		c1.5,3.3,5.9,4.6,9.8,2.9l0-0.1l82.3-35.9l0,0c3.7-1.6,5.7-5.3,4.7-8.5c-0.1-0.2-0.1-0.4-0.2-0.6l-40.9-93.6l-8.2-18.7
		C130.2,152.3,125.8,151,121.9,152.7z"/>
	
		<rect x="50.2" y="184.4" transform="matrix(0.9164 -0.4002 0.4002 0.9164 -66.683 50.7415)" class="st3" width="75.8" height="1.3"/>
	
		<rect x="53.6" y="194.6" transform="matrix(0.9164 -0.4002 0.4002 0.9164 -71.4064 48.3171)" class="st3" width="52.7" height="1"/>
	
		<rect x="56.1" y="200.2" transform="matrix(0.9164 -0.4002 0.4002 0.9164 -73.4747 49.7864)" class="st3" width="52.7" height="1.1"/>
	
		<rect x="57.9" y="202.3" transform="matrix(0.9164 -0.4002 0.4002 0.9164 -73.3679 54.49)" class="st3" width="71.8" height="1.2"/>
	
		<rect x="61.4" y="213.2" transform="matrix(0.9164 -0.4002 0.4002 0.9164 -78.4363 51.7365)" class="st3" width="46.5" height="1"/>
	
		<rect x="63.1" y="215.5" transform="matrix(0.9164 -0.4002 0.4002 0.9164 -78.6251 55.5385)" class="st3" width="61.1" height="1.1"/>
	<rect x="65" y="218.8" transform="matrix(0.9164 -0.4002 0.4002 0.9164 -79.473 58.2411)" class="st3" width="69.5" height="1.1"/>
	
		<rect x="67.8" y="226.9" transform="matrix(0.9164 -0.4002 0.4002 0.9164 -83.0915 57.0072)" class="st3" width="54.3" height="1.2"/>
	
		<rect x="69.5" y="229.5" transform="matrix(0.9164 -0.4002 0.4002 0.9164 -83.4725 60.3901)" class="st3" width="66.7" height="1.1"/>
	
		<rect x="71.5" y="233.7" transform="matrix(0.9164 -0.4002 0.4002 0.9164 -84.7529 62.5779)" class="st3" width="71.8" height="1"/>
	
		<rect x="75.1" y="244.4" transform="matrix(0.9164 -0.4002 0.4002 0.9164 -89.8212 59.8242)" class="st3" width="46.5" height="1.1"/>
	
		<rect x="88.6" y="275.4" transform="matrix(0.9164 -0.4002 0.4002 0.9164 -101.1131 67.8459)" class="st3" width="46.5" height="1.1"/>
	
		<rect x="76.8" y="246.7" transform="matrix(0.9164 -0.4002 0.4002 0.9164 -90.0103 63.6266)" class="st3" width="61.1" height="1.2"/>
	
		<rect x="78.6" y="250.1" transform="matrix(0.9164 -0.4002 0.4002 0.9164 -90.8579 66.3289)" class="st3" width="69.5" height="1.1"/>
	
		<rect x="81.5" y="258.3" transform="matrix(0.9164 -0.4002 0.4002 0.9164 -94.4767 65.0951)" class="st3" width="54.3" height="0.8"/>
	<rect x="83.2" y="260.8" transform="matrix(0.9164 -0.4002 0.4002 0.9164 -94.8577 68.478)" class="st3" width="66.7" height="1"/>
	
		<rect x="90.1" y="278.1" transform="matrix(0.9164 -0.4002 0.4002 0.9164 -101.1749 72.7003)" class="st3" width="66.7" height="1"/>
	
		<rect x="85.3" y="265.9" transform="matrix(0.9164 -0.4002 0.4002 0.9164 -96.6797 69.7723)" class="st3" width="66.7" height="0.9"/>
	<path class="st4" d="M105.6,161.5l13.2,22.6c0,0,1,3.3,4.3,2.1c3.4-1.2,16.8-11.8,16.8-11.8L105.6,161.5z"/>
	<path class="st5" d="M105,160.2l9.4,21.4c0,0,1,3.3,4.3,2.1c3.4-1.2,21.2-9.3,21.2-9.3L105,160.2z"/>
	
		<ellipse transform="matrix(0.9997 -2.407529e-02 2.407529e-02 0.9997 -5.7637 5.7041)" class="st6" cx="234" cy="242.2" rx="115.2" ry="115.2"/>
	<path class="st7" d="M341.4,242.2c0,59.3-48.1,107.4-107.4,107.4c-59.3,0-107.4-48.1-107.4-107.4c0-59.3,48.1-107.4,107.4-107.4
		C293.3,134.9,341.4,182.9,341.4,242.2z"/>
	
		<ellipse transform="matrix(0.9994 -3.564596e-02 3.564596e-02 0.9994 -8.4854 8.4955)" class="st6" cx="234" cy="242.2" rx="75.4" ry="75.4"/>
	
		<ellipse transform="matrix(7.822000e-02 -0.9969 0.9969 7.822000e-02 -25.7695 456.5656)" class="st7" cx="234" cy="242.2" rx="53.2" ry="53.2"/>
	<path class="st8" d="M259.4,242.2c0,14-11.4,25.4-25.4,25.4c-14,0-25.4-11.4-25.4-25.4c0-14,11.4-25.4,25.4-25.4
		C248,216.8,259.4,228.2,259.4,242.2z"/>
	<path class="st9" d="M398.8,179.8l-13.8-9.5c0.4-1.7,0.2-3.5-0.6-5.2c-0.6-1.2-1.6-2.2-2.7-2.9l1.6-17.1c0.2-2.3-1.3-3.5-3.5-2.5
		l-36,16.4c-2.1,1-4.3,3.7-4.7,6l-3.5,17.9l-97.5,53.3c-3.7,1.9-7.3,2.2-5.4,5.9c1.9,3.7,4.2,0.9,7.9-0.9l99.4-46.7l13.7,8.1
		c2,1.2,5.4,1.3,7.5,0.3l37.2-18.8C400.6,183.1,400.7,181.2,398.8,179.8z"/>
	<path class="st7" d="M384.4,165.2c-0.6-1.2-1.6-2.2-2.7-2.9l1.6-17.1c0.2-2.3-1.3-3.5-3.5-2.5l-36,16.4c-2.1,1-4.3,3.7-4.7,6
		l-3.5,17.9l-97.5,53.3c-3.6,1.8-7.1,2.2-5.6,5.6l152-76.2C384.5,165.5,384.5,165.4,384.4,165.2z"/>
	<path class="st10" d="M341.4,243.1c0,0.3,0,0.5,0,0.9H235.2c-1.5,0-2.9-1.2-2.9-2.8v-0.3c0-1.5,1.4-2.7,2.9-2.7h106.1
		C341.3,239.8,341.4,241.5,341.4,243.1z"/>
	<g>
		<path class="st6" d="M271.7,296.1l-13.1-4.1l-37.5-11.6l-13.1-4.1c-3.1-0.9-6.2,0.3-7,2.9l-4.5,14.5L174.1,366
			c-0.8,2.6,1.1,5.4,4.1,6.4l0,0l63.6,19.8l0,0c2.9,0.9,5.8-0.2,6.8-2.5c0.1-0.2,0.1-0.3,0.2-0.5l22.5-72.4l4.5-14.5
			C276.6,299.8,274.8,297,271.7,296.1z"/>
		
			<rect x="236.7" y="269.7" transform="matrix(0.2968 -0.9549 0.9549 0.2968 -117.6359 435.8745)" class="st3" width="1" height="56.2"/>
		
			<rect x="227.3" y="279.9" transform="matrix(0.2968 -0.9549 0.9549 0.2968 -125.9283 428.0164)" class="st3" width="0.7" height="39.1"/>
		
			<rect x="225.9" y="284.3" transform="matrix(0.2968 -0.9549 0.9549 0.2968 -131.0868 429.8034)" class="st3" width="0.8" height="39.1"/>
		
			<rect x="231.2" y="283.9" transform="matrix(0.2968 -0.9549 0.9549 0.2968 -133.7045 439.5822)" class="st3" width="0.9" height="53.3"/>
		
			<rect x="220.9" y="294.9" transform="matrix(0.2968 -0.9549 0.9549 0.2968 -142.5106 430.8366)" class="st3" width="0.7" height="34.5"/>
		
			<rect x="224.8" y="295.2" transform="matrix(0.2968 -0.9549 0.9549 0.2968 -145.1954 438.5752)" class="st3" width="0.8" height="45.3"/>
		
			<rect x="226.5" y="296.9" transform="matrix(0.2968 -0.9549 0.9549 0.2968 -148.5775 443.6452)" class="st3" width="0.8" height="51.5"/>
		
			<rect x="219.9" y="304.8" transform="matrix(0.2968 -0.9549 0.9549 0.2968 -155.3061 438.9127)" class="st3" width="0.9" height="40.3"/>
		
			<rect x="223.1" y="305.5" transform="matrix(0.2968 -0.9549 0.9549 0.2968 -158.1344 445.6698)" class="st3" width="0.8" height="49.5"/>
		
			<rect x="223.7" y="308.1" transform="matrix(0.2968 -0.9549 0.9549 0.2968 -162.0993 449.4158)" class="st3" width="0.8" height="53.3"/>
		
			<rect x="213.4" y="319.1" transform="matrix(0.2968 -0.9549 0.9549 0.2968 -170.9054 440.6703)" class="st3" width="0.8" height="34.5"/>
		
			<rect x="205.9" y="343.1" transform="matrix(0.2968 -0.9549 0.9549 0.2968 -199.0676 450.4233)" class="st3" width="0.8" height="34.5"/>
		
			<rect x="217.2" y="319.4" transform="matrix(0.2968 -0.9549 0.9549 0.2968 -173.5901 448.4091)" class="st3" width="0.9" height="45.3"/>
		
			<rect x="219" y="321.1" transform="matrix(0.2968 -0.9549 0.9549 0.2968 -176.9722 453.4787)" class="st3" width="0.8" height="51.5"/>
		
			<rect x="212.5" y="329" transform="matrix(0.2968 -0.9549 0.9549 0.2968 -183.7009 448.7466)" class="st3" width="0.6" height="40.3"/>
		
			<rect x="215.7" y="329.7" transform="matrix(0.2968 -0.9549 0.9549 0.2968 -186.5294 455.5034)" class="st3" width="0.7" height="49.5"/>
		
			<rect x="211.2" y="342.7" transform="matrix(0.2968 -0.9549 0.9549 0.2968 -202.1243 460.4112)" class="st3" width="0.7" height="49.5"/>
		
			<rect x="214.5" y="333.5" transform="matrix(0.2968 -0.9549 0.9549 0.2968 -191.0739 457.0776)" class="st3" width="0.6" height="49.5"/>
		<path class="st4" d="M258.4,293l-3.6,19.1c0,0-1.1,2.3,1.4,3.3c2.5,0.9,15.1,1.6,15.1,1.6L258.4,293z"/>
		<path class="st5" d="M258.7,292l-5.1,16.6c0,0-1.1,2.3,1.4,3.3c2.5,0.9,16.4,5.1,16.4,5.1L258.7,292z"/>
	</g>
	<path class="st9" d="M350.4,321c-2.3,2.9-1.3,7.5,2.2,10.2l0,0c3.5,2.7,8.2,2.5,10.4-0.4l14.9-19.4c2-1.5-11.7-11.2-12.6-9.7
		L350.4,321z"/>
	<path class="st7" d="M347.4,318.2L347.4,318.2c0.6-0.7,1.4-0.9,2-0.4l17.5,13.5c0.6,0.5,0.7,1.4,0.1,2l-3.1,4c0,0,0,0,0,0
		l-22.3,28.9c-5.7,7.4-14.7,9.9-20.1,5.7c-5.4-4.2-5.3-13.5,0.4-20.9L347.4,318.2L347.4,318.2z"/>
	<path class="st2" d="M359.5,251.4c-14.7,19.1-11.2,46.6,8,61.3c19.1,14.7,46.6,11.2,61.3-8c14.7-19.1,11.2-46.6-8-61.3
		C401.7,228.7,374.2,232.3,359.5,251.4z M363.4,268.5c1.1-3.5,2.8-6.9,5.2-10c10.9-14.1,31.1-16.8,45.2-5.9
		c6.9,5.3,11.1,12.9,12.3,21c1.2,8.3-0.8,17.1-6.4,24.3c-10.9,14.1-31.1,16.8-45.2,5.9C363.5,295.2,359.5,281,363.4,268.5z"/>
	
		<ellipse transform="matrix(0.2367 -0.9716 0.9716 0.2367 30.6578 595.252)" class="st11" cx="394.2" cy="278.1" rx="32.2" ry="32.2"/>
	<path class="st12" d="M368.8,258.3c-2.4,3.1-4,6.4-5.1,9.8l0,0c37.8-12,61.9,4.8,62.5,5.2c-1.2-8-5.3-15.6-12.3-21
		C399.9,241.5,379.6,244.2,368.8,258.3z"/>
	<g>
		<path class="st13" d="M112.1,330.1c-14.3,0.3-25.8,11.7-25.8,25.8c0,14.3,11.8,25.9,26.3,25.9c4.2,0,8.2-1,11.7-2.7l-12.8-23.2
			L112.1,330.1z"/>
	</g>
	<g>
		<path class="st14" d="M116.1,326.1l-0.9,27.9l26.9,7.7c0.8-2.8,1.2-5.8,1.1-8.8C142.5,338.2,130.6,326.5,116.1,326.1z"/>
	</g>
	<g>
		<polyline class="st14" points="134,383.7 114.1,356 146.6,367.2 		"/>
		<path class="st14" d="M146.6,367.2L114.1,356l20,27.8C139.8,379.6,144.2,373.9,146.6,367.2z"/>
	</g>
</g>
</svg>
