<?xml version="1.0" encoding="utf-8"?>
<!-- Generator: Adobe Illustrator 22.1.0, SVG Export Plug-In . SVG Version: 6.00 Build 0)  -->
<svg version="1.1" id="Layer_1" xmlns="http://www.w3.org/2000/svg" xmlns:xlink="http://www.w3.org/1999/xlink" x="0px" y="0px"
	 viewBox="0 0 500 500" style="enable-background:new 0 0 500 500;" xml:space="preserve">
<style type="text/css">
	.st0{fill:#192144;}
	.st1{fill:#EF261A;}
	.st2{fill:#FFFFFF;}
	.st3{fill:#FFD6B0;}
	.st4{fill:#00B0B3;}
	.st5{fill:#E3E3E3;}
	.st6{fill:#FFDC12;}
	.st7{fill:#FFBB00;}
	.st8{fill:#002B45;}
	.st9{fill:#FF8C00;}
	.st10{fill:#004E7A;}
	.st11{fill:#00D6D6;}
</style>
<rect x="0.3" class="st0" width="500" height="500"/>
<g>
	<g>
		<g>
			<path class="st1" d="M241.3,440.1c-1.6,0-3.2,0-4.8-0.1l0-1.7c1.6,0,3.2,0.1,4.8,0.1l0.4,0v1.7L241.3,440.1z M246.8,440l0-1.7
				c1.7,0,3.4-0.1,5.1-0.2l0.1,1.7C250.3,439.9,248.6,440,246.8,440z M231.4,439.8c-1.7-0.1-3.4-0.2-5.1-0.3l0.1-1.7
				c1.7,0.1,3.4,0.2,5.1,0.3L231.4,439.8z M257.1,439.4l-0.1-1.7c1.7-0.1,3.4-0.3,5.1-0.5l0.2,1.7
				C260.6,439.1,258.8,439.3,257.1,439.4z M221.1,439c-1.7-0.2-3.4-0.4-5.1-0.6l0.2-1.7c1.7,0.2,3.4,0.4,5.1,0.6L221.1,439z
				 M267.4,438.3l-0.2-1.7c1.7-0.2,3.4-0.5,5-0.8l0.3,1.7C270.8,437.8,269.1,438.1,267.4,438.3z M210.9,437.7
				c-1.7-0.3-3.4-0.6-5.1-0.9l0.3-1.7c1.7,0.3,3.3,0.6,5,0.9L210.9,437.7z M277.5,436.6l-0.3-1.7c1.7-0.3,3.3-0.7,5-1l0.4,1.7
				C280.9,436,279.2,436.3,277.5,436.6z M200.8,435.8c-1.7-0.4-3.4-0.8-5-1.2l0.4-1.7c1.6,0.4,3.3,0.8,5,1.1L200.8,435.8z
				 M287.6,434.4l-0.4-1.7c1.7-0.4,3.3-0.8,4.9-1.3l0.5,1.6C290.9,433.6,289.3,434,287.6,434.4z M190.8,433.3
				c-1.7-0.5-3.3-0.9-4.9-1.4l0.5-1.6c1.6,0.5,3.3,1,4.9,1.4L190.8,433.3z M297.5,431.7L297,430c1.6-0.5,3.2-1,4.9-1.6l0.5,1.6
				C300.8,430.6,299.2,431.2,297.5,431.7z M180.9,430.3c-1.6-0.5-3.3-1.1-4.9-1.7l0.6-1.6c1.6,0.6,3.2,1.1,4.8,1.7L180.9,430.3z
				 M307.3,428.4l-0.6-1.6c1.6-0.6,3.2-1.2,4.8-1.8l0.6,1.6C310.5,427.1,308.9,427.8,307.3,428.4z M171.2,426.8
				c-1.6-0.6-3.2-1.3-4.8-2l0.7-1.6c1.6,0.7,3.1,1.3,4.7,2L171.2,426.8z M316.8,424.5l-0.7-1.6c1.6-0.7,3.1-1.4,4.6-2.1l0.7,1.6
				C320,423.2,318.4,423.9,316.8,424.5z M161.7,422.7c-1.6-0.7-3.1-1.5-4.7-2.2l0.8-1.5c1.5,0.8,3.1,1.5,4.6,2.2L161.7,422.7z
				 M326.1,420.2l-0.8-1.5c1.5-0.8,3-1.5,4.5-2.3l0.8,1.5C329.2,418.7,327.7,419.4,326.1,420.2z M152.4,418.1
				c-1.5-0.8-3-1.6-4.5-2.5l0.8-1.5c1.5,0.8,3,1.7,4.5,2.5L152.4,418.1z M335.2,415.4l-0.8-1.5c1.5-0.8,2.9-1.7,4.4-2.6l0.9,1.5
				C338.2,413.7,336.7,414.5,335.2,415.4z M143.4,413c-1.5-0.9-2.9-1.8-4.4-2.7l0.9-1.4c1.4,0.9,2.9,1.8,4.3,2.7L143.4,413z
				 M344,410.1l-0.9-1.4c1.4-0.9,2.8-1.9,4.3-2.8l1,1.4C346.9,408.2,345.5,409.1,344,410.1z M134.7,407.5c-1.4-1-2.8-1.9-4.2-2.9
				l1-1.4c1.4,1,2.8,2,4.2,2.9L134.7,407.5z M352.5,404.3l-1-1.4c1.4-1,2.7-2,4.1-3l1,1.4C355.3,402.2,353.9,403.3,352.5,404.3z
				 M126.4,401.5c-1.4-1-2.7-2.1-4.1-3.2l1.1-1.3c1.3,1.1,2.7,2.1,4,3.1L126.4,401.5z M360.7,398l-1.1-1.3c1.3-1.1,2.6-2.2,3.9-3.3
				l1.1,1.3C363.4,395.9,362.1,397,360.7,398z M118.3,395c-1.3-1.1-2.6-2.2-3.9-3.4l1.1-1.3c1.3,1.1,2.6,2.3,3.9,3.4L118.3,395z
				 M368.6,391.4l-1.1-1.3c1.3-1.1,2.5-2.3,3.8-3.5l1.2,1.2C371.1,389,369.8,390.2,368.6,391.4z M110.6,388.2
				c-1.2-1.2-2.5-2.4-3.7-3.6l1.2-1.2c1.2,1.2,2.4,2.4,3.7,3.6L110.6,388.2z M376,384.3l-1.2-1.2c1.2-1.2,2.4-2.4,3.6-3.7l1.2,1.2
				C378.4,381.8,377.2,383.1,376,384.3z M103.3,380.9c-1.2-1.2-2.3-2.5-3.5-3.8l1.3-1.1c1.1,1.3,2.3,2.5,3.5,3.7L103.3,380.9z
				 M383.1,376.8l-1.3-1.1c1.1-1.3,2.3-2.5,3.4-3.8l1.3,1.1C385.4,374.2,384.3,375.5,383.1,376.8z M96.4,373.2
				c-1.1-1.3-2.2-2.6-3.3-4l1.3-1.1c1.1,1.3,2.2,2.6,3.3,3.9L96.4,373.2z M389.8,368.9l-1.3-1.1c1.1-1.3,2.1-2.7,3.1-4l1.4,1
				C391.9,366.2,390.9,367.6,389.8,368.9z M90,365.2c-1-1.4-2.1-2.7-3.1-4.1l1.4-1c1,1.4,2,2.7,3,4.1L90,365.2z M396,360.7l-1.4-1
				c1-1.4,2-2.8,2.9-4.2l1.4,1C398,357.9,397,359.3,396,360.7z M83.9,356.9c-1-1.4-1.9-2.8-2.8-4.3l1.4-0.9c0.9,1.4,1.9,2.8,2.8,4.2
				L83.9,356.9z M401.8,352.2l-1.4-0.9c0.9-1.4,1.8-2.9,2.7-4.3l1.5,0.9C403.7,349.3,402.8,350.8,401.8,352.2z M78.4,348.3
				c-0.9-1.5-1.8-2.9-2.6-4.4l1.5-0.8c0.8,1.5,1.7,2.9,2.6,4.4L78.4,348.3z M407.2,343.4l-1.5-0.8c0.8-1.5,1.7-3,2.5-4.5l1.5,0.8
				C408.8,340.4,408,341.9,407.2,343.4z M73.3,339.3c-0.8-1.5-1.6-3-2.4-4.6l1.5-0.8c0.8,1.5,1.5,3,2.3,4.5L73.3,339.3z M412,334.2
				l-1.5-0.8c0.8-1.5,1.5-3.1,2.2-4.6l1.6,0.7C413.5,331.2,412.8,332.7,412,334.2z M68.7,330.1c-0.7-1.5-1.4-3.1-2.1-4.7l1.6-0.7
				c0.7,1.6,1.4,3.1,2.1,4.6L68.7,330.1z M416.3,324.9l-1.6-0.7c0.7-1.6,1.3-3.1,2-4.7l1.6,0.6C417.7,321.7,417,323.3,416.3,324.9z
				 M64.6,320.7c-0.6-1.6-1.3-3.2-1.9-4.8l1.6-0.6c0.6,1.6,1.2,3.2,1.8,4.8L64.6,320.7z M420.2,315.3l-1.6-0.6
				c0.6-1.6,1.2-3.2,1.7-4.8l1.6,0.5C421.3,312,420.8,313.7,420.2,315.3z M61,311.1c-0.6-1.6-1.1-3.3-1.6-4.9l1.6-0.5
				c0.5,1.6,1,3.2,1.6,4.9L61,311.1z M423.5,305.5l-1.6-0.5c0.5-1.6,1-3.3,1.4-4.9l1.6,0.5C424.5,302.2,424,303.8,423.5,305.5z
				 M57.9,301.2c-0.5-1.7-0.9-3.3-1.3-5l1.7-0.4c0.4,1.7,0.9,3.3,1.3,4.9L57.9,301.2z M426.2,295.5l-1.7-0.4c0.4-1.6,0.8-3.3,1.2-5
				l1.7,0.4C427,292.2,426.6,293.9,426.2,295.5z M55.4,291.2c-0.4-1.7-0.7-3.4-1.1-5l1.7-0.3c0.3,1.7,0.7,3.3,1,5L55.4,291.2z
				 M428.4,285.5l-1.7-0.3c0.3-1.7,0.6-3.3,0.9-5l1.7,0.3C429,282.1,428.7,283.8,428.4,285.5z M53.5,281.1c-0.3-1.7-0.5-3.4-0.8-5.1
				l1.7-0.2c0.2,1.7,0.5,3.4,0.8,5L53.5,281.1z M430.1,275.3l-1.7-0.2c0.2-1.7,0.4-3.4,0.6-5.1l1.7,0.2
				C430.5,271.9,430.3,273.6,430.1,275.3z M52.1,270.9c-0.2-1.7-0.4-3.4-0.5-5.1l1.7-0.1c0.1,1.7,0.3,3.4,0.5,5.1L52.1,270.9z
				 M431.2,265.1l-1.7-0.1c0.1-1.7,0.3-3.4,0.3-5.1l1.7,0.1C431.4,261.6,431.3,263.4,431.2,265.1z M51.2,260.6
				c-0.1-1.7-0.2-3.4-0.2-5.1l1.7-0.1c0.1,1.7,0.1,3.4,0.2,5.1L51.2,260.6z M431.7,254.8l-1.7,0c0-1.7,0.1-3.4,0.1-5.1l0-1.4l1.7,0
				l0,1.4C431.8,251.4,431.8,253.1,431.7,254.8z M50.9,250.3l0-0.7c0-1.5,0-3,0.1-4.4l1.7,0c0,1.5-0.1,2.9-0.1,4.4l0,0.7L50.9,250.3
				z M430,243.1c-0.1-1.7-0.1-3.4-0.2-5.1l1.7-0.1c0.1,1.7,0.2,3.4,0.2,5.1L430,243.1z M52.8,240.1l-1.7-0.1
				c0.1-1.7,0.2-3.4,0.3-5.1l1.7,0.1C53,236.7,52.9,238.4,52.8,240.1z M429.4,232.9c-0.1-1.7-0.3-3.4-0.5-5.1l1.7-0.2
				c0.2,1.7,0.4,3.4,0.5,5.1L429.4,232.9z M53.6,229.9l-1.7-0.2c0.2-1.7,0.4-3.4,0.6-5.1l1.7,0.2C54,226.6,53.8,228.2,53.6,229.9z
				 M428.2,222.8c-0.2-1.7-0.5-3.4-0.8-5l1.7-0.3c0.3,1.7,0.6,3.4,0.8,5.1L428.2,222.8z M54.9,219.8l-1.7-0.3
				c0.3-1.7,0.6-3.4,0.9-5.1l1.7,0.3C55.5,216.5,55.2,218.1,54.9,219.8z M426.5,212.7c-0.3-1.7-0.7-3.3-1.1-5l1.7-0.4
				c0.4,1.7,0.7,3.4,1.1,5L426.5,212.7z M56.8,209.8l-1.7-0.4c0.4-1.7,0.7-3.4,1.2-5l1.7,0.4C57.5,206.5,57.2,208.1,56.8,209.8z
				 M424.2,202.8c-0.4-1.7-0.9-3.3-1.3-4.9l1.6-0.5c0.5,1.6,0.9,3.3,1.3,5L424.2,202.8z M59.2,199.9l-1.6-0.4c0.5-1.7,0.9-3.3,1.4-5
				l1.6,0.5C60.1,196.6,59.7,198.2,59.2,199.9z M421.4,192.9c-0.5-1.6-1-3.2-1.6-4.8l1.6-0.6c0.6,1.6,1.1,3.3,1.6,4.9L421.4,192.9z
				 M62.2,190.1l-1.6-0.5c0.5-1.6,1.1-3.3,1.7-4.9l1.6,0.6C63.3,186.8,62.7,188.4,62.2,190.1z M418.1,183.3
				c-0.6-1.6-1.2-3.2-1.9-4.8l1.6-0.6c0.6,1.6,1.3,3.2,1.9,4.8L418.1,183.3z M65.7,180.4l-1.6-0.6c0.6-1.6,1.3-3.2,2-4.8l1.6,0.7
				C66.9,177.3,66.3,178.9,65.7,180.4z M414.3,173.9c-0.7-1.6-1.4-3.1-2.1-4.6l1.5-0.7c0.7,1.5,1.4,3.1,2.1,4.7L414.3,173.9z
				 M69.7,171l-1.6-0.7c0.7-1.6,1.5-3.1,2.2-4.7l1.5,0.8C71.1,167.9,70.4,169.5,69.7,171z M409.9,164.6c-0.8-1.5-1.6-3-2.4-4.5
				l1.5-0.8c0.8,1.5,1.6,3,2.4,4.6L409.9,164.6z M74.2,161.8l-1.5-0.8c0.8-1.5,1.6-3,2.5-4.5l1.5,0.8
				C75.8,158.8,75,160.3,74.2,161.8z M405.1,155.7c-0.8-1.5-1.7-2.9-2.6-4.4l1.5-0.9c0.9,1.5,1.8,2.9,2.6,4.4L405.1,155.7z
				 M79.2,152.9l-1.5-0.9c0.9-1.5,1.8-2.9,2.7-4.4l1.4,0.9C81,150,80.1,151.5,79.2,152.9z M399.8,147c-0.9-1.4-1.9-2.8-2.8-4.2
				l1.4-1c1,1.4,1.9,2.8,2.9,4.3L399.8,147z M84.7,144.3l-1.4-1c1-1.4,1.9-2.8,2.9-4.2l1.4,1C86.6,141.5,85.6,142.9,84.7,144.3z
				 M394,138.6c-1-1.4-2-2.7-3.1-4.1l1.4-1c1,1.4,2.1,2.7,3.1,4.1L394,138.6z M90.6,136l-1.4-1c1-1.4,2.1-2.7,3.2-4.1l1.3,1.1
				C92.7,133.3,91.7,134.6,90.6,136z M387.7,130.5c-1.1-1.3-2.2-2.6-3.3-3.9l1.3-1.1c1.1,1.3,2.2,2.6,3.3,3.9L387.7,130.5z M97,128
				l-1.3-1.1c1.1-1.3,2.2-2.6,3.4-3.9l1.3,1.1C99.2,125.4,98.1,126.7,97,128z M381.1,122.8c-1.1-1.3-2.3-2.5-3.5-3.7l1.2-1.2
				c1.2,1.2,2.4,2.5,3.5,3.8L381.1,122.8z M103.8,120.4l-1.2-1.2c1.2-1.3,2.4-2.5,3.6-3.7l1.2,1.2
				C106.2,117.9,105,119.1,103.8,120.4z M374,115.4c-1.2-1.2-2.4-2.4-3.7-3.5l1.2-1.2c1.3,1.2,2.5,2.4,3.7,3.6L374,115.4z
				 M111,113.1l-1.2-1.2c1.2-1.2,2.5-2.4,3.8-3.5l1.1,1.3C113.5,110.8,112.2,111.9,111,113.1z M366.6,108.4
				c-1.3-1.1-2.6-2.2-3.9-3.3l1.1-1.3c1.3,1.1,2.6,2.2,3.9,3.4L366.6,108.4z M118.6,106.3l-1.1-1.3c1.3-1.1,2.6-2.2,4-3.3l1.1,1.3
				C121.2,104.1,119.9,105.2,118.6,106.3z M358.8,101.8c-1.3-1.1-2.7-2.1-4-3.1l1-1.4c1.4,1,2.7,2.1,4.1,3.2L358.8,101.8z
				 M126.5,99.8l-1-1.4c1.4-1,2.7-2.1,4.1-3.1l1,1.4C129.2,97.8,127.8,98.8,126.5,99.8z M350.6,95.7c-1.4-1-2.8-2-4.2-2.9l1-1.4
				c1.4,1,2.8,1.9,4.2,2.9L350.6,95.7z M134.7,93.8l-1-1.4c1.4-1,2.8-1.9,4.3-2.9L139,91C137.6,91.9,136.1,92.9,134.7,93.8z
				 M342.1,90c-1.4-0.9-2.9-1.8-4.4-2.7l0.9-1.5c1.5,0.9,2.9,1.8,4.4,2.7L342.1,90z M143.3,88.3l-0.9-1.5c1.5-0.9,2.9-1.8,4.4-2.6
				l0.8,1.5C146.2,86.6,144.7,87.4,143.3,88.3z M333.3,84.8c-1.5-0.8-3-1.6-4.5-2.4l0.8-1.5c1.5,0.8,3,1.6,4.5,2.5L333.3,84.8z
				 M152.1,83.2l-0.8-1.5c1.5-0.8,3-1.6,4.6-2.4l0.8,1.5C155.1,81.7,153.6,82.4,152.1,83.2z M324.2,80c-1.5-0.7-3.1-1.5-4.6-2.2
				l0.7-1.6c1.6,0.7,3.1,1.5,4.7,2.2L324.2,80z M161.2,78.7l-0.7-1.5c1.5-0.7,3.1-1.4,4.7-2.1l0.7,1.6
				C164.3,77.3,162.8,78,161.2,78.7z M314.9,75.8c-1.6-0.7-3.1-1.3-4.7-1.9l0.6-1.6c1.6,0.6,3.2,1.3,4.8,2L314.9,75.8z M170.6,74.6
				l-0.6-1.6c1.6-0.6,3.2-1.3,4.8-1.9l0.6,1.6C173.7,73.3,172.1,74,170.6,74.6z M305.4,72c-1.6-0.6-3.2-1.1-4.8-1.7l0.5-1.6
				c1.6,0.5,3.3,1.1,4.9,1.7L305.4,72z M180.1,71l-0.6-1.6c1.6-0.6,3.3-1.1,4.9-1.6l0.5,1.6C183.4,69.9,181.7,70.5,180.1,71z
				 M295.7,68.8c-1.6-0.5-3.3-1-4.9-1.4l0.4-1.7c1.7,0.4,3.3,0.9,5,1.4L295.7,68.8z M189.9,68l-0.5-1.6c1.7-0.5,3.3-0.9,5-1.3
				l0.4,1.7C193.2,67.1,191.5,67.5,189.9,68z M285.8,66.2c-1.7-0.4-3.3-0.8-5-1.1l0.4-1.7c1.7,0.4,3.4,0.7,5,1.1L285.8,66.2z
				 M199.8,65.5l-0.4-1.7c1.7-0.4,3.4-0.7,5-1.1l0.3,1.7C203.1,64.8,201.4,65.1,199.8,65.5z M275.8,64c-1.7-0.3-3.3-0.6-5-0.9
				l0.3-1.7c1.7,0.3,3.4,0.6,5.1,0.9L275.8,64z M209.8,63.5l-0.3-1.7c1.7-0.3,3.4-0.5,5.1-0.8l0.2,1.7
				C213.2,63,211.5,63.2,209.8,63.5z M265.7,62.4c-1.7-0.2-3.4-0.4-5.1-0.6l0.2-1.7c1.7,0.2,3.4,0.4,5.1,0.6L265.7,62.4z
				 M219.9,62.1l-0.2-1.7c1.7-0.2,3.4-0.4,5.1-0.5l0.1,1.7C223.3,61.7,221.6,61.9,219.9,62.1z M255.6,61.4c-1.7-0.1-3.4-0.2-5.1-0.3
				l0.1-1.7c1.7,0.1,3.4,0.2,5.1,0.3L255.6,61.4z M230.1,61.2l-0.1-1.7c1.7-0.1,3.4-0.2,5.1-0.2l0.1,1.7
				C233.5,61,231.8,61.1,230.1,61.2z M245.4,60.9c-1.3,0-2.7,0-4.1,0l-1.1,0l0-1.7l1.1,0c1.4,0,2.7,0,4.1,0L245.4,60.9z"/>
		</g>
		<g>
			<path class="st1" d="M239.7,399.6c-1.7,0-3.4-0.1-5.2-0.1l0.1-1.7c1.7,0.1,3.4,0.1,5.1,0.1L239.7,399.6z M244.8,399.6l0-1.7
				c1.7,0,3.4-0.1,5.1-0.2l0.1,1.7C248.3,399.5,246.5,399.5,244.8,399.6z M229.4,399.1c-1.7-0.1-3.4-0.3-5.1-0.5l0.2-1.7
				c1.7,0.2,3.4,0.4,5.1,0.5L229.4,399.1z M255.1,399l-0.2-1.7c1.7-0.2,3.4-0.3,5.1-0.5l0.2,1.7C258.5,398.6,256.8,398.8,255.1,399z
				 M219.1,398c-1.7-0.3-3.4-0.5-5.1-0.8l0.3-1.7c1.7,0.3,3.3,0.6,5,0.8L219.1,398z M265.4,397.7l-0.3-1.7c1.7-0.3,3.4-0.6,5-0.9
				l0.3,1.7C268.7,397.1,267.1,397.4,265.4,397.7z M209,396.1c-1.7-0.4-3.4-0.8-5-1.2l0.4-1.7c1.6,0.4,3.3,0.8,5,1.2L209,396.1z
				 M275.5,395.7l-0.4-1.7c1.7-0.4,3.3-0.8,4.9-1.2l0.4,1.7C278.8,394.9,277.2,395.3,275.5,395.7z M199,393.5
				c-1.7-0.5-3.3-1-4.9-1.5l0.5-1.6c1.6,0.5,3.2,1,4.9,1.5L199,393.5z M285.4,393l-0.5-1.6c1.6-0.5,3.2-1,4.8-1.6l0.6,1.6
				C288.7,392,287.1,392.5,285.4,393z M189.2,390.3c-1.6-0.6-3.2-1.2-4.8-1.9l0.6-1.6c1.6,0.6,3.2,1.3,4.8,1.9L189.2,390.3z
				 M295.2,389.7l-0.6-1.6c1.6-0.6,3.2-1.2,4.7-1.9l0.7,1.6C298.4,388.4,296.8,389,295.2,389.7z M179.6,386.4
				c-1.6-0.7-3.1-1.4-4.7-2.2l0.8-1.5c1.5,0.8,3.1,1.5,4.6,2.2L179.6,386.4z M304.7,385.6l-0.7-1.5c1.5-0.7,3.1-1.5,4.6-2.2l0.8,1.5
				C307.7,384.2,306.2,384.9,304.7,385.6z M170.3,381.8c-1.5-0.8-3-1.7-4.5-2.5l0.9-1.5c1.5,0.9,3,1.7,4.5,2.5L170.3,381.8z
				 M313.8,381l-0.8-1.5c1.5-0.8,3-1.7,4.4-2.5l0.9,1.5C316.8,379.3,315.3,380.1,313.8,381z M161.4,376.6c-1.5-0.9-2.9-1.9-4.3-2.8
				l1-1.4c1.4,1,2.8,1.9,4.3,2.8L161.4,376.6z M322.7,375.7l-0.9-1.4c1.4-0.9,2.8-1.9,4.2-2.8l1,1.4
				C325.5,373.8,324.1,374.7,322.7,375.7z M152.9,370.8c-1.4-1-2.8-2.1-4.1-3.1l1.1-1.3c1.3,1,2.7,2.1,4.1,3.1L152.9,370.8z
				 M331.1,369.8l-1-1.4c1.4-1,2.7-2.1,4-3.1l1.1,1.3C333.8,367.7,332.5,368.8,331.1,369.8z M144.8,364.4c-1.3-1.1-2.6-2.2-3.9-3.4
				l1.1-1.3c1.3,1.1,2.5,2.3,3.8,3.4L144.8,364.4z M339.1,363.3L338,362c1.3-1.1,2.6-2.2,3.8-3.4l1.2,1.3
				C341.7,361.1,340.4,362.2,339.1,363.3z M137.1,357.5c-1.2-1.2-2.5-2.4-3.6-3.6l1.2-1.2c1.2,1.2,2.4,2.4,3.6,3.6L137.1,357.5z
				 M346.7,356.3l-1.2-1.2c1.2-1.2,2.4-2.4,3.6-3.6l1.2,1.2C349.2,353.9,348,355.1,346.7,356.3z M129.9,350.1
				c-1.2-1.3-2.3-2.6-3.4-3.9l1.3-1.1c1.1,1.3,2.2,2.6,3.3,3.8L129.9,350.1z M353.8,348.8l-1.3-1.1c1.1-1.3,2.2-2.6,3.3-3.9l1.3,1.1
				C356.1,346.2,355,347.6,353.8,348.8z M123.3,342.2c-1.1-1.4-2.1-2.7-3.1-4.1l1.4-1c1,1.4,2,2.7,3.1,4.1L123.3,342.2z
				 M360.4,340.9l-1.4-1c1-1.3,2-2.7,3-4.1l1.4,1C362.4,338.1,361.4,339.5,360.4,340.9z M117.2,333.9c-1-1.4-1.9-2.9-2.8-4.3
				l1.4-0.9c0.9,1.4,1.8,2.9,2.8,4.3L117.2,333.9z M366.4,332.5l-1.4-0.9c0.9-1.4,1.9-2.9,2.8-4.3l1.5,0.9
				C368.3,329.6,367.3,331,366.4,332.5z M111.7,325.2c-0.9-1.5-1.7-3-2.5-4.5l1.5-0.8c0.8,1.5,1.6,3,2.5,4.4L111.7,325.2z
				 M371.8,323.7l-1.5-0.8c0.8-1.5,1.7-3,2.4-4.5l1.5,0.8C373.5,320.7,372.6,322.2,371.8,323.7z M106.8,316.1
				c-0.8-1.5-1.5-3.1-2.2-4.6l1.6-0.7c0.7,1.5,1.4,3.1,2.2,4.6L106.8,316.1z M376.6,314.5l-1.5-0.7c0.7-1.5,1.4-3.1,2.1-4.6l1.6,0.7
				C378,311.4,377.3,313,376.6,314.5z M102.6,306.7c-0.7-1.6-1.3-3.2-1.9-4.8l1.6-0.6c0.6,1.6,1.2,3.2,1.9,4.7L102.6,306.7z
				 M380.7,305.1l-1.6-0.6c0.6-1.6,1.2-3.2,1.8-4.8l1.6,0.6C382,301.8,381.4,303.5,380.7,305.1z M99,297.1c-0.5-1.6-1.1-3.3-1.5-4.9
				l1.6-0.5c0.5,1.6,1,3.3,1.5,4.9L99,297.1z M384.2,295.3l-1.6-0.5c0.5-1.6,1-3.2,1.5-4.9l1.6,0.5
				C385.2,292,384.8,293.7,384.2,295.3z M96.1,287.2c-0.4-1.7-0.8-3.3-1.2-5l1.7-0.4c0.4,1.7,0.8,3.3,1.2,5L96.1,287.2z M387,285.4
				l-1.7-0.4c0.4-1.6,0.8-3.3,1.1-5l1.7,0.3C387.8,282,387.4,283.7,387,285.4z M93.9,277.1c-0.3-1.7-0.6-3.4-0.9-5.1l1.7-0.3
				c0.3,1.7,0.5,3.4,0.8,5L93.9,277.1z M389.1,275.3l-1.7-0.3c0.3-1.7,0.5-3.4,0.8-5l1.7,0.2C389.7,271.9,389.4,273.6,389.1,275.3z
				 M92.3,266.9c-0.2-1.7-0.4-3.4-0.5-5.1l1.7-0.1c0.1,1.7,0.3,3.4,0.5,5.1L92.3,266.9z M390.5,265.1l-1.7-0.2
				c0.2-1.7,0.3-3.4,0.4-5.1l1.7,0.1C390.8,261.7,390.7,263.4,390.5,265.1z M91.5,256.6c-0.1-1.7-0.1-3.4-0.1-5.2l1.7,0
				c0,1.7,0.1,3.4,0.1,5.1L91.5,256.6z M391.2,254.8l-1.7-0.1c0.1-1.7,0.1-3.4,0.1-5.1c0-1.2,0-2.4,0-3.6l1.7,0c0,1.2,0,2.4,0,3.6
				C391.3,251.4,391.3,253.1,391.2,254.8z M93.1,246.3l-1.7,0c0-1.7,0.1-3.4,0.2-5.2l1.7,0.1C93.2,242.9,93.1,244.6,93.1,246.3z
				 M389.4,240.9c-0.1-1.7-0.2-3.4-0.4-5.1l1.7-0.2c0.2,1.7,0.3,3.4,0.4,5.1L389.4,240.9z M93.7,236.1L92,236
				c0.2-1.7,0.3-3.4,0.6-5.1l1.7,0.2C94,232.8,93.8,234.4,93.7,236.1z M388.4,230.8c-0.2-1.7-0.5-3.4-0.7-5l1.7-0.3
				c0.3,1.7,0.5,3.4,0.7,5.1L388.4,230.8z M94.9,226l-1.7-0.3c0.3-1.7,0.6-3.4,0.9-5.1l1.7,0.3C95.5,222.7,95.2,224.3,94.9,226z
				 M386.8,220.7c-0.3-1.7-0.7-3.3-1.1-5l1.7-0.4c0.4,1.7,0.8,3.4,1.1,5L386.8,220.7z M96.9,216l-1.7-0.4c0.4-1.7,0.8-3.3,1.3-5
				l1.7,0.4C97.7,212.7,97.3,214.4,96.9,216z M384.5,210.8c-0.4-1.6-0.9-3.3-1.4-4.9l1.6-0.5c0.5,1.6,1,3.3,1.4,5L384.5,210.8z
				 M99.5,206.2l-1.6-0.5c0.5-1.7,1-3.3,1.6-4.9l1.6,0.6C100.6,202.9,100,204.5,99.5,206.2z M381.5,201.1c-0.6-1.6-1.1-3.2-1.8-4.8
				l1.6-0.6c0.6,1.6,1.2,3.2,1.8,4.8L381.5,201.1z M102.9,196.5l-1.6-0.6c0.6-1.6,1.3-3.2,1.9-4.8l1.6,0.7
				C104.1,193.3,103.5,194.9,102.9,196.5z M377.8,191.6c-0.7-1.6-1.4-3.1-2.1-4.6l1.5-0.7c0.7,1.6,1.4,3.1,2.1,4.7L377.8,191.6z
				 M106.9,187.1l-1.5-0.7c0.7-1.6,1.5-3.1,2.3-4.6l1.5,0.8C108.3,184,107.6,185.5,106.9,187.1z M373.5,182.3
				c-0.8-1.5-1.6-3-2.4-4.5l1.5-0.8c0.8,1.5,1.6,3,2.4,4.5L373.5,182.3z M111.5,178l-1.5-0.8c0.8-1.5,1.7-3,2.6-4.5l1.5,0.9
				C113.2,175,112.3,176.5,111.5,178z M368.6,173.4c-0.9-1.5-1.8-2.9-2.7-4.3l1.4-0.9c0.9,1.4,1.8,2.9,2.7,4.4L368.6,173.4z
				 M116.7,169.2l-1.4-0.9c0.9-1.4,1.9-2.9,2.9-4.3l1.4,1C118.6,166.4,117.7,167.8,116.7,169.2z M363,164.9c-1-1.4-2-2.8-3-4.1
				l1.4-1c1,1.4,2,2.8,3,4.2L363,164.9z M122.6,160.8l-1.4-1c1-1.4,2.1-2.7,3.2-4.1l1.3,1.1C124.6,158.1,123.6,159.5,122.6,160.8z
				 M356.9,156.7c-1.1-1.3-2.2-2.6-3.3-3.9l1.3-1.1c1.1,1.3,2.2,2.6,3.3,4L356.9,156.7z M129,152.9l-1.3-1.1
				c1.1-1.3,2.3-2.6,3.4-3.9l1.3,1.2C131.2,150.3,130.1,151.6,129,152.9z M350.3,149c-1.2-1.2-2.3-2.5-3.5-3.7l1.2-1.2
				c1.2,1.2,2.4,2.5,3.6,3.7L350.3,149z M135.9,145.4l-1.2-1.2c1.2-1.2,2.4-2.4,3.7-3.6l1.2,1.2C138.3,143,137.1,144.2,135.9,145.4z
				 M343.1,141.8c-1.2-1.2-2.5-2.3-3.8-3.4l1.1-1.3c1.3,1.1,2.6,2.3,3.8,3.5L343.1,141.8z M143.3,138.4l-1.1-1.3
				c1.3-1.1,2.6-2.3,3.9-3.3l1.1,1.3C145.9,136.2,144.6,137.3,143.3,138.4z M335.4,135c-1.3-1.1-2.6-2.1-4-3.2l1-1.4
				c1.4,1,2.7,2.1,4,3.2L335.4,135z M151.2,131.9l-1-1.4c1.4-1,2.7-2.1,4.1-3.1l1,1.4C153.9,129.9,152.5,130.9,151.2,131.9z
				 M327.3,128.8c-1.4-1-2.8-2-4.2-2.9l0.9-1.4c1.4,1,2.9,1.9,4.3,2.9L327.3,128.8z M159.4,126l-0.9-1.4c1.4-0.9,2.9-1.9,4.3-2.8
				l0.9,1.5C162.3,124.2,160.9,125.1,159.4,126z M318.8,123.2c-1.4-0.9-2.9-1.8-4.4-2.6l0.8-1.5c1.5,0.9,3,1.7,4.4,2.6L318.8,123.2z
				 M168.1,120.7l-0.8-1.5c1.5-0.8,3-1.7,4.5-2.5l0.8,1.5C171.1,119,169.6,119.8,168.1,120.7z M309.9,118.1c-1.5-0.8-3-1.6-4.6-2.3
				l0.7-1.5c1.6,0.7,3.1,1.5,4.6,2.3L309.9,118.1z M177.1,115.9l-0.7-1.5c1.5-0.7,3.1-1.5,4.7-2.2l0.7,1.6
				C180.2,114.5,178.7,115.2,177.1,115.9z M300.7,113.7c-1.6-0.7-3.1-1.3-4.7-2l0.6-1.6c1.6,0.6,3.2,1.3,4.8,2L300.7,113.7z
				 M186.4,111.9l-0.6-1.6c1.6-0.6,3.2-1.2,4.8-1.8l0.6,1.6C189.6,110.6,188,111.2,186.4,111.9z M291.2,110
				c-1.6-0.6-3.2-1.1-4.8-1.6l0.5-1.6c1.6,0.5,3.3,1.1,4.9,1.7L291.2,110z M196,108.4l-0.5-1.6c1.6-0.5,3.3-1,4.9-1.5l0.5,1.6
				C199.3,107.4,197.6,107.9,196,108.4z M281.5,106.9c-1.6-0.5-3.3-0.9-4.9-1.3l0.4-1.7c1.7,0.4,3.3,0.8,5,1.3L281.5,106.9z
				 M205.8,105.6l-0.4-1.7c1.7-0.4,3.3-0.8,5-1.1l0.4,1.7C209.1,104.9,207.5,105.2,205.8,105.6z M271.6,104.4
				c-1.7-0.3-3.3-0.7-5-0.9l0.3-1.7c1.7,0.3,3.4,0.6,5.1,1L271.6,104.4z M215.8,103.5l-0.3-1.7c1.7-0.3,3.4-0.6,5.1-0.8l0.2,1.7
				C219.2,103,217.5,103.3,215.8,103.5z M261.5,102.7c-1.7-0.2-3.4-0.4-5.1-0.6l0.2-1.7c1.7,0.2,3.4,0.4,5.1,0.6L261.5,102.7z
				 M225.9,102.1l-0.2-1.7c1.7-0.2,3.4-0.3,5.1-0.4l0.1,1.7C229.3,101.8,227.6,102,225.9,102.1z M251.4,101.7
				c-1.7-0.1-3.4-0.2-5.1-0.3l0.1-1.7c1.7,0.1,3.4,0.1,5.2,0.3L251.4,101.7z M236.1,101.4l-0.1-1.7c1.7-0.1,3.4-0.1,5.2-0.1v1.7
				C239.5,101.4,237.8,101.4,236.1,101.4z"/>
		</g>
	</g>
	<g>
		<g>
			<g>
				<g>
					<g>
						<path class="st2" d="M296.1,127.9c0,0-2.6-0.3-6.6,0.3c-1.3,0.2-2.8,0.5-4.4,0.9c-10.2,2.8-25,11.6-33.1,37.8h44.1h44.1
							c-9.2-30-27.2-37.1-37.2-38.7C298.8,127.6,296.1,127.9,296.1,127.9z"/>
					</g>
				</g>
			</g>
			<path class="st3" d="M319.2,104.8c0-12.8-10.3-23.1-23.1-23.1c-12.8,0-23.1,10.3-23.1,23.1c0,12.8,10.3,23.1,23.1,23.1
				C308.8,127.9,319.2,117.6,319.2,104.8z"/>
		</g>
		<g>
			<rect x="349.5" y="144.4" class="st4" width="54.2" height="50.3"/>
			<path class="st5" d="M390,106.6c-3-3-7.4-4.5-13.4-4.5c-5.8,0-10.2,1.5-13.2,4.5c-4.9,4.9-4.9,12.5-4.9,19.1c0,0.8,0,1.5,0,2.2
				c0,4.5,0,16.3,0,16.4l6.7,0c0-0.1,0-11.9,0-16.3c0-0.8,0-1.5,0-2.3c0-5.6,0-11.4,2.9-14.3c1.7-1.7,4.5-2.5,8.4-2.5
				c4.1,0,6.9,0.8,8.6,2.5c2.8,2.9,2.8,8.5,2.8,14.4c0,0.7,0,1.5,0,2.2v16.4h6.7V128c0-0.7,0-1.4,0-2.2
				C394.7,118.8,394.8,111.5,390,106.6z"/>
			<path class="st6" d="M385.4,169.7c-0.5-0.7-1.2-1.3-2.1-1.7c0.3-0.3,0.6-0.7,0.9-1.1c0.6-1,0.9-2.1,0.9-3.3c0-1.3-0.3-2.4-1-3.4
				c-0.7-1.1-1.8-1.9-3.4-2.3c-0.2-0.1-0.4-0.1-0.6-0.1v-5.6c0-0.9-0.7-1.5-1.5-1.5c-0.9,0-1.5,0.7-1.5,1.5v5.2c-0.3,0-0.6,0-1,0
				h-1.7v-5.2c0-0.9-0.7-1.5-1.5-1.5c-0.9,0-1.5,0.7-1.5,1.5v5.2h-0.8h-5.3c-0.9,0-1.5,0.7-1.5,1.5c0,0.9,0.7,1.5,1.5,1.5h3.7v8v8.9
				h-3.7c-0.9,0-1.5,0.7-1.5,1.5c0,0.9,0.7,1.5,1.5,1.5h5.3h0.8v5.7c0,0.9,0.7,1.5,1.5,1.5c0.9,0,1.5-0.7,1.5-1.5v-5.7h0.5
				c0.8,0,1.5,0,2.1,0v5.7c0,0.9,0.7,1.5,1.5,1.5c0.9,0,1.5-0.7,1.5-1.5V180c0.1,0,0.2,0,0.4-0.1c1.1-0.2,2-0.6,2.8-1
				c0.8-0.4,1.4-0.9,1.9-1.5c0.5-0.6,0.9-1.3,1.1-2c0.2-0.7,0.3-1.4,0.3-2.1C386.6,172,386.2,170.8,385.4,169.7z M378.3,160.5
				c0.6,0.1,1,0.1,1.4,0.3c0.8,0.3,1.4,0.6,1.7,1.1c0.3,0.5,0.5,1.1,0.5,1.8c0,0.7-0.1,1.2-0.4,1.8c-0.3,0.4-0.7,0.8-1.4,1.1
				c-0.5,0.2-1.5,0.4-3.5,0.4H372v-6.5h4C376.9,160.4,377.7,160.5,378.3,160.5z M383.3,174.5c-0.1,0.3-0.3,0.6-0.5,0.9
				c-0.3,0.3-0.6,0.6-1.1,0.8c-0.5,0.3-1.1,0.5-2,0.7c-0.5,0.1-1.2,0.2-1.9,0.3c-0.8,0.1-1.8,0.1-2.9,0.1H372V170h4.6h0.3
				c1.1,0,1.9,0,2.6,0.1c0.6,0.1,1.1,0.2,1.6,0.3c0.9,0.3,1.5,0.7,1.9,1.2c0.4,0.5,0.6,1.1,0.6,1.8
				C383.5,173.8,383.4,174.2,383.3,174.5z"/>
		</g>
		<g>
			<g>
				<path class="st7" d="M429.6,253.7c-1,0-1.8-0.8-1.9-1.8c-0.1-1.1,0.7-2,1.8-2.1c4.3-0.3,7.5-1.8,9.3-4.2
					c-6.2-1.6-7.4-4.9-7.6-6.8c-0.2-3,2-6,5-6.9c2.6-0.8,5.1,0.2,6.6,2.6c1.3,2.2,1.8,4.9,1.5,7.5c0.6-0.2,1.1-0.6,1.6-1.1
					c1.3-1.2,1.9-3,1.7-5.3c-0.1-1.1,0.7-2,1.7-2.1c1.1-0.1,2,0.7,2.1,1.7c0.4,4.4-1.3,7-2.8,8.4c-1.7,1.6-3.8,2.4-5.6,2.5
					c-2.2,4.3-6.9,6.9-13.2,7.4C429.8,253.7,429.7,253.7,429.6,253.7z M438.1,235.5c-0.2,0-0.4,0-0.6,0.1c-1.2,0.4-2.4,1.7-2.3,3
					c0.1,1.5,2.1,2.8,5.3,3.6c0.4-2.2-0.1-4.3-0.9-5.7C439.2,235.8,438.7,235.5,438.1,235.5z"/>
			</g>
			<path class="st6" d="M414.5,282.9l6.1,14.6h-17.1l-3.2-7.8c-4.7,1.4-9.9,2.1-15.2,2.1c-4.4,0-8.6-0.5-12.6-1.5l-3,7.2h-17.1
				l5.4-13.1c-7.7-4.7-13.4-11.4-16-19.1h-7.5v-18.1h7.1c0.9-3,2.2-5.9,4-8.6c1.8-2.7,3.9-5.1,6.4-7.4c-7.2-11.6-7.3-18.4-7.3-18.4
				s10.4-1.6,16.8,12c2.6-1.3,5.3-2.4,8.2-3.2c2.3,7.8,9.5,13.5,18,13.5c8,0,14.7-4.9,17.5-11.9c14.7,5.9,24.8,18.2,24.8,32.4
				C429.9,266.5,423.9,276.2,414.5,282.9z"/>
			<path class="st8" d="M356.1,240.1c-1.1,0-1.9,0.9-1.9,1.9v5.1c0,1.1,0.9,1.9,1.9,1.9s1.9-0.9,1.9-1.9V242
				C358,240.9,357.2,240.1,356.1,240.1z"/>
			<g>
				<g>
					
						<ellipse transform="matrix(0.926 -0.3776 0.3776 0.926 -53.0219 162.3762)" class="st7" cx="387.6" cy="216.4" rx="18.8" ry="18.8"/>
					<path class="st6" d="M402.1,216.4c0,8-6.5,14.5-14.5,14.5c-8,0-14.5-6.5-14.5-14.5c0-8,6.5-14.5,14.5-14.5
						C395.6,201.9,402.1,208.4,402.1,216.4z"/>
					<g>
						<path class="st6" d="M387,197.6v4.3c0.2,0,0.4,0,0.6,0c0.2,0,0.4,0,0.6,0c0,0,0-4.3,0-4.3c-0.2,0-0.4,0-0.6,0
							C387.4,197.6,387.2,197.6,387,197.6z"/>
						<path class="st6" d="M371,207.6l3.7,2.1c0.2-0.4,0.4-0.7,0.6-1.1c0,0-3.7-2.1-3.7-2.1C371.4,206.8,371.2,207.2,371,207.6z"/>
						<path class="st6" d="M379.8,204.2c0.4-0.2,0.7-0.4,1.1-0.6c0,0-2.1-3.7-2.1-3.7c-0.4,0.2-0.7,0.4-1.1,0.6L379.8,204.2z"/>
						<path class="st6" d="M402.1,215.8c0,0.2,0,0.4,0,0.6c0,0.2,0,0.4,0,0.6c0,0,4.3,0,4.3,0c0-0.2,0-0.4,0-0.6c0-0.2,0-0.4,0-0.6
							L402.1,215.8C402.1,215.8,402.1,215.8,402.1,215.8z"/>
						<path class="st6" d="M403.5,206.5l-3.7,2.1c0.2,0.4,0.4,0.7,0.6,1.1c0,0,3.7-2.1,3.7-2.1C404,207.2,403.7,206.8,403.5,206.5z"
							/>
						<path class="st6" d="M394.3,203.5c0.4,0.2,0.7,0.4,1.1,0.6c0,0,2.1-3.7,2.1-3.7c-0.4-0.2-0.7-0.4-1.1-0.6L394.3,203.5z"/>
						<path class="st6" d="M395.4,228.7c-0.4,0.2-0.7,0.4-1.1,0.6c0,0,2.1,3.7,2.1,3.7c0.4-0.2,0.7-0.4,1.1-0.6L395.4,228.7z"/>
						<path class="st6" d="M388.2,235.2v-4.3c-0.2,0-0.4,0-0.6,0c-0.2,0-0.4,0-0.6,0c0,0,0,4.3,0,4.3c0.2,0,0.4,0,0.6,0
							C387.8,235.2,388,235.2,388.2,235.2z"/>
						<path class="st6" d="M404.2,225.2l-3.7-2.1c-0.2,0.4-0.4,0.7-0.6,1.1c0,0,3.7,2.1,3.7,2.1C403.7,226,404,225.6,404.2,225.2z"
							/>
						<path class="st6" d="M368.8,217h4.3c0-0.2,0-0.4,0-0.6c0-0.2,0-0.4,0-0.6c0,0-4.3,0-4.3,0c0,0.2,0,0.4,0,0.6
							C368.8,216.6,368.8,216.8,368.8,217z"/>
						<path class="st6" d="M375.3,224.2c-0.2-0.4-0.4-0.7-0.6-1.1c0,0-3.7,2.1-3.7,2.1c0.2,0.4,0.4,0.7,0.6,1.1L375.3,224.2z"/>
						<path class="st6" d="M380.9,229.3c-0.4-0.2-0.7-0.4-1.1-0.6c0,0-2.1,3.7-2.1,3.7c0.4,0.2,0.7,0.4,1.1,0.6L380.9,229.3z"/>
					</g>
				</g>
				<path class="st9" d="M394,218.1c-0.1-0.3-0.3-0.6-0.5-0.9c-0.2-0.3-0.5-0.5-0.8-0.7c-0.3-0.2-0.6-0.3-1-0.5v0
					c0.6-0.3,1.1-0.8,1.4-1.3c0.3-0.5,0.4-1.1,0.4-1.7c0-0.4-0.1-0.7-0.2-1.1c-0.1-0.3-0.3-0.7-0.5-1c-0.2-0.3-0.5-0.6-0.9-0.9
					c-0.4-0.3-0.8-0.5-1.3-0.6c-0.4-0.1-0.8-0.2-1.4-0.3v-2.2h-1.5v2.1h-1.6v-2.1h-1.5v2.1h-1.6H381v2.4h2.1v9.6H381v2.4h2.1h1.6
					v2.1h1.5v-2.1h1.1c0.2,0,0.4,0,0.5,0v2.1h1.5v-2.2c0.2,0,0.4,0,0.6-0.1c0.2,0,0.4-0.1,0.6-0.1c0.7-0.2,1.3-0.4,1.8-0.8
					c0.5-0.3,0.8-0.7,1.1-1c0.3-0.4,0.5-0.8,0.6-1.2c0.1-0.4,0.2-0.8,0.2-1.1C394.2,218.8,394.1,218.5,394,218.1z M387.9,211.4
					c0.4,0,0.7,0,1,0c0.3,0,0.5,0.1,0.7,0.1c0.5,0.1,0.8,0.4,1,0.7c0.2,0.3,0.3,0.6,0.3,1c0,0.4-0.1,0.7-0.3,1
					c-0.2,0.3-0.5,0.5-0.8,0.7c-0.4,0.1-0.9,0.2-1.6,0.2h-2.4v-3.7H387.9z M391.3,219.9c-0.1,0.2-0.2,0.4-0.3,0.6
					c-0.2,0.2-0.3,0.3-0.6,0.5c-0.2,0.1-0.5,0.2-0.9,0.3c-0.2,0.1-0.5,0.1-0.9,0.1c-0.3,0-0.7,0-1.2,0h-1.7v-4.1h2.5
					c0.4,0,0.8,0,1.1,0c0.3,0,0.5,0.1,0.7,0.1c0.5,0.2,0.8,0.4,1,0.7c0.2,0.3,0.3,0.7,0.3,1.1C391.4,219.5,391.4,219.7,391.3,219.9z
					"/>
			</g>
		</g>
		<g>
			<path class="st6" d="M130.5,328.5c0,15.8-28.5,59-28.5,59s-28.5-43.2-28.5-59c0-15.8,12.8-28.5,28.5-28.5
				C117.7,300,130.5,312.8,130.5,328.5z"/>
			<path class="st9" d="M112.6,329.3c-0.6-0.8-1.4-1.4-2.4-1.9c0.4-0.4,0.8-0.8,1-1.3c0.6-1,0.9-2.1,0.9-3.4c0-1.3-0.3-2.5-1-3.5
				c-0.7-1.1-1.9-1.9-3.5-2.4c-0.1,0-0.2-0.1-0.3-0.1v-6.1c0-0.8-0.7-1.5-1.5-1.5c-0.8,0-1.5,0.7-1.5,1.5v5.7c-0.5,0-1,0-1.6,0h-2.3
				v-5.6c0-0.8-0.7-1.5-1.5-1.5c-0.8,0-1.5,0.7-1.5,1.5v5.6h-0.6h-5.5c-0.8,0-1.5,0.7-1.5,1.5c0,0.8,0.7,1.5,1.5,1.5h4.1v8.5v9.4
				h-4.1c-0.8,0-1.5,0.7-1.5,1.5s0.7,1.5,1.5,1.5h5.5h0.6v6.1c0,0.8,0.7,1.5,1.5,1.5c0.8,0,1.5-0.7,1.5-1.5v-6.1h1.1
				c1,0,1.9,0,2.8-0.1v6.2c0,0.8,0.7,1.5,1.5,1.5c0.8,0,1.5-0.7,1.5-1.5v-6.6c0,0,0.1,0,0.1,0c1.1-0.2,2.1-0.6,2.8-1
				c0.8-0.4,1.5-0.9,2-1.5c0.5-0.6,0.9-1.3,1.2-2c0.2-0.7,0.3-1.4,0.3-2.2C113.8,331.6,113.4,330.3,112.6,329.3z M105.3,319.4
				c0.6,0.1,1.1,0.2,1.5,0.3c0.9,0.3,1.5,0.7,1.9,1.2c0.4,0.6,0.5,1.2,0.5,1.9c0,0.7-0.2,1.4-0.5,1.9c-0.3,0.5-0.8,0.9-1.6,1.2
				c-0.5,0.2-1.6,0.5-3.8,0.5h-4.9v-7.1h4.4C103.9,319.3,104.7,319.3,105.3,319.4z M110.7,334.3c-0.1,0.4-0.3,0.7-0.6,1
				c-0.3,0.3-0.7,0.6-1.2,0.9c-0.5,0.3-1.2,0.5-2.1,0.7c-0.6,0.1-1.2,0.2-2.1,0.3c-0.8,0.1-1.9,0.1-3.1,0.1h-3.2v-8h4.9h0.3
				c1.1,0,2,0,2.7,0.1c0.7,0.1,1.2,0.2,1.7,0.3c1,0.3,1.7,0.7,2.1,1.3c0.4,0.6,0.6,1.2,0.6,2C110.9,333.4,110.8,333.9,110.7,334.3z"
				/>
		</g>
		<g>
			<g>
				
					<ellipse transform="matrix(0.378 -0.9258 0.9258 0.378 -203.1687 356.0186)" class="st6" cx="163.4" cy="329.2" rx="17.2" ry="17.2"/>
				<path class="st9" d="M170.2,329.5c-0.3-0.4-0.7-0.8-1.2-1.1c0.2-0.2,0.3-0.4,0.4-0.6c0.4-0.7,0.6-1.4,0.6-2.2
					c0-0.9-0.2-1.6-0.7-2.3c-0.5-0.7-1.2-1.3-2.3-1.6c0,0,0-3.5,0-3.5c0-0.6-0.5-1.2-1.2-1.2c-0.6,0-1.2,0.5-1.2,1.2v3.2
					c-0.2,0-0.4,0-0.7,0h-1.1v-3.2c0-0.6-0.5-1.2-1.2-1.2c-0.6,0-1.2,0.5-1.2,1.2v3.2h-0.1h-3.4c-0.6,0-1.2,0.5-1.2,1.2
					c0,0.6,0.5,1.2,1.2,1.2h2.3v5v5.6h-2.3c-0.6,0-1.2,0.5-1.2,1.2c0,0.6,0.5,1.2,1.2,1.2h3.4h0.1v3.5c0,0.6,0.5,1.2,1.2,1.2
					c0.6,0,1.2-0.5,1.2-1.2v-3.5h0.4c0.5,0,1,0,1.4,0v3.6c0,0.6,0.5,1.2,1.2,1.2c0.6,0,1.2-0.5,1.2-1.2v-3.9
					c0.7-0.2,1.2-0.3,1.7-0.6c0.5-0.3,1-0.6,1.3-1c0.4-0.4,0.6-0.9,0.8-1.4c0.1-0.5,0.2-0.9,0.2-1.4
					C171,331.1,170.7,330.2,170.2,329.5z M165.5,323.8c0.4,0,0.7,0.1,0.9,0.2c0.5,0.2,0.8,0.4,1,0.6c0.2,0.3,0.3,0.6,0.3,1.1
					c0,0.4-0.1,0.7-0.3,1.1c-0.1,0.3-0.4,0.5-0.8,0.6c-0.3,0.1-0.9,0.3-2.2,0.3h-2.8v-3.9h2.4C164.6,323.8,165.1,323.8,165.5,323.8z
					 M168.6,332.7c-0.1,0.2-0.2,0.3-0.3,0.5c-0.2,0.2-0.4,0.3-0.7,0.5c-0.3,0.2-0.7,0.3-1.2,0.4c-0.3,0.1-0.7,0.1-1.2,0.2
					c-0.5,0-1.2,0.1-1.9,0.1h-1.7V330h2.8h0.2c0.7,0,1.2,0,1.7,0.1c0.4,0,0.7,0.1,1,0.2c0.5,0.2,0.9,0.4,1.2,0.7
					c0.2,0.3,0.3,0.6,0.3,1.1C168.7,332.2,168.6,332.5,168.6,332.7z"/>
			</g>
			<g>
				<path class="st4" d="M198.1,342.6h-65.2c-2.8,0-5.1,2.3-5.1,5.1V405c0,2.8,2.3,5.1,5.1,5.1h65.2c2.8,0,5.1-2.3,5.1-5.1v-57.2
					C203.3,344.9,201,342.6,198.1,342.6z"/>
				<path class="st10" d="M205.3,384.4h-19.7c-2.2,0-4-1.8-4-4v-7.9c0-2.2,1.8-4,4-4h19.7c2.2,0,4,1.8,4,4v7.9
					C209.3,382.6,207.5,384.4,205.3,384.4z"/>
				<path class="st8" d="M191.6,376.4c0,1.5-1.2,2.7-2.7,2.7c-1.5,0-2.7-1.2-2.7-2.7c0-1.5,1.2-2.7,2.7-2.7
					C190.4,373.8,191.6,374.9,191.6,376.4z"/>
			</g>
		</g>
		<g>
			<g>
				<polygon class="st11" points="363.9,317 363.9,301.2 394.9,327.5 363.9,353.8 363.9,338 312.2,338 312.2,317 				"/>
				<g>
					<path class="st8" d="M316.7,321.4c-0.7,0-1.3,0.6-1.3,1.3v9.7c0,0.7,0.6,1.3,1.3,1.3c0.7,0,1.3-0.6,1.3-1.3v-9.7
						C318,321.9,317.4,321.4,316.7,321.4z"/>
					<path class="st8" d="M323.3,321.4c-0.7,0-1.3,0.6-1.3,1.3v9.7c0,0.7,0.6,1.3,1.3,1.3c0.7,0,1.3-0.6,1.3-1.3v-9.7
						C324.5,321.9,324,321.4,323.3,321.4z"/>
					<path class="st8" d="M362.2,321.4c-0.7,0-1.3,0.6-1.3,1.3v9.7c0,0.7,0.6,1.3,1.3,1.3c0.7,0,1.3-0.6,1.3-1.3v-9.7
						C363.5,321.9,362.9,321.4,362.2,321.4z"/>
					<path class="st8" d="M342.7,321.4c-0.7,0-1.3,0.6-1.3,1.3v9.7c0,0.7,0.6,1.3,1.3,1.3c0.7,0,1.3-0.6,1.3-1.3v-9.7
						C344,321.9,343.4,321.4,342.7,321.4z"/>
					<path class="st8" d="M333,321.4c-2.4,0-4.4,2-4.4,4.4v3.4c0,2.4,2,4.4,4.4,4.4c2.4,0,4.4-2,4.4-4.4v-3.4
						C337.4,323.3,335.5,321.4,333,321.4z M334.9,329.2c0,1-0.9,1.9-1.9,1.9c-1,0-1.9-0.9-1.9-1.9v-3.4c0-1,0.9-1.9,1.9-1.9
						c1,0,1.9,0.9,1.9,1.9V329.2z"/>
					<path class="st8" d="M352.5,321.4c-2.4,0-4.4,2-4.4,4.4v3.4c0,2.4,2,4.4,4.4,4.4c2.4,0,4.4-2,4.4-4.4v-3.4
						C356.9,323.3,354.9,321.4,352.5,321.4z M354.4,329.2c0,1-0.9,1.9-1.9,1.9c-1,0-1.9-0.9-1.9-1.9v-3.4c0-1,0.9-1.9,1.9-1.9
						c1,0,1.9,0.9,1.9,1.9V329.2z"/>
				</g>
			</g>
			<g>
				<polygon class="st4" points="343.3,359.3 343.3,343.4 312.2,369.8 343.3,396.1 343.3,380.2 394.9,380.2 394.9,359.3 				"/>
				<g>
					<path class="st8" d="M377.5,363.6c-0.7,0-1.3,0.6-1.3,1.3v9.7c0,0.7,0.6,1.3,1.3,1.3s1.3-0.6,1.3-1.3v-9.7
						C378.8,364.2,378.2,363.6,377.5,363.6z"/>
					<path class="st8" d="M370.9,363.6c-0.7,0-1.3,0.6-1.3,1.3v9.7c0,0.7,0.6,1.3,1.3,1.3c0.7,0,1.3-0.6,1.3-1.3v-9.7
						C372.2,364.2,371.6,363.6,370.9,363.6z"/>
					<path class="st8" d="M344.9,363.6c-0.7,0-1.3,0.6-1.3,1.3v9.7c0,0.7,0.6,1.3,1.3,1.3c0.7,0,1.3-0.6,1.3-1.3v-9.7
						C346.2,364.2,345.6,363.6,344.9,363.6z"/>
					<path class="st8" d="M351.5,363.6c-0.7,0-1.3,0.6-1.3,1.3v9.7c0,0.7,0.6,1.3,1.3,1.3c0.7,0,1.3-0.6,1.3-1.3v-9.7
						C352.7,364.2,352.2,363.6,351.5,363.6z"/>
					<path class="st8" d="M387.2,363.6c-2.4,0-4.4,2-4.4,4.4v3.4c0,2.4,2,4.4,4.4,4.4c2.4,0,4.4-2,4.4-4.4v-3.4
						C391.7,365.6,389.7,363.6,387.2,363.6z M389.1,371.5c0,1.1-0.9,1.9-1.9,1.9c-1.1,0-1.9-0.9-1.9-1.9v-3.4c0-1,0.9-1.9,1.9-1.9
						c1,0,1.9,0.9,1.9,1.9V371.5z"/>
					<path class="st8" d="M361.2,363.6c-2.4,0-4.4,2-4.4,4.4v3.4c0,2.4,2,4.4,4.4,4.4c2.4,0,4.4-2,4.4-4.4v-3.4
						C365.6,365.6,363.6,363.6,361.2,363.6z M363.1,371.5c0,1.1-0.9,1.9-1.9,1.9c-1,0-1.9-0.9-1.9-1.9v-3.4c0-1,0.9-1.9,1.9-1.9
						c1,0,1.9,0.9,1.9,1.9V371.5z"/>
				</g>
			</g>
		</g>
		<g>
			<g>
				<polygon class="st5" points="260.8,321 221.9,321 225.9,303.2 256.8,303.2 				"/>
				<rect x="208.5" y="321" class="st2" width="65.7" height="7.2"/>
				<rect x="153" y="171" class="st8" width="176.7" height="132.7"/>
				<rect x="232.5" y="291.4" class="st10" width="17.7" height="5.9"/>
				
					<rect x="188.7" y="152.9" transform="matrix(6.123234e-17 -1 1 6.123234e-17 8.8772 473.7887)" class="st6" width="105.2" height="159"/>
			</g>
			<g>
				<g>
					<g>
						<path class="st7" d="M204.5,264.7c-3.4,0-6.3-2.8-6.3-6.3v-4.2c0-3.4,2.8-6.3,6.3-6.3c3.4,0,6.3,2.8,6.3,6.3v4.2
							C210.8,261.9,208,264.7,204.5,264.7z M204.5,252.7c-0.8,0-1.5,0.7-1.5,1.5v4.2c0,0.8,0.7,1.5,1.5,1.5c0.8,0,1.5-0.7,1.5-1.5
							v-4.2C206.1,253.4,205.4,252.7,204.5,252.7z"/>
					</g>
					<g>
						<path class="st7" d="M271.5,214.9c-1.3,0-2.4-1.1-2.4-2.4v-12c0-1.3,1.1-2.4,2.4-2.4s2.4,1.1,2.4,2.4v12
							C273.9,213.9,272.8,214.9,271.5,214.9z"/>
					</g>
					<g>
						<path class="st7" d="M295.6,222.2c-3.4,0-6.3-2.8-6.3-6.3v-4.2c0-3.4,2.8-6.3,6.3-6.3c3.4,0,6.3,2.8,6.3,6.3v4.2
							C301.8,219.4,299,222.2,295.6,222.2z M295.6,210.2c-0.8,0-1.5,0.7-1.5,1.5v4.2c0,0.8,0.7,1.5,1.5,1.5c0.8,0,1.5-0.7,1.5-1.5
							v-4.2C297.1,210.9,296.4,210.2,295.6,210.2z"/>
					</g>
					<g>
						<path class="st7" d="M297.9,262.5c-1.3,0-2.4-1.1-2.4-2.4v-12c0-1.3,1.1-2.4,2.4-2.4c1.3,0,2.4,1.1,2.4,2.4v12
							C300.2,261.4,299.2,262.5,297.9,262.5z"/>
					</g>
					<g>
						<path class="st7" d="M187.1,245c-3.4,0-6.3-2.8-6.3-6.3v-4.2c0-3.4,2.8-6.3,6.3-6.3c3.4,0,6.3,2.8,6.3,6.3v4.2
							C193.3,242.2,190.5,245,187.1,245z M187.1,233c-0.8,0-1.5,0.7-1.5,1.5v4.2c0,0.8,0.7,1.5,1.5,1.5s1.5-0.7,1.5-1.5v-4.2
							C188.6,233.7,187.9,233,187.1,233z"/>
					</g>
					<g>
						<path class="st7" d="M276.9,270c-1.3,0-2.4-1.1-2.4-2.4v-12c0-1.3,1.1-2.4,2.4-2.4c1.3,0,2.4,1.1,2.4,2.4v12
							C279.2,269,278.2,270,276.9,270z"/>
					</g>
					<g>
						<path class="st7" d="M216.2,242c-1.3,0-2.4-1.1-2.4-2.4v-12c0-1.3,1.1-2.4,2.4-2.4c1.3,0,2.4,1.1,2.4,2.4v12
							C218.5,240.9,217.5,242,216.2,242z"/>
					</g>
					<g>
						<path class="st7" d="M206.9,211.5c-3.4,0-6.3-2.8-6.3-6.3v-4.2c0-3.4,2.8-6.3,6.3-6.3c3.4,0,6.3,2.8,6.3,6.3v4.2
							C213.1,208.7,210.3,211.5,206.9,211.5z M206.9,199.6c-0.8,0-1.5,0.7-1.5,1.5v4.2c0,0.8,0.7,1.5,1.5,1.5c0.8,0,1.5-0.7,1.5-1.5
							v-4.2C208.4,200.3,207.7,199.6,206.9,199.6z"/>
					</g>
					<g>
						<path class="st7" d="M281.4,242c-3.4,0-6.3-2.8-6.3-6.3v-4.2c0-3.4,2.8-6.3,6.3-6.3c3.4,0,6.3,2.8,6.3,6.3v4.2
							C287.7,239.2,284.8,242,281.4,242z M281.4,230c-0.8,0-1.5,0.7-1.5,1.5v4.2c0,0.9,0.7,1.5,1.5,1.5c0.8,0,1.5-0.7,1.5-1.5v-4.2
							C282.9,230.7,282.2,230,281.4,230z"/>
					</g>
					<g>
						<path class="st7" d="M191.5,222.2c-1.3,0-2.4-1.1-2.4-2.4v-12c0-1.3,1.1-2.4,2.4-2.4c1.3,0,2.4,1.1,2.4,2.4v12
							C193.9,221.1,192.8,222.2,191.5,222.2z"/>
					</g>
				</g>
				<path class="st9" d="M263.5,233.9c-1-1.3-2.3-2.4-3.9-3.2c0.6-0.6,1.2-1.2,1.6-2c1.1-1.8,1.6-3.9,1.6-6.2c0-2.4-0.6-4.6-1.9-6.5
					c-1.3-2-3.4-3.5-6.4-4.4c-0.1,0-0.2,0-0.3-0.1v-10.5c0-1.6-1.3-2.9-2.9-2.9c-1.6,0-2.9,1.3-2.9,2.9v9.7c-0.8,0-1.6,0-2.4,0h-3.7
					v-9.7c0-1.6-1.3-2.9-2.9-2.9c-1.6,0-2.9,1.3-2.9,2.9v9.7h-0.7h-9.8c-1.6,0-2.9,1.3-2.9,2.9c0,1.6,1.3,2.9,2.9,2.9h6.9v14.8v16.4
					h-6.9c-1.6,0-2.9,1.3-2.9,2.9c0,1.6,1.3,2.9,2.9,2.9h9.8h0.7v10.5c0,1.6,1.3,2.9,2.9,2.9c1.6,0,2.9-1.3,2.9-2.9v-10.5h1.6
					c1.7,0,3.2,0,4.5-0.1v10.6c0,1.6,1.3,2.9,2.9,2.9c1.6,0,2.9-1.3,2.9-2.9V253c2-0.4,3.7-1,5.1-1.8c1.5-0.8,2.7-1.7,3.6-2.8
					c1-1.1,1.7-2.4,2.2-3.7c0.4-1.3,0.6-2.6,0.6-4C265.7,238.1,265,235.8,263.5,233.9z M250.3,216.8c1,0.1,1.9,0.3,2.7,0.5
					c1.5,0.5,2.6,1.1,3.1,2c0.6,0.9,0.9,2,0.9,3.2c0,1.2-0.3,2.3-0.8,3.2c-0.5,0.8-1.4,1.5-2.6,2c-0.9,0.4-2.8,0.8-6.5,0.8h-8.4
					v-11.9h7.4C247.7,216.7,249.1,216.7,250.3,216.8z M259.5,242.9c-0.2,0.6-0.5,1.1-0.9,1.6c-0.5,0.6-1.2,1.1-2,1.5
					c-0.9,0.5-2.1,0.9-3.7,1.2c-1,0.2-2.2,0.4-3.6,0.5c-1.5,0.1-3.3,0.2-5.4,0.2h-5.3v-13.5h8.4h0.6c2,0,3.6,0.1,4.8,0.2
					c1.1,0.1,2.1,0.3,2.9,0.5c1.6,0.5,2.8,1.3,3.5,2.2c0.7,0.9,1,2,1,3.3C259.8,241.4,259.7,242.2,259.5,242.9z"/>
			</g>
		</g>
		<g>
			<g>
				<path class="st4" d="M265.5,113.1c0-13.4-5.2-25.6-13.7-34.7c-0.1-0.1-0.1-0.1-0.1-0.2c-0.3-0.3-0.6-0.7-1-1
					c-0.1-0.1-0.1-0.2-0.2-0.2c-0.5-0.5-1.1-1.1-1.7-1.6c-9.4-8.6-21.3-13.2-34.2-13.2c-0.1,0-0.1,0-0.1,0
					c-12.8,0-24.8,4.7-34.1,13.2c-0.6,0.5-1.1,1.1-1.7,1.6c-0.1,0.1-0.1,0.1-0.2,0.2c-0.3,0.3-0.6,0.6-1,1c-0.1,0-0.1,0.1-0.1,0.2
					c-8.5,9.1-13.7,21.3-13.7,34.6c0,0.1,0,0.2,0,0.2c0.1,13.6,5.5,26,14.3,35.1c0.1,0.1,0.1,0.1,0.2,0.2
					c9.7,9.9,22.6,15.3,36.4,15.3c13.8,0,26.7-5.5,36.4-15.3c0.1-0.1,0.1-0.1,0.2-0.2C260,139.2,265.5,126.8,265.5,113.1z"/>
				<path class="st11" d="M253.8,76.7l-0.3-0.3l-0.1-0.1c-0.2-0.3-0.5-0.5-0.7-0.7l-0.1-0.1c-0.1-0.1-0.2-0.2-0.2-0.3
					c-0.5-0.5-1.1-1.1-1.7-1.6l-0.7-0.8h-0.1c-9.7-8.5-22.2-13.2-35.2-13.2c-13,0-25.4,4.7-35.2,13.2l-0.5,0l-0.6,1
					c-0.5,0.5-1,0.9-1.5,1.5l-0.1,0.1c-0.3,0.3-0.7,0.6-1,1c-0.2,0.2-0.3,0.3-0.3,0.4c-9.2,9.9-14.3,22.8-14.3,36.3l0,0.2
					c0.1,13.8,5.4,26.8,14.9,36.8c0.1,0.1,0.2,0.2,0.3,0.3c10.2,10.4,23.8,16.1,38.3,16.1c14.5,0,28.1-5.7,38.3-16.2
					c0.1-0.1,0.2-0.2,0.3-0.3c9.6-10,14.9-23.2,14.9-37.1C268.2,99.6,263.1,86.7,253.8,76.7z M190.2,88.5
					c-2.3,7.1-3.4,14.6-3.4,21.9l-20.3,0c0.6-10,4.2-19.6,10.5-27.4C180.8,85.1,185.3,86.9,190.2,88.5z M233.4,135.4
					c-5.3-1.2-10.7-1.8-16.1-1.8l0-17.8l19.6,0c-0.2,3.9-0.7,7.7-1.4,11.4C234.9,130,234.2,132.7,233.4,135.4z M193.7,127.1
					c-0.7-3.6-1.2-7.5-1.4-11.4l19.7,0l0,17.9c-5.5,0.3-10.9,1.2-15.9,2.4C195.1,133.2,194.3,130.2,193.7,127.1z M211.9,139.1
					l0,21.3c-5.1-2.5-10.4-9.7-14.1-19.2C202.4,140.1,207.1,139.4,211.9,139.1z M217.3,139c4.8,0.1,9.7,0.6,14.3,1.6
					c-3.8,9.7-9.1,17.2-14.3,19.8L217.3,139z M217.3,110.4l0-17.8c5.6,0,11.2-0.6,16.7-2c2,6.3,3,13.1,3,19.7L217.3,110.4z
					 M217.3,87.2l0-20.1c6.9,4.9,11.6,11.3,14.8,18.4C227.3,86.6,222.3,87.1,217.3,87.2z M211.9,67.1l0,20c-5-0.3-9.9-1-14.6-2.1
					C200.5,78,205.2,71.8,211.9,67.1z M211.9,92.5l0,17.9l-19.8,0c0.1-6.9,1.1-13.9,3.3-20.5C200.6,91.2,206.2,92.1,211.9,92.5z
					 M186.9,115.8c0.2,4.2,0.8,8.4,1.5,12.4c0.6,3.3,1.4,6.4,2.4,9.3c-5.1,1.6-9.8,3.5-13.8,5.7c-6.3-7.8-9.9-17.3-10.5-27.4
					L186.9,115.8z M192.5,142.5c2.7,7.1,6.2,13.1,10.1,17.3c-8.2-2.1-15.8-6.4-21.9-12.5C184.3,145.4,188.3,143.8,192.5,142.5z
					 M236.8,142c4.1,1.3,8.1,3.1,11.7,5.4c-6.2,6.1-13.8,10.4-22,12.5C230.5,155.5,234.1,149.4,236.8,142z M238.6,136.8
					c0.8-2.8,1.6-5.6,2.1-8.6c0.8-4,1.3-8.2,1.5-12.4l20.5,0c-0.6,10.1-4.2,19.6-10.6,27.5C247.9,140.5,243.3,138.3,238.6,136.8z
					 M262.7,110.4l-20.3,0c-0.1-7.1-1-14.4-3.2-21.2c4.5-1.5,8.9-3.6,13-6.3C258.5,90.8,262.2,100.3,262.7,110.4z M247.7,78.2
					L247.7,78.2c0.3,0.2,0.6,0.5,0.8,0.7c-3.5,2.2-7.2,3.9-11.2,5.2c-2.9-6.8-7.1-13-12.9-18.1c8.4,1.7,16.2,5.7,22.6,11.5
					L247.7,78.2z M182,78.2l0.6-1c6.3-5.7,14-9.5,22.2-11.2c-5.6,5-9.8,11-12.6,17.6c-4.1-1.3-7.9-2.8-11.4-4.6
					c0.3-0.3,0.5-0.5,0.8-0.8L182,78.2z"/>
			</g>
			<g>
				<g>
					
						<ellipse transform="matrix(9.800509e-02 -0.9952 0.9952 9.800509e-02 12.9461 300.2372)" class="st7" cx="172.1" cy="143" rx="23.6" ry="23.6"/>
					<circle class="st6" cx="172.1" cy="143" r="18.3"/>
					<g>
						<path class="st6" d="M171.3,119.3v5.4c0.3,0,0.5,0,0.8,0s0.5,0,0.8,0c0,0,0-5.4,0-5.4c-0.3,0-0.5,0-0.8,0
							C171.8,119.3,171.6,119.3,171.3,119.3z"/>
						<path class="st6" d="M151.2,131.8l4.6,2.7c0.3-0.5,0.5-0.9,0.8-1.4c0,0-4.7-2.7-4.7-2.7C151.8,130.9,151.5,131.4,151.2,131.8z
							"/>
						<path class="st6" d="M162.3,127.5c0.5-0.3,0.9-0.5,1.4-0.8c0,0-2.7-4.7-2.7-4.7c-0.5,0.2-0.9,0.5-1.4,0.8L162.3,127.5z"/>
						<path class="st6" d="M190.4,142.2c0,0.3,0,0.5,0,0.8c0,0.3,0,0.5,0,0.8c0,0,5.4,0,5.4,0c0-0.3,0-0.5,0-0.8c0-0.3,0-0.5,0-0.8
							L190.4,142.2C190.4,142.2,190.4,142.2,190.4,142.2z"/>
						<path class="st6" d="M192.2,130.5l-4.6,2.7c0.3,0.5,0.5,0.9,0.8,1.4c0,0,4.7-2.7,4.7-2.7C192.7,131.4,192.5,130.9,192.2,130.5
							z"/>
						<path class="st6" d="M180.6,126.8c0.5,0.3,0.9,0.5,1.4,0.8c0,0,2.7-4.7,2.7-4.7c-0.4-0.3-0.9-0.5-1.4-0.8L180.6,126.8z"/>
						<path class="st6" d="M181.9,158.4c-0.5,0.3-0.9,0.5-1.4,0.8c0,0,2.7,4.7,2.7,4.7c0.5-0.2,0.9-0.5,1.4-0.8L181.9,158.4z"/>
						<path class="st6" d="M172.9,166.6v-5.4c-0.3,0-0.5,0-0.8,0s-0.5,0-0.8,0c0,0,0,5.4,0,5.4c0.3,0,0.5,0,0.8,0
							C172.4,166.6,172.6,166.6,172.9,166.6z"/>
						<path class="st6" d="M193,154.1l-4.6-2.7c-0.3,0.5-0.5,0.9-0.8,1.4c0,0,4.7,2.7,4.7,2.7C192.5,155,192.7,154.6,193,154.1z"/>
						<path class="st6" d="M148.5,143.8h5.4c0-0.3,0-0.5,0-0.8c0-0.3,0-0.5,0-0.8c0,0-5.4,0-5.4,0c0,0.3,0,0.5,0,0.8
							C148.5,143.2,148.5,143.5,148.5,143.8z"/>
						<path class="st6" d="M156.7,152.8c-0.3-0.5-0.5-0.9-0.8-1.4c0,0-4.7,2.7-4.7,2.7c0.2,0.5,0.5,0.9,0.8,1.4L156.7,152.8z"/>
						<path class="st6" d="M163.6,159.2c-0.5-0.3-0.9-0.5-1.4-0.8c0,0-2.7,4.7-2.7,4.7c0.4,0.3,0.9,0.5,1.4,0.8L163.6,159.2z"/>
					</g>
				</g>
				<path class="st9" d="M180.2,145.1c-0.1-0.4-0.4-0.8-0.6-1.1c-0.3-0.3-0.6-0.6-1-0.9c-0.4-0.2-0.8-0.4-1.2-0.6v-0.1
					c0.8-0.4,1.4-1,1.8-1.6c0.4-0.7,0.5-1.4,0.5-2.2c0-0.4-0.1-0.9-0.2-1.3c-0.1-0.4-0.4-0.9-0.7-1.2c-0.3-0.4-0.7-0.8-1.1-1.1
					c-0.5-0.3-1-0.6-1.6-0.8c-0.5-0.2-1.1-0.3-1.7-0.3v-2.7h-1.9v2.7h-2v-2.7h-1.9v2.7h-2h-2.7v3h2.7V149h-2.7v3h2.7h2v2.7h1.9v-2.7
					h1.4c0.2,0,0.5,0,0.7,0v2.7h1.9v-2.8c0.3,0,0.5-0.1,0.7-0.1c0.3,0,0.5-0.1,0.7-0.1c0.9-0.2,1.6-0.6,2.2-0.9
					c0.6-0.4,1.1-0.8,1.4-1.3c0.4-0.5,0.6-1,0.7-1.5c0.1-0.5,0.2-1,0.2-1.4C180.4,146,180.3,145.6,180.2,145.1z M172.5,136.7
					c0.5,0,0.9,0,1.2,0c0.3,0,0.6,0.1,0.9,0.2c0.6,0.2,1,0.5,1.2,0.8c0.2,0.4,0.4,0.8,0.4,1.3c0,0.5-0.1,0.9-0.3,1.2
					c-0.2,0.4-0.6,0.7-1.1,0.9c-0.4,0.2-1.1,0.3-2,0.3h-3v-4.7H172.5z M176.8,147.4c-0.1,0.3-0.2,0.5-0.4,0.7
					c-0.2,0.2-0.4,0.4-0.7,0.6c-0.3,0.2-0.7,0.3-1.2,0.4c-0.3,0.1-0.7,0.1-1.1,0.2c-0.4,0-0.9,0-1.5,0h-2.2v-5.1h3.1
					c0.6,0,1,0,1.4,0.1c0.4,0,0.7,0.1,0.9,0.2c0.6,0.2,1,0.5,1.3,0.9c0.3,0.4,0.4,0.8,0.4,1.3C177,146.9,176.9,147.1,176.8,147.4z"
					/>
			</g>
		</g>
		<g>
			<g>
				<g>
					<path class="st5" d="M145.2,206.9c0,7.1-4.8,12.8-10.8,12.8c0,0-5.3-1.8-2.8-8.7h-7.7v-4.1c0-7.1,4.6-12.8,10.6-12.8
						C140.4,194.1,145.2,199.8,145.2,206.9z"/>
					<path class="st2" d="M134.4,219.7h-10.6v-8.7h7.7C129.2,217.8,134.4,219.7,134.4,219.7z"/>
					<path class="st2" d="M134.4,194.1c-5.9,0-10.6,5.7-10.6,12.8v77.9c0,7.1-4.6,12.8-10.5,12.8c-5.9,0-10.8-5.7-10.8-12.8
						c0-7.1,4.8-12.8,10.8-12.8l-55.6-0.7v-64.4c0-7.1,4.6-12.8,10.6-12.8H134.4z"/>
					<path class="st5" d="M113.4,297.5l-55.6-0.7c-5.9,0-10.8-5.7-10.8-12.8c0-7.1,4.8-12.8,10.8-12.8l55.6,0.7
						c-5.9,0-10.8,5.7-10.8,12.8C102.6,291.8,107.4,297.5,113.4,297.5z"/>
				</g>
				<g>
					<rect x="66.1" y="212" class="st4" width="12.6" height="3.4"/>
					<rect x="83.4" y="212" class="st4" width="12.6" height="3.4"/>
					<rect x="66.1" y="241.3" class="st4" width="12.6" height="3.4"/>
					<rect x="83.4" y="241.3" class="st4" width="12.6" height="3.4"/>
					<rect x="83.4" y="231.5" class="st4" width="32.7" height="3.4"/>
					<rect x="75.5" y="251.1" class="st4" width="32.7" height="3.4"/>
					<rect x="74.4" y="221.7" class="st4" width="7.3" height="3.4"/>
					<rect x="85.6" y="221.7" class="st4" width="26.6" height="3.4"/>
					<rect x="84.5" y="261.3" class="st4" width="6.1" height="3.4"/>
					<rect x="93.9" y="261.3" class="st4" width="22.2" height="3.4"/>
				</g>
			</g>
			<path class="st7" d="M149.1,244.2c0-7.9-6.4-14.2-14.2-14.2c-7.9,0-14.2,6.4-14.2,14.2c0,6.6,4.5,12.1,10.6,13.7l-0.1,7.7l1.9,2
				v3.3l-1.9-0.1v5.6l1.9,2.3l-1.9,2.3v6.3l1.9,1.8v1.9l-1.9-0.6v3.7l3.7,3.5l3.7-3.5l-0.1-36.1
				C144.6,256.3,149.1,250.8,149.1,244.2z M134.9,244.5c-2.1,0-3.8-1.7-3.8-3.8c0-2.1,1.7-3.8,3.8-3.8c2.1,0,3.8,1.7,3.8,3.8
				C138.7,242.8,137,244.5,134.9,244.5z"/>
		</g>
		<g>
			<g>
				<rect x="66.4" y="156.7" class="st6" width="15.1" height="31.2"/>
				<rect x="87.8" y="141.6" class="st11" width="15.1" height="46.3"/>
				<rect x="109.2" y="149.5" class="st2" width="15.1" height="38.3"/>
				<rect x="130.6" y="129.9" class="st10" width="15.1" height="57.9"/>
			</g>
			<path class="st8" d="M147.1,99.8c0,0,0-0.1,0-0.1c0-0.1-0.1-0.1-0.1-0.2c0-0.1-0.1-0.2-0.1-0.2c0,0,0-0.1-0.1-0.1
				c0,0-0.1-0.1-0.1-0.1c0,0,0-0.1-0.1-0.1c0,0-0.1,0-0.1-0.1c0,0-0.1-0.1-0.1-0.1c-0.1,0-0.1,0-0.2-0.1c-0.1,0-0.2-0.1-0.2-0.1
				c0,0-0.1,0-0.1,0c0,0,0,0,0,0c0,0-0.1,0-0.1,0c-0.1,0-0.2,0-0.3,0c0,0-0.1,0-0.1,0l-9.2,2c-0.8,0.2-1.3,1-1.1,1.7
				c0.2,0.7,0.8,1.1,1.4,1.1c0.1,0,0.2,0,0.3,0l4.8-1.1l-24.9,28.3L96,116.9c-0.6-0.4-1.4-0.3-1.9,0.2l-28.7,30.4
				c-0.6,0.6-0.5,1.5,0.1,2.1c0.3,0.3,0.6,0.4,1,0.4c0.4,0,0.8-0.2,1.1-0.5L95.4,120l20.8,13.8c0.6,0.4,1.4,0.3,1.9-0.3l25.5-29
				l-0.6,4.6c-0.1,0.8,0.5,1.5,1.3,1.6c0.1,0,0.1,0,0.2,0c0.7,0,1.4-0.5,1.5-1.3l1.2-9.3c0,0,0-0.1,0-0.1
				C147.2,100,147.2,99.9,147.1,99.8z"/>
		</g>
		<g>
			<g>
				<g>
					<path class="st7" d="M304.5,338.3v7.7c0,2-1.6,3.6-3.6,3.6h-60.2c-2,0-3.6-1.6-3.6-3.6v-7.7c0-2,1.6-3.6,3.6-3.6h60.2
						C302.9,334.7,304.5,336.3,304.5,338.3z"/>
					<path class="st7" d="M311.8,353.2v7.7c0,2-1.6,3.6-3.6,3.6H248c-2,0-3.6-1.6-3.6-3.6v-7.7c0-2,1.6-3.6,3.6-3.6h60.2
						C310.2,349.6,311.8,351.2,311.8,353.2z"/>
					<path class="st7" d="M304.5,368.1v7.7c0,2-1.6,3.6-3.6,3.6h-60.2c-2,0-3.6-1.6-3.6-3.6v-7.7c0-2,1.6-3.6,3.6-3.6h60.2
						C302.9,364.5,304.5,366.1,304.5,368.1z"/>
					<path class="st7" d="M300.9,394.3c2,0,3.6,1.6,3.6,3.6v7.7c0,2-1.6,3.6-3.6,3.6h-33.7c0-15.6-12-28.4-27.2-29.7
						c0.2-0.1,0.5-0.1,0.8-0.1h60.2c2,0,3.6,1.6,3.6,3.6v7.7C304.5,392.7,302.9,394.3,300.9,394.3z"/>
					<path class="st7" d="M300.9,394.3h-37.7H300.9z"/>
					<path class="st7" d="M300.9,394.3h-37.7H300.9z"/>
					<path class="st7" d="M304.5,412.8v7.7c0,2-1.6,3.6-3.6,3.6h-37.7c2.5-4.4,4-9.5,4-14.9h33.7
						C302.9,409.2,304.5,410.8,304.5,412.8z"/>
					<path class="st7" d="M263.2,424.1H263H263.2z"/>
					<path class="st7" d="M304.5,427.7v7.7c0,2-1.6,3.6-3.6,3.6h-60.2c-0.3,0-0.6,0-0.9-0.1c10-0.8,18.6-6.6,23.3-14.8h37.7
						C302.9,424.1,304.5,425.7,304.5,427.7z"/>
					<path class="st7" d="M263.2,424.1H263H263.2z"/>
				</g>
				<g>
					<g>
						<g>
							<g>
								<rect x="249.2" y="334.7" class="st6" width="2.8" height="14.9"/>
							</g>
							<g>
								<rect x="262.7" y="334.7" class="st6" width="2.8" height="14.9"/>
							</g>
							<g>
								<rect x="276.2" y="334.7" class="st6" width="2.8" height="14.9"/>
							</g>
							<g>
								<rect x="289.7" y="334.7" class="st6" width="2.8" height="14.9"/>
							</g>
						</g>
						<g>
							<g>
								<rect x="256.5" y="349.6" class="st6" width="2.8" height="14.9"/>
							</g>
							<g>
								<rect x="269.9" y="349.6" class="st6" width="2.8" height="14.9"/>
							</g>
							<g>
								<rect x="283.4" y="349.6" class="st6" width="2.8" height="14.9"/>
							</g>
							<g>
								<rect x="296.9" y="349.6" class="st6" width="2.8" height="14.9"/>
							</g>
						</g>
						<g>
							<g>
								<rect x="256.5" y="379.4" class="st6" width="2.8" height="8.1"/>
							</g>
							<g>
								<rect x="269.9" y="379.4" class="st6" width="2.8" height="14.9"/>
							</g>
							<g>
								<rect x="283.4" y="379.4" class="st6" width="2.8" height="14.9"/>
							</g>
							<g>
								<rect x="296.9" y="379.4" class="st6" width="2.8" height="14.9"/>
							</g>
						</g>
						<g>
							<g>
								<rect x="269.9" y="409.2" class="st6" width="2.8" height="14.8"/>
							</g>
							<g>
								<rect x="283.4" y="409.2" class="st6" width="2.8" height="14.8"/>
							</g>
							<g>
								<rect x="296.9" y="409.2" class="st6" width="2.8" height="14.8"/>
							</g>
						</g>
						<g>
							<g>
								<rect x="249.2" y="364.5" class="st6" width="2.8" height="14.9"/>
							</g>
							<g>
								<rect x="262.7" y="364.5" class="st6" width="2.8" height="14.9"/>
							</g>
							<g>
								<rect x="276.2" y="364.5" class="st6" width="2.8" height="14.9"/>
							</g>
							<g>
								<rect x="289.7" y="364.5" class="st6" width="2.8" height="14.9"/>
							</g>
						</g>
						<g>
							<g>
								<rect x="276.2" y="394.3" class="st6" width="2.8" height="14.9"/>
							</g>
							<g>
								<rect x="289.7" y="394.3" class="st6" width="2.8" height="14.9"/>
							</g>
						</g>
						<g>
							<g>
								<rect x="262.7" y="424.4" class="st6" width="2.8" height="14.6"/>
							</g>
							<g>
								<rect x="276.2" y="424.4" class="st6" width="2.8" height="14.6"/>
							</g>
							<g>
								<rect x="289.7" y="424.4" class="st6" width="2.8" height="14.6"/>
							</g>
						</g>
					</g>
					<g>
						<g>
							<path class="st6" d="M300.9,351h-60.2c-2.8,0-5-2.2-5-5v-7.7c0-2.8,2.2-5,5-5h60.2c2.8,0,5,2.2,5,5v7.7
								C305.9,348.7,303.7,351,300.9,351z M240.7,336.1c-1.2,0-2.2,1-2.2,2.2v7.7c0,1.2,1,2.2,2.2,2.2h60.2c1.2,0,2.2-1,2.2-2.2
								v-7.7c0-1.2-1-2.2-2.2-2.2H240.7z"/>
						</g>
						<g>
							<path class="st6" d="M308.2,365.9H248c-2.8,0-5-2.2-5-5v-7.7c0-2.8,2.2-5,5-5h60.2c2.8,0,5,2.2,5,5v7.7
								C313.2,363.6,310.9,365.9,308.2,365.9z M248,351c-1.2,0-2.2,1-2.2,2.2v7.7c0,1.2,1,2.2,2.2,2.2h60.2c1.2,0,2.2-1,2.2-2.2
								v-7.7c0-1.2-1-2.2-2.2-2.2H248z"/>
						</g>
						<g>
							<path class="st6" d="M300.9,380.8h-60.2c-2.8,0-5-2.2-5-5v-7.7c0-2.8,2.2-5,5-5h60.2c2.8,0,5,2.2,5,5v7.7
								C305.9,378.5,303.7,380.8,300.9,380.8z M240.7,365.9c-1.2,0-2.2,1-2.2,2.2v7.7c0,1.2,1,2.2,2.2,2.2h60.2c1.2,0,2.2-1,2.2-2.2
								v-7.7c0-1.2-1-2.2-2.2-2.2H240.7z"/>
						</g>
						<g>
							<path class="st6" d="M300.9,410.6h-33.7c-0.8,0-1.4-0.6-1.4-1.4c0-14.7-11.4-27.1-25.9-28.3c-0.7-0.1-1.2-0.6-1.3-1.3
								c0-0.7,0.4-1.3,1.1-1.4c0.4-0.1,0.7-0.1,1.1-0.1h60.2c2.8,0,5,2.2,5,5v7.7c0,1.4-0.6,2.7-1.5,3.6c0.9,0.9,1.5,2.2,1.5,3.6
								v7.7C305.9,408.4,303.7,410.6,300.9,410.6z M268.5,407.8h32.4c1.2,0,2.2-1,2.2-2.2v-7.7c0-1.2-1-2.2-2.2-2.2
								c-0.8,0-1.4-0.6-1.4-1.4c0-0.8,0.6-1.4,1.4-1.4c1.2,0,2.2-1,2.2-2.2V383c0-1.2-1-2.2-2.2-2.2h-50.6
								C260.7,385.6,268,395.9,268.5,407.8z"/>
						</g>
						<g>
							<rect x="263.3" y="392.9" class="st6" width="37.7" height="2.8"/>
						</g>
						<g>
							<rect x="263.3" y="392.9" class="st6" width="37.7" height="2.8"/>
						</g>
						<g>
							<path class="st6" d="M300.9,425.5h-37.7c-0.5,0-1-0.3-1.2-0.7c-0.2-0.4-0.2-1,0-1.4c2.5-4.3,3.8-9.2,3.8-14.2
								c0-0.8,0.6-1.4,1.4-1.4h33.7c2.8,0,5,2.2,5,5v7.7C305.9,423.3,303.7,425.5,300.9,425.5z M265.5,422.7h35.4
								c1.2,0,2.2-1,2.2-2.2v-7.7c0-1.2-1-2.2-2.2-2.2h-32.4C268.4,414.8,267.3,418.9,265.5,422.7z"/>
						</g>
						<g>
							<rect x="263" y="422.7" class="st6" width="0.2" height="2.8"/>
						</g>
						<g>
							<path class="st6" d="M300.9,440.4h-60.2c-0.4,0-0.8,0-1.2-0.1c-0.7-0.2-1.1-0.8-1-1.5c0.1-0.7,0.6-1.2,1.3-1.3
								c9.3-0.8,17.6-6.1,22.2-14.1c0.2-0.4,0.7-0.7,1.2-0.7h37.7c2.8,0,5,2.2,5,5v7.7C305.9,438.2,303.7,440.4,300.9,440.4z
								 M250.3,437.6h50.7c1.2,0,2.2-1,2.2-2.2v-7.7c0-1.2-1-2.2-2.2-2.2H264C260.7,430.9,255.9,435.1,250.3,437.6z"/>
						</g>
						<g>
							<rect x="263" y="422.7" class="st6" width="0.2" height="2.8"/>
						</g>
					</g>
				</g>
			</g>
			
				<ellipse transform="matrix(0.7071 -0.7071 0.7071 0.7071 -218.744 290.1276)" class="st9" cx="240.8" cy="409.1" rx="31.3" ry="31.3"/>
			<g>
				<g>
					<circle class="st7" cx="237.4" cy="409.1" r="31.3"/>
					
						<ellipse transform="matrix(0.3179 -0.9481 0.9481 0.3179 -225.9775 504.1253)" class="st6" cx="237.4" cy="409.1" rx="24.2" ry="24.2"/>
					<g>
						<path class="st6" d="M236.3,377.8v7.1c0.3,0,0.7,0,1,0c0.3,0,0.7,0,1,0c0,0,0-7.1,0-7.1c-0.3,0-0.7,0-1,0
							C237,377.8,236.7,377.8,236.3,377.8z"/>
						<path class="st6" d="M209.8,394.4l6.2,3.6c0.3-0.6,0.7-1.2,1.1-1.8c0,0-6.2-3.6-6.2-3.6C210.4,393.2,210.1,393.8,209.8,394.4z
							"/>
						<path class="st6" d="M224.4,388.7c0.6-0.4,1.2-0.7,1.8-1c0,0-3.6-6.2-3.6-6.2c-0.6,0.3-1.2,0.7-1.8,1L224.4,388.7z"/>
						<path class="st6" d="M261.5,408.1c0,0.3,0,0.7,0,1c0,0.3,0,0.7,0,1c0,0,7.1,0,7.1,0c0-0.3,0-0.7,0-1c0-0.3,0-0.7,0-1
							L261.5,408.1C261.5,408.1,261.5,408.1,261.5,408.1z"/>
						<path class="st6" d="M263.9,392.6l-6.1,3.5c0.4,0.6,0.7,1.2,1,1.8c0,0,6.2-3.6,6.2-3.6C264.7,393.8,264.3,393.2,263.9,392.6z"
							/>
						<path class="st6" d="M248.6,387.6c0.6,0.3,1.2,0.7,1.8,1.1c0,0,3.6-6.2,3.6-6.2c-0.6-0.4-1.2-0.7-1.8-1L248.6,387.6z"/>
						<path class="st6" d="M250.4,429.5c-0.6,0.4-1.2,0.7-1.8,1c0,0,3.6,6.2,3.6,6.2c0.6-0.3,1.2-0.7,1.8-1L250.4,429.5z"/>
						<path class="st6" d="M238.4,440.4v-7.1c-0.3,0-0.7,0-1,0c-0.3,0-0.7,0-1,0c0,0,0,7.1,0,7.1c0.3,0,0.7,0,1,0
							C237.7,440.4,238.1,440.4,238.4,440.4z"/>
						<path class="st6" d="M265,423.8l-6.2-3.6c-0.3,0.6-0.7,1.2-1.1,1.8c0,0,6.2,3.6,6.2,3.6C264.3,425.1,264.7,424.5,265,423.8z"
							/>
						<path class="st6" d="M206.1,410.2h7.1c0-0.3,0-0.7,0-1c0-0.3,0-0.7,0-1c0,0-7.1,0-7.1,0c0,0.3,0,0.7,0,1
							C206.1,409.5,206.1,409.8,206.1,410.2z"/>
						<path class="st6" d="M216.9,422.1c-0.4-0.6-0.7-1.2-1-1.8c0,0-6.2,3.6-6.2,3.6c0.3,0.6,0.7,1.2,1,1.8L216.9,422.1z"/>
						<path class="st6" d="M226.2,430.6c-0.6-0.3-1.2-0.7-1.8-1.1c0,0-3.6,6.2-3.6,6.2c0.6,0.4,1.2,0.7,1.8,1L226.2,430.6z"/>
					</g>
				</g>
				<path class="st9" d="M248,412c-0.2-0.6-0.5-1-0.8-1.5c-0.4-0.4-0.8-0.8-1.3-1.1c-0.5-0.3-1-0.6-1.6-0.8v-0.1
					c1.1-0.6,1.8-1.3,2.3-2.2c0.5-0.9,0.7-1.8,0.7-2.9c0-0.6-0.1-1.2-0.3-1.8c-0.2-0.6-0.5-1.1-0.9-1.7c-0.4-0.5-0.9-1-1.5-1.4
					c-0.6-0.4-1.3-0.8-2.1-1c-0.6-0.2-1.4-0.4-2.3-0.4v-3.6h-2.5v3.5h-2.7v-3.5h-2.5v3.5h-2.7h-3.5v4h3.5v16h-3.5v4h3.5h2.7v3.5h2.5
					v-3.5h1.8c0.3,0,0.6,0,0.9,0v3.5h2.5V421c0.4,0,0.7-0.1,1-0.1c0.4-0.1,0.7-0.1,1-0.2c1.2-0.3,2.2-0.7,2.9-1.3
					c0.8-0.5,1.4-1.1,1.9-1.7c0.5-0.6,0.8-1.3,1-1.9c0.2-0.7,0.3-1.3,0.3-1.9C248.3,413.2,248.2,412.5,248,412z M237.9,400.8
					c0.6,0,1.2,0,1.6,0.1c0.4,0,0.8,0.1,1.1,0.2c0.8,0.2,1.3,0.6,1.7,1.1c0.3,0.5,0.5,1.1,0.5,1.7c0,0.6-0.1,1.2-0.4,1.6
					c-0.3,0.5-0.8,0.9-1.4,1.1c-0.6,0.2-1.5,0.4-2.7,0.4h-4v-6.2H237.9z M243.6,415c-0.1,0.3-0.3,0.7-0.5,0.9
					c-0.3,0.3-0.6,0.5-1,0.8c-0.4,0.2-0.9,0.4-1.5,0.5c-0.4,0.1-0.9,0.2-1.4,0.2c-0.6,0-1.2,0.1-2,0.1h-2.9v-6.8h4.2
					c0.7,0,1.3,0,1.8,0.1c0.5,0,0.9,0.1,1.2,0.2c0.8,0.3,1.4,0.6,1.7,1.1c0.4,0.5,0.6,1.1,0.6,1.8
					C243.8,414.3,243.7,414.6,243.6,415z"/>
			</g>
		</g>
		<g>
			
				<ellipse transform="matrix(0.9998 -1.818531e-02 1.818531e-02 0.9998 -7.3668 6.0064)" class="st6" cx="326.6" cy="408.1" rx="17.2" ry="17.2"/>
			<path class="st9" d="M333.4,408.4c-0.3-0.4-0.7-0.8-1.2-1.1c0.2-0.2,0.3-0.4,0.4-0.6c0.4-0.7,0.6-1.4,0.6-2.2
				c0-0.9-0.2-1.6-0.7-2.3c-0.5-0.7-1.2-1.3-2.3-1.6c0,0,0-3.5,0-3.5c0-0.6-0.5-1.2-1.2-1.2c-0.6,0-1.2,0.5-1.2,1.2v3.2
				c-0.2,0-0.4,0-0.7,0H326V397c0-0.6-0.5-1.2-1.2-1.2c-0.6,0-1.2,0.5-1.2,1.2v3.2h-0.1h-3.4c-0.6,0-1.2,0.5-1.2,1.2
				c0,0.6,0.5,1.2,1.2,1.2h2.3v5v5.6h-2.3c-0.6,0-1.2,0.5-1.2,1.2s0.5,1.2,1.2,1.2h3.4h0.1v3.5c0,0.6,0.5,1.2,1.2,1.2
				c0.6,0,1.2-0.5,1.2-1.2v-3.5h0.4c0.5,0,1,0,1.4,0v3.6c0,0.6,0.5,1.2,1.2,1.2c0.6,0,1.2-0.5,1.2-1.2v-3.9c0.7-0.2,1.2-0.3,1.7-0.6
				c0.5-0.3,1-0.6,1.3-1c0.4-0.4,0.6-0.9,0.8-1.4c0.1-0.5,0.2-0.9,0.2-1.4C334.2,409.9,333.9,409.1,333.4,408.4z M328.6,402.7
				c0.4,0,0.7,0.1,0.9,0.2c0.5,0.2,0.8,0.4,1,0.6c0.2,0.3,0.3,0.6,0.3,1.1c0,0.4-0.1,0.7-0.3,1.1c-0.1,0.3-0.4,0.5-0.8,0.6
				c-0.3,0.1-0.9,0.3-2.2,0.3h-2.8v-3.9h2.4C327.8,402.6,328.2,402.6,328.6,402.7z M331.7,411.6c-0.1,0.2-0.2,0.3-0.3,0.5
				c-0.2,0.2-0.4,0.3-0.7,0.5c-0.3,0.2-0.7,0.3-1.2,0.4c-0.3,0.1-0.7,0.1-1.2,0.2c-0.5,0-1.2,0.1-1.9,0.1h-1.7v-4.4h2.8h0.2
				c0.7,0,1.2,0,1.7,0.1c0.4,0,0.7,0.1,1,0.2c0.5,0.2,0.9,0.4,1.2,0.7c0.2,0.3,0.3,0.6,0.3,1.1C331.9,411.1,331.8,411.3,331.7,411.6
				z"/>
		</g>
		<g>
			<circle class="st6" cx="335.7" cy="121.9" r="17.2"/>
			<path class="st9" d="M342.5,122.2c-0.3-0.4-0.7-0.8-1.2-1.1c0.2-0.2,0.3-0.4,0.4-0.6c0.4-0.7,0.6-1.4,0.6-2.2
				c0-0.9-0.2-1.6-0.7-2.3c-0.5-0.7-1.2-1.3-2.3-1.6c0,0,0-3.5,0-3.5c0-0.6-0.5-1.2-1.2-1.2c-0.6,0-1.2,0.5-1.2,1.2v3.2
				c-0.2,0-0.4,0-0.7,0h-1.1v-3.2c0-0.6-0.5-1.2-1.2-1.2c-0.6,0-1.2,0.5-1.2,1.2v3.2h-0.1h-3.4c-0.6,0-1.2,0.5-1.2,1.2
				c0,0.6,0.5,1.2,1.2,1.2h2.3v5v5.6h-2.3c-0.6,0-1.2,0.5-1.2,1.2c0,0.6,0.5,1.2,1.2,1.2h3.4h0.1v3.5c0,0.6,0.5,1.2,1.2,1.2
				c0.6,0,1.2-0.5,1.2-1.2v-3.5h0.4c0.5,0,1,0,1.4,0v3.6c0,0.6,0.5,1.2,1.2,1.2c0.6,0,1.2-0.5,1.2-1.2v-3.9c0.7-0.2,1.2-0.3,1.7-0.6
				c0.5-0.3,1-0.6,1.3-1c0.4-0.4,0.6-0.9,0.8-1.4c0.1-0.5,0.2-0.9,0.2-1.4C343.3,123.8,343,122.9,342.5,122.2z M337.7,116.5
				c0.4,0,0.7,0.1,0.9,0.2c0.5,0.2,0.8,0.4,1,0.6c0.2,0.3,0.3,0.6,0.3,1.1c0,0.4-0.1,0.7-0.3,1.1c-0.1,0.3-0.4,0.5-0.8,0.6
				c-0.3,0.1-0.9,0.3-2.2,0.3h-2.8v-3.9h2.4C336.8,116.5,337.3,116.5,337.7,116.5z M340.8,125.4c-0.1,0.2-0.2,0.3-0.3,0.5
				c-0.2,0.2-0.4,0.3-0.7,0.5c-0.3,0.2-0.7,0.3-1.2,0.4c-0.3,0.1-0.7,0.1-1.2,0.2c-0.5,0-1.2,0.1-1.9,0.1h-1.7v-4.4h2.8h0.2
				c0.7,0,1.2,0,1.7,0.1c0.4,0,0.7,0.1,1,0.2c0.5,0.2,0.9,0.4,1.2,0.7c0.2,0.3,0.3,0.6,0.3,1.1C340.9,124.9,340.9,125.2,340.8,125.4
				z"/>
		</g>
		<g>
			<path class="st7" d="M180.3,412.5c-3.4,0-6.3,2.8-6.3,6.3v4.2c0,3.4,2.8,6.3,6.3,6.3c3.4,0,6.3-2.8,6.3-6.3v-4.2
				C186.6,415.3,183.8,412.5,180.3,412.5z M181.9,422.9c0,0.8-0.7,1.5-1.5,1.5c-0.8,0-1.5-0.7-1.5-1.5v-4.2c0-0.9,0.7-1.5,1.5-1.5
				c0.8,0,1.5,0.7,1.5,1.5V422.9z"/>
			<path class="st7" d="M387.2,298.8c-1.3,0-2.4,1.1-2.4,2.4v12c0,1.3,1.1,2.4,2.4,2.4c1.3,0,2.4-1.1,2.4-2.4v-12
				C389.6,299.8,388.5,298.8,387.2,298.8z"/>
			<path class="st7" d="M411.3,306c-3.4,0-6.3,2.8-6.3,6.3v4.2c0,3.4,2.8,6.3,6.3,6.3c3.4,0,6.3-2.8,6.3-6.3v-4.2
				C417.5,308.8,414.7,306,411.3,306z M412.8,316.4c0,0.8-0.7,1.5-1.5,1.5c-0.8,0-1.5-0.7-1.5-1.5v-4.2c0-0.8,0.7-1.5,1.5-1.5
				c0.8,0,1.5,0.7,1.5,1.5V316.4z"/>
			<path class="st7" d="M342.7,291.3c-1.3,0-2.4,1.1-2.4,2.4v12c0,1.3,1.1,2.4,2.4,2.4c1.3,0,2.4-1.1,2.4-2.4v-12
				C345.1,292.4,344,291.3,342.7,291.3z"/>
			<path class="st7" d="M221.4,357.1c-3.4,0-6.3,2.8-6.3,6.3v4.2c0,3.4,2.8,6.3,6.3,6.3c3.4,0,6.3-2.8,6.3-6.3v-4.2
				C227.7,360,224.9,357.1,221.4,357.1z M223,367.6c0,0.8-0.7,1.5-1.5,1.5c-0.8,0-1.5-0.7-1.5-1.5v-4.2c0-0.8,0.7-1.5,1.5-1.5
				c0.8,0,1.5,0.7,1.5,1.5V367.6z"/>
			<path class="st7" d="M354.8,384.7c-1.3,0-2.4,1.1-2.4,2.4v12c0,1.3,1.1,2.4,2.4,2.4c1.3,0,2.4-1.1,2.4-2.4v-12
				C357.2,385.7,356.1,384.7,354.8,384.7z"/>
			<path class="st7" d="M198.2,415.8c-1.3,0-2.4,1.1-2.4,2.4v12c0,1.3,1.1,2.4,2.4,2.4c1.3,0,2.4-1.1,2.4-2.4v-12
				C200.6,416.8,199.5,415.8,198.2,415.8z"/>
			<path class="st7" d="M290.3,312.4c-3.4,0-6.3,2.8-6.3,6.3v4.2c0,3.4,2.8,6.3,6.3,6.3c3.4,0,6.3-2.8,6.3-6.3v-4.2
				C296.6,315.2,293.8,312.4,290.3,312.4z M291.9,322.8c0,0.8-0.7,1.5-1.5,1.5c-0.8,0-1.5-0.7-1.5-1.5v-4.2c0-0.8,0.7-1.5,1.5-1.5
				c0.8,0,1.5,0.7,1.5,1.5V322.8z"/>
			<path class="st7" d="M396.9,336c-3.4,0-6.3,2.8-6.3,6.3v4.2c0,3.4,2.8,6.3,6.3,6.3c3.4,0,6.3-2.8,6.3-6.3v-4.2
				C403.2,338.8,400.4,336,396.9,336z M398.5,346.4c0,0.9-0.7,1.5-1.5,1.5c-0.8,0-1.5-0.7-1.5-1.5v-4.2c0-0.8,0.7-1.5,1.5-1.5
				c0.9,0,1.5,0.7,1.5,1.5V346.4z"/>
			<path class="st7" d="M225.8,334.4c-1.3,0-2.4,1.1-2.4,2.4v12c0,1.3,1.1,2.4,2.4,2.4c1.3,0,2.4-1.1,2.4-2.4v-12
				C228.2,335.4,227.1,334.4,225.8,334.4z"/>
			<path class="st7" d="M155.8,80c-3.4,0-6.3,2.8-6.3,6.3v4.2c0,3.4,2.8,6.3,6.3,6.3c3.4,0,6.3-2.8,6.3-6.3v-4.2
				C162,82.8,159.2,80,155.8,80z M157.3,90.4c0,0.8-0.7,1.5-1.5,1.5c-0.8,0-1.5-0.7-1.5-1.5v-4.2c0-0.9,0.7-1.5,1.5-1.5
				c0.8,0,1.5,0.7,1.5,1.5V90.4z"/>
			<path class="st7" d="M271.9,74.1c-1.3,0-2.4,1.1-2.4,2.4v12c0,1.3,1.1,2.4,2.4,2.4c1.3,0,2.4-1.1,2.4-2.4v-12
				C274.3,75.2,273.2,74.1,271.9,74.1z"/>
			<path class="st7" d="M195.5,317.3c-3.4,0-6.3,2.8-6.3,6.3v4.2c0,3.4,2.8,6.3,6.3,6.3c3.4,0,6.3-2.8,6.3-6.3v-4.2
				C201.8,320.2,199,317.3,195.5,317.3z M197.1,327.8c0,0.8-0.7,1.5-1.5,1.5c-0.8,0-1.5-0.7-1.5-1.5v-4.2c0-0.8,0.7-1.5,1.5-1.5
				c0.8,0,1.5,0.7,1.5,1.5V327.8z"/>
			<path class="st7" d="M119.6,103c-1.3,0-2.4,1.1-2.4,2.4v12c0,1.3,1.1,2.4,2.4,2.4c1.3,0,2.4-1.1,2.4-2.4v-12
				C121.9,104,120.9,103,119.6,103z"/>
			<path class="st7" d="M68.4,301.5c-3.4,0-6.3,2.8-6.3,6.3v4.2c0,3.4,2.8,6.3,6.3,6.3c3.4,0,6.3-2.8,6.3-6.3v-4.2
				C74.7,304.3,71.8,301.5,68.4,301.5z M69.9,311.9c0,0.8-0.7,1.5-1.5,1.5s-1.5-0.7-1.5-1.5v-4.2c0-0.8,0.7-1.5,1.5-1.5
				s1.5,0.7,1.5,1.5V311.9z"/>
			<path class="st7" d="M362.2,198.2c-1.3,0-2.4,1.1-2.4,2.4v12c0,1.3,1.1,2.4,2.4,2.4c1.3,0,2.4-1.1,2.4-2.4v-12
				C364.6,199.3,363.5,198.2,362.2,198.2z"/>
			<path class="st7" d="M119.6,375c-1.3,0-2.4,1.1-2.4,2.4v12c0,1.3,1.1,2.4,2.4,2.4s2.4-1.1,2.4-2.4v-12
				C121.9,376.1,120.9,375,119.6,375z"/>
			<path class="st7" d="M339.9,190.1c-3.4,0-6.3,2.8-6.3,6.3v4.2c0,3.4,2.8,6.3,6.3,6.3c3.4,0,6.3-2.8,6.3-6.3v-4.2
				C346.2,192.9,343.4,190.1,339.9,190.1z M341.5,200.5c0,0.8-0.7,1.5-1.5,1.5c-0.8,0-1.5-0.7-1.5-1.5v-4.2c0-0.8,0.7-1.5,1.5-1.5
				c0.8,0,1.5,0.7,1.5,1.5V200.5z"/>
			<path class="st7" d="M259.6,58.2c-3.4,0-6.3,2.8-6.3,6.3v4.2c0,3.4,2.8,6.3,6.3,6.3c3.4,0,6.3-2.8,6.3-6.3v-4.2
				C265.9,61,263.1,58.2,259.6,58.2z M261.2,68.6c0,0.9-0.7,1.5-1.5,1.5c-0.8,0-1.5-0.7-1.5-1.5v-4.2c0-0.8,0.7-1.5,1.5-1.5
				c0.8,0,1.5,0.7,1.5,1.5V68.6z"/>
			<path class="st7" d="M138.3,306c-1.3,0-2.4,1.1-2.4,2.4v12c0,1.3,1.1,2.4,2.4,2.4c1.3,0,2.4-1.1,2.4-2.4v-12
				C140.7,307.1,139.6,306,138.3,306z"/>
			<path class="st7" d="M355.9,95.2c-1.3,0-2.4,1.1-2.4,2.4v12c0,1.3,1.1,2.4,2.4,2.4c1.3,0,2.4-1.1,2.4-2.4v-12
				C358.3,96.3,357.2,95.2,355.9,95.2z"/>
			<path class="st7" d="M337,95.9v-4.2c0-3.4-2.8-6.3-6.3-6.3c-3.4,0-6.3,2.8-6.3,6.3v4.2c0,3.4,2.8,6.3,6.3,6.3
				C334.2,102.2,337,99.4,337,95.9z M332.3,95.9c0,0.8-0.7,1.5-1.5,1.5c-0.8,0-1.5-0.7-1.5-1.5v-4.2c0-0.8,0.7-1.5,1.5-1.5
				c0.8,0,1.5,0.7,1.5,1.5V95.9z"/>
			<path class="st7" d="M416.7,215.1v-12c0-1.3-1.1-2.4-2.4-2.4c-1.3,0-2.4,1.1-2.4,2.4v12c0,1.3,1.1,2.4,2.4,2.4
				C415.7,217.5,416.7,216.4,416.7,215.1z"/>
			<path class="st7" d="M427.4,211c-1.3,0-2.4,1.1-2.4,2.4v12c0,1.3,1.1,2.4,2.4,2.4c1.3,0,2.4-1.1,2.4-2.4v-12
				C429.7,212.1,428.7,211,427.4,211z"/>
			<path class="st7" d="M286.2,78.9v-12c0-1.3-1.1-2.4-2.4-2.4c-1.3,0-2.4,1.1-2.4,2.4v12c0,1.3,1.1,2.4,2.4,2.4
				C285.2,81.2,286.2,80.2,286.2,78.9z"/>
			<path class="st7" d="M412.8,173.4c-3.4,0-6.3,2.8-6.3,6.3v4.2c0,3.4,2.8,6.3,6.3,6.3c3.4,0,6.3-2.8,6.3-6.3v-4.2
				C419.1,176.2,416.3,173.4,412.8,173.4z M414.4,183.8c0,0.9-0.7,1.5-1.5,1.5c-0.8,0-1.5-0.7-1.5-1.5v-4.2c0-0.8,0.7-1.5,1.5-1.5
				c0.9,0,1.5,0.7,1.5,1.5V183.8z"/>
		</g>
	</g>
</g>
</svg>
