<?xml version='1.0' encoding='utf-8'?>
<svg xmlns="http://www.w3.org/2000/svg" version="1.1" width="847px" height="605px" viewBox="105 773 847 605"> <g id="layer1"> <g style="fill:rgb(0,174,199); fill-opacity:1.0; stroke-linejoin: miter"> <path d="M104.999,772.65784C104.90851,772.65784,104.821724,772.6938,104.75774,772.75775C104.69375,772.8217,104.6578,772.9085,104.6578,772.999L104.6588,1378.0C104.6588,1378.1885,104.81156,1378.3412,105.0,1378.3412L952.001,1378.3422C952.0915,1378.3422,952.1783,1378.3062,952.24225,1378.2422C952.3062,1378.1782,952.34216,1378.0914,952.34216,1378.001L952.3412,773.0C952.3412,772.8116,952.1884,772.6588,952.0,772.6588L104.999,772.65784 Z"/> </g> <g style="fill:rgb(253,217,8); fill-opacity:1.0; stroke-linejoin: miter"> <path d="M519.1503,915.1439Q500.72873,915.1437,470.9055,930.7975Q439.0153,953.3187,430.9102,973.3741Q419.65768,991.95715,420.93347,1031.9243Q423.82556,1054.4956,437.73062,1075.7097Q407.24933,1102.3406,402.23233,1105.8794L365.19702,1081.0952Q362.85364,1079.7573,360.84863,1079.7573Q359.95392,1079.7573,359.12656,1080.0234L316.7712,1118.248L316.77243,1135.8655L362.02945,1095.4861L399.2761,1120.3721Q400.6792,1121.2981,402.83627,1121.2983Q403.82135,1121.2983,404.96338,1121.105L445.8502,1086.4993Q467.5954,1113.4023,474.22946,1136.2905L485.66412,1129.7168L484.5206,1126.3562Q481.63077,1118.446,471.28378,1100.165Q442.13516,1061.011,441.26978,1057.8088Q432.36813,1039.8994,432.2357,1018.3683Q435.32193,983.79175,445.4391,972.4137Q455.8507,956.0385,474.47104,942.87506Q500.49106,926.37585,527.27106,926.3758Q535.3312,926.37616,543.46,927.87085Q559.5368,930.8934,573.3428,938.66077Q584.336,943.15204,604.3106,965.49335Q623.7637,986.5609,621.726,1029.816Q623.66223,1048.1406,588.92847,1093.002L607.07916,1088.115Q619.6455,1071.1611,622.6341,1064.6951Q638.1167,1038.395,632.12115,997.8639L642.07214,988.6673Q647.0757,984.20856,647.55316,984.20856Q647.5997,984.20856,647.6034,984.251L684.98956,1009.4745Q686.0034,1010.1159,687.65625,1010.1159Q689.0137,1010.1159,690.8018,1009.68384L747.0736,961.5185L755.17474,969.05304L763.408,936.4821L763.90796,932.272L728.1026,942.4509L737.4131,952.1589L687.48486,994.7464L647.68146,968.80457Q646.91455,968.69824,646.24243,968.69824Q644.24176,968.69824,643.08624,969.6406L627.8406,983.4463Q620.8381,968.4253,611.78735,956.70953Q602.7369,944.99445,591.6382,936.5843L580.0279,929.00085Q555.7826,915.4862,523.3453,915.1928L521.26227,915.19714Q520.2256,915.1439,519.1503,915.1439 Z"/> </g> <g style="fill:rgb(253,217,8); fill-opacity:1.0; stroke-linejoin: miter"> <path d="M395.21176,1036.605L396.15533,1019.04926Q403.83173,965.9266,444.11014,933.59875Q484.67136,901.2882,540.2951,906.54425Q593.4182,914.22034,625.7474,954.4981Q636.1075,967.51904,642.9095,982.9486L648.664,998.8263Q653.4511,1015.22986,653.7421,1033.1282Q653.0934,1088.0779,617.10785,1125.0444Q581.12225,1162.0076,526.21106,1164.1335Q471.26242,1163.4839,434.29803,1127.5002Q397.3342,1091.5146,395.21176,1036.605 Z"/> </g> <g style="fill:rgb(238,170,1); fill-opacity:1.0; stroke-linejoin: miter"> <path d="M415.4413,1036.0068L416.23965,1021.1987Q422.71573,976.39124,456.6887,949.1202Q490.90204,921.8693,537.8213,926.302Q582.6284,932.7766,609.8986,966.7519Q618.63605,977.7361,624.3726,990.74866L629.22833,1004.14215Q633.2656,1017.97626,633.5114,1033.0756Q632.96466,1079.425,602.61005,1110.6047Q572.25793,1141.7852,525.9389,1143.5774Q479.59116,1143.0293,448.41248,1112.6765Q417.2341,1082.3235,415.4413,1036.0068 Z"/> </g> <g style="fill:rgb(255,183,13); fill-opacity:1.0; stroke-linejoin: miter"> <path d="M418.10626,1035.9297L418.88522,1021.48303Q425.20297,977.7703,458.34604,951.16614Q491.72293,924.58057,537.49536,928.90533Q581.2076,935.22217,607.8114,968.36707Q616.3353,979.0825,621.9315,991.7767L626.6686,1004.8432Q630.6076,1018.3398,630.8471,1033.0696Q630.31366,1078.2864,600.70105,1108.7041Q571.09033,1139.1226,525.9034,1140.8706Q480.68857,1140.3367,450.27167,1110.7256Q419.85526,1081.1138,418.10626,1035.9297 Z"/> </g> <g style="fill:rgb(244,174,3); fill-opacity:1.0; stroke-linejoin: miter"> <path d="M519.88696,986.76215Q520.13635,986.76215,520.388,986.76306Q530.86584,986.8048,537.03986,991.27545Q543.0549,995.7443,543.0186,1004.79364Q542.9816,1014.1604,537.24695,1018.9009Q531.5663,1023.439,520.9187,1023.439Q520.8183,1023.439,520.71716,1023.43884L509.12796,1023.3929L509.272,987.3543Q511.3372,987.0448,514.3543,986.8979Q516.98645,986.76215,519.88696,986.76215 Z M509.07425,1036.728L522.41034,1036.7811Q528.1258,1036.8043,533.0431,1037.9353Q537.9606,1038.9076,541.60187,1041.4624Q545.0852,1043.8579,547.1327,1047.9939Q549.18036,1051.971,549.15704,1057.845Q549.13293,1063.8782,546.8946,1067.8384Q544.65656,1071.6394,540.8369,1074.0059Q537.0177,1076.2129,531.9332,1077.145Q527.12585,1078.0562,521.5657,1078.0562Q521.4295,1078.0562,521.29297,1078.0557Q517.9589,1078.0422,514.46686,1077.8694Q511.13367,1077.6973,508.91226,1077.3711L509.07425,1036.728 Z M517.9562,974.05396Q511.11005,974.0542,504.4022,974.4748Q497.25577,974.92224,493.2835,975.6998L492.82703,1089.8491Q499.174,1090.668,506.31592,1091.3313Q513.45825,1091.8367,519.4913,1091.8601Q519.70514,1091.8611,519.9186,1091.8611Q529.365,1091.8611,537.75574,1090.187Q546.17676,1088.4744,552.5434,1084.5312Q558.75085,1080.5867,562.4283,1074.092Q566.1053,1067.7563,566.1421,1058.5481Q566.1726,1050.9277,563.81305,1045.5208Q561.61096,1040.2722,557.9733,1036.7649Q554.3358,1033.2576,549.73956,1031.3342Q545.30194,1029.4114,540.85846,1028.9171Q544.35516,1027.9785,547.69794,1025.769Q551.04016,1023.71857,553.59344,1020.39496Q556.14624,1017.2298,557.7513,1012.94995Q559.19635,1008.82764,559.21606,1003.90576Q559.24854,995.80927,556.25507,990.0818Q553.41956,984.51355,548.0364,980.84076Q542.8112,977.32733,535.356,975.70996Q527.9005,974.09216,518.85095,974.0561Q518.40326,974.05396,517.9562,974.05396 Z"/> </g> <g style="fill:rgb(244,174,3); fill-opacity:1.0; stroke-linejoin: miter"> <path d="M528.32825,986.11957Q528.57776,986.11957,528.82904,986.1206Q539.3073,986.16235,545.48114,990.6324Q551.49615,995.10236,551.4601,1004.1513Q551.4226,1013.51807,545.6881,1018.2582Q540.008,1022.7965,529.35974,1022.79614Q529.25946,1022.79614,529.15857,1022.7954L517.5691,1022.74963L517.7133,986.7108Q519.77844,986.4017,522.7956,986.25507Q525.4275,986.11957,528.32825,986.11957 Z M517.51587,1036.085L530.8514,1036.1389Q536.5669,1036.1617,541.4841,1037.2927Q546.40186,1038.2646,550.04315,1040.8197Q553.52625,1043.2151,555.5738,1047.3516Q557.6217,1051.3284,557.5984,1057.2021Q557.5743,1063.2351,555.3357,1067.196Q553.0976,1070.9971,549.27795,1073.3628Q545.459,1075.5706,540.3748,1076.5027Q535.5672,1077.4131,530.0067,1077.4128Q529.87054,1077.4128,529.734,1077.4124Q526.4001,1077.3994,522.9081,1077.227Q519.57465,1077.0547,517.35315,1076.7283L517.51587,1036.085 Z M526.39746,973.4115Q519.55133,973.4115,512.84296,973.83203Q505.69705,974.2798,501.7246,975.0576L501.26813,1089.2058Q507.61536,1090.0259,514.7572,1090.689Q521.8996,1091.1936,527.93256,1091.2178Q528.14624,1091.2183,528.3596,1091.2183Q537.80634,1091.2185,546.1968,1089.5444Q554.61816,1087.8323,560.9845,1083.888Q567.19196,1079.9438,570.8693,1073.449Q574.54645,1067.1135,574.5835,1057.9058Q574.6138,1050.2852,572.25397,1044.8774Q570.0521,1039.6296,566.4146,1036.1223Q562.7773,1032.615,558.1808,1030.6913Q553.7432,1028.7686,549.29974,1028.2748Q552.7961,1027.3357,556.13873,1025.1267Q559.48114,1023.0761,562.0346,1019.75226Q564.58734,1016.5872,566.1921,1012.307Q567.6376,1008.18463,567.6572,1003.2634Q567.6898,995.16693,564.6963,989.4394Q561.861,983.8713,556.47766,980.1981Q551.2523,976.68445,543.7972,975.0667Q536.34174,973.44965,527.29224,973.41315Q526.8445,973.4115,526.39746,973.4115 Z"/> </g> <g style="fill:rgb(244,174,3); fill-opacity:1.0; stroke-linejoin: miter"> <path d="M504.25378,962.9339L519.8792,963.0473L519.77844,976.9906L504.15314,976.87854L504.25378,962.9339 Z"/> </g> <g style="fill:rgb(244,174,3); fill-opacity:1.0; stroke-linejoin: miter"> <path d="M528.09845,963.1057L543.7238,963.21893L543.62317,977.1629L527.9977,977.05096L528.09845,963.1057 Z"/> </g> <g style="fill:rgb(244,174,3); fill-opacity:1.0; stroke-linejoin: miter"> <path d="M526.38367,1086.5408L542.00916,1086.6545L541.8752,1105.1743L526.2498,1105.0615L526.38367,1086.5408 Z"/> </g> <g style="fill:rgb(244,174,3); fill-opacity:1.0; stroke-linejoin: miter"> <path d="M503.16367,1090.9497L518.78906,1091.0635L518.6883,1105.0071L503.06296,1104.8943L503.16367,1090.9497 Z"/> </g> <g style="fill:rgb(244,174,3); fill-opacity:1.0; stroke-linejoin: miter"> <path d="M509.99448,973.42865L477.18262,973.19244L477.03995,992.9043L509.8521,993.1422L509.99448,973.42865 Z"/> </g> <g style="fill:rgb(244,174,3); fill-opacity:1.0; stroke-linejoin: miter"> <path d="M509.276,1072.78L476.46426,1072.5442L476.32153,1092.2561L509.13358,1092.4937L509.276,1072.78 Z"/> </g> <g style="fill:rgb(253,217,8); fill-opacity:1.0; stroke-linejoin: miter"> <path d="M518.12476,986.1421Q518.374,986.1421,518.6256,986.14325Q529.10364,986.1854,535.2778,990.65533Q541.29266,995.1251,541.25635,1004.17426Q541.21906,1013.54095,535.48456,1018.2811Q529.8041,1022.8192,519.1561,1022.8197Q519.05585,1022.8197,518.955,1022.819L507.36548,1022.7726L507.5095,986.73425Q509.57483,986.425,512.592,986.27814Q515.22394,986.14197,518.12476,986.1421 Z M507.31238,1036.1086L520.64795,1036.1614Q526.36334,1036.1841,531.2804,1037.3156Q536.19836,1038.2881,539.83966,1040.8427Q543.32275,1043.238,545.3703,1047.3743Q547.4183,1051.3513,547.39484,1057.2256Q547.37067,1063.258,545.13226,1067.218Q542.8942,1071.0195,539.0744,1073.386Q535.2553,1075.5933,530.1711,1076.5254Q525.36365,1077.436,519.8033,1077.436Q519.667,1077.436,519.5306,1077.4355Q516.1965,1077.4219,512.7043,1077.2495Q509.37103,1077.0771,507.14954,1076.751L507.31238,1036.1086 Z M516.1941,973.4344Q509.34744,973.43463,502.63956,973.8551Q495.49323,974.30206,491.5211,975.08026L491.06467,1089.2283Q497.4116,1090.0481,504.55356,1090.7114Q511.69577,1091.2161,517.7288,1091.241Q517.94293,1091.2417,518.15625,1091.2417Q527.6029,1091.2415,535.9932,1089.5674Q544.41425,1087.855,550.7807,1083.9114Q556.98834,1079.967,560.666,1073.4724Q564.3427,1067.1365,564.3799,1057.9282Q564.4102,1050.3081,562.05054,1044.9009Q559.8485,1039.6521,556.21106,1036.145Q552.5737,1032.6377,547.97736,1030.7141Q543.5396,1028.7914,539.0961,1028.2977Q542.5926,1027.3589,545.9357,1025.1497Q549.2777,1023.09894,551.8311,1019.7754Q554.38403,1016.6101,555.9885,1012.32965Q557.43396,1008.2078,557.45374,1003.2862Q557.4863,995.1897,554.49243,989.46204Q551.65717,983.8942,546.27405,980.2208Q541.0489,976.70715,533.5935,975.0896Q526.1379,973.4722,517.08875,973.43604Q516.6409,973.4344,516.1941,973.4344 Z"/> </g> <g style="fill:rgb(253,217,8); fill-opacity:1.0; stroke-linejoin: miter"> <path d="M526.56616,985.49976Q526.8153,985.49976,527.06683,985.5007Q537.54517,985.54297,543.7188,990.0128Q549.73395,994.48206,549.69775,1003.5315Q549.66046,1012.89874,543.92584,1017.6386Q538.2458,1022.17664,527.5973,1022.1763Q527.4969,1022.1763,527.3962,1022.1761L515.8069,1022.13L515.9508,986.09143Q518.01624,985.78204,521.03326,985.635Q523.6653,985.49976,526.56616,985.49976 Z M515.75366,1035.4656L529.08936,1035.5188Q534.8046,1035.542,539.72174,1036.6727Q544.63965,1037.645,548.28094,1040.2Q551.7639,1042.5957,553.8115,1046.7317Q555.8596,1050.709,555.83606,1056.5825Q555.8119,1062.6162,553.5734,1066.5759Q551.33563,1070.3772,547.51575,1072.7432Q543.69666,1074.9507,538.61255,1075.8826Q533.8048,1076.7932,528.2443,1076.793Q528.10803,1076.793,527.97174,1076.793Q524.6375,1076.7795,521.1455,1076.6064Q517.8124,1076.4346,515.5909,1076.1082L515.75366,1035.4656 Z M524.635,972.79144Q517.78894,972.79144,511.08075,973.21216Q503.93466,973.65985,499.96243,974.43756L499.5057,1088.5859Q505.85318,1089.4055,512.99475,1090.0693Q520.13727,1090.5737,526.17,1090.5979Q526.384,1090.5991,526.5974,1090.5991Q536.0441,1090.5994,544.4346,1088.9248Q552.85565,1087.2122,559.22205,1083.2686Q565.4297,1079.3245,569.1071,1072.8293Q572.78406,1066.4939,572.8208,1057.2861Q572.8516,1049.6653,570.4914,1044.2576Q568.2898,1039.0096,564.6521,1035.5023Q561.0149,1031.9951,556.41833,1030.072Q551.981,1028.1492,547.5374,1027.6548Q551.03394,1026.7161,554.3768,1024.5068Q557.71893,1022.4565,560.27234,1019.1323Q562.8253,1015.9674,564.43,1011.6874Q565.8752,1007.56525,565.8949,1002.6436Q565.92773,994.54663,562.9339,988.8195Q560.0985,983.25146,554.71533,979.57837Q549.4902,976.0646,542.0347,974.4472Q534.5794,972.83,525.53015,972.7936Q525.08234,972.79144,524.635,972.79144 Z"/> </g> <g style="fill:rgb(253,217,8); fill-opacity:1.0; stroke-linejoin: miter"> <path d="M502.4912,962.3138L518.11676,962.42725L518.0161,976.371L502.3907,976.2592L502.4912,962.3138 Z"/> </g> <g style="fill:rgb(253,217,8); fill-opacity:1.0; stroke-linejoin: miter"> <path d="M526.3363,962.4861L541.9616,962.5995L541.8609,976.54346L526.23553,976.4309L526.3363,962.4861 Z"/> </g> <g style="fill:rgb(253,217,8); fill-opacity:1.0; stroke-linejoin: miter"> <path d="M524.62146,1085.9211L540.2467,1086.0352L540.11273,1104.5542L524.4875,1104.4424L524.62146,1085.9211 Z"/> </g> <g style="fill:rgb(253,217,8); fill-opacity:1.0; stroke-linejoin: miter"> <path d="M501.40118,1090.3301L517.02673,1090.4436L516.92596,1104.3867L501.30063,1104.2749L501.40118,1090.3301 Z"/> </g> <g style="fill:rgb(253,217,8); fill-opacity:1.0; stroke-linejoin: miter"> <path d="M508.23224,972.8095L475.42032,972.57245L475.27744,992.28436L508.08966,992.52234L508.23224,972.8095 Z"/> </g> <g style="fill:rgb(253,217,8); fill-opacity:1.0; stroke-linejoin: miter"> <path d="M507.5139,1072.1604L474.70197,1071.9243L474.55927,1091.6357L507.3712,1091.8738L507.5139,1072.1604 Z"/> </g> <g style="fill:rgb(255,229,0); fill-opacity:0.99607843; stroke-linejoin: miter"> <path d="M507.3404,1072.1599L507.17227,1072.1589L507.17227,1072.1592L507.17227,1072.1589L507.3404,1072.1599 Z"/> </g> <g style="fill:rgb(255,229,0); fill-opacity:0.99607843; stroke-linejoin: miter"> <path d="M507.16693,1072.158L507.16693,1072.1589L507.17227,1072.1592L507.17227,1072.1589L507.16693,1072.158 Z"/> </g> <g style="fill:rgb(255,229,0); fill-opacity:0.99607843; stroke-linejoin: miter"> <path d="M507.31168,1036.1125L507.16693,1072.158L507.3404,1072.1599L507.16693,1072.1589L507.31168,1036.1125 Z"/> </g> <g style="fill:rgb(253,217,8); fill-opacity:1.0; stroke-linejoin: miter"> <path d="M489.5083,1147.8069L489.44904,1147.8599L489.40228,1147.907L489.3684,1147.9475L489.34726,1147.9817L489.33865,1148.0098L489.3428,1148.0317L489.35962,1148.0471L489.38934,1148.0566L489.43164,1148.0598Q489.46716,1148.061,489.55627,1148.0469Q489.5392,1147.9541,489.51086,1147.8069L489.5083,1147.8076 Z"/> </g> <g style="fill:rgb(0,0,0); fill-opacity:0.21568628; stroke-linejoin: miter"> <path d="M589.5085,1298.7278L588.9184,1299.6003Q584.7244,1302.237,564.3744,1303.8179Q543.88354,1305.3977,516.1159,1305.0989Q489.6151,1304.6819,473.72638,1302.6567Q468.6355,1302.002,465.3398,1301.2305L462.5698,1300.4368Q460.287,1299.6179,460.26132,1298.7275Q460.95435,1295.9949,479.18915,1294.1807Q497.42392,1292.366,524.885,1292.2971Q552.3458,1292.3662,570.5806,1294.1804Q588.8154,1295.9954,589.5085,1298.7278"/> </g> <g style="fill:rgb(254,192,182); fill-opacity:1.0; stroke-linejoin: miter"> <path d="M545.62036,1199.5635L551.7847,1201.4946Q549.67053,1205.0701,548.48267,1206.0186Q548.0492,1206.4509,546.9614,1206.9719Q546.1809,1207.3203,544.72736,1207.6355L545.62036,1199.5635"/> </g> <g style="fill:rgb(254,192,182); fill-opacity:1.0; stroke-linejoin: miter"> <path d="M503.27487,1202.4106L503.51184,1202.8398Q505.047,1205.6863,506.15042,1207.0593Q507.12845,1208.3225,509.16428,1209.6748L510.2669,1201.55L503.27487,1202.4106"/> </g> <g style="fill:rgb(0,0,0); fill-opacity:1.0; stroke-linejoin: miter"> <path d="M521.58795,1128.8171L521.3765,1128.469Q519.6743,1125.7051,519.1106,1123.7175Q518.36993,1121.2656,518.0525,1118.2561Q517.7351,1115.863,517.97253,1113.4927Q518.1159,1112.3186,518.5467,1111.2148Q519.1726,1109.8604,519.403,1109.625Q520.8414,1107.5425,523.4009,1106.3826Q525.6124,1105.4392,527.9608,1105.532Q532.65533,1105.6716,535.177,1109.8235Q535.5928,1110.5452,535.90717,1111.3584L536.19464,1112.1892Q536.45575,1113.0403,536.60284,1113.9553Q536.9004,1115.7937,536.695,1117.7786Q536.1706,1122.2361,533.15045,1129.1472L521.58795,1128.8171"/> </g> <g style="fill:rgb(255,193,182); fill-opacity:1.0; stroke-linejoin: miter"> <path d="M521.5799,1132.7124L533.1392,1133.0286Q533.0251,1131.5935,533.3258,1130.2642Q533.5625,1129.0432,534.7509,1125.3777Q535.4032,1125.9917,535.83716,1125.3643Q536.5908,1124.1907,536.902,1122.6311Q537.1752,1121.4973,536.9443,1120.3306Q536.6712,1119.3186,536.1981,1119.2563Q535.9001,1119.2625,535.71094,1119.7708L534.9653,1122.7344Q534.58124,1124.0227,534.4457,1124.2607Q534.1595,1125.0317,533.3425,1126.0205Q532.12665,1127.2488,531.1366,1127.5916Q529.5455,1128.237,527.819,1128.2229Q525.8341,1128.2236,523.99347,1127.7224Q522.564,1127.2815,522.3746,1127.1484Q521.4266,1126.7073,520.887,1126.1616Q520.4152,1125.77,519.9389,1124.6975Q519.705,1124.0752,519.5461,1123.4341Q519.0725,1120.7871,518.9102,1120.388Q518.6675,1119.5613,518.42163,1119.8049Q517.58685,1121.5347,518.18,1124.314Q518.4894,1125.4658,518.89874,1125.8074Q519.22314,1126.0972,519.82666,1125.7239L521.5799,1132.7124"/> </g> <g style="fill:rgb(255,255,255); fill-opacity:1.0; stroke-linejoin: miter"> <path d="M520.0414,1135.5796L521.1261,1131.2324Q526.2981,1131.2214,533.1763,1131.1074L533.81366,1136.1099L520.0414,1135.5796"/> </g> <g style="fill:rgb(0,0,0); fill-opacity:1.0; stroke-linejoin: miter"> <path d="M515.49445,1297.5305L515.64276,1298.0312Q517.75305,1303.823,511.61194,1303.3948Q509.45053,1303.3516,508.4408,1302.9683Q507.30902,1302.6526,506.7497,1301.3906Q504.9156,1301.1094,504.46844,1300.7302Q503.4805,1300.3262,503.09552,1298.1099Q502.49948,1294.1348,507.58353,1295.3347Q504.91165,1287.2783,505.21198,1278.0388Q505.312,1275.1904,505.67056,1271.729Q507.98856,1252.2673,507.94525,1251.3237Q508.459,1245.7935,508.97586,1233.7786Q507.87955,1204.562,508.7019,1195.604Q508.74585,1194.1921,509.4067,1189.3643Q509.62152,1187.4575,511.33762,1179.8994Q511.73572,1177.5139,511.67136,1177.1516Q511.70197,1173.3752,509.50073,1169.3823Q508.42126,1176.331,508.23157,1180.866Q507.59677,1186.6077,510.68692,1201.0496L503.54156,1205.1445L503.20514,1203.7893Q498.82184,1187.1145,498.83417,1176.6025Q498.4976,1167.0974,503.17902,1142.9138Q513.11676,1140.2183,519.99805,1133.9929Q523.5233,1133.1875,525.83,1133.1741Q528.7072,1133.1387,533.5467,1133.7043Q540.1729,1139.6951,549.1997,1141.4097Q555.85675,1167.6748,556.0434,1175.53L556.3645,1182.6157L553.8187,1203.0581Q547.3911,1203.96,546.1584,1201.2283Q545.33057,1199.0232,545.5027,1196.8931L546.1542,1187.4326Q546.24426,1186.6929,546.18835,1183.209Q545.9088,1177.7202,544.90674,1172.553Q544.6752,1171.2527,544.43585,1169.956Q541.9617,1176.3982,542.2018,1179.1289Q542.3652,1181.4033,542.5913,1181.8586Q545.6001,1190.0803,545.67755,1191.3472Q546.4619,1194.6177,546.7108,1199.5305Q547.1447,1210.8496,544.9421,1235.019L545.08386,1258.1555L546.5047,1294.208Q551.5195,1291.3318,550.79816,1295.8379Q550.1857,1297.7688,549.00653,1298.685L542.56586,1303.3899Q536.74316,1305.3494,535.3931,1302.8137Q534.73395,1301.7368,535.90094,1296.8635Q532.7223,1274.7708,533.04443,1275.7515Q532.7492,1273.988,532.9932,1266.2224Q532.9563,1264.2866,532.66077,1261.4001L528.6987,1231.4617L527.0932,1220.8708Q523.62115,1236.0757,520.0898,1256.0139L515.49445,1297.5305"/> </g> </g> </svg>