<?xml version="1.0" encoding="utf-8"?>
<!-- Generator: Adobe Illustrator 22.1.0, SVG Export Plug-In . SVG Version: 6.00 Build 0)  -->
<svg version="1.1" id="Layer_1" xmlns="http://www.w3.org/2000/svg" xmlns:xlink="http://www.w3.org/1999/xlink" x="0px" y="0px"
	 viewBox="0 0 500 500" style="enable-background:new 0 0 500 500;" xml:space="preserve">
<style type="text/css">
	.st0{fill:#141A49;}
	.st1{fill:#00D6D6;}
	.st2{fill:#FFBB00;}
	.st3{fill:#FFDC12;}
	.st4{fill:#FF8C00;}
	.st5{fill:#FFFFFF;}
	.st6{fill:#E3E3E3;}
	.st7{fill:#FF453B;}
	.st8{fill:#002B45;}
	.st9{fill:#004E7A;}
	.st10{clip-path:url(#SVGID_1_);}
	.st11{fill:#EF261A;}
</style>
<rect class="st0" width="500" height="500"/>
<g>
	<g>
		
			<ellipse transform="matrix(0.7071 -0.7071 0.7071 0.7071 9.2513 305.9554)" class="st1" cx="373.9" cy="141.8" rx="49.7" ry="49.7"/>
		<g>
			<g>
				
					<ellipse transform="matrix(0.7071 -0.7071 0.7071 0.7071 9.2513 305.9554)" class="st2" cx="373.9" cy="141.8" rx="35.7" ry="35.7"/>
				<circle class="st3" cx="373.9" cy="141.8" r="27.6"/>
				<g>
					<path class="st3" d="M372.8,106.1v8.1c0.4,0,0.8,0,1.2,0c0.4,0,0.8,0,1.2,0c0,0,0-8.1,0-8.1c-0.4,0-0.8,0-1.2,0
						C373.5,106.1,373.2,106.1,372.8,106.1z"/>
					<path class="st3" d="M342.4,125l7,4.1c0.4-0.7,0.8-1.4,1.2-2c0,0-7-4.1-7-4.1C343.2,123.6,342.8,124.3,342.4,125z"/>
					<path class="st3" d="M359.1,118.5c0.7-0.4,1.4-0.8,2.1-1.2c0,0-4.1-7-4.1-7c-0.7,0.4-1.4,0.8-2.1,1.2L359.1,118.5z"/>
					<path class="st3" d="M401.5,140.6c0,0.4,0,0.8,0,1.2c0,0.4,0,0.8,0,1.2c0,0,8.1,0,8.1,0c0-0.4,0-0.8,0-1.2c0-0.4,0-0.8,0-1.2
						L401.5,140.6C401.5,140.6,401.5,140.6,401.5,140.6z"/>
					<path class="st3" d="M404.3,122.9l-7,4c0.4,0.7,0.8,1.4,1.2,2.1c0,0,7-4.1,7-4.1C405.1,124.3,404.7,123.6,404.3,122.9z"/>
					<path class="st3" d="M386.7,117.3c0.7,0.4,1.4,0.8,2,1.2c0,0,4.1-7,4.1-7c-0.7-0.4-1.4-0.8-2.1-1.2L386.7,117.3z"/>
					<path class="st3" d="M388.8,165.1c-0.7,0.4-1.4,0.8-2.1,1.2c0,0,4.1,7,4.1,7c0.7-0.4,1.4-0.8,2.1-1.2L388.8,165.1z"/>
					<path class="st3" d="M375.1,177.5v-8.1c-0.4,0-0.8,0-1.2,0c-0.4,0-0.8,0-1.2,0c0,0,0,8.1,0,8.1c0.4,0,0.8,0,1.2,0
						C374.3,177.5,374.7,177.5,375.1,177.5z"/>
					<path class="st3" d="M405.4,158.6l-7-4.1c-0.4,0.7-0.8,1.4-1.2,2c0,0,7,4.1,7,4.1C404.7,160,405.1,159.3,405.4,158.6z"/>
					<path class="st3" d="M338.3,143h8.1c0-0.4,0-0.8,0-1.2c0-0.4,0-0.8,0-1.2c0,0-8.1,0-8.1,0c0,0.4,0,0.8,0,1.2
						C338.2,142.2,338.3,142.6,338.3,143z"/>
					<path class="st3" d="M350.7,156.6c-0.4-0.7-0.8-1.4-1.2-2.1c0,0-7,4.1-7,4.1c0.4,0.7,0.8,1.4,1.2,2.1L350.7,156.6z"/>
					<path class="st3" d="M361.2,166.3c-0.7-0.4-1.4-0.8-2-1.2c0,0-4.1,7-4.1,7c0.7,0.4,1.4,0.8,2.1,1.2L361.2,166.3z"/>
				</g>
			</g>
			<path class="st4" d="M386.1,145.1c-0.2-0.6-0.5-1.2-0.9-1.7c-0.4-0.5-0.9-0.9-1.5-1.3c-0.6-0.4-1.2-0.7-1.9-0.9v-0.1
				c1.2-0.7,2.1-1.5,2.6-2.5c0.5-1,0.8-2.1,0.8-3.3c0-0.7-0.1-1.3-0.3-2c-0.2-0.7-0.5-1.3-1-1.9c-0.4-0.6-1-1.1-1.7-1.6
				c-0.7-0.5-1.5-0.9-2.4-1.2c-0.7-0.2-1.6-0.4-2.6-0.5v-4.1h-2.9v4h-3.1v-4h-2.9v4h-3h-4v4.6h4v18.2h-4v4.6h4h3v4h2.9v-4h2.1
				c0.4,0,0.7,0,1,0v4h2.9v-4.2c0.4,0,0.8-0.1,1.1-0.1c0.4-0.1,0.8-0.1,1.1-0.2c1.4-0.4,2.5-0.8,3.4-1.4c0.9-0.6,1.6-1.3,2.1-2
				c0.5-0.7,0.9-1.5,1.1-2.2c0.2-0.8,0.3-1.5,0.3-2.2C386.5,146.4,386.4,145.7,386.1,145.1z M374.6,132.3c0.7,0,1.3,0,1.8,0.1
				c0.5,0,0.9,0.1,1.3,0.2c0.9,0.3,1.5,0.7,1.9,1.3c0.4,0.6,0.6,1.2,0.6,1.9c0,0.7-0.2,1.3-0.5,1.9c-0.3,0.6-0.9,1-1.6,1.3
				c-0.7,0.3-1.7,0.4-3.1,0.4h-4.5v-7.1H374.6z M381.1,148.5c-0.1,0.4-0.3,0.7-0.6,1.1c-0.3,0.3-0.7,0.6-1.1,0.9
				c-0.5,0.3-1,0.5-1.7,0.6c-0.5,0.1-1,0.2-1.6,0.2c-0.6,0-1.4,0.1-2.3,0.1h-3.3v-7.7h4.8c0.8,0,1.5,0,2,0.1c0.5,0.1,1,0.1,1.4,0.3
				c0.9,0.3,1.6,0.7,2,1.3c0.4,0.6,0.6,1.2,0.6,2C381.3,147.7,381.2,148.1,381.1,148.5z"/>
		</g>
		<g>
			<path class="st5" d="M407.7,141.7c0.7,5.6,0.1,12.3-2.5,20c1.2-1.3,4.9-2.3,5.9-3.6c4.4-6,6.3-11.9,6.7-17.5L407.7,141.7z"/>
			<path class="st5" d="M392.7,104l-13.3,7.3c5.4,2.2,20.4,8,26.2,22.4l11-3.1C412.4,114.8,397.1,103.4,392.7,104z"/>
		</g>
	</g>
	<path class="st6" d="M435.5,92.3c-0.9-0.9-2.3-1-4.1,0.9c-1.6,1.6-27.8,30.2-34.2,37.3c-0.2,0.2,0,0.3,0.2,0.2
		c7.1-6.4,35.7-32.7,37.3-34.2C436.4,94.6,436.4,93.2,435.5,92.3z M432.8,96.2c-1.3,1.3-3.3,2.8-3.7,2.4c-0.4-0.4,1.1-2.4,2.4-3.7
		c1.3-1.3,2-1.4,2.4-1.1C434.2,94.2,434.1,94.9,432.8,96.2z"/>
</g>
<g>
	<path class="st3" d="M410.7,255.3c-0.5-1.3-1.2-2.6-2-3.6c-0.9-1.1-1.9-2-3.1-2.8c-1.2-0.8-2.6-1.4-4-1.9v-0.2
		c2.6-1.4,4.5-3.2,5.7-5.3c1.1-2.1,1.7-4.5,1.7-7c0-1.4-0.2-2.9-0.7-4.3c-0.5-1.4-1.2-2.8-2.1-4c-1-1.3-2.2-2.4-3.6-3.5
		c-1.5-1-3.2-1.9-5.2-2.5c-1.5-0.5-3.4-0.9-5.5-1.1v-8.8h-6.2v8.6H379v-8.6h-6.2v8.6h-6.5h-8.6v9.8h8.6v39h-8.6v9.8h8.6h6.5v8.6h6.2
		v-8.6h4.4c0.8,0,1.5,0,2.2,0v8.6h6.2v-9c0.9-0.1,1.7-0.2,2.4-0.3c0.9-0.1,1.7-0.3,2.4-0.5c2.9-0.8,5.3-1.8,7.2-3.1
		c1.9-1.3,3.4-2.7,4.6-4.2c1.1-1.5,1.9-3.1,2.4-4.8c0.5-1.6,0.7-3.2,0.7-4.6C411.4,258.2,411.1,256.7,410.7,255.3z M386,228
		c1.5,0,2.9,0.1,3.9,0.2c1.1,0.1,2,0.3,2.8,0.5c1.9,0.6,3.2,1.5,4,2.7c0.8,1.2,1.2,2.6,1.2,4.1c0,1.5-0.3,2.8-1,4
		c-0.7,1.2-1.8,2.1-3.4,2.8c-1.4,0.6-3.6,0.9-6.5,0.9h-9.7V228H386z M399.9,262.6c-0.3,0.8-0.7,1.6-1.3,2.3
		c-0.6,0.7-1.4,1.3-2.4,1.8c-1,0.5-2.2,1-3.7,1.3c-1,0.2-2.1,0.4-3.5,0.5c-1.3,0.1-3,0.2-4.8,0.2h-7v-16.5h10.2
		c1.8,0,3.2,0.1,4.4,0.2c1.1,0.1,2.1,0.3,3,0.6c1.9,0.6,3.3,1.5,4.3,2.8c0.9,1.2,1.4,2.7,1.4,4.3
		C400.3,260.9,400.2,261.8,399.9,262.6z"/>
	<polygon class="st7" points="426,273 411.1,257.1 401.2,267 379.1,245.8 369.1,257.3 333.5,224.4 335.6,221.7 369.3,252.1 
		378.9,241 401.1,262.3 411.2,252.4 428.5,270.7 429.9,265.9 435.7,280.8 421.1,274.2 	"/>
</g>
<g>
	<g>
		<g>
			<circle class="st2" cx="159.2" cy="379.1" r="39.3"/>
			<circle class="st3" cx="159.2" cy="379.1" r="30.3"/>
			<g>
				<path class="st3" d="M157.9,339.9v8.9c0.4,0,0.9,0,1.3,0c0.4,0,0.9,0,1.3,0c0,0,0-8.9,0-8.9c-0.4,0-0.9,0-1.3,0
					C158.7,339.9,158.3,339.9,157.9,339.9z"/>
				<path class="st3" d="M124.5,360.6l7.7,4.5c0.4-0.8,0.9-1.5,1.3-2.2c0,0-7.7-4.5-7.7-4.5C125.4,359.1,124.9,359.9,124.5,360.6z"
					/>
				<path class="st3" d="M142.9,353.5c0.8-0.4,1.5-0.9,2.3-1.3c0,0-4.5-7.7-4.5-7.7c-0.8,0.4-1.5,0.9-2.3,1.3L142.9,353.5z"/>
				<path class="st3" d="M189.5,377.8c0,0.4,0,0.9,0,1.3c0,0.4,0,0.9,0,1.3c0,0,8.9,0,8.9,0c0-0.4,0-0.9,0-1.3c0-0.4,0-0.9,0-1.3
					L189.5,377.8C189.5,377.8,189.5,377.8,189.5,377.8z"/>
				<path class="st3" d="M192.5,358.4l-7.7,4.5c0.4,0.8,0.9,1.5,1.3,2.3c0,0,7.7-4.5,7.7-4.5C193.4,359.9,193,359.1,192.5,358.4z"/>
				<path class="st3" d="M173.2,352.2c0.8,0.4,1.5,0.9,2.2,1.3c0,0,4.5-7.7,4.5-7.7c-0.7-0.5-1.5-0.9-2.3-1.3L173.2,352.2z"/>
				<path class="st3" d="M175.5,404.7c-0.8,0.4-1.5,0.9-2.3,1.3c0,0,4.5,7.7,4.5,7.7c0.8-0.4,1.5-0.9,2.3-1.3L175.5,404.7z"/>
				<path class="st3" d="M160.5,418.4v-8.9c-0.4,0-0.9,0-1.3,0c-0.4,0-0.9,0-1.3,0c0,0,0,8.9,0,8.9c0.4,0,0.9,0,1.3,0
					C159.6,418.4,160,418.4,160.5,418.4z"/>
				<path class="st3" d="M193.8,397.6l-7.7-4.5c-0.4,0.8-0.9,1.5-1.3,2.2c0,0,7.7,4.5,7.7,4.5C193,399.1,193.4,398.4,193.8,397.6z"
					/>
				<path class="st3" d="M119.9,380.4h8.9c0-0.4,0-0.9,0-1.3c0-0.4,0-0.9,0-1.3c0,0-8.9,0-8.9,0c0,0.4,0,0.9,0,1.3
					C119.9,379.6,119.9,380,119.9,380.4z"/>
				<path class="st3" d="M133.6,395.4c-0.4-0.8-0.9-1.5-1.3-2.3c0,0-7.7,4.5-7.7,4.5c0.4,0.8,0.9,1.5,1.3,2.3L133.6,395.4z"/>
				<path class="st3" d="M145.1,406.1c-0.8-0.4-1.5-0.9-2.2-1.3c0,0-4.5,7.7-4.5,7.7c0.7,0.5,1.5,0.9,2.3,1.3L145.1,406.1z"/>
			</g>
		</g>
		<path class="st4" d="M172.6,382.7c-0.2-0.7-0.6-1.3-1-1.9c-0.4-0.5-1-1-1.6-1.4c-0.6-0.4-1.3-0.7-2.1-1v-0.1
			c1.4-0.7,2.3-1.6,2.9-2.7c0.6-1.1,0.9-2.3,0.9-3.6c0-0.7-0.1-1.5-0.3-2.2c-0.2-0.7-0.6-1.4-1.1-2.1c-0.5-0.7-1.1-1.2-1.9-1.8
			c-0.8-0.5-1.6-1-2.7-1.3c-0.8-0.3-1.7-0.4-2.8-0.6v-4.5h-3.2v4.4h-3.4v-4.4h-3.2v4.4h-3.3h-4.4v5.1h4.4v20h-4.4v5.1h4.4h3.3v4.4
			h3.2v-4.4h2.3c0.4,0,0.8,0,1.1,0v4.4h3.2V394c0.4,0,0.9-0.1,1.2-0.2c0.4-0.1,0.9-0.2,1.2-0.2c1.5-0.4,2.7-0.9,3.7-1.6
			c1-0.7,1.8-1.4,2.3-2.2c0.6-0.8,1-1.6,1.2-2.4c0.2-0.8,0.3-1.6,0.3-2.4C172.9,384.2,172.8,383.4,172.6,382.7z M159.9,368.7
			c0.8,0,1.5,0,2,0.1c0.5,0.1,1,0.1,1.4,0.3c1,0.3,1.7,0.8,2.1,1.4c0.4,0.6,0.6,1.3,0.6,2.1c0,0.8-0.2,1.5-0.5,2.1
			c-0.4,0.6-0.9,1.1-1.8,1.4c-0.7,0.3-1.9,0.5-3.4,0.5h-5v-7.8H159.9z M167,386.5c-0.1,0.4-0.4,0.8-0.7,1.2
			c-0.3,0.4-0.7,0.7-1.2,0.9c-0.5,0.3-1.1,0.5-1.9,0.7c-0.5,0.1-1.1,0.2-1.8,0.3c-0.7,0.1-1.5,0.1-2.5,0.1h-3.6v-8.5h5.2
			c0.9,0,1.7,0,2.3,0.1c0.6,0.1,1.1,0.2,1.5,0.3c1,0.3,1.7,0.8,2.2,1.4c0.5,0.6,0.7,1.4,0.7,2.2C167.2,385.6,167.2,386,167,386.5z"
			/>
	</g>
	<polygon class="st7" points="200.6,404.4 185.7,388.5 175.8,398.3 153.7,377.2 143.7,388.7 108.1,355.8 110.2,353.1 143.9,383.4 
		153.5,372.4 175.7,393.7 185.8,383.7 203.1,402.1 204.5,397.2 210.3,412.2 195.7,405.5 	"/>
</g>
<g>
	<polygon class="st5" points="262.4,311.8 226.4,311.8 230.1,295.2 258.8,295.2 	"/>
	<rect x="214" y="311.8" class="st6" width="60.9" height="6.7"/>
	<rect x="162.5" y="172.7" class="st8" width="163.9" height="123.1"/>
	<rect x="236.2" y="284.4" class="st9" width="16.4" height="5.5"/>
	<g>
		<defs>
			
				<rect id="SVGID_3_" x="195.6" y="155.9" transform="matrix(6.123234e-17 -1 1 6.123234e-17 14.7872 474.0788)" width="97.6" height="147.5"/>
		</defs>
		<clipPath id="SVGID_1_">
			<use xlink:href="#SVGID_3_"  style="overflow:visible;"/>
		</clipPath>
		<g class="st10">
			<g>
				<polygon class="st7" points="170.1,194.6 187.9,200.6 208.9,227.8 232.4,215.5 253.3,236.1 277.7,231.2 299.3,257.1 
					321.7,282.1 321.7,168.4 170.2,168.4 				"/>
				<polygon class="st11" points="170.2,282.1 321.7,282.1 330.5,277.4 299.3,257.1 277.7,231.2 253.3,236.1 232.4,215.5 
					208.9,227.8 187.9,200.6 164,194.4 				"/>
			</g>
			<g>
				<g>
					<circle class="st2" cx="280.4" cy="214.4" r="22"/>
					
						<ellipse transform="matrix(0.7071 -0.7071 0.7071 0.7071 -69.4446 261.0465)" class="st3" cx="280.4" cy="214.4" rx="17" ry="17"/>
					<g>
						<path class="st3" d="M279.7,192.3v5c0.2,0,0.5,0,0.7,0c0.2,0,0.5,0,0.7,0c0,0,0-5,0-5c-0.2,0-0.5,0-0.7,0
							S279.9,192.3,279.7,192.3z"/>
						<path class="st3" d="M261,204l4.3,2.5c0.2-0.4,0.5-0.8,0.7-1.3c0,0-4.3-2.5-4.3-2.5C261.4,203.1,261.2,203.5,261,204z"/>
						<path class="st3" d="M271.2,200c0.4-0.2,0.8-0.5,1.3-0.7c0,0-2.5-4.3-2.5-4.3c-0.4,0.2-0.9,0.5-1.3,0.7L271.2,200z"/>
						<path class="st3" d="M297.4,213.6c0,0.2,0,0.5,0,0.7c0,0.2,0,0.5,0,0.7c0,0,5,0,5,0c0-0.2,0-0.5,0-0.7c0-0.2,0-0.5,0-0.7
							L297.4,213.6C297.4,213.6,297.4,213.6,297.4,213.6z"/>
						<path class="st3" d="M299.1,202.7l-4.3,2.5c0.2,0.4,0.5,0.8,0.7,1.3c0,0,4.3-2.5,4.3-2.5C299.6,203.5,299.3,203.1,299.1,202.7
							z"/>
						<path class="st3" d="M288.3,199.2c0.4,0.2,0.8,0.5,1.3,0.7c0,0,2.5-4.3,2.5-4.3c-0.4-0.3-0.8-0.5-1.3-0.7L288.3,199.2z"/>
						<path class="st3" d="M289.5,228.7c-0.4,0.2-0.8,0.5-1.3,0.7c0,0,2.5,4.3,2.5,4.3c0.4-0.2,0.9-0.5,1.3-0.7L289.5,228.7z"/>
						<path class="st3" d="M281.1,236.4v-5c-0.2,0-0.5,0-0.7,0c-0.2,0-0.5,0-0.7,0c0,0,0,5,0,5c0.2,0,0.5,0,0.7,0
							S280.9,236.4,281.1,236.4z"/>
						<path class="st3" d="M299.8,224.7l-4.3-2.5c-0.2,0.4-0.5,0.8-0.7,1.3c0,0,4.3,2.5,4.3,2.5
							C299.3,225.6,299.6,225.2,299.8,224.7z"/>
						<path class="st3" d="M258.4,215.1h5c0-0.2,0-0.5,0-0.7c0-0.2,0-0.5,0-0.7c0,0-5,0-5,0c0,0.2,0,0.5,0,0.7
							C258.4,214.6,258.4,214.8,258.4,215.1z"/>
						<path class="st3" d="M266,223.5c-0.2-0.4-0.5-0.8-0.7-1.3c0,0-4.3,2.5-4.3,2.5c0.2,0.4,0.5,0.9,0.7,1.3L266,223.5z"/>
						<path class="st3" d="M272.5,229.5c-0.4-0.2-0.8-0.5-1.3-0.7c0,0-2.5,4.3-2.5,4.3c0.4,0.3,0.8,0.5,1.3,0.7L272.5,229.5z"/>
					</g>
				</g>
				<path class="st4" d="M287.9,216.4c-0.1-0.4-0.3-0.7-0.6-1c-0.2-0.3-0.5-0.6-0.9-0.8c-0.3-0.2-0.7-0.4-1.2-0.5v-0.1
					c0.8-0.4,1.3-0.9,1.6-1.5c0.3-0.6,0.5-1.3,0.5-2c0-0.4-0.1-0.8-0.2-1.2c-0.1-0.4-0.3-0.8-0.6-1.2c-0.3-0.4-0.6-0.7-1-1
					c-0.4-0.3-0.9-0.5-1.5-0.7c-0.4-0.1-1-0.3-1.6-0.3v-2.5h-1.8v2.5h-1.9v-2.5H277v2.5h-1.9h-2.5v2.8h2.5V220h-2.5v2.8h2.5h1.9v2.5
					h1.8v-2.5h1.3c0.2,0,0.4,0,0.6,0v2.5h1.8v-2.6c0.2,0,0.5-0.1,0.7-0.1c0.2,0,0.5-0.1,0.7-0.1c0.8-0.2,1.5-0.5,2.1-0.9
					c0.5-0.4,1-0.8,1.3-1.2c0.3-0.4,0.6-0.9,0.7-1.4c0.1-0.5,0.2-0.9,0.2-1.3C288.1,217.2,288,216.8,287.9,216.4z M280.8,208.5
					c0.4,0,0.8,0,1.1,0c0.3,0,0.6,0.1,0.8,0.1c0.5,0.2,0.9,0.4,1.2,0.8c0.2,0.3,0.3,0.7,0.3,1.2c0,0.4-0.1,0.8-0.3,1.2
					c-0.2,0.3-0.5,0.6-1,0.8c-0.4,0.2-1,0.3-1.9,0.3h-2.8v-4.4H280.8z M284.8,218.5c-0.1,0.2-0.2,0.5-0.4,0.7
					c-0.2,0.2-0.4,0.4-0.7,0.5c-0.3,0.2-0.6,0.3-1.1,0.4c-0.3,0.1-0.6,0.1-1,0.1c-0.4,0-0.9,0-1.4,0h-2v-4.8h2.9
					c0.5,0,0.9,0,1.3,0.1c0.3,0,0.6,0.1,0.9,0.2c0.6,0.2,1,0.4,1.2,0.8c0.3,0.4,0.4,0.8,0.4,1.2C284.9,218,284.9,218.2,284.8,218.5z
					"/>
			</g>
			<g>
				<g>
					<rect x="276.5" y="231.5" class="st5" width="2.4" height="50.5"/>
				</g>
				<g>
					<rect x="252.1" y="236.1" class="st5" width="2.4" height="43.7"/>
				</g>
				<g>
					<rect x="231.2" y="215.5" class="st5" width="2.4" height="65.6"/>
				</g>
				<g>
					<rect x="186.5" y="200.4" class="st5" width="2.4" height="79"/>
				</g>
				<g>
					<rect x="207.7" y="227.8" class="st5" width="2.4" height="56.1"/>
				</g>
				<g>
					<rect x="298.1" y="257.1" class="st5" width="2.4" height="21.7"/>
				</g>
			</g>
			<polygon class="st5" points="167.1,194 188.7,199.4 209.3,226 232.6,213.8 253.7,234.6 278.2,229.7 300.3,256.2 323.4,270.8 
				323.4,272.9 321.6,272.9 298.2,258 277.1,232.8 252.8,237.6 232.1,217.2 208.5,229.5 187,201.8 167.1,197 			"/>
			<g>
				<path class="st1" d="M293.2,257.1c0,3.3,2.7,6.1,6.1,6.1c3.3,0,6.1-2.7,6.1-6.1c0-3.3-2.7-6.1-6.1-6.1
					C296,251,293.2,253.7,293.2,257.1z"/>
				<path class="st1" d="M271.6,231.5c0,3.3,2.7,6.1,6.1,6.1c3.3,0,6.1-2.7,6.1-6.1c0-3.3-2.7-6.1-6.1-6.1
					C274.3,225.5,271.6,228.2,271.6,231.5z"/>
				<circle class="st1" cx="253.3" cy="235.7" r="6.1"/>
				<path class="st1" d="M226.3,215.6c0,3.3,2.7,6.1,6.1,6.1c3.3,0,6.1-2.7,6.1-6.1c0-3.3-2.7-6.1-6.1-6.1
					C229,209.6,226.3,212.3,226.3,215.6z"/>
				<path class="st1" d="M202.9,228.1c0,3.3,2.7,6.1,6.1,6.1c3.3,0,6.1-2.7,6.1-6.1c0-3.3-2.7-6.1-6.1-6.1
					C205.6,222,202.9,224.7,202.9,228.1z"/>
				<path class="st1" d="M181.7,200.4c0,3.3,2.7,6.1,6.1,6.1c3.3,0,6.1-2.7,6.1-6.1c0-3.3-2.7-6.1-6.1-6.1
					C184.4,194.3,181.7,197,181.7,200.4z"/>
			</g>
		</g>
	</g>
</g>
<g>
	<g>
		<path class="st5" d="M99.1,329.5c-2-9.8-3.9-19.1-0.3-42.1c0.2-1-0.5-1.9-1.5-2.1c-1-0.2-1.9,0.5-2.1,1.5
			c-3.6,23.7-1.7,33.3,0.4,43.4c2.3,11.3,4.9,13.8-0.4,50c-0.1,1,0.5,1.9,1.5,2.1c0.1,0,0.2,0,0.3,0c0.9,0,1.7-0.7,1.8-1.6
			C104,343.9,101.4,341,99.1,329.5z"/>
		<g>
			<g>
				<path class="st1" d="M141.2,232.5c0,27.8-19.8,54.5-44.2,54.5c-24.4,0-44.2-26.8-44.2-54.5s19.8-49.1,44.2-49.1
					C121.4,183.4,141.2,204.8,141.2,232.5z"/>
				<polygon class="st1" points="102.3,279.8 96.9,279.8 91.5,279.8 82.4,304.9 92.3,298.1 96.9,306.6 101.5,298.1 111.4,304.9 				
					"/>
			</g>
			<g>
				
					<ellipse transform="matrix(0.9738 -0.2273 0.2273 0.9738 -50.3956 28.1243)" class="st3" cx="96.9" cy="232.9" rx="22.2" ry="22.2"/>
				<path class="st4" d="M105.8,233.3c-0.4-0.5-0.9-1-1.6-1.4c0.2-0.2,0.4-0.5,0.6-0.8c0.5-0.9,0.8-1.8,0.8-2.9c0-1.1-0.3-2.1-0.9-3
					c-0.6-0.9-1.6-1.6-3-2.1c0,0,0-4.6,0-4.6c0-0.8-0.7-1.5-1.5-1.5c-0.8,0-1.5,0.7-1.5,1.5v4.2c-0.3,0-0.6,0-0.9,0h-1.5v-4.2
					c0-0.8-0.7-1.5-1.5-1.5c-0.8,0-1.5,0.7-1.5,1.5v4.2H93h-4.4c-0.8,0-1.5,0.7-1.5,1.5c0,0.8,0.7,1.5,1.5,1.5h2.9v6.5v7.2h-2.9
					c-0.8,0-1.5,0.7-1.5,1.5c0,0.8,0.7,1.5,1.5,1.5H93h0.1v4.6c0,0.8,0.7,1.5,1.5,1.5c0.8,0,1.5-0.7,1.5-1.5v-4.6h0.5
					c0.7,0,1.3,0,1.9,0v4.6c0,0.8,0.7,1.5,1.5,1.5c0.8,0,1.5-0.7,1.5-1.5v-5c0.8-0.2,1.6-0.4,2.2-0.8c0.7-0.4,1.2-0.8,1.7-1.3
					c0.5-0.5,0.8-1.1,1-1.8c0.2-0.6,0.3-1.2,0.3-1.9C106.8,235.3,106.5,234.2,105.8,233.3z M99.6,225.9c0.5,0,0.9,0.1,1.2,0.2
					c0.7,0.2,1.1,0.5,1.3,0.8c0.3,0.4,0.4,0.8,0.4,1.4c0,0.5-0.1,1-0.3,1.4c-0.2,0.3-0.6,0.6-1.1,0.8c-0.4,0.2-1.2,0.4-2.9,0.4h-3.6
					v-5h3.1C98.4,225.8,99.1,225.8,99.6,225.9z M103.6,237.4c-0.1,0.2-0.2,0.4-0.4,0.6c-0.2,0.2-0.5,0.5-0.9,0.7
					c-0.4,0.2-0.9,0.4-1.6,0.5c-0.4,0.1-1,0.2-1.6,0.2c-0.7,0.1-1.5,0.1-2.4,0.1h-2.2v-5.7h3.6h0.3c0.9,0,1.6,0,2.2,0.1
					c0.5,0.1,0.9,0.1,1.3,0.2c0.7,0.2,1.2,0.5,1.5,0.9c0.3,0.4,0.4,0.8,0.4,1.4C103.8,236.8,103.7,237.1,103.6,237.4z"/>
			</g>
		</g>
	</g>
	<path class="st6" d="M174.5,200.6c-1.3-1.3-3.4-1.4-6.1,1.3c-2.3,2.3-41.2,44.7-50.7,55.2c-0.2,0.3,0,0.5,0.3,0.3
		c10.5-9.5,52.9-48.4,55.2-50.7C175.9,203.9,175.9,201.9,174.5,200.6z M170.6,206.4c-2,2-5,4.1-5.5,3.6c-0.5-0.5,1.6-3.5,3.6-5.5
		c2-2,3-2.1,3.5-1.6C172.7,203.4,172.6,204.4,170.6,206.4z"/>
</g>
<g>
	<g>
		<g>
			<polygon class="st5" points="300.7,351.1 300.7,434.3 227.6,434.3 227.6,331.4 281,331.4 281,351.1 			"/>
			<polygon class="st6" points="300.7,351.1 281,351.1 281,331.4 			"/>
		</g>
		<g>
			<rect x="236.7" y="352.8" class="st9" width="13.8" height="3.4"/>
			<rect x="255.7" y="352.8" class="st9" width="13.8" height="3.4"/>
			<rect x="236.7" y="382" class="st9" width="13.8" height="3.4"/>
			<rect x="255.7" y="382" class="st9" width="13.8" height="3.4"/>
			<rect x="236.7" y="420.9" class="st9" width="13.8" height="3.4"/>
			<rect x="255.7" y="420.9" class="st9" width="13.8" height="3.4"/>
			<rect x="255.7" y="372.2" class="st9" width="35.9" height="3.4"/>
			<rect x="247.1" y="391.7" class="st9" width="35.9" height="3.4"/>
			<rect x="245.8" y="362.5" class="st9" width="8.1" height="3.4"/>
			<rect x="258.2" y="362.5" class="st9" width="29.3" height="3.4"/>
			<rect x="245.8" y="411.2" class="st9" width="8.1" height="3.4"/>
			<rect x="258.2" y="411.2" class="st9" width="29.3" height="3.4"/>
			<rect x="256.9" y="401.9" class="st9" width="6.7" height="3.4"/>
			<rect x="267.2" y="401.9" class="st9" width="24.4" height="3.4"/>
		</g>
	</g>
	<path class="st2" d="M235,390.5c0-6.1-6.7-11.1-15-11.1c-8.3,0-15,5-15,11.1c0,5.7,5.8,10.4,13.3,11.1v23.7h-5.9
		c-0.9,0-1.7,0.8-1.7,1.7c0,0.9,0.8,1.7,1.7,1.7h5.9v3.9h-10.5c-0.9,0-1.7,0.8-1.7,1.7c0,0.9,0.8,1.7,1.7,1.7H220
		c0.9,0,1.7-0.8,1.7-1.7v-32.7C229.2,400.9,235,396.2,235,390.5z M220,398.2c-6.3,0-11.5-3.5-11.5-7.7c0-4.2,5.3-7.7,11.5-7.7
		c6.3,0,11.5,3.5,11.5,7.7C231.5,394.7,226.2,398.2,220,398.2z"/>
</g>
<g>
	<g>
		<path class="st3" d="M245.4,64.6c0,0-19.1,16.3-40.4,16.3c0,71.6,40.4,82.2,40.4,82.2l0.4,0.2c0,0,40.3-10.9,39.6-82.5
			C264.1,80.9,245.4,64.6,245.4,64.6z"/>
		<path class="st2" d="M245.7,152c-7-3.3-27.5-16.7-30-61.9c12.4-2.4,23.1-8.4,29.7-12.7c6.5,4.4,17.2,10.3,29.5,12.6
			C272.8,134.1,252.9,148.3,245.7,152z"/>
	</g>
	<path class="st4" d="M258,115.3c-0.7-1-1.7-1.7-3-2.3c0.6-0.5,1-1,1.4-1.6c0.7-1.2,1-2.5,1-4c0-1.6-0.4-3-1.2-4.2
		c-0.8-1.3-2.2-2.2-4.1-2.8c-0.6-0.2-1.2-0.3-1.9-0.4v-7.2c0-0.9-0.7-1.6-1.6-1.6c-0.9,0-1.6,0.7-1.6,1.6v7c-0.2,0-0.4,0-0.6,0h-1.4
		v-6.9c0-0.9-0.7-1.6-1.6-1.6c-0.9,0-1.6,0.7-1.6,1.6v6.9h-2.3h-6.7c-0.9,0-1.6,0.7-1.6,1.6c0,0.9,0.7,1.6,1.6,1.6h5v10.5V125h-5
		c-0.9,0-1.6,0.7-1.6,1.6c0,0.9,0.7,1.6,1.6,1.6h6.7h2.3v7.5c0,0.9,0.7,1.6,1.6,1.6c0.9,0,1.6-0.7,1.6-1.6v-7.5c0.7,0,1.4,0,2,0v7.6
		c0,0.9,0.7,1.6,1.6,1.6c0.9,0,1.6-0.7,1.6-1.6V128c0.6-0.1,1.2-0.2,1.7-0.3c1.3-0.3,2.5-0.7,3.4-1.2c1-0.5,1.7-1.1,2.4-1.8
		c0.6-0.7,1.1-1.5,1.4-2.4c0.3-0.8,0.4-1.7,0.4-2.6C259.4,118.1,259,116.6,258,115.3z M249.3,103.1c0.7,0.1,1.4,0.2,1.9,0.3
		c1.1,0.3,1.9,0.8,2.3,1.5c0.5,0.7,0.7,1.5,0.7,2.4c0,0.9-0.2,1.7-0.6,2.4c-0.4,0.6-1,1.1-1.9,1.5c-0.6,0.3-2,0.6-4.6,0.6H241V103
		h5.4C247.5,103,248.5,103.1,249.3,103.1z M255.9,121.3c-0.1,0.4-0.4,0.8-0.7,1.2c-0.4,0.4-0.9,0.8-1.5,1.1
		c-0.7,0.4-1.5,0.6-2.6,0.9c-0.7,0.2-1.5,0.3-2.5,0.4c-1,0.1-2.3,0.1-3.7,0.1h-4v-9.9h6.1h0.4c1.4,0,2.5,0,3.3,0.1
		c0.8,0.1,1.5,0.2,2,0.4c1.2,0.4,2.1,0.9,2.6,1.6c0.5,0.7,0.8,1.5,0.8,2.5C256.2,120.3,256.1,120.8,255.9,121.3z"/>
</g>
<g>
	<g>
		<path class="st4" d="M120.9,112.3c-0.5,0-0.9,0.4-0.9,0.9v8.1c0,0.5,0.4,0.9,0.9,0.9c0.5,0,0.9-0.4,0.9-0.9v-8.1
			C121.8,112.7,121.4,112.3,120.9,112.3z"/>
		<path class="st4" d="M125.5,112.3c-0.5,0-0.9,0.4-0.9,0.9v8.1c0,0.5,0.4,0.9,0.9,0.9c0.5,0,0.9-0.4,0.9-0.9v-8.1
			C126.4,112.7,126,112.3,125.5,112.3z"/>
		<path class="st4" d="M130.1,112.3c-0.5,0-0.9,0.4-0.9,0.9v8.1c0,0.5,0.4,0.9,0.9,0.9s0.9-0.4,0.9-0.9v-8.1
			C131.1,112.7,130.6,112.3,130.1,112.3z"/>
		<path class="st4" d="M134.7,112.3c-0.5,0-0.9,0.4-0.9,0.9v8.1c0,0.5,0.4,0.9,0.9,0.9s0.9-0.4,0.9-0.9v-8.1
			C135.7,112.7,135.3,112.3,134.7,112.3z"/>
		<path class="st4" d="M139.4,112.3c-0.5,0-0.9,0.4-0.9,0.9v8.1c0,0.5,0.4,0.9,0.9,0.9s0.9-0.4,0.9-0.9v-8.1
			C140.3,112.7,139.9,112.3,139.4,112.3z"/>
		<path class="st4" d="M144,112.3c-0.5,0-0.9,0.4-0.9,0.9v8.1c0,0.5,0.4,0.9,0.9,0.9s0.9-0.4,0.9-0.9v-8.1
			C144.9,112.7,144.5,112.3,144,112.3z"/>
		<path class="st4" d="M148.6,112.3c-0.5,0-0.9,0.4-0.9,0.9v8.1c0,0.5,0.4,0.9,0.9,0.9c0.5,0,0.9-0.4,0.9-0.9v-8.1
			C149.6,112.7,149.1,112.3,148.6,112.3z"/>
		<path class="st4" d="M153.2,112.3c-0.5,0-0.9,0.4-0.9,0.9v8.1c0,0.5,0.4,0.9,0.9,0.9c0.5,0,0.9-0.4,0.9-0.9v-8.1
			C154.2,112.7,153.8,112.3,153.2,112.3z"/>
		<path class="st4" d="M120.9,161c-0.5,0-0.9,0.4-0.9,0.9v8.1c0,0.5,0.4,0.9,0.9,0.9c0.5,0,0.9-0.4,0.9-0.9v-8.1
			C121.8,161.4,121.4,161,120.9,161z"/>
		<path class="st4" d="M125.5,161c-0.5,0-0.9,0.4-0.9,0.9v8.1c0,0.5,0.4,0.9,0.9,0.9c0.5,0,0.9-0.4,0.9-0.9v-8.1
			C126.4,161.4,126,161,125.5,161z"/>
		<path class="st4" d="M130.1,161c-0.5,0-0.9,0.4-0.9,0.9v8.1c0,0.5,0.4,0.9,0.9,0.9s0.9-0.4,0.9-0.9v-8.1
			C131.1,161.4,130.6,161,130.1,161z"/>
		<path class="st4" d="M134.7,161c-0.5,0-0.9,0.4-0.9,0.9v8.1c0,0.5,0.4,0.9,0.9,0.9s0.9-0.4,0.9-0.9v-8.1
			C135.7,161.4,135.3,161,134.7,161z"/>
		<path class="st4" d="M139.4,161c-0.5,0-0.9,0.4-0.9,0.9v8.1c0,0.5,0.4,0.9,0.9,0.9s0.9-0.4,0.9-0.9v-8.1
			C140.3,161.4,139.9,161,139.4,161z"/>
		<path class="st4" d="M144,161c-0.5,0-0.9,0.4-0.9,0.9v8.1c0,0.5,0.4,0.9,0.9,0.9s0.9-0.4,0.9-0.9v-8.1
			C144.9,161.4,144.5,161,144,161z"/>
		<path class="st4" d="M148.6,161c-0.5,0-0.9,0.4-0.9,0.9v8.1c0,0.5,0.4,0.9,0.9,0.9c0.5,0,0.9-0.4,0.9-0.9v-8.1
			C149.6,161.4,149.1,161,148.6,161z"/>
		<path class="st4" d="M153.2,161c-0.5,0-0.9,0.4-0.9,0.9v8.1c0,0.5,0.4,0.9,0.9,0.9c0.5,0,0.9-0.4,0.9-0.9v-8.1
			C154.2,161.4,153.8,161,153.2,161z"/>
		<path class="st4" d="M157.4,126.4h8.1c0.5,0,0.9-0.4,0.9-0.9c0-0.5-0.4-0.9-0.9-0.9h-8.1c-0.5,0-0.9,0.4-0.9,0.9
			C156.4,125.9,156.8,126.4,157.4,126.4z"/>
		<path class="st4" d="M165.4,129.1h-8.1c-0.5,0-0.9,0.4-0.9,0.9c0,0.5,0.4,0.9,0.9,0.9h8.1c0.5,0,0.9-0.4,0.9-0.9
			C166.4,129.5,166,129.1,165.4,129.1z"/>
		<path class="st4" d="M165.4,133.7h-8.1c-0.5,0-0.9,0.4-0.9,0.9c0,0.5,0.4,0.9,0.9,0.9h8.1c0.5,0,0.9-0.4,0.9-0.9
			C166.4,134.1,166,133.7,165.4,133.7z"/>
		<path class="st4" d="M165.4,138.3h-8.1c-0.5,0-0.9,0.4-0.9,0.9c0,0.5,0.4,0.9,0.9,0.9h8.1c0.5,0,0.9-0.4,0.9-0.9
			C166.4,138.8,166,138.3,165.4,138.3z"/>
		<path class="st4" d="M165.4,143h-8.1c-0.5,0-0.9,0.4-0.9,0.9s0.4,0.9,0.9,0.9h8.1c0.5,0,0.9-0.4,0.9-0.9S166,143,165.4,143z"/>
		<path class="st4" d="M165.4,147.6h-8.1c-0.5,0-0.9,0.4-0.9,0.9s0.4,0.9,0.9,0.9h8.1c0.5,0,0.9-0.4,0.9-0.9S166,147.6,165.4,147.6z
			"/>
		<path class="st4" d="M165.4,152.2h-8.1c-0.5,0-0.9,0.4-0.9,0.9c0,0.5,0.4,0.9,0.9,0.9h8.1c0.5,0,0.9-0.4,0.9-0.9
			C166.4,152.6,166,152.2,165.4,152.2z"/>
		<path class="st4" d="M165.4,156.9h-8.1c-0.5,0-0.9,0.4-0.9,0.9s0.4,0.9,0.9,0.9h8.1c0.5,0,0.9-0.4,0.9-0.9S166,156.9,165.4,156.9z
			"/>
		<path class="st4" d="M116.7,124.5h-8.1c-0.5,0-0.9,0.4-0.9,0.9c0,0.5,0.4,0.9,0.9,0.9h8.1c0.5,0,0.9-0.4,0.9-0.9
			C117.7,124.9,117.3,124.5,116.7,124.5z"/>
		<path class="st4" d="M116.7,129.1h-8.1c-0.5,0-0.9,0.4-0.9,0.9c0,0.5,0.4,0.9,0.9,0.9h8.1c0.5,0,0.9-0.4,0.9-0.9
			C117.7,129.5,117.3,129.1,116.7,129.1z"/>
		<path class="st4" d="M116.7,133.7h-8.1c-0.5,0-0.9,0.4-0.9,0.9c0,0.5,0.4,0.9,0.9,0.9h8.1c0.5,0,0.9-0.4,0.9-0.9
			C117.7,134.1,117.3,133.7,116.7,133.7z"/>
		<path class="st4" d="M116.7,138.3h-8.1c-0.5,0-0.9,0.4-0.9,0.9c0,0.5,0.4,0.9,0.9,0.9h8.1c0.5,0,0.9-0.4,0.9-0.9
			C117.7,138.8,117.3,138.3,116.7,138.3z"/>
		<path class="st4" d="M116.7,143h-8.1c-0.5,0-0.9,0.4-0.9,0.9s0.4,0.9,0.9,0.9h8.1c0.5,0,0.9-0.4,0.9-0.9S117.3,143,116.7,143z"/>
		<path class="st4" d="M116.7,147.6h-8.1c-0.5,0-0.9,0.4-0.9,0.9s0.4,0.9,0.9,0.9h8.1c0.5,0,0.9-0.4,0.9-0.9
			S117.3,147.6,116.7,147.6z"/>
		<path class="st4" d="M116.7,152.2h-8.1c-0.5,0-0.9,0.4-0.9,0.9c0,0.5,0.4,0.9,0.9,0.9h8.1c0.5,0,0.9-0.4,0.9-0.9
			C117.7,152.6,117.3,152.2,116.7,152.2z"/>
		<path class="st4" d="M116.7,156.9h-8.1c-0.5,0-0.9,0.4-0.9,0.9s0.4,0.9,0.9,0.9h8.1c0.5,0,0.9-0.4,0.9-0.9
			S117.3,156.9,116.7,156.9z"/>
	</g>
	<g>
		<rect x="116.7" y="121.3" class="st2" width="40.6" height="40.6"/>
		<rect x="122.7" y="127" class="st3" width="28.7" height="28.7"/>
	</g>
	<path class="st4" d="M143.1,142c-0.3-0.4-0.7-0.7-1.2-1c0.2-0.2,0.4-0.4,0.5-0.6c0.3-0.6,0.5-1.2,0.5-2c0-0.8-0.2-1.4-0.6-2
		c-0.4-0.6-1.1-1.1-2-1.4c0,0-0.1,0-0.1,0v-3.3c0-0.5-0.4-0.9-0.9-0.9c-0.5,0-0.9,0.4-0.9,0.9v3c-0.2,0-0.5,0-0.7,0h-1.1v-3
		c0-0.5-0.4-0.9-0.9-0.9c-0.5,0-0.9,0.4-0.9,0.9v3h-0.2h-3.1c-0.5,0-0.9,0.4-0.9,0.9s0.4,0.9,0.9,0.9h2.1v4.6v5.1h-2.1
		c-0.5,0-0.9,0.4-0.9,0.9c0,0.5,0.4,0.9,0.9,0.9h3.1h0.2v3.3c0,0.5,0.4,0.9,0.9,0.9c0.5,0,0.9-0.4,0.9-0.9v-3.3h0.5c0.5,0,1,0,1.4,0
		v3.3c0,0.5,0.4,0.9,0.9,0.9c0.5,0,0.9-0.4,0.9-0.9V148c0.6-0.1,1.1-0.3,1.6-0.6c0.5-0.3,0.8-0.5,1.1-0.9c0.3-0.4,0.5-0.8,0.7-1.2
		c0.1-0.4,0.2-0.8,0.2-1.3C143.8,143.3,143.6,142.6,143.1,142z M138.9,136.6c0.3,0,0.6,0.1,0.8,0.1c0.5,0.1,0.8,0.4,1,0.6
		c0.2,0.3,0.3,0.6,0.3,1c0,0.4-0.1,0.7-0.3,1c-0.1,0.3-0.4,0.5-0.8,0.6c-0.3,0.1-0.9,0.3-2,0.3h-2.6v-3.7h2.3
		C138.1,136.6,138.6,136.6,138.9,136.6z M141.8,144.8c-0.1,0.2-0.2,0.3-0.3,0.5c-0.2,0.2-0.4,0.3-0.6,0.5c-0.3,0.2-0.7,0.3-1.1,0.4
		c-0.3,0.1-0.7,0.1-1.1,0.2c-0.5,0-1,0.1-1.7,0.1h-1.6v-4.2h2.6h0.2c0.6,0,1.1,0,1.5,0.1c0.4,0,0.7,0.1,0.9,0.2
		c0.5,0.2,0.9,0.4,1.1,0.7c0.2,0.3,0.3,0.6,0.3,1C141.9,144.3,141.9,144.6,141.8,144.8z"/>
</g>
<g>
	<g>
		<g>
			<circle class="st3" cx="339.1" cy="348.8" r="18.1"/>
			<path class="st4" d="M346.3,349.1c-0.3-0.4-0.8-0.8-1.3-1.1c0.2-0.2,0.3-0.4,0.5-0.6c0.4-0.7,0.6-1.5,0.6-2.4
				c0-0.9-0.2-1.7-0.7-2.5c-0.5-0.8-1.3-1.3-2.4-1.7c0,0,0-3.7,0-3.7c0-0.7-0.6-1.2-1.2-1.2c-0.7,0-1.2,0.6-1.2,1.2v3.4
				c-0.2,0-0.5,0-0.7,0h-1.2v-3.4c0-0.7-0.6-1.2-1.2-1.2c-0.7,0-1.2,0.6-1.2,1.2v3.4h-0.1h-3.6c-0.7,0-1.2,0.6-1.2,1.2
				s0.6,1.2,1.2,1.2h2.4v5.3v5.9h-2.4c-0.7,0-1.2,0.6-1.2,1.2c0,0.7,0.6,1.2,1.2,1.2h3.6h0.1v3.7c0,0.7,0.6,1.2,1.2,1.2
				c0.7,0,1.2-0.6,1.2-1.2v-3.7h0.4c0.6,0,1.1,0,1.5,0v3.8c0,0.7,0.6,1.2,1.2,1.2c0.7,0,1.2-0.6,1.2-1.2v-4.1
				c0.7-0.2,1.3-0.4,1.8-0.6c0.6-0.3,1-0.7,1.4-1.1c0.4-0.4,0.7-0.9,0.8-1.4c0.2-0.5,0.2-1,0.2-1.5
				C347.2,350.7,346.9,349.9,346.3,349.1z M341.3,343.1c0.4,0,0.7,0.1,0.9,0.2c0.5,0.2,0.9,0.4,1.1,0.7c0.2,0.3,0.3,0.7,0.3,1.1
				c0,0.4-0.1,0.8-0.3,1.1c-0.2,0.3-0.5,0.5-0.9,0.7c-0.3,0.1-1,0.3-2.3,0.3h-2.9V343h2.6C340.4,343,340.9,343.1,341.3,343.1z
				 M344.6,352.5c-0.1,0.2-0.2,0.4-0.3,0.5c-0.2,0.2-0.4,0.4-0.7,0.5c-0.3,0.2-0.8,0.3-1.3,0.4c-0.3,0.1-0.8,0.1-1.3,0.2
				c-0.6,0-1.2,0.1-2,0.1h-1.8v-4.7h2.9h0.2c0.7,0,1.3,0,1.8,0.1c0.4,0,0.8,0.1,1,0.2c0.6,0.2,1,0.4,1.2,0.7
				c0.2,0.3,0.3,0.7,0.3,1.1C344.7,352,344.6,352.2,344.6,352.5z"/>
		</g>
		<g>
			<circle class="st3" cx="395.8" cy="348.8" r="18.1"/>
			<path class="st4" d="M397.6,347.3v-5.4c1.2,0.1,2.3,0.4,2.8,0.6c0.7,0.2,1.4-0.1,1.6-0.8c0.2-0.6-0.1-1.3-0.8-1.6
				c-0.3-0.1-1.8-0.6-3.6-0.7v-2.2c0-0.7-0.6-1.2-1.2-1.2c-0.7,0-1.2,0.6-1.2,1.2v2.3c-0.8,0.1-1.6,0.4-2.3,0.9
				c-0.9,0.6-2,1.8-2,4.1c-0.1,2.7,2.2,3.7,4.3,4.5v6.5c-1.2,0-2.5-0.3-3.9-0.8c-0.6-0.2-1.4,0.1-1.6,0.7c-0.2,0.6,0.1,1.4,0.7,1.6
				c1.7,0.6,3.3,1,4.8,1v2.4c0,0.7,0.6,1.2,1.2,1.2c0.7,0,1.2-0.6,1.2-1.2v-2.7c0.8-0.2,1.6-0.5,2.2-1c1.5-1,2.2-2.6,2.2-4.5
				C402.1,349.4,399.7,348.1,397.6,347.3z M393.3,344.6c0-1,0.3-1.8,1-2.2c0.3-0.2,0.6-0.3,0.9-0.4v4.3
				C393.9,345.8,393.3,345.3,393.3,344.6z M398.4,354.7c-0.2,0.2-0.5,0.3-0.8,0.4V350c1.2,0.6,2,1.2,2,2.3
				C399.6,353.4,399.2,354.2,398.4,354.7z"/>
		</g>
	</g>
	<g>
		<path class="st8" d="M351.4,320.3c4.9-2.8,10.5-4.2,16.1-4.2c4.6,0,9.2,1,13.3,2.9L378,320c-0.8,0.3-1.2,1.2-0.9,2
			c0.2,0.6,0.8,1,1.4,1c0.2,0,0.4,0,0.6-0.1l6-2.4c0,0,0,0,0,0c0.2-0.1,0.3-0.2,0.5-0.3c0,0,0,0,0,0c0.1-0.1,0.1-0.2,0.2-0.3
			c0,0,0-0.1,0-0.1c0,0,0.1-0.1,0.1-0.1c0-0.1,0-0.1,0-0.2c0-0.1,0-0.2,0-0.3c0-0.1,0-0.2,0-0.3c0-0.1-0.1-0.2-0.1-0.3
			c0-0.1,0-0.1,0-0.2l-3.2-5.9c-0.4-0.7-1.4-1-2.1-0.6c-0.8,0.4-1,1.4-0.6,2.1l0.9,1.6c-4.2-1.7-8.8-2.6-13.4-2.6
			c-6.2,0-12.3,1.6-17.6,4.6c-0.7,0.4-1,1.4-0.6,2.1C349.7,320.4,350.6,320.7,351.4,320.3z"/>
		<path class="st8" d="M383.8,377c-4.9,2.9-10.6,4.4-16.3,4.4c-4.3,0-8.6-0.9-12.6-2.5l2.2-0.5c0.8-0.2,1.3-1,1.2-1.9
			c-0.2-0.8-1-1.3-1.9-1.2l-6.4,1.5c-0.4,0.1-0.8,0.4-1,0.7c0,0.1,0,0.1-0.1,0.2c-0.1,0.1-0.1,0.3-0.1,0.4c0,0.1,0,0.1,0,0.2
			c0,0.1,0,0.3,0,0.4c0,0,0,0,0,0l2,6.1c0.2,0.7,0.8,1.1,1.5,1.1c0.2,0,0.3,0,0.5-0.1c0.8-0.3,1.3-1.1,1-2l-0.8-2.5
			c4.5,2,9.5,3.1,14.5,3.1c6.3,0,12.5-1.7,17.9-4.8c0.7-0.4,1-1.4,0.6-2.1C385.5,376.8,384.6,376.5,383.8,377z"/>
	</g>
</g>
<g>
	<g>
		<path class="st4" d="M125.5,288.7c-0.4,0-0.8,0.4-0.8,0.8v6.7c0,0.4,0.4,0.8,0.8,0.8c0.4,0,0.8-0.4,0.8-0.8v-6.7
			C126.3,289.1,126,288.7,125.5,288.7z"/>
		<path class="st4" d="M129.4,288.7c-0.4,0-0.8,0.4-0.8,0.8v6.7c0,0.4,0.4,0.8,0.8,0.8c0.4,0,0.8-0.4,0.8-0.8v-6.7
			C130.2,289.1,129.8,288.7,129.4,288.7z"/>
		<path class="st4" d="M133.2,288.7c-0.4,0-0.8,0.4-0.8,0.8v6.7c0,0.4,0.4,0.8,0.8,0.8s0.8-0.4,0.8-0.8v-6.7
			C134,289.1,133.6,288.7,133.2,288.7z"/>
		<path class="st4" d="M137.1,288.7c-0.4,0-0.8,0.4-0.8,0.8v6.7c0,0.4,0.4,0.8,0.8,0.8s0.8-0.4,0.8-0.8v-6.7
			C137.8,289.1,137.5,288.7,137.1,288.7z"/>
		<path class="st4" d="M140.9,288.7c-0.4,0-0.8,0.4-0.8,0.8v6.7c0,0.4,0.4,0.8,0.8,0.8s0.8-0.4,0.8-0.8v-6.7
			C141.7,289.1,141.3,288.7,140.9,288.7z"/>
		<path class="st4" d="M144.7,288.7c-0.4,0-0.8,0.4-0.8,0.8v6.7c0,0.4,0.4,0.8,0.8,0.8s0.8-0.4,0.8-0.8v-6.7
			C145.5,289.1,145.2,288.7,144.7,288.7z"/>
		<path class="st4" d="M148.6,288.7c-0.4,0-0.8,0.4-0.8,0.8v6.7c0,0.4,0.4,0.8,0.8,0.8c0.4,0,0.8-0.4,0.8-0.8v-6.7
			C149.4,289.1,149,288.7,148.6,288.7z"/>
		<path class="st4" d="M152.4,288.7c-0.4,0-0.8,0.4-0.8,0.8v6.7c0,0.4,0.4,0.8,0.8,0.8c0.4,0,0.8-0.4,0.8-0.8v-6.7
			C153.2,289.1,152.8,288.7,152.4,288.7z"/>
		<path class="st4" d="M125.5,329.1c-0.4,0-0.8,0.4-0.8,0.8v6.7c0,0.4,0.4,0.8,0.8,0.8c0.4,0,0.8-0.4,0.8-0.8v-6.7
			C126.3,329.4,126,329.1,125.5,329.1z"/>
		<path class="st4" d="M129.4,329.1c-0.4,0-0.8,0.4-0.8,0.8v6.7c0,0.4,0.4,0.8,0.8,0.8c0.4,0,0.8-0.4,0.8-0.8v-6.7
			C130.2,329.4,129.8,329.1,129.4,329.1z"/>
		<path class="st4" d="M133.2,329.1c-0.4,0-0.8,0.4-0.8,0.8v6.7c0,0.4,0.4,0.8,0.8,0.8s0.8-0.4,0.8-0.8v-6.7
			C134,329.4,133.6,329.1,133.2,329.1z"/>
		<path class="st4" d="M137.1,329.1c-0.4,0-0.8,0.4-0.8,0.8v6.7c0,0.4,0.4,0.8,0.8,0.8s0.8-0.4,0.8-0.8v-6.7
			C137.8,329.4,137.5,329.1,137.1,329.1z"/>
		<path class="st4" d="M140.9,329.1c-0.4,0-0.8,0.4-0.8,0.8v6.7c0,0.4,0.4,0.8,0.8,0.8s0.8-0.4,0.8-0.8v-6.7
			C141.7,329.4,141.3,329.1,140.9,329.1z"/>
		<path class="st4" d="M144.7,329.1c-0.4,0-0.8,0.4-0.8,0.8v6.7c0,0.4,0.4,0.8,0.8,0.8s0.8-0.4,0.8-0.8v-6.7
			C145.5,329.4,145.2,329.1,144.7,329.1z"/>
		<path class="st4" d="M148.6,329.1c-0.4,0-0.8,0.4-0.8,0.8v6.7c0,0.4,0.4,0.8,0.8,0.8c0.4,0,0.8-0.4,0.8-0.8v-6.7
			C149.4,329.4,149,329.1,148.6,329.1z"/>
		<path class="st4" d="M152.4,329.1c-0.4,0-0.8,0.4-0.8,0.8v6.7c0,0.4,0.4,0.8,0.8,0.8c0.4,0,0.8-0.4,0.8-0.8v-6.7
			C153.2,329.4,152.8,329.1,152.4,329.1z"/>
		<path class="st4" d="M155.8,300.4h6.7c0.4,0,0.8-0.4,0.8-0.8s-0.4-0.8-0.8-0.8h-6.7c-0.4,0-0.8,0.4-0.8,0.8
			S155.4,300.4,155.8,300.4z"/>
		<path class="st4" d="M162.5,302.7h-6.7c-0.4,0-0.8,0.4-0.8,0.8c0,0.4,0.4,0.8,0.8,0.8h6.7c0.4,0,0.8-0.4,0.8-0.8
			C163.3,303,163,302.7,162.5,302.7z"/>
		<path class="st4" d="M162.5,306.5h-6.7c-0.4,0-0.8,0.4-0.8,0.8s0.4,0.8,0.8,0.8h6.7c0.4,0,0.8-0.4,0.8-0.8S163,306.5,162.5,306.5z
			"/>
		<path class="st4" d="M162.5,310.3h-6.7c-0.4,0-0.8,0.4-0.8,0.8c0,0.4,0.4,0.8,0.8,0.8h6.7c0.4,0,0.8-0.4,0.8-0.8
			C163.3,310.7,163,310.3,162.5,310.3z"/>
		<path class="st4" d="M162.5,314.2h-6.7c-0.4,0-0.8,0.4-0.8,0.8s0.4,0.8,0.8,0.8h6.7c0.4,0,0.8-0.4,0.8-0.8S163,314.2,162.5,314.2z
			"/>
		<path class="st4" d="M162.5,318h-6.7c-0.4,0-0.8,0.4-0.8,0.8s0.4,0.8,0.8,0.8h6.7c0.4,0,0.8-0.4,0.8-0.8S163,318,162.5,318z"/>
		<path class="st4" d="M162.5,321.8h-6.7c-0.4,0-0.8,0.4-0.8,0.8s0.4,0.8,0.8,0.8h6.7c0.4,0,0.8-0.4,0.8-0.8S163,321.8,162.5,321.8z
			"/>
		<path class="st4" d="M162.5,325.7h-6.7c-0.4,0-0.8,0.4-0.8,0.8s0.4,0.8,0.8,0.8h6.7c0.4,0,0.8-0.4,0.8-0.8S163,325.7,162.5,325.7z
			"/>
		<path class="st4" d="M122.1,298.8h-6.7c-0.4,0-0.8,0.4-0.8,0.8s0.4,0.8,0.8,0.8h6.7c0.4,0,0.8-0.4,0.8-0.8
			S122.6,298.8,122.1,298.8z"/>
		<path class="st4" d="M122.1,302.7h-6.7c-0.4,0-0.8,0.4-0.8,0.8c0,0.4,0.4,0.8,0.8,0.8h6.7c0.4,0,0.8-0.4,0.8-0.8
			C122.9,303,122.6,302.7,122.1,302.7z"/>
		<path class="st4" d="M122.1,306.5h-6.7c-0.4,0-0.8,0.4-0.8,0.8s0.4,0.8,0.8,0.8h6.7c0.4,0,0.8-0.4,0.8-0.8
			S122.6,306.5,122.1,306.5z"/>
		<path class="st4" d="M122.1,310.3h-6.7c-0.4,0-0.8,0.4-0.8,0.8c0,0.4,0.4,0.8,0.8,0.8h6.7c0.4,0,0.8-0.4,0.8-0.8
			C122.9,310.7,122.6,310.3,122.1,310.3z"/>
		<path class="st4" d="M122.1,314.2h-6.7c-0.4,0-0.8,0.4-0.8,0.8s0.4,0.8,0.8,0.8h6.7c0.4,0,0.8-0.4,0.8-0.8
			S122.6,314.2,122.1,314.2z"/>
		<path class="st4" d="M122.1,318h-6.7c-0.4,0-0.8,0.4-0.8,0.8s0.4,0.8,0.8,0.8h6.7c0.4,0,0.8-0.4,0.8-0.8S122.6,318,122.1,318z"/>
		<path class="st4" d="M122.1,321.8h-6.7c-0.4,0-0.8,0.4-0.8,0.8s0.4,0.8,0.8,0.8h6.7c0.4,0,0.8-0.4,0.8-0.8
			S122.6,321.8,122.1,321.8z"/>
		<path class="st4" d="M122.1,325.7h-6.7c-0.4,0-0.8,0.4-0.8,0.8s0.4,0.8,0.8,0.8h6.7c0.4,0,0.8-0.4,0.8-0.8
			S122.6,325.7,122.1,325.7z"/>
	</g>
	<g>
		<rect x="122.1" y="296.2" class="st2" width="33.7" height="33.7"/>
		<rect x="127.1" y="300.9" class="st3" width="23.8" height="23.8"/>
	</g>
	<path class="st4" d="M144,313.3c-0.2-0.3-0.6-0.6-1-0.8c0.2-0.2,0.3-0.3,0.4-0.5c0.3-0.5,0.4-1,0.4-1.6c0-0.6-0.2-1.2-0.5-1.7
		c-0.3-0.5-0.9-0.9-1.7-1.1c0,0,0,0-0.1,0v-2.7c0-0.4-0.4-0.8-0.8-0.8s-0.8,0.4-0.8,0.8v2.5c-0.2,0-0.4,0-0.6,0h-1v-2.5
		c0-0.4-0.4-0.8-0.8-0.8c-0.4,0-0.8,0.4-0.8,0.8v2.5h-0.2h-2.6c-0.4,0-0.8,0.4-0.8,0.8c0,0.4,0.4,0.8,0.8,0.8h1.8v3.8v4.3h-1.8
		c-0.4,0-0.8,0.4-0.8,0.8s0.4,0.8,0.8,0.8h2.6h0.2v2.7c0,0.4,0.4,0.8,0.8,0.8c0.4,0,0.8-0.4,0.8-0.8v-2.7h0.4c0.4,0,0.8,0,1.2,0v2.8
		c0,0.4,0.4,0.8,0.8,0.8s0.8-0.4,0.8-0.8v-3c0.5-0.1,0.9-0.3,1.3-0.5c0.4-0.2,0.7-0.5,0.9-0.7c0.3-0.3,0.4-0.6,0.6-1
		c0.1-0.3,0.2-0.7,0.2-1C144.6,314.4,144.4,313.8,144,313.3z M140.5,308.9c0.3,0,0.5,0.1,0.7,0.1c0.4,0.1,0.7,0.3,0.8,0.5
		c0.2,0.2,0.2,0.5,0.2,0.8c0,0.3-0.1,0.6-0.2,0.8c-0.1,0.2-0.3,0.4-0.7,0.5c-0.2,0.1-0.7,0.2-1.7,0.2h-2.2v-3.1h1.9
		C139.9,308.9,140.2,308.9,140.5,308.9z M142.9,315.7c0,0.1-0.1,0.3-0.2,0.4c-0.1,0.1-0.3,0.3-0.5,0.4c-0.2,0.1-0.5,0.2-0.9,0.3
		c-0.3,0.1-0.6,0.1-0.9,0.1c-0.4,0-0.9,0-1.4,0h-1.4v-3.5h2.2h0.1c0.5,0,0.9,0,1.3,0c0.3,0,0.5,0.1,0.8,0.1c0.4,0.1,0.7,0.3,0.9,0.6
		c0.2,0.2,0.3,0.5,0.3,0.8C143,315.3,143,315.5,142.9,315.7z"/>
</g>
</svg>
