<?xml version="1.0" encoding="utf-8"?>
<!-- Generator: Adobe Illustrator 22.1.0, SVG Export Plug-In . SVG Version: 6.00 Build 0)  -->
<svg version="1.1" id="Layer_1" xmlns="http://www.w3.org/2000/svg" xmlns:xlink="http://www.w3.org/1999/xlink" x="0px" y="0px"
	 viewBox="0 0 500 500" style="enable-background:new 0 0 500 500;" xml:space="preserve">
<style type="text/css">
	.st0{fill:#282828;}
	.st1{fill:#FFFFFF;}
	.st2{fill:#002B45;}
	.st3{fill:#004E7A;}
	.st4{fill:#FFDC12;}
	.st5{fill:#FF453B;}
	.st6{fill:#FFBB00;}
	.st7{fill:#FF8C00;}
	.st8{fill:#E3E3E3;}
	.st9{clip-path:url(#SVGID_1_);}
	.st10{fill:#EF261A;}
	.st11{fill:#00D6D6;}
	.st12{fill:#F5C695;}
	.st13{fill:#FFD6B0;}
</style>
<rect x="0.3" class="st0" width="500" height="500"/>
<path class="st1" d="M138.5,195.5l3.7-1.5l-0.3-3.9l1.7-1.7l3.9,0.3l1.5-3.7l-3-2.6l0-2.4l3-2.6l-1.5-3.7l-3.9,0.3l-1.7-1.7l0.3-3.9
	l-3.7-1.5l-2.6,3l-2.4,0l-2.6-3l-3.7,1.5l0.3,3.9l-1.7,1.7l-3.9-0.3l-1.5,3.7l3,2.6l0,2.4l-3,2.6l1.5,3.7l3.9-0.3l1.7,1.7l-0.3,3.9
	l3.7,1.5l2.6-3l2.4,0L138.5,195.5z M128.5,183.7c-1.4-3.4,0.2-7.3,3.6-8.7c3.4-1.4,7.3,0.2,8.7,3.6c1.4,3.4-0.2,7.3-3.6,8.7
	C133.8,188.7,129.9,187.1,128.5,183.7z"/>
<g>
	<path class="st2" d="M120.5,223.7V217l-6.2-2.1l-1.6-3.8l3-5.9l-4.7-4.7l-5.9,3l-3.8-1.6l-2.1-6.2h-6.7l-2.1,6.2l-3.8,1.6l-5.9-3
		l-4.7,4.7l3,5.9l-1.6,3.8l-6.2,2.1v6.7l6.2,2.1l1.6,3.8l-3,5.9l4.7,4.7l5.9-3l3.8,1.6l2.1,6.2h6.7l2.1-6.2l3.8-1.6l5.9,3l4.7-4.7
		l-3-5.9l1.6-3.8L120.5,223.7z M95.9,231.5c-6.2,0-11.2-5-11.2-11.2c0-6.2,5-11.2,11.2-11.2s11.2,5,11.2,11.2
		C107.1,226.5,102.1,231.5,95.9,231.5z"/>
	<path class="st1" d="M102.7,220.3c0,3.8-3,6.8-6.8,6.8c-3.8,0-6.8-3-6.8-6.8c0-3.8,3-6.8,6.8-6.8
		C99.6,213.5,102.7,216.6,102.7,220.3z"/>
</g>
<g>
	<path class="st1" d="M397.3,242h-39.2c-1.4,0-2.5,1.1-2.5,2.5v19.6c0,1.4,1.1,2.5,2.5,2.5c1.4,0,2.5-1.1,2.5-2.5V247h34.2v17.1
		c0,1.4,1.1,2.5,2.5,2.5c1.4,0,2.5-1.1,2.5-2.5v-19.6C399.8,243.1,398.6,242,397.3,242z"/>
	<g>
		<polygon class="st3" points="438,301.4 438,343.4 317.4,343.4 317.4,301.4 377.7,312.1 		"/>
		<polygon class="st2" points="438,262.1 438,301.4 377.7,312.1 317.4,301.4 317.4,262.1 		"/>
	</g>
	<path class="st4" d="M397,308c-0.4-1-0.9-1.9-1.5-2.7c-0.6-0.8-1.4-1.5-2.3-2c-0.9-0.6-1.9-1-3-1.4v-0.1c2-1,3.3-2.3,4.2-3.9
		c0.8-1.6,1.3-3.3,1.3-5.2c0-1.1-0.2-2.1-0.5-3.2c-0.3-1.1-0.9-2-1.6-3c-0.7-0.9-1.6-1.8-2.7-2.6c-1.1-0.8-2.4-1.4-3.8-1.9
		c-1.1-0.4-2.5-0.6-4.1-0.8v-6.6h-4.6v6.4h-4.9v-6.4H369v6.4h-4.8h-6.4v7.3h6.4v28.9h-6.4v7.3h6.4h4.8v6.4h4.6v-6.4h3.3
		c0.6,0,1.1,0,1.6,0v6.4h4.6v-6.6c0.6-0.1,1.2-0.1,1.8-0.2c0.6-0.1,1.2-0.2,1.8-0.4c2.1-0.6,3.9-1.3,5.3-2.3c1.4-1,2.5-2,3.4-3.1
		c0.8-1.1,1.4-2.3,1.8-3.5c0.3-1.2,0.5-2.4,0.5-3.4C397.5,310.1,397.4,309,397,308z M378.7,287.7c1.1,0,2.1,0,2.9,0.1
		c0.8,0.1,1.5,0.2,2,0.4c1.4,0.4,2.4,1.1,3,2c0.6,0.9,0.9,1.9,0.9,3.1c0,1.1-0.3,2.1-0.8,3c-0.5,0.9-1.4,1.6-2.6,2.1
		c-1.1,0.4-2.7,0.7-4.8,0.7h-7.2v-11.3H378.7z M389,313.4c-0.2,0.6-0.5,1.2-1,1.7c-0.5,0.5-1.1,1-1.8,1.4c-0.7,0.4-1.7,0.7-2.8,1
		c-0.7,0.2-1.6,0.3-2.6,0.4c-1,0.1-2.2,0.1-3.6,0.1h-5.2v-12.3h7.5c1.3,0,2.4,0,3.3,0.1c0.8,0.1,1.6,0.2,2.2,0.4
		c1.4,0.5,2.5,1.1,3.2,2c0.7,0.9,1,2,1,3.2C389.3,312.1,389.2,312.7,389,313.4z"/>
</g>
<g>
	<g>
		
			<rect x="362.1" y="140.2" transform="matrix(0.2107 -0.9776 0.9776 0.2107 118.4416 495.0176)" class="st2" width="7.2" height="67.9"/>
		
			<rect x="363.3" y="132.7" transform="matrix(0.2107 -0.9776 0.9776 0.2107 127.093 490.6536)" class="st3" width="8.2" height="67.9"/>
		
			<rect x="348.4" y="157.2" transform="matrix(0.2107 -0.9776 0.9776 0.2107 99.0164 504.8113)" class="st3" width="27.4" height="67.9"/>
		<g>
			
				<rect x="383.2" y="194.1" transform="matrix(0.2107 -0.9776 0.9776 0.2107 107.863 533.9332)" class="st1" width="2.8" height="12.1"/>
			
				<rect x="368.2" y="190.9" transform="matrix(0.2107 -0.9776 0.9776 0.2107 99.2446 516.8294)" class="st5" width="2.8" height="12.1"/>
		</g>
	</g>
	<g>
		<rect x="314.2" y="176.2" class="st5" width="67.9" height="42.8"/>
		<g>
			<rect x="319.6" y="191.5" class="st1" width="56.9" height="3.2"/>
		</g>
		<g>
			<rect x="319.6" y="184.2" class="st2" width="10.6" height="3.2"/>
		</g>
		<g>
			<rect x="334.9" y="184.2" class="st2" width="10.6" height="3.2"/>
		</g>
		<rect x="352" y="202.9" class="st1" width="8.9" height="8.9"/>
		<rect x="366.5" y="202.9" class="st6" width="8.9" height="8.9"/>
	</g>
</g>
<g>
	<g>
		<circle class="st7" cx="406.4" cy="346.6" r="16.7"/>
		
			<ellipse transform="matrix(0.9952 -9.828829e-02 9.828829e-02 0.9952 -32.1028 41.6179)" class="st4" cx="406.4" cy="346.6" rx="12.9" ry="12.9"/>
		<g>
			<path class="st4" d="M405.8,329.9v3.8c0.2,0,0.4,0,0.6,0s0.4,0,0.6,0c0,0,0-3.8,0-3.8c-0.2,0-0.4,0-0.6,0S406,329.9,405.8,329.9z
				"/>
			<path class="st4" d="M391.6,338.8l3.3,1.9c0.2-0.3,0.4-0.6,0.6-1c0,0-3.3-1.9-3.3-1.9C392,338.1,391.8,338.4,391.6,338.8z"/>
			<path class="st4" d="M399.4,335.7c0.3-0.2,0.6-0.4,1-0.5c0,0-1.9-3.3-1.9-3.3c-0.3,0.2-0.6,0.4-1,0.6L399.4,335.7z"/>
			<path class="st4" d="M419.2,346.1c0,0.2,0,0.4,0,0.6s0,0.4,0,0.6c0,0,3.8,0,3.8,0c0-0.2,0-0.4,0-0.6s0-0.4,0-0.6L419.2,346.1
				C419.2,346.1,419.2,346.1,419.2,346.1z"/>
			<path class="st4" d="M420.5,337.8l-3.3,1.9c0.2,0.3,0.4,0.6,0.5,1c0,0,3.3-1.9,3.3-1.9C420.9,338.4,420.7,338.1,420.5,337.8z"/>
			<path class="st4" d="M412.3,335.2c0.3,0.2,0.6,0.4,1,0.6c0,0,1.9-3.3,1.9-3.3c-0.3-0.2-0.6-0.4-1-0.6L412.3,335.2z"/>
			<path class="st4" d="M413.3,357.5c-0.3,0.2-0.6,0.4-1,0.5c0,0,1.9,3.3,1.9,3.3c0.3-0.2,0.6-0.4,1-0.6L413.3,357.5z"/>
			<path class="st4" d="M406.9,363.3v-3.8c-0.2,0-0.4,0-0.6,0s-0.4,0-0.6,0c0,0,0,3.8,0,3.8c0.2,0,0.4,0,0.6,0
				S406.7,363.3,406.9,363.3z"/>
			<path class="st4" d="M421.1,354.5l-3.3-1.9c-0.2,0.3-0.4,0.6-0.6,1c0,0,3.3,1.9,3.3,1.9C420.7,355.2,420.9,354.8,421.1,354.5z"/>
			<path class="st4" d="M389.7,347.2h3.8c0-0.2,0-0.4,0-0.6s0-0.4,0-0.6c0,0-3.8,0-3.8,0c0,0.2,0,0.4,0,0.6S389.7,347,389.7,347.2z"
				/>
			<path class="st4" d="M395.5,353.6c-0.2-0.3-0.4-0.6-0.5-1c0,0-3.3,1.9-3.3,1.9c0.2,0.3,0.4,0.6,0.6,1L395.5,353.6z"/>
			<path class="st4" d="M400.4,358.1c-0.3-0.2-0.6-0.4-1-0.6c0,0-1.9,3.3-1.9,3.3c0.3,0.2,0.6,0.4,1,0.6L400.4,358.1z"/>
		</g>
	</g>
	<path class="st7" d="M412,348.2c-0.1-0.3-0.3-0.6-0.4-0.8c-0.2-0.2-0.4-0.4-0.7-0.6c-0.3-0.2-0.6-0.3-0.9-0.4
		c0.6-0.3,1-0.7,1.2-1.2c0.2-0.5,0.4-1,0.4-1.5c0-0.3,0-0.6-0.1-0.9c-0.1-0.3-0.3-0.6-0.5-0.9c-0.2-0.3-0.5-0.5-0.8-0.8
		s-0.7-0.4-1.1-0.6c-0.3-0.1-0.7-0.2-1.2-0.2v-1.9h-1.3v1.9h-1.4v-1.9h-1.3v1.9h-1.4h-1.9v2.2h1.9v8.5h-1.9v2.2h1.9h1.4v1.9h1.3V353
		h1c0.2,0,0.3,0,0.5,0v1.9h1.3v-2c0.2,0,0.4,0,0.5-0.1c0.2,0,0.4-0.1,0.5-0.1c0.6-0.2,1.2-0.4,1.6-0.7c0.4-0.3,0.7-0.6,1-0.9
		c0.2-0.3,0.4-0.7,0.5-1c0.1-0.4,0.1-0.7,0.1-1C412.2,348.8,412.2,348.5,412,348.2z M406.6,342.2c0.3,0,0.6,0,0.9,0
		c0.2,0,0.4,0.1,0.6,0.1c0.4,0.1,0.7,0.3,0.9,0.6c0.2,0.3,0.3,0.6,0.3,0.9c0,0.3-0.1,0.6-0.2,0.9c-0.2,0.3-0.4,0.5-0.8,0.6
		c-0.3,0.1-0.8,0.2-1.4,0.2h-2.1v-3.3H406.6z M409.7,349.8c-0.1,0.2-0.2,0.3-0.3,0.5c-0.1,0.2-0.3,0.3-0.5,0.4
		c-0.2,0.1-0.5,0.2-0.8,0.3c-0.2,0.1-0.5,0.1-0.8,0.1c-0.3,0-0.6,0-1.1,0h-1.5v-3.6h2.2c0.4,0,0.7,0,1,0c0.2,0,0.5,0.1,0.7,0.1
		c0.4,0.1,0.7,0.3,0.9,0.6c0.2,0.3,0.3,0.6,0.3,0.9C409.8,349.4,409.8,349.6,409.7,349.8z"/>
</g>
<path class="st1" d="M192.3,259v-2.8l-2.6-0.9l-0.7-1.6l1.2-2.5l-2-2l-2.5,1.2l-1.6-0.7l-0.9-2.6h-2.8l-0.9,2.6l-1.6,0.7l-2.5-1.2
	l-2,2l1.2,2.5l-0.7,1.6l-2.6,0.9v2.8l2.6,0.9l0.7,1.6l-1.2,2.5l2,2l2.5-1.2l1.6,0.7l0.9,2.6h2.8l0.9-2.6l1.6-0.7l2.5,1.2l2-2
	l-1.2-2.5l0.7-1.6L192.3,259z M182,262.3c-2.6,0-4.7-2.1-4.7-4.7c0-2.6,2.1-4.7,4.7-4.7c2.6,0,4.7,2.1,4.7,4.7
	C186.7,260.2,184.6,262.3,182,262.3z"/>
<g>
	<path class="st1" d="M224.7,176.9v-3.7l-3.4-1.1l-0.9-2.1l1.6-3.2l-2.6-2.6l-3.2,1.6l-2.1-0.9l-1.1-3.4h-3.7l-1.1,3.4l-2.1,0.9
		l-3.2-1.6l-2.6,2.6l1.6,3.2l-0.9,2.1l-3.4,1.1v3.7l3.4,1.1l0.9,2.1l-1.6,3.2l2.6,2.6l3.2-1.6l2.1,0.9l1.1,3.4h3.7l1.1-3.4l2.1-0.9
		l3.2,1.6l2.6-2.6l-1.6-3.2l0.9-2.1L224.7,176.9z M211.2,181.2c-3.4,0-6.1-2.7-6.1-6.1c0-3.4,2.7-6.1,6.1-6.1c3.4,0,6.1,2.7,6.1,6.1
		C217.4,178.4,214.6,181.2,211.2,181.2z"/>
	<circle class="st3" cx="211.2" cy="175.1" r="3.7"/>
</g>
<path class="st3" d="M461.9,282.2l3.7-1.5l-0.3-3.9l1.7-1.7l3.9,0.3l1.5-3.7l-3-2.6l0-2.4l3-2.6l-1.5-3.7l-3.9,0.3l-1.7-1.7l0.3-3.9
	l-3.7-1.5l-2.6,3l-2.4,0l-2.6-3l-3.7,1.5l0.3,3.9l-1.7,1.7l-3.9-0.3l-1.5,3.7l3,2.6l0,2.4l-3,2.6l1.5,3.7l3.9-0.3l1.7,1.7l-0.3,3.9
	l3.7,1.5l2.6-3l2.4,0L461.9,282.2z M452,270.5c-1.4-3.4,0.2-7.3,3.6-8.7c3.4-1.4,7.3,0.2,8.7,3.6c1.4,3.4-0.2,7.3-3.6,8.7
	C457.3,275.5,453.4,273.9,452,270.5z"/>
<path class="st3" d="M203.4,201.4v-2.8l-2.6-0.9l-0.7-1.6l1.2-2.5l-2-2L197,193l-1.6-0.7l-0.9-2.6h-2.8l-0.9,2.6l-1.6,0.7l-2.5-1.2
	l-2,2l1.2,2.5l-0.7,1.6l-2.6,0.9v2.8l2.6,0.9l0.7,1.6l-1.2,2.5l2,2l2.5-1.2l1.6,0.7l0.9,2.6h2.8l0.9-2.6l1.6-0.7l2.5,1.2l2-2
	l-1.2-2.5l0.7-1.6L203.4,201.4z M193.1,204.7c-2.6,0-4.7-2.1-4.7-4.7c0-2.6,2.1-4.7,4.7-4.7c2.6,0,4.7,2.1,4.7,4.7
	C197.8,202.6,195.7,204.7,193.1,204.7z"/>
<g>
	<path class="st2" d="M277.2,208.7V205l-3.4-1.1l-0.9-2.1l1.6-3.2l-2.6-2.6l-3.2,1.6l-2.1-0.9l-1.1-3.4H262l-1.1,3.4l-2.1,0.9
		l-3.2-1.6l-2.6,2.6l1.6,3.2l-0.9,2.1l-3.4,1.1v3.7l3.4,1.1l0.9,2.1l-1.6,3.2l2.6,2.6l3.2-1.6l2.1,0.9l1.1,3.4h3.7l1.1-3.4l2.1-0.9
		l3.2,1.6l2.6-2.6l-1.6-3.2l0.9-2.1L277.2,208.7z M263.8,213c-3.4,0-6.1-2.7-6.1-6.1c0-3.4,2.7-6.1,6.1-6.1c3.4,0,6.1,2.7,6.1,6.1
		C269.9,210.2,267.2,213,263.8,213z"/>
	<circle class="st3" cx="263.8" cy="206.9" r="3.7"/>
</g>
<g>
	<path class="st1" d="M356,348.5v-3.7l-3.4-1.1l-0.9-2.1l1.6-3.2l-2.6-2.6l-3.2,1.6l-2.1-0.9l-1.1-3.4h-3.7l-1.1,3.4l-2.1,0.9
		l-3.2-1.6l-2.6,2.6l1.6,3.2l-0.9,2.1l-3.4,1.1v3.7l3.4,1.1l0.9,2.1l-1.6,3.2l2.6,2.6l3.2-1.6l2.1,0.9l1.1,3.4h3.7l1.1-3.4l2.1-0.9
		l3.2,1.6l2.6-2.6l-1.6-3.2l0.9-2.1L356,348.5z M342.6,352.7c-3.4,0-6.1-2.7-6.1-6.1c0-3.4,2.7-6.1,6.1-6.1c3.4,0,6.1,2.7,6.1,6.1
		C348.7,350,346,352.7,342.6,352.7z"/>
	<path class="st2" d="M346.3,346.6c0,2-1.7,3.7-3.7,3.7c-2,0-3.7-1.7-3.7-3.7s1.7-3.7,3.7-3.7C344.6,342.9,346.3,344.6,346.3,346.6z
		"/>
</g>
<path class="st3" d="M147.6,302.2v-2.8l-2.6-0.9l-0.7-1.6l1.2-2.5l-2-2l-2.5,1.2l-1.6-0.7l-0.9-2.6h-2.8l-0.9,2.6l-1.6,0.7l-2.5-1.2
	l-2,2l1.2,2.5l-0.7,1.6l-2.6,0.9v2.8l2.6,0.9l0.7,1.6l-1.2,2.5l2,2l2.5-1.2l1.6,0.7l0.9,2.6h2.8l0.9-2.6l1.6-0.7l2.5,1.2l2-2
	l-1.2-2.5l0.7-1.6L147.6,302.2z M137.3,305.5c-2.6,0-4.7-2.1-4.7-4.7c0-2.6,2.1-4.7,4.7-4.7c2.6,0,4.7,2.1,4.7,4.7
	C141.9,303.4,139.8,305.5,137.3,305.5z"/>
<path class="st3" d="M413.1,231.9v-2.8l-2.6-0.9l-0.7-1.6l1.2-2.5l-2-2l-2.5,1.2l-1.6-0.7l-0.9-2.6h-2.8l-0.9,2.6l-1.6,0.7l-2.5-1.2
	l-2,2l1.2,2.5l-0.7,1.6l-2.6,0.9v2.8l2.6,0.9l0.7,1.6l-1.2,2.5l2,2l2.5-1.2l1.6,0.7l0.9,2.6h2.8l0.9-2.6l1.6-0.7l2.5,1.2l2-2
	l-1.2-2.5l0.7-1.6L413.1,231.9z M402.8,235.2c-2.6,0-4.7-2.1-4.7-4.7c0-2.6,2.1-4.7,4.7-4.7c2.6,0,4.7,2.1,4.7,4.7
	C407.5,233.1,405.4,235.2,402.8,235.2z"/>
<g>
	<g>
		<polygon class="st1" points="291.1,353.5 258.6,353.5 261.9,338.6 287.8,338.6 		"/>
		<rect x="247.3" y="353.5" class="st8" width="55" height="6.1"/>
		<rect x="200.8" y="227.8" class="st2" width="148.1" height="111.2"/>
		<rect x="267.4" y="328.7" class="st3" width="14.8" height="4.9"/>
		<g>
			<defs>
				
					<rect id="SVGID_79_" x="230.7" y="212.7" transform="matrix(6.123234e-17 -1 1 6.123234e-17 -4.4764 554.1398)" width="88.2" height="133.3"/>
			</defs>
			<use xlink:href="#SVGID_79_"  style="overflow:visible;fill:#FF453B;"/>
			<clipPath id="SVGID_1_">
				<use xlink:href="#SVGID_79_"  style="overflow:visible;"/>
			</clipPath>
			<g class="st9">
				<path class="st10" d="M214.4,245.3h1.7v-8.8h-1.4c-0.2,0.5-0.5,1-1.1,1.4s-1,0.7-1.4,0.8v1.5c0.8-0.3,1.6-0.7,2.2-1.3V245.3z"/>
				<path class="st10" d="M225.2,236.5c-0.8,0-1.5,0.3-2,0.9c-0.6,0.7-0.9,1.9-0.9,3.6c0,1.7,0.3,2.9,0.8,3.5c0.5,0.7,1.2,1,2.1,1
					c0.8,0,1.5-0.3,2-0.9c0.6-0.7,0.9-1.9,0.9-3.6c0-1.7-0.3-2.9-0.9-3.6C226.7,236.8,226,236.5,225.2,236.5z M226.1,243.2
					c-0.1,0.3-0.2,0.6-0.4,0.7c-0.2,0.1-0.3,0.2-0.5,0.2c-0.2,0-0.4-0.1-0.5-0.2c-0.2-0.1-0.3-0.4-0.4-0.8c-0.1-0.4-0.2-1.1-0.2-2.1
					c0-1,0.1-1.8,0.2-2.2c0.1-0.3,0.2-0.6,0.4-0.7c0.2-0.1,0.3-0.2,0.5-0.2c0.2,0,0.4,0.1,0.5,0.2c0.2,0.1,0.3,0.4,0.4,0.8
					c0.1,0.4,0.2,1.1,0.2,2.1C226.2,242,226.2,242.8,226.1,243.2z"/>
				<path class="st10" d="M236.1,236.5c-0.8,0-1.5,0.3-2,0.9c-0.6,0.7-0.9,1.9-0.9,3.6c0,1.7,0.3,2.9,0.8,3.5c0.5,0.7,1.2,1,2.1,1
					c0.8,0,1.5-0.3,2-0.9c0.6-0.7,0.9-1.9,0.9-3.6c0-1.7-0.3-2.9-0.9-3.6C237.6,236.8,237,236.5,236.1,236.5z M237,243.2
					c-0.1,0.3-0.2,0.6-0.4,0.7c-0.2,0.1-0.3,0.2-0.5,0.2s-0.4-0.1-0.5-0.2c-0.2-0.1-0.3-0.4-0.4-0.8c-0.1-0.4-0.2-1.1-0.2-2.1
					c0-1,0.1-1.8,0.2-2.2c0.1-0.3,0.2-0.6,0.4-0.7c0.2-0.1,0.3-0.2,0.5-0.2s0.4,0.1,0.5,0.2c0.2,0.1,0.3,0.4,0.4,0.8
					c0.1,0.4,0.2,1.1,0.2,2.1C237.2,242,237.1,242.8,237,243.2z"/>
				<path class="st10" d="M247.1,236.5c-0.8,0-1.5,0.3-2,0.9c-0.6,0.7-0.9,1.9-0.9,3.6c0,1.7,0.3,2.9,0.8,3.5c0.5,0.7,1.2,1,2.1,1
					c0.8,0,1.5-0.3,2-0.9c0.6-0.7,0.9-1.9,0.9-3.6c0-1.7-0.3-2.9-0.9-3.6C248.6,236.8,247.9,236.5,247.1,236.5z M248,243.2
					c-0.1,0.3-0.2,0.6-0.4,0.7c-0.2,0.1-0.3,0.2-0.5,0.2s-0.4-0.1-0.5-0.2c-0.2-0.1-0.3-0.4-0.4-0.8c-0.1-0.4-0.2-1.1-0.2-2.1
					c0-1,0.1-1.8,0.2-2.2c0.1-0.3,0.2-0.6,0.4-0.7c0.2-0.1,0.3-0.2,0.5-0.2s0.4,0.1,0.5,0.2c0.2,0.1,0.3,0.4,0.4,0.8
					c0.1,0.4,0.2,1.1,0.2,2.1C248.2,242,248.1,242.8,248,243.2z"/>
				<path class="st10" d="M258.3,245.3h1.7v-8.8h-1.4c-0.2,0.5-0.5,1-1.1,1.4s-1,0.7-1.4,0.8v1.5c0.8-0.3,1.6-0.7,2.2-1.3V245.3z"/>
				<path class="st10" d="M269.3,245.3h1.7v-8.8h-1.4c-0.2,0.5-0.5,1-1.1,1.4c-0.5,0.4-1,0.7-1.4,0.8v1.5c0.8-0.3,1.6-0.7,2.2-1.3
					V245.3z"/>
				<path class="st10" d="M280,236.5c-0.8,0-1.5,0.3-2,0.9c-0.6,0.7-0.9,1.9-0.9,3.6c0,1.7,0.3,2.9,0.8,3.5c0.5,0.7,1.2,1,2.1,1
					c0.8,0,1.5-0.3,2-0.9c0.6-0.7,0.9-1.9,0.9-3.6c0-1.7-0.3-2.9-0.9-3.6C281.5,236.8,280.8,236.5,280,236.5z M280.9,243.2
					c-0.1,0.3-0.2,0.6-0.4,0.7c-0.2,0.1-0.3,0.2-0.5,0.2s-0.4-0.1-0.5-0.2c-0.2-0.1-0.3-0.4-0.4-0.8c-0.1-0.4-0.2-1.1-0.2-2.1
					c0-1,0.1-1.8,0.2-2.2c0.1-0.3,0.2-0.6,0.4-0.7c0.2-0.1,0.3-0.2,0.5-0.2s0.4,0.1,0.5,0.2c0.2,0.1,0.3,0.4,0.4,0.8
					c0.1,0.4,0.2,1.1,0.2,2.1C281.1,242,281,242.8,280.9,243.2z"/>
				<path class="st10" d="M291.2,245.3h1.7v-8.8h-1.4c-0.2,0.5-0.5,1-1.1,1.4s-1,0.7-1.4,0.8v1.5c0.8-0.3,1.6-0.7,2.2-1.3V245.3z"/>
				<path class="st10" d="M302.1,245.3h1.7v-8.8h-1.4c-0.2,0.5-0.5,1-1.1,1.4s-1,0.7-1.4,0.8v1.5c0.8-0.3,1.6-0.7,2.2-1.3V245.3z"/>
				<path class="st10" d="M313.1,245.3h1.7v-8.8h-1.4c-0.2,0.5-0.5,1-1.1,1.4c-0.5,0.4-1,0.7-1.4,0.8v1.5c0.8-0.3,1.6-0.7,2.2-1.3
					V245.3z"/>
				<path class="st10" d="M324.1,245.3h1.7v-8.8h-1.4c-0.2,0.5-0.5,1-1.1,1.4s-1,0.7-1.4,0.8v1.5c0.8-0.3,1.6-0.7,2.2-1.3V245.3z"/>
				<path class="st10" d="M335,245.3h1.7v-8.8h-1.4c-0.2,0.5-0.5,1-1.1,1.4c-0.5,0.4-1,0.7-1.4,0.8v1.5c0.8-0.3,1.6-0.7,2.2-1.3
					V245.3z"/>
				<path class="st10" d="M346,245.3h1.7v-8.8h-1.4c-0.2,0.5-0.5,1-1.1,1.4c-0.5,0.4-1,0.7-1.4,0.8v1.5c0.8-0.3,1.6-0.7,2.2-1.3
					V245.3z"/>
				<path class="st10" d="M214.4,256.3h1.7v-8.8h-1.4c-0.2,0.5-0.5,1-1.1,1.4s-1,0.7-1.4,0.8v1.5c0.8-0.3,1.6-0.7,2.2-1.3V256.3z"/>
				<path class="st10" d="M225.2,247.5c-0.8,0-1.5,0.3-2,0.9c-0.6,0.7-0.9,1.9-0.9,3.6c0,1.7,0.3,2.9,0.8,3.5c0.5,0.7,1.2,1,2.1,1
					c0.8,0,1.5-0.3,2-0.9c0.6-0.7,0.9-1.9,0.9-3.6c0-1.7-0.3-2.9-0.9-3.6C226.7,247.8,226,247.5,225.2,247.5z M226.1,254.2
					c-0.1,0.3-0.2,0.6-0.4,0.7c-0.2,0.1-0.3,0.2-0.5,0.2c-0.2,0-0.4-0.1-0.5-0.2c-0.2-0.1-0.3-0.4-0.4-0.8c-0.1-0.4-0.2-1.1-0.2-2.1
					c0-1,0.1-1.8,0.2-2.2c0.1-0.3,0.2-0.6,0.4-0.7c0.2-0.1,0.3-0.2,0.5-0.2c0.2,0,0.4,0.1,0.5,0.2c0.2,0.1,0.3,0.4,0.4,0.8
					s0.2,1.1,0.2,2.1C226.2,253,226.2,253.7,226.1,254.2z"/>
				<path class="st10" d="M238,256.3v-8.8h-1.4c-0.2,0.5-0.5,1-1.1,1.4c-0.5,0.4-1,0.7-1.4,0.8v1.5c0.8-0.3,1.6-0.7,2.2-1.3v6.3H238
					z"/>
				<path class="st10" d="M247.1,247.5c-0.8,0-1.5,0.3-2,0.9c-0.6,0.7-0.9,1.9-0.9,3.6c0,1.7,0.3,2.9,0.8,3.5c0.5,0.7,1.2,1,2.1,1
					c0.8,0,1.5-0.3,2-0.9c0.6-0.7,0.9-1.9,0.9-3.6c0-1.7-0.3-2.9-0.9-3.6C248.6,247.8,247.9,247.5,247.1,247.5z M248,254.2
					c-0.1,0.3-0.2,0.6-0.4,0.7c-0.2,0.1-0.3,0.2-0.5,0.2s-0.4-0.1-0.5-0.2c-0.2-0.1-0.3-0.4-0.4-0.8S246,253,246,252
					c0-1,0.1-1.8,0.2-2.2c0.1-0.3,0.2-0.6,0.4-0.7c0.2-0.1,0.3-0.2,0.5-0.2s0.4,0.1,0.5,0.2c0.2,0.1,0.3,0.4,0.4,0.8
					s0.2,1.1,0.2,2.1C248.2,253,248.1,253.7,248,254.2z"/>
				<path class="st10" d="M258.3,256.3h1.7v-8.8h-1.4c-0.2,0.5-0.5,1-1.1,1.4s-1,0.7-1.4,0.8v1.5c0.8-0.3,1.6-0.7,2.2-1.3V256.3z"/>
				<path class="st10" d="M269,247.5c-0.8,0-1.5,0.3-2,0.9c-0.6,0.7-0.9,1.9-0.9,3.6c0,1.7,0.3,2.9,0.8,3.5c0.5,0.7,1.2,1,2.1,1
					c0.8,0,1.5-0.3,2-0.9c0.6-0.7,0.9-1.9,0.9-3.6c0-1.7-0.3-2.9-0.9-3.6C270.5,247.8,269.9,247.5,269,247.5z M269.9,254.2
					c-0.1,0.3-0.2,0.6-0.4,0.7c-0.2,0.1-0.3,0.2-0.5,0.2s-0.4-0.1-0.5-0.2c-0.2-0.1-0.3-0.4-0.4-0.8s-0.2-1.1-0.2-2.1
					c0-1,0.1-1.8,0.2-2.2c0.1-0.3,0.2-0.6,0.4-0.7c0.2-0.1,0.3-0.2,0.5-0.2s0.4,0.1,0.5,0.2c0.2,0.1,0.3,0.4,0.4,0.8
					s0.2,1.1,0.2,2.1C270.1,253,270,253.7,269.9,254.2z"/>
				<path class="st10" d="M281.9,256.3v-8.8h-1.4c-0.2,0.5-0.5,1-1.1,1.4c-0.5,0.4-1,0.7-1.4,0.8v1.5c0.8-0.3,1.6-0.7,2.2-1.3v6.3
					H281.9z"/>
				<path class="st10" d="M291.2,256.3h1.7v-8.8h-1.4c-0.2,0.5-0.5,1-1.1,1.4s-1,0.7-1.4,0.8v1.5c0.8-0.3,1.6-0.7,2.2-1.3V256.3z"/>
				<path class="st10" d="M302.1,256.3h1.7v-8.8h-1.4c-0.2,0.5-0.5,1-1.1,1.4s-1,0.7-1.4,0.8v1.5c0.8-0.3,1.6-0.7,2.2-1.3V256.3z"/>
				<path class="st10" d="M313.1,256.3h1.7v-8.8h-1.4c-0.2,0.5-0.5,1-1.1,1.4c-0.5,0.4-1,0.7-1.4,0.8v1.5c0.8-0.3,1.6-0.7,2.2-1.3
					V256.3z"/>
				<path class="st10" d="M324.1,256.3h1.7v-8.8h-1.4c-0.2,0.5-0.5,1-1.1,1.4s-1,0.7-1.4,0.8v1.5c0.8-0.3,1.6-0.7,2.2-1.3V256.3z"/>
				<path class="st10" d="M334.8,247.5c-0.8,0-1.5,0.3-2,0.9c-0.6,0.7-0.9,1.9-0.9,3.6c0,1.7,0.3,2.9,0.8,3.5c0.5,0.7,1.2,1,2.1,1
					c0.8,0,1.5-0.3,2-0.9c0.6-0.7,0.9-1.9,0.9-3.6c0-1.7-0.3-2.9-0.9-3.6C336.3,247.8,335.6,247.5,334.8,247.5z M335.7,254.2
					c-0.1,0.3-0.2,0.6-0.4,0.7c-0.2,0.1-0.3,0.2-0.5,0.2s-0.4-0.1-0.5-0.2c-0.2-0.1-0.3-0.4-0.4-0.8s-0.2-1.1-0.2-2.1
					c0-1,0.1-1.8,0.2-2.2c0.1-0.3,0.2-0.6,0.4-0.7c0.2-0.1,0.3-0.2,0.5-0.2s0.4,0.1,0.5,0.2c0.2,0.1,0.3,0.4,0.4,0.8
					s0.2,1.1,0.2,2.1C335.9,253,335.8,253.7,335.7,254.2z"/>
				<path class="st10" d="M346,256.3h1.7v-8.8h-1.4c-0.2,0.5-0.5,1-1.1,1.4c-0.5,0.4-1,0.7-1.4,0.8v1.5c0.8-0.3,1.6-0.7,2.2-1.3
					V256.3z"/>
				<path class="st10" d="M214.2,258.5c-0.8,0-1.5,0.3-2,0.9c-0.6,0.7-0.9,1.9-0.9,3.6c0,1.7,0.3,2.9,0.8,3.5c0.5,0.7,1.2,1,2.1,1
					c0.8,0,1.5-0.3,2-0.9c0.6-0.7,0.9-1.9,0.9-3.6c0-1.7-0.3-2.9-0.9-3.6C215.7,258.8,215,258.5,214.2,258.5z M215.1,265.1
					c-0.1,0.3-0.2,0.6-0.4,0.7c-0.2,0.1-0.3,0.2-0.5,0.2c-0.2,0-0.4-0.1-0.5-0.2c-0.2-0.1-0.3-0.4-0.4-0.8c-0.1-0.4-0.2-1.1-0.2-2.1
					c0-1,0.1-1.8,0.2-2.2c0.1-0.3,0.2-0.6,0.4-0.7c0.2-0.1,0.3-0.2,0.5-0.2c0.2,0,0.4,0.1,0.5,0.2c0.2,0.1,0.3,0.4,0.4,0.8
					c0.1,0.4,0.2,1.1,0.2,2.1C215.3,264,215.2,264.7,215.1,265.1z"/>
				<path class="st10" d="M227.1,267.3v-8.8h-1.4c-0.2,0.5-0.5,1-1.1,1.4c-0.5,0.4-1,0.7-1.4,0.8v1.5c0.8-0.3,1.6-0.7,2.2-1.3v6.3
					H227.1z"/>
				<path class="st10" d="M234.2,262.2c0.8-0.3,1.6-0.7,2.2-1.3v6.3h1.7v-8.8h-1.4c-0.2,0.5-0.5,1-1.1,1.4c-0.5,0.4-1,0.7-1.4,0.8
					V262.2z"/>
				<path class="st10" d="M247.1,258.5c-0.8,0-1.5,0.3-2,0.9c-0.6,0.7-0.9,1.9-0.9,3.6c0,1.7,0.3,2.9,0.8,3.5c0.5,0.7,1.2,1,2.1,1
					c0.8,0,1.5-0.3,2-0.9c0.6-0.7,0.9-1.9,0.9-3.6c0-1.7-0.3-2.9-0.9-3.6C248.6,258.8,247.9,258.5,247.1,258.5z M248,265.1
					c-0.1,0.3-0.2,0.6-0.4,0.7c-0.2,0.1-0.3,0.2-0.5,0.2s-0.4-0.1-0.5-0.2c-0.2-0.1-0.3-0.4-0.4-0.8c-0.1-0.4-0.2-1.1-0.2-2.1
					c0-1,0.1-1.8,0.2-2.2c0.1-0.3,0.2-0.6,0.4-0.7c0.2-0.1,0.3-0.2,0.5-0.2s0.4,0.1,0.5,0.2c0.2,0.1,0.3,0.4,0.4,0.8
					c0.1,0.4,0.2,1.1,0.2,2.1C248.2,264,248.1,264.7,248,265.1z"/>
				<path class="st10" d="M258.3,267.3h1.7v-8.8h-1.4c-0.2,0.5-0.5,1-1.1,1.4c-0.5,0.4-1,0.7-1.4,0.8v1.5c0.8-0.3,1.6-0.7,2.2-1.3
					V267.3z"/>
				<path class="st10" d="M269,258.5c-0.8,0-1.5,0.3-2,0.9c-0.6,0.7-0.9,1.9-0.9,3.6c0,1.7,0.3,2.9,0.8,3.5c0.5,0.7,1.2,1,2.1,1
					c0.8,0,1.5-0.3,2-0.9c0.6-0.7,0.9-1.9,0.9-3.6c0-1.7-0.3-2.9-0.9-3.6C270.5,258.8,269.9,258.5,269,258.5z M269.9,265.1
					c-0.1,0.3-0.2,0.6-0.4,0.7c-0.2,0.1-0.3,0.2-0.5,0.2s-0.4-0.1-0.5-0.2c-0.2-0.1-0.3-0.4-0.4-0.8c-0.1-0.4-0.2-1.1-0.2-2.1
					c0-1,0.1-1.8,0.2-2.2c0.1-0.3,0.2-0.6,0.4-0.7c0.2-0.1,0.3-0.2,0.5-0.2s0.4,0.1,0.5,0.2c0.2,0.1,0.3,0.4,0.4,0.8
					c0.1,0.4,0.2,1.1,0.2,2.1C270.1,264,270,264.7,269.9,265.1z"/>
				<path class="st10" d="M278,262.2c0.8-0.3,1.6-0.7,2.2-1.3v6.3h1.7v-8.8h-1.4c-0.2,0.5-0.5,1-1.1,1.4c-0.5,0.4-1,0.7-1.4,0.8
					V262.2z"/>
				<path class="st10" d="M290.9,258.5c-0.8,0-1.5,0.3-2,0.9c-0.6,0.7-0.9,1.9-0.9,3.6c0,1.7,0.3,2.9,0.8,3.5c0.5,0.7,1.2,1,2.1,1
					c0.8,0,1.5-0.3,2-0.9c0.6-0.7,0.9-1.9,0.9-3.6c0-1.7-0.3-2.9-0.9-3.6C292.4,258.8,291.8,258.5,290.9,258.5z M291.8,265.1
					c-0.1,0.3-0.2,0.6-0.4,0.7c-0.2,0.1-0.3,0.2-0.5,0.2s-0.4-0.1-0.5-0.2c-0.2-0.1-0.3-0.4-0.4-0.8c-0.1-0.4-0.2-1.1-0.2-2.1
					c0-1,0.1-1.8,0.2-2.2c0.1-0.3,0.2-0.6,0.4-0.7c0.2-0.1,0.3-0.2,0.5-0.2s0.4,0.1,0.5,0.2c0.2,0.1,0.3,0.4,0.4,0.8
					c0.1,0.4,0.2,1.1,0.2,2.1C292,264,292,264.7,291.8,265.1z"/>
				<path class="st10" d="M302.1,267.3h1.7v-8.8h-1.4c-0.2,0.5-0.5,1-1.1,1.4c-0.5,0.4-1,0.7-1.4,0.8v1.5c0.8-0.3,1.6-0.7,2.2-1.3
					V267.3z"/>
				<path class="st10" d="M312.9,258.5c-0.8,0-1.5,0.3-2,0.9c-0.6,0.7-0.9,1.9-0.9,3.6c0,1.7,0.3,2.9,0.8,3.5c0.5,0.7,1.2,1,2.1,1
					c0.8,0,1.5-0.3,2-0.9c0.6-0.7,0.9-1.9,0.9-3.6c0-1.7-0.3-2.9-0.9-3.6C314.4,258.8,313.7,258.5,312.9,258.5z M313.8,265.1
					c-0.1,0.3-0.2,0.6-0.4,0.7c-0.2,0.1-0.3,0.2-0.5,0.2s-0.4-0.1-0.5-0.2c-0.2-0.1-0.3-0.4-0.4-0.8c-0.1-0.4-0.2-1.1-0.2-2.1
					c0-1,0.1-1.8,0.2-2.2c0.1-0.3,0.2-0.6,0.4-0.7c0.2-0.1,0.3-0.2,0.5-0.2s0.4,0.1,0.5,0.2c0.2,0.1,0.3,0.4,0.4,0.8
					c0.1,0.4,0.2,1.1,0.2,2.1C313.9,264,313.9,264.7,313.8,265.1z"/>
				<path class="st10" d="M324.1,267.3h1.7v-8.8h-1.4c-0.2,0.5-0.5,1-1.1,1.4c-0.5,0.4-1,0.7-1.4,0.8v1.5c0.8-0.3,1.6-0.7,2.2-1.3
					V267.3z"/>
				<path class="st10" d="M334.8,258.5c-0.8,0-1.5,0.3-2,0.9c-0.6,0.7-0.9,1.9-0.9,3.6c0,1.7,0.3,2.9,0.8,3.5c0.5,0.7,1.2,1,2.1,1
					c0.8,0,1.5-0.3,2-0.9c0.6-0.7,0.9-1.9,0.9-3.6c0-1.7-0.3-2.9-0.9-3.6C336.3,258.8,335.6,258.5,334.8,258.5z M335.7,265.1
					c-0.1,0.3-0.2,0.6-0.4,0.7c-0.2,0.1-0.3,0.2-0.5,0.2s-0.4-0.1-0.5-0.2c-0.2-0.1-0.3-0.4-0.4-0.8c-0.1-0.4-0.2-1.1-0.2-2.1
					c0-1,0.1-1.8,0.2-2.2c0.1-0.3,0.2-0.6,0.4-0.7c0.2-0.1,0.3-0.2,0.5-0.2s0.4,0.1,0.5,0.2c0.2,0.1,0.3,0.4,0.4,0.8
					c0.1,0.4,0.2,1.1,0.2,2.1C335.9,264,335.8,264.7,335.7,265.1z"/>
				<path class="st10" d="M345.7,267.4c0.8,0,1.5-0.3,2-0.9c0.6-0.7,0.9-1.9,0.9-3.6c0-1.7-0.3-2.9-0.9-3.6c-0.5-0.6-1.1-0.9-2-0.9
					c-0.8,0-1.5,0.3-2,0.9c-0.6,0.7-0.9,1.9-0.9,3.6c0,1.7,0.3,2.9,0.8,3.5C344.2,267.1,344.9,267.4,345.7,267.4z M344.8,260.7
					c0.1-0.3,0.2-0.6,0.4-0.7c0.2-0.1,0.3-0.2,0.5-0.2s0.4,0.1,0.5,0.2c0.2,0.1,0.3,0.4,0.4,0.8c0.1,0.4,0.2,1.1,0.2,2.1
					c0,1-0.1,1.8-0.2,2.2c-0.1,0.3-0.2,0.6-0.4,0.7c-0.2,0.1-0.3,0.2-0.5,0.2s-0.4-0.1-0.5-0.2c-0.2-0.1-0.3-0.4-0.4-0.8
					c-0.1-0.4-0.2-1.1-0.2-2.1C344.7,261.9,344.7,261.2,344.8,260.7z"/>
				<path class="st10" d="M216.1,278.2v-8.8h-1.4c-0.2,0.5-0.5,1-1.1,1.4c-0.5,0.4-1,0.7-1.4,0.8v1.5c0.8-0.3,1.6-0.7,2.2-1.3v6.3
					H216.1z"/>
				<path class="st10" d="M223.2,273.2c0.8-0.3,1.6-0.7,2.2-1.3v6.3h1.7v-8.8h-1.4c-0.2,0.5-0.5,1-1.1,1.4c-0.5,0.4-1,0.7-1.4,0.8
					V273.2z"/>
				<path class="st10" d="M234.2,273.2c0.8-0.3,1.6-0.7,2.2-1.3v6.3h1.7v-8.8h-1.4c-0.2,0.5-0.5,1-1.1,1.4c-0.5,0.4-1,0.7-1.4,0.8
					V273.2z"/>
				<path class="st10" d="M249,278.2v-8.8h-1.4c-0.2,0.5-0.5,1-1.1,1.4c-0.5,0.4-1,0.7-1.4,0.8v1.5c0.8-0.3,1.6-0.7,2.2-1.3v6.3H249
					z"/>
				<path class="st10" d="M258,269.4c-0.8,0-1.5,0.3-2,0.9c-0.6,0.7-0.9,1.9-0.9,3.6c0,1.7,0.3,2.9,0.8,3.5c0.5,0.7,1.2,1,2.1,1
					c0.8,0,1.5-0.3,2-0.9c0.6-0.7,0.9-1.9,0.9-3.6c0-1.7-0.3-2.9-0.9-3.6C259.6,269.7,258.9,269.4,258,269.4z M259,276.1
					c-0.1,0.3-0.2,0.6-0.4,0.7c-0.2,0.1-0.3,0.2-0.5,0.2s-0.4-0.1-0.5-0.2c-0.2-0.1-0.3-0.4-0.4-0.8c-0.1-0.4-0.2-1.1-0.2-2.1
					c0-1,0.1-1.8,0.2-2.2c0.1-0.3,0.2-0.6,0.4-0.7c0.2-0.1,0.3-0.2,0.5-0.2s0.4,0.1,0.5,0.2s0.3,0.4,0.4,0.8
					c0.1,0.4,0.2,1.1,0.2,2.1C259.1,274.9,259.1,275.7,259,276.1z"/>
				<path class="st10" d="M268.5,270.8c-0.5,0.4-1,0.7-1.4,0.8v1.5c0.8-0.3,1.6-0.7,2.2-1.3v6.3h1.7v-8.8h-1.4
					C269.4,270,269,270.4,268.5,270.8z"/>
				<path class="st10" d="M280,269.4c-0.8,0-1.5,0.3-2,0.9c-0.6,0.7-0.9,1.9-0.9,3.6c0,1.7,0.3,2.9,0.8,3.5c0.5,0.7,1.2,1,2.1,1
					c0.8,0,1.5-0.3,2-0.9c0.6-0.7,0.9-1.9,0.9-3.6c0-1.7-0.3-2.9-0.9-3.6C281.5,269.7,280.8,269.4,280,269.4z M280.9,276.1
					c-0.1,0.3-0.2,0.6-0.4,0.7c-0.2,0.1-0.3,0.2-0.5,0.2s-0.4-0.1-0.5-0.2c-0.2-0.1-0.3-0.4-0.4-0.8c-0.1-0.4-0.2-1.1-0.2-2.1
					c0-1,0.1-1.8,0.2-2.2c0.1-0.3,0.2-0.6,0.4-0.7c0.2-0.1,0.3-0.2,0.5-0.2s0.4,0.1,0.5,0.2c0.2,0.1,0.3,0.4,0.4,0.8
					c0.1,0.4,0.2,1.1,0.2,2.1C281.1,274.9,281,275.7,280.9,276.1z"/>
				<path class="st10" d="M292.9,278.2v-8.8h-1.4c-0.2,0.5-0.5,1-1.1,1.4c-0.5,0.4-1,0.7-1.4,0.8v1.5c0.8-0.3,1.6-0.7,2.2-1.3v6.3
					H292.9z"/>
				<path class="st10" d="M302.1,278.2h1.7v-8.8h-1.4c-0.2,0.5-0.5,1-1.1,1.4c-0.5,0.4-1,0.7-1.4,0.8v1.5c0.8-0.3,1.6-0.7,2.2-1.3
					V278.2z"/>
				<path class="st10" d="M314.8,278.2v-8.8h-1.4c-0.2,0.5-0.5,1-1.1,1.4c-0.5,0.4-1,0.7-1.4,0.8v1.5c0.8-0.3,1.6-0.7,2.2-1.3v6.3
					H314.8z"/>
				<path class="st10" d="M323.8,269.4c-0.8,0-1.5,0.3-2,0.9c-0.6,0.7-0.9,1.9-0.9,3.6c0,1.7,0.3,2.9,0.8,3.5c0.5,0.7,1.2,1,2.1,1
					c0.8,0,1.5-0.3,2-0.9c0.6-0.7,0.9-1.9,0.9-3.6c0-1.7-0.3-2.9-0.9-3.6C325.3,269.7,324.7,269.4,323.8,269.4z M324.7,276.1
					c-0.1,0.3-0.2,0.6-0.4,0.7c-0.2,0.1-0.3,0.2-0.5,0.2s-0.4-0.1-0.5-0.2c-0.2-0.1-0.3-0.4-0.4-0.8c-0.1-0.4-0.2-1.1-0.2-2.1
					c0-1,0.1-1.8,0.2-2.2c0.1-0.3,0.2-0.6,0.4-0.7c0.2-0.1,0.3-0.2,0.5-0.2s0.4,0.1,0.5,0.2c0.2,0.1,0.3,0.4,0.4,0.8
					c0.1,0.4,0.2,1.1,0.2,2.1C324.9,274.9,324.8,275.7,324.7,276.1z"/>
				<path class="st10" d="M336.7,278.2v-8.8h-1.4c-0.2,0.5-0.5,1-1.1,1.4c-0.5,0.4-1,0.7-1.4,0.8v1.5c0.8-0.3,1.6-0.7,2.2-1.3v6.3
					H336.7z"/>
				<path class="st10" d="M347.7,278.2v-8.8h-1.4c-0.2,0.5-0.5,1-1.1,1.4c-0.5,0.4-1,0.7-1.4,0.8v1.5c0.8-0.3,1.6-0.7,2.2-1.3v6.3
					H347.7z"/>
				<path class="st10" d="M212.3,284.1c0.8-0.3,1.6-0.7,2.2-1.3v6.3h1.7v-8.8h-1.4c-0.2,0.5-0.5,1-1.1,1.4s-1,0.7-1.4,0.8V284.1z"/>
				<path class="st10" d="M225.2,280.4c-0.8,0-1.5,0.3-2,0.9c-0.6,0.7-0.9,1.9-0.9,3.6c0,1.7,0.3,2.9,0.8,3.5c0.5,0.7,1.2,1,2.1,1
					c0.8,0,1.5-0.3,2-0.9c0.6-0.7,0.9-1.9,0.9-3.6c0-1.7-0.3-2.9-0.9-3.6C226.7,280.7,226,280.4,225.2,280.4z M226.1,287.1
					c-0.1,0.3-0.2,0.6-0.4,0.7c-0.2,0.1-0.3,0.2-0.5,0.2c-0.2,0-0.4-0.1-0.5-0.2s-0.3-0.4-0.4-0.8c-0.1-0.4-0.2-1.1-0.2-2.1
					c0-1,0.1-1.8,0.2-2.2c0.1-0.3,0.2-0.6,0.4-0.7c0.2-0.1,0.3-0.2,0.5-0.2c0.2,0,0.4,0.1,0.5,0.2c0.2,0.1,0.3,0.4,0.4,0.8
					c0.1,0.4,0.2,1.1,0.2,2.1C226.2,285.9,226.2,286.6,226.1,287.1z"/>
				<path class="st10" d="M236.1,280.4c-0.8,0-1.5,0.3-2,0.9c-0.6,0.7-0.9,1.9-0.9,3.6c0,1.7,0.3,2.9,0.8,3.5c0.5,0.7,1.2,1,2.1,1
					c0.8,0,1.5-0.3,2-0.9c0.6-0.7,0.9-1.9,0.9-3.6c0-1.7-0.3-2.9-0.9-3.6C237.6,280.7,237,280.4,236.1,280.4z M237,287.1
					c-0.1,0.3-0.2,0.6-0.4,0.7c-0.2,0.1-0.3,0.2-0.5,0.2s-0.4-0.1-0.5-0.2c-0.2-0.1-0.3-0.4-0.4-0.8c-0.1-0.4-0.2-1.1-0.2-2.1
					c0-1,0.1-1.8,0.2-2.2c0.1-0.3,0.2-0.6,0.4-0.7c0.2-0.1,0.3-0.2,0.5-0.2s0.4,0.1,0.5,0.2c0.2,0.1,0.3,0.4,0.4,0.8
					c0.1,0.4,0.2,1.1,0.2,2.1C237.2,285.9,237.1,286.6,237,287.1z"/>
				<path class="st10" d="M245.2,284.1c0.8-0.3,1.6-0.7,2.2-1.3v6.3h1.7v-8.8h-1.4c-0.2,0.5-0.5,1-1.1,1.4c-0.5,0.4-1,0.7-1.4,0.8
					V284.1z"/>
				<path class="st10" d="M258,280.4c-0.8,0-1.5,0.3-2,0.9c-0.6,0.7-0.9,1.9-0.9,3.6c0,1.7,0.3,2.9,0.8,3.5c0.5,0.7,1.2,1,2.1,1
					c0.8,0,1.5-0.3,2-0.9c0.6-0.7,0.9-1.9,0.9-3.6c0-1.7-0.3-2.9-0.9-3.6C259.6,280.7,258.9,280.4,258,280.4z M259,287.1
					c-0.1,0.3-0.2,0.6-0.4,0.7c-0.2,0.1-0.3,0.2-0.5,0.2s-0.4-0.1-0.5-0.2s-0.3-0.4-0.4-0.8c-0.1-0.4-0.2-1.1-0.2-2.1
					c0-1,0.1-1.8,0.2-2.2c0.1-0.3,0.2-0.6,0.4-0.7c0.2-0.1,0.3-0.2,0.5-0.2s0.4,0.1,0.5,0.2c0.2,0.1,0.3,0.4,0.4,0.8
					c0.1,0.4,0.2,1.1,0.2,2.1C259.1,285.9,259.1,286.6,259,287.1z"/>
				<path class="st10" d="M268.5,281.8c-0.5,0.4-1,0.7-1.4,0.8v1.5c0.8-0.3,1.6-0.7,2.2-1.3v6.3h1.7v-8.8h-1.4
					C269.4,280.9,269,281.4,268.5,281.8z"/>
				<path class="st10" d="M279.5,281.8c-0.5,0.4-1,0.7-1.4,0.8v1.5c0.8-0.3,1.6-0.7,2.2-1.3v6.3h1.7v-8.8h-1.4
					C280.3,280.9,280,281.4,279.5,281.8z"/>
				<path class="st10" d="M290.9,280.4c-0.8,0-1.5,0.3-2,0.9c-0.6,0.7-0.9,1.9-0.9,3.6c0,1.7,0.3,2.9,0.8,3.5c0.5,0.7,1.2,1,2.1,1
					c0.8,0,1.5-0.3,2-0.9c0.6-0.7,0.9-1.9,0.9-3.6c0-1.7-0.3-2.9-0.9-3.6C292.4,280.7,291.8,280.4,290.9,280.4z M291.8,287.1
					c-0.1,0.3-0.2,0.6-0.4,0.7c-0.2,0.1-0.3,0.2-0.5,0.2s-0.4-0.1-0.5-0.2s-0.3-0.4-0.4-0.8c-0.1-0.4-0.2-1.1-0.2-2.1
					c0-1,0.1-1.8,0.2-2.2c0.1-0.3,0.2-0.6,0.4-0.7c0.2-0.1,0.3-0.2,0.5-0.2s0.4,0.1,0.5,0.2c0.2,0.1,0.3,0.4,0.4,0.8
					c0.1,0.4,0.2,1.1,0.2,2.1C292,285.9,292,286.6,291.8,287.1z"/>
				<path class="st10" d="M301.9,280.4c-0.8,0-1.5,0.3-2,0.9c-0.6,0.7-0.9,1.9-0.9,3.6c0,1.7,0.3,2.9,0.8,3.5c0.5,0.7,1.2,1,2.1,1
					c0.8,0,1.5-0.3,2-0.9c0.6-0.7,0.9-1.9,0.9-3.6c0-1.7-0.3-2.9-0.9-3.6C303.4,280.7,302.7,280.4,301.9,280.4z M302.8,287.1
					c-0.1,0.3-0.2,0.6-0.4,0.7c-0.2,0.1-0.3,0.2-0.5,0.2c-0.2,0-0.4-0.1-0.5-0.2c-0.2-0.1-0.3-0.4-0.4-0.8c-0.1-0.4-0.2-1.1-0.2-2.1
					c0-1,0.1-1.8,0.2-2.2c0.1-0.3,0.2-0.6,0.4-0.7c0.2-0.1,0.3-0.2,0.5-0.2c0.2,0,0.4,0.1,0.5,0.2c0.2,0.1,0.3,0.4,0.4,0.8
					c0.1,0.4,0.2,1.1,0.2,2.1C303,285.9,302.9,286.6,302.8,287.1z"/>
				<path class="st10" d="M312.9,280.4c-0.8,0-1.5,0.3-2,0.9c-0.6,0.7-0.9,1.9-0.9,3.6c0,1.7,0.3,2.9,0.8,3.5c0.5,0.7,1.2,1,2.1,1
					c0.8,0,1.5-0.3,2-0.9c0.6-0.7,0.9-1.9,0.9-3.6c0-1.7-0.3-2.9-0.9-3.6C314.4,280.7,313.7,280.4,312.9,280.4z M313.8,287.1
					c-0.1,0.3-0.2,0.6-0.4,0.7c-0.2,0.1-0.3,0.2-0.5,0.2s-0.4-0.1-0.5-0.2c-0.2-0.1-0.3-0.4-0.4-0.8c-0.1-0.4-0.2-1.1-0.2-2.1
					c0-1,0.1-1.8,0.2-2.2c0.1-0.3,0.2-0.6,0.4-0.7c0.2-0.1,0.3-0.2,0.5-0.2s0.4,0.1,0.5,0.2c0.2,0.1,0.3,0.4,0.4,0.8
					c0.1,0.4,0.2,1.1,0.2,2.1C313.9,285.9,313.9,286.6,313.8,287.1z"/>
				<path class="st10" d="M325.7,289.2v-8.8h-1.4c-0.2,0.5-0.5,1-1.1,1.4s-1,0.7-1.4,0.8v1.5c0.8-0.3,1.6-0.7,2.2-1.3v6.3H325.7z"/>
				<path class="st10" d="M332.9,284.1c0.8-0.3,1.6-0.7,2.2-1.3v6.3h1.7v-8.8h-1.4c-0.2,0.5-0.5,1-1.1,1.4c-0.5,0.4-1,0.7-1.4,0.8
					V284.1z"/>
				<path class="st10" d="M345.7,280.4c-0.8,0-1.5,0.3-2,0.9c-0.6,0.7-0.9,1.9-0.9,3.6c0,1.7,0.3,2.9,0.8,3.5c0.5,0.7,1.2,1,2.1,1
					c0.8,0,1.5-0.3,2-0.9c0.6-0.7,0.9-1.9,0.9-3.6c0-1.7-0.3-2.9-0.9-3.6C347.3,280.7,346.6,280.4,345.7,280.4z M346.7,287.1
					c-0.1,0.3-0.2,0.6-0.4,0.7c-0.2,0.1-0.3,0.2-0.5,0.2s-0.4-0.1-0.5-0.2c-0.2-0.1-0.3-0.4-0.4-0.8c-0.1-0.4-0.2-1.1-0.2-2.1
					c0-1,0.1-1.8,0.2-2.2c0.1-0.3,0.2-0.6,0.4-0.7c0.2-0.1,0.3-0.2,0.5-0.2s0.4,0.1,0.5,0.2c0.2,0.1,0.3,0.4,0.4,0.8
					c0.1,0.4,0.2,1.1,0.2,2.1C346.8,285.9,346.8,286.6,346.7,287.1z"/>
				<path class="st10" d="M214.2,291.3c-0.8,0-1.5,0.3-2,0.9c-0.6,0.7-0.9,1.9-0.9,3.6c0,1.7,0.3,2.9,0.8,3.5c0.5,0.7,1.2,1,2.1,1
					c0.8,0,1.5-0.3,2-0.9c0.6-0.7,0.9-1.9,0.9-3.6c0-1.7-0.3-2.9-0.9-3.6C215.7,291.6,215,291.3,214.2,291.3z M215.1,298
					c-0.1,0.3-0.2,0.6-0.4,0.7c-0.2,0.1-0.3,0.2-0.5,0.2c-0.2,0-0.4-0.1-0.5-0.2c-0.2-0.1-0.3-0.4-0.4-0.8c-0.1-0.4-0.2-1.1-0.2-2.1
					c0-1,0.1-1.8,0.2-2.2c0.1-0.3,0.2-0.6,0.4-0.7c0.2-0.1,0.3-0.2,0.5-0.2c0.2,0,0.4,0.1,0.5,0.2c0.2,0.1,0.3,0.4,0.4,0.8
					c0.1,0.4,0.2,1.1,0.2,2.1C215.3,296.9,215.2,297.6,215.1,298z"/>
				<path class="st10" d="M225.2,291.3c-0.8,0-1.5,0.3-2,0.9c-0.6,0.7-0.9,1.9-0.9,3.6c0,1.7,0.3,2.9,0.8,3.5c0.5,0.7,1.2,1,2.1,1
					c0.8,0,1.5-0.3,2-0.9c0.6-0.7,0.9-1.9,0.9-3.6c0-1.7-0.3-2.9-0.9-3.6C226.7,291.6,226,291.3,225.2,291.3z M226.1,298
					c-0.1,0.3-0.2,0.6-0.4,0.7c-0.2,0.1-0.3,0.2-0.5,0.2c-0.2,0-0.4-0.1-0.5-0.2c-0.2-0.1-0.3-0.4-0.4-0.8c-0.1-0.4-0.2-1.1-0.2-2.1
					c0-1,0.1-1.8,0.2-2.2c0.1-0.3,0.2-0.6,0.4-0.7c0.2-0.1,0.3-0.2,0.5-0.2c0.2,0,0.4,0.1,0.5,0.2c0.2,0.1,0.3,0.4,0.4,0.8
					c0.1,0.4,0.2,1.1,0.2,2.1C226.2,296.9,226.2,297.6,226.1,298z"/>
				<path class="st10" d="M238,300.1v-8.8h-1.4c-0.2,0.5-0.5,1-1.1,1.4c-0.5,0.4-1,0.7-1.4,0.8v1.5c0.8-0.3,1.6-0.7,2.2-1.3v6.3H238
					z"/>
				<path class="st10" d="M245.2,295.1c0.8-0.3,1.6-0.7,2.2-1.3v6.3h1.7v-8.8h-1.4c-0.2,0.5-0.5,1-1.1,1.4c-0.5,0.4-1,0.7-1.4,0.8
					V295.1z"/>
				<path class="st10" d="M258,291.3c-0.8,0-1.5,0.3-2,0.9c-0.6,0.7-0.9,1.9-0.9,3.6c0,1.7,0.3,2.9,0.8,3.5c0.5,0.7,1.2,1,2.1,1
					c0.8,0,1.5-0.3,2-0.9c0.6-0.7,0.9-1.9,0.9-3.6c0-1.7-0.3-2.9-0.9-3.6C259.6,291.6,258.9,291.3,258,291.3z M259,298
					c-0.1,0.3-0.2,0.6-0.4,0.7c-0.2,0.1-0.3,0.2-0.5,0.2s-0.4-0.1-0.5-0.2c-0.2-0.1-0.3-0.4-0.4-0.8c-0.1-0.4-0.2-1.1-0.2-2.1
					c0-1,0.1-1.8,0.2-2.2c0.1-0.3,0.2-0.6,0.4-0.7c0.2-0.1,0.3-0.2,0.5-0.2s0.4,0.1,0.5,0.2c0.2,0.1,0.3,0.4,0.4,0.8
					c0.1,0.4,0.2,1.1,0.2,2.1C259.1,296.9,259.1,297.6,259,298z"/>
				<path class="st10" d="M268.5,292.7c-0.5,0.4-1,0.7-1.4,0.8v1.5c0.8-0.3,1.6-0.7,2.2-1.3v6.3h1.7v-8.8h-1.4
					C269.4,291.9,269,292.3,268.5,292.7z"/>
				<path class="st10" d="M279.5,292.7c-0.5,0.4-1,0.7-1.4,0.8v1.5c0.8-0.3,1.6-0.7,2.2-1.3v6.3h1.7v-8.8h-1.4
					C280.3,291.9,280,292.3,279.5,292.7z"/>
				<path class="st10" d="M290.9,291.3c-0.8,0-1.5,0.3-2,0.9c-0.6,0.7-0.9,1.9-0.9,3.6c0,1.7,0.3,2.9,0.8,3.5c0.5,0.7,1.2,1,2.1,1
					c0.8,0,1.5-0.3,2-0.9c0.6-0.7,0.9-1.9,0.9-3.6c0-1.7-0.3-2.9-0.9-3.6C292.4,291.6,291.8,291.3,290.9,291.3z M291.8,298
					c-0.1,0.3-0.2,0.6-0.4,0.7c-0.2,0.1-0.3,0.2-0.5,0.2s-0.4-0.1-0.5-0.2c-0.2-0.1-0.3-0.4-0.4-0.8c-0.1-0.4-0.2-1.1-0.2-2.1
					c0-1,0.1-1.8,0.2-2.2c0.1-0.3,0.2-0.6,0.4-0.7c0.2-0.1,0.3-0.2,0.5-0.2s0.4,0.1,0.5,0.2c0.2,0.1,0.3,0.4,0.4,0.8
					c0.1,0.4,0.2,1.1,0.2,2.1C292,296.9,292,297.6,291.8,298z"/>
				<path class="st10" d="M301.9,291.3c-0.8,0-1.5,0.3-2,0.9c-0.6,0.7-0.9,1.9-0.9,3.6c0,1.7,0.3,2.9,0.8,3.5c0.5,0.7,1.2,1,2.1,1
					c0.8,0,1.5-0.3,2-0.9c0.6-0.7,0.9-1.9,0.9-3.6c0-1.7-0.3-2.9-0.9-3.6C303.4,291.6,302.7,291.3,301.9,291.3z M302.8,298
					c-0.1,0.3-0.2,0.6-0.4,0.7c-0.2,0.1-0.3,0.2-0.5,0.2c-0.2,0-0.4-0.1-0.5-0.2c-0.2-0.1-0.3-0.4-0.4-0.8c-0.1-0.4-0.2-1.1-0.2-2.1
					c0-1,0.1-1.8,0.2-2.2c0.1-0.3,0.2-0.6,0.4-0.7c0.2-0.1,0.3-0.2,0.5-0.2c0.2,0,0.4,0.1,0.5,0.2c0.2,0.1,0.3,0.4,0.4,0.8
					c0.1,0.4,0.2,1.1,0.2,2.1C303,296.9,302.9,297.6,302.8,298z"/>
				<path class="st10" d="M314.8,300.1v-8.8h-1.4c-0.2,0.5-0.5,1-1.1,1.4c-0.5,0.4-1,0.7-1.4,0.8v1.5c0.8-0.3,1.6-0.7,2.2-1.3v6.3
					H314.8z"/>
				<path class="st10" d="M323.8,291.3c-0.8,0-1.5,0.3-2,0.9c-0.6,0.7-0.9,1.9-0.9,3.6c0,1.7,0.3,2.9,0.8,3.5c0.5,0.7,1.2,1,2.1,1
					c0.8,0,1.5-0.3,2-0.9c0.6-0.7,0.9-1.9,0.9-3.6c0-1.7-0.3-2.9-0.9-3.6C325.3,291.6,324.7,291.3,323.8,291.3z M324.7,298
					c-0.1,0.3-0.2,0.6-0.4,0.7c-0.2,0.1-0.3,0.2-0.5,0.2s-0.4-0.1-0.5-0.2c-0.2-0.1-0.3-0.4-0.4-0.8c-0.1-0.4-0.2-1.1-0.2-2.1
					c0-1,0.1-1.8,0.2-2.2c0.1-0.3,0.2-0.6,0.4-0.7c0.2-0.1,0.3-0.2,0.5-0.2s0.4,0.1,0.5,0.2c0.2,0.1,0.3,0.4,0.4,0.8
					c0.1,0.4,0.2,1.1,0.2,2.1C324.9,296.9,324.8,297.6,324.7,298z"/>
				<path class="st10" d="M332.9,295.1c0.8-0.3,1.6-0.7,2.2-1.3v6.3h1.7v-8.8h-1.4c-0.2,0.5-0.5,1-1.1,1.4c-0.5,0.4-1,0.7-1.4,0.8
					V295.1z"/>
				<path class="st10" d="M347.7,300.1v-8.8h-1.4c-0.2,0.5-0.5,1-1.1,1.4c-0.5,0.4-1,0.7-1.4,0.8v1.5c0.8-0.3,1.6-0.7,2.2-1.3v6.3
					H347.7z"/>
				<path class="st10" d="M213.7,303.7c-0.5,0.4-1,0.7-1.4,0.8v1.5c0.8-0.3,1.6-0.7,2.2-1.3v6.3h1.7v-8.8h-1.4
					C214.6,302.8,214.2,303.3,213.7,303.7z"/>
				<path class="st10" d="M225.2,302.3c-0.8,0-1.5,0.3-2,0.9c-0.6,0.7-0.9,1.9-0.9,3.6c0,1.7,0.3,2.9,0.8,3.5c0.5,0.7,1.2,1,2.1,1
					c0.8,0,1.5-0.3,2-0.9c0.6-0.7,0.9-1.9,0.9-3.6c0-1.7-0.3-2.9-0.9-3.6C226.7,302.6,226,302.3,225.2,302.3z M226.1,309
					c-0.1,0.3-0.2,0.6-0.4,0.7c-0.2,0.1-0.3,0.2-0.5,0.2c-0.2,0-0.4-0.1-0.5-0.2c-0.2-0.1-0.3-0.4-0.4-0.8c-0.1-0.4-0.2-1.1-0.2-2.1
					c0-1,0.1-1.8,0.2-2.2c0.1-0.3,0.2-0.6,0.4-0.7s0.3-0.2,0.5-0.2c0.2,0,0.4,0.1,0.5,0.2s0.3,0.4,0.4,0.8c0.1,0.4,0.2,1.1,0.2,2.1
					C226.2,307.8,226.2,308.5,226.1,309z"/>
				<path class="st10" d="M234.2,306.1c0.8-0.3,1.6-0.7,2.2-1.3v6.3h1.7v-8.8h-1.4c-0.2,0.5-0.5,1-1.1,1.4c-0.5,0.4-1,0.7-1.4,0.8
					V306.1z"/>
				<path class="st10" d="M247.1,302.3c-0.8,0-1.5,0.3-2,0.9c-0.6,0.7-0.9,1.9-0.9,3.6c0,1.7,0.3,2.9,0.8,3.5c0.5,0.7,1.2,1,2.1,1
					c0.8,0,1.5-0.3,2-0.9c0.6-0.7,0.9-1.9,0.9-3.6c0-1.7-0.3-2.9-0.9-3.6C248.6,302.6,247.9,302.3,247.1,302.3z M248,309
					c-0.1,0.3-0.2,0.6-0.4,0.7c-0.2,0.1-0.3,0.2-0.5,0.2s-0.4-0.1-0.5-0.2c-0.2-0.1-0.3-0.4-0.4-0.8c-0.1-0.4-0.2-1.1-0.2-2.1
					c0-1,0.1-1.8,0.2-2.2c0.1-0.3,0.2-0.6,0.4-0.7c0.2-0.1,0.3-0.2,0.5-0.2s0.4,0.1,0.5,0.2c0.2,0.1,0.3,0.4,0.4,0.8
					c0.1,0.4,0.2,1.1,0.2,2.1C248.2,307.8,248.1,308.5,248,309z"/>
				<path class="st10" d="M260,311.1v-8.8h-1.4c-0.2,0.5-0.5,1-1.1,1.4c-0.5,0.4-1,0.7-1.4,0.8v1.5c0.8-0.3,1.6-0.7,2.2-1.3v6.3H260
					z"/>
				<path class="st10" d="M268.5,303.7c-0.5,0.4-1,0.7-1.4,0.8v1.5c0.8-0.3,1.6-0.7,2.2-1.3v6.3h1.7v-8.8h-1.4
					C269.4,302.8,269,303.3,268.5,303.7z"/>
				<path class="st10" d="M279.5,303.7c-0.5,0.4-1,0.7-1.4,0.8v1.5c0.8-0.3,1.6-0.7,2.2-1.3v6.3h1.7v-8.8h-1.4
					C280.3,302.8,280,303.3,279.5,303.7z"/>
				<path class="st10" d="M301.9,302.3c-0.8,0-1.5,0.3-2,0.9c-0.6,0.7-0.9,1.9-0.9,3.6c0,1.7,0.3,2.9,0.8,3.5c0.5,0.7,1.2,1,2.1,1
					c0.8,0,1.5-0.3,2-0.9c0.6-0.7,0.9-1.9,0.9-3.6c0-1.7-0.3-2.9-0.9-3.6C303.4,302.6,302.7,302.3,301.9,302.3z M302.8,309
					c-0.1,0.3-0.2,0.6-0.4,0.7c-0.2,0.1-0.3,0.2-0.5,0.2c-0.2,0-0.4-0.1-0.5-0.2c-0.2-0.1-0.3-0.4-0.4-0.8c-0.1-0.4-0.2-1.1-0.2-2.1
					c0-1,0.1-1.8,0.2-2.2c0.1-0.3,0.2-0.6,0.4-0.7c0.2-0.1,0.3-0.2,0.5-0.2c0.2,0,0.4,0.1,0.5,0.2c0.2,0.1,0.3,0.4,0.4,0.8
					c0.1,0.4,0.2,1.1,0.2,2.1C303,307.8,302.9,308.5,302.8,309z"/>
				<path class="st10" d="M312.9,302.3c-0.8,0-1.5,0.3-2,0.9c-0.6,0.7-0.9,1.9-0.9,3.6c0,1.7,0.3,2.9,0.8,3.5c0.5,0.7,1.2,1,2.1,1
					c0.8,0,1.5-0.3,2-0.9c0.6-0.7,0.9-1.9,0.9-3.6c0-1.7-0.3-2.9-0.9-3.6C314.4,302.6,313.7,302.3,312.9,302.3z M313.8,309
					c-0.1,0.3-0.2,0.6-0.4,0.7c-0.2,0.1-0.3,0.2-0.5,0.2s-0.4-0.1-0.5-0.2c-0.2-0.1-0.3-0.4-0.4-0.8c-0.1-0.4-0.2-1.1-0.2-2.1
					c0-1,0.1-1.8,0.2-2.2c0.1-0.3,0.2-0.6,0.4-0.7c0.2-0.1,0.3-0.2,0.5-0.2s0.4,0.1,0.5,0.2s0.3,0.4,0.4,0.8
					c0.1,0.4,0.2,1.1,0.2,2.1C313.9,307.8,313.9,308.5,313.8,309z"/>
				<path class="st10" d="M323.3,303.7c-0.5,0.4-1,0.7-1.4,0.8v1.5c0.8-0.3,1.6-0.7,2.2-1.3v6.3h1.7v-8.8h-1.4
					C324.2,302.8,323.8,303.3,323.3,303.7z"/>
				<path class="st10" d="M334.8,302.3c-0.8,0-1.5,0.3-2,0.9c-0.6,0.7-0.9,1.9-0.9,3.6c0,1.7,0.3,2.9,0.8,3.5c0.5,0.7,1.2,1,2.1,1
					c0.8,0,1.5-0.3,2-0.9c0.6-0.7,0.9-1.9,0.9-3.6c0-1.7-0.3-2.9-0.9-3.6C336.3,302.6,335.6,302.3,334.8,302.3z M335.7,309
					c-0.1,0.3-0.2,0.6-0.4,0.7c-0.2,0.1-0.3,0.2-0.5,0.2s-0.4-0.1-0.5-0.2c-0.2-0.1-0.3-0.4-0.4-0.8c-0.1-0.4-0.2-1.1-0.2-2.1
					c0-1,0.1-1.8,0.2-2.2c0.1-0.3,0.2-0.6,0.4-0.7c0.2-0.1,0.3-0.2,0.5-0.2s0.4,0.1,0.5,0.2c0.2,0.1,0.3,0.4,0.4,0.8
					c0.1,0.4,0.2,1.1,0.2,2.1C335.9,307.8,335.8,308.5,335.7,309z"/>
				<path class="st10" d="M343.8,306.1c0.8-0.3,1.6-0.7,2.2-1.3v6.3h1.7v-8.8h-1.4c-0.2,0.5-0.5,1-1.1,1.4c-0.5,0.4-1,0.7-1.4,0.8
					V306.1z"/>
				<path class="st10" d="M213.7,314.7c-0.5,0.4-1,0.7-1.4,0.8v1.5c0.8-0.3,1.6-0.7,2.2-1.3v6.3h1.7v-8.8h-1.4
					C214.6,313.8,214.2,314.3,213.7,314.7z"/>
				<path class="st10" d="M225.2,313.3c-0.8,0-1.5,0.3-2,0.9c-0.6,0.7-0.9,1.9-0.9,3.6c0,1.7,0.3,2.9,0.8,3.5c0.5,0.7,1.2,1,2.1,1
					c0.8,0,1.5-0.3,2-0.9c0.6-0.7,0.9-1.9,0.9-3.6c0-1.7-0.3-2.9-0.9-3.6C226.7,313.6,226,313.3,225.2,313.3z M226.1,319.9
					c-0.1,0.3-0.2,0.6-0.4,0.7c-0.2,0.1-0.3,0.2-0.5,0.2c-0.2,0-0.4-0.1-0.5-0.2s-0.3-0.4-0.4-0.8c-0.1-0.4-0.2-1.1-0.2-2.1
					c0-1,0.1-1.8,0.2-2.2c0.1-0.3,0.2-0.6,0.4-0.7c0.2-0.1,0.3-0.2,0.5-0.2c0.2,0,0.4,0.1,0.5,0.2c0.2,0.1,0.3,0.4,0.4,0.8
					c0.1,0.4,0.2,1.1,0.2,2.1C226.2,318.8,226.2,319.5,226.1,319.9z"/>
				<path class="st10" d="M236.1,313.3c-0.8,0-1.5,0.3-2,0.9c-0.6,0.7-0.9,1.9-0.9,3.6c0,1.7,0.3,2.9,0.8,3.5c0.5,0.7,1.2,1,2.1,1
					c0.8,0,1.5-0.3,2-0.9c0.6-0.7,0.9-1.9,0.9-3.6c0-1.7-0.3-2.9-0.9-3.6C237.6,313.6,237,313.3,236.1,313.3z M237,319.9
					c-0.1,0.3-0.2,0.6-0.4,0.7c-0.2,0.1-0.3,0.2-0.5,0.2s-0.4-0.1-0.5-0.2c-0.2-0.1-0.3-0.4-0.4-0.8c-0.1-0.4-0.2-1.1-0.2-2.1
					c0-1,0.1-1.8,0.2-2.2c0.1-0.3,0.2-0.6,0.4-0.7c0.2-0.1,0.3-0.2,0.5-0.2s0.4,0.1,0.5,0.2c0.2,0.1,0.3,0.4,0.4,0.8
					c0.1,0.4,0.2,1.1,0.2,2.1C237.2,318.8,237.1,319.5,237,319.9z"/>
				<path class="st10" d="M247.1,313.3c-0.8,0-1.5,0.3-2,0.9c-0.6,0.7-0.9,1.9-0.9,3.6c0,1.7,0.3,2.9,0.8,3.5c0.5,0.7,1.2,1,2.1,1
					c0.8,0,1.5-0.3,2-0.9c0.6-0.7,0.9-1.9,0.9-3.6c0-1.7-0.3-2.9-0.9-3.6C248.6,313.6,247.9,313.3,247.1,313.3z M248,319.9
					c-0.1,0.3-0.2,0.6-0.4,0.7c-0.2,0.1-0.3,0.2-0.5,0.2s-0.4-0.1-0.5-0.2c-0.2-0.1-0.3-0.4-0.4-0.8c-0.1-0.4-0.2-1.1-0.2-2.1
					c0-1,0.1-1.8,0.2-2.2c0.1-0.3,0.2-0.6,0.4-0.7c0.2-0.1,0.3-0.2,0.5-0.2s0.4,0.1,0.5,0.2c0.2,0.1,0.3,0.4,0.4,0.8
					c0.1,0.4,0.2,1.1,0.2,2.1C248.2,318.8,248.1,319.5,248,319.9z"/>
				<path class="st10" d="M258,313.3c-0.8,0-1.5,0.3-2,0.9c-0.6,0.7-0.9,1.9-0.9,3.6c0,1.7,0.3,2.9,0.8,3.5c0.5,0.7,1.2,1,2.1,1
					c0.8,0,1.5-0.3,2-0.9c0.6-0.7,0.9-1.9,0.9-3.6c0-1.7-0.3-2.9-0.9-3.6C259.6,313.6,258.9,313.3,258,313.3z M259,319.9
					c-0.1,0.3-0.2,0.6-0.4,0.7c-0.2,0.1-0.3,0.2-0.5,0.2s-0.4-0.1-0.5-0.2s-0.3-0.4-0.4-0.8c-0.1-0.4-0.2-1.1-0.2-2.1
					c0-1,0.1-1.8,0.2-2.2c0.1-0.3,0.2-0.6,0.4-0.7c0.2-0.1,0.3-0.2,0.5-0.2s0.4,0.1,0.5,0.2c0.2,0.1,0.3,0.4,0.4,0.8
					c0.1,0.4,0.2,1.1,0.2,2.1C259.1,318.8,259.1,319.5,259,319.9z"/>
				<path class="st10" d="M268.5,314.7c-0.5,0.4-1,0.7-1.4,0.8v1.5c0.8-0.3,1.6-0.7,2.2-1.3v6.3h1.7v-8.8h-1.4
					C269.4,313.8,269,314.3,268.5,314.7z"/>
				<path class="st10" d="M279.5,314.7c-0.5,0.4-1,0.7-1.4,0.8v1.5c0.8-0.3,1.6-0.7,2.2-1.3v6.3h1.7v-8.8h-1.4
					C280.3,313.8,280,314.3,279.5,314.7z"/>
				<path class="st10" d="M290.9,313.3c-0.8,0-1.5,0.3-2,0.9c-0.6,0.7-0.9,1.9-0.9,3.6c0,1.7,0.3,2.9,0.8,3.5c0.5,0.7,1.2,1,2.1,1
					c0.8,0,1.5-0.3,2-0.9c0.6-0.7,0.9-1.9,0.9-3.6c0-1.7-0.3-2.9-0.9-3.6C292.4,313.6,291.8,313.3,290.9,313.3z M291.8,319.9
					c-0.1,0.3-0.2,0.6-0.4,0.7c-0.2,0.1-0.3,0.2-0.5,0.2s-0.4-0.1-0.5-0.2s-0.3-0.4-0.4-0.8c-0.1-0.4-0.2-1.1-0.2-2.1
					c0-1,0.1-1.8,0.2-2.2c0.1-0.3,0.2-0.6,0.4-0.7c0.2-0.1,0.3-0.2,0.5-0.2s0.4,0.1,0.5,0.2c0.2,0.1,0.3,0.4,0.4,0.8
					c0.1,0.4,0.2,1.1,0.2,2.1C292,318.8,292,319.5,291.8,319.9z"/>
				<path class="st10" d="M301.9,313.3c-0.8,0-1.5,0.3-2,0.9c-0.6,0.7-0.9,1.9-0.9,3.6c0,1.7,0.3,2.9,0.8,3.5c0.5,0.7,1.2,1,2.1,1
					c0.8,0,1.5-0.3,2-0.9c0.6-0.7,0.9-1.9,0.9-3.6c0-1.7-0.3-2.9-0.9-3.6C303.4,313.6,302.7,313.3,301.9,313.3z M302.8,319.9
					c-0.1,0.3-0.2,0.6-0.4,0.7c-0.2,0.1-0.3,0.2-0.5,0.2c-0.2,0-0.4-0.1-0.5-0.2c-0.2-0.1-0.3-0.4-0.4-0.8c-0.1-0.4-0.2-1.1-0.2-2.1
					c0-1,0.1-1.8,0.2-2.2c0.1-0.3,0.2-0.6,0.4-0.7c0.2-0.1,0.3-0.2,0.5-0.2c0.2,0,0.4,0.1,0.5,0.2c0.2,0.1,0.3,0.4,0.4,0.8
					c0.1,0.4,0.2,1.1,0.2,2.1C303,318.8,302.9,319.5,302.8,319.9z"/>
				<path class="st10" d="M312.9,313.3c-0.8,0-1.5,0.3-2,0.9c-0.6,0.7-0.9,1.9-0.9,3.6c0,1.7,0.3,2.9,0.8,3.5c0.5,0.7,1.2,1,2.1,1
					c0.8,0,1.5-0.3,2-0.9c0.6-0.7,0.9-1.9,0.9-3.6c0-1.7-0.3-2.9-0.9-3.6C314.4,313.6,313.7,313.3,312.9,313.3z M313.8,319.9
					c-0.1,0.3-0.2,0.6-0.4,0.7c-0.2,0.1-0.3,0.2-0.5,0.2s-0.4-0.1-0.5-0.2c-0.2-0.1-0.3-0.4-0.4-0.8c-0.1-0.4-0.2-1.1-0.2-2.1
					c0-1,0.1-1.8,0.2-2.2c0.1-0.3,0.2-0.6,0.4-0.7c0.2-0.1,0.3-0.2,0.5-0.2s0.4,0.1,0.5,0.2c0.2,0.1,0.3,0.4,0.4,0.8
					c0.1,0.4,0.2,1.1,0.2,2.1C313.9,318.8,313.9,319.5,313.8,319.9z"/>
				<path class="st10" d="M323.3,314.7c-0.5,0.4-1,0.7-1.4,0.8v1.5c0.8-0.3,1.6-0.7,2.2-1.3v6.3h1.7v-8.8h-1.4
					C324.2,313.8,323.8,314.3,323.3,314.7z"/>
				<path class="st10" d="M334.8,313.3c-0.8,0-1.5,0.3-2,0.9c-0.6,0.7-0.9,1.9-0.9,3.6c0,1.7,0.3,2.9,0.8,3.5c0.5,0.7,1.2,1,2.1,1
					c0.8,0,1.5-0.3,2-0.9c0.6-0.7,0.9-1.9,0.9-3.6c0-1.7-0.3-2.9-0.9-3.6C336.3,313.6,335.6,313.3,334.8,313.3z M335.7,319.9
					c-0.1,0.3-0.2,0.6-0.4,0.7c-0.2,0.1-0.3,0.2-0.5,0.2s-0.4-0.1-0.5-0.2c-0.2-0.1-0.3-0.4-0.4-0.8c-0.1-0.4-0.2-1.1-0.2-2.1
					c0-1,0.1-1.8,0.2-2.2c0.1-0.3,0.2-0.6,0.4-0.7c0.2-0.1,0.3-0.2,0.5-0.2s0.4,0.1,0.5,0.2c0.2,0.1,0.3,0.4,0.4,0.8
					c0.1,0.4,0.2,1.1,0.2,2.1C335.9,318.8,335.8,319.5,335.7,319.9z"/>
				<path class="st10" d="M345.7,313.3c-0.8,0-1.5,0.3-2,0.9c-0.6,0.7-0.9,1.9-0.9,3.6c0,1.7,0.3,2.9,0.8,3.5c0.5,0.7,1.2,1,2.1,1
					c0.8,0,1.5-0.3,2-0.9c0.6-0.7,0.9-1.9,0.9-3.6c0-1.7-0.3-2.9-0.9-3.6C347.3,313.6,346.6,313.3,345.7,313.3z M346.7,319.9
					c-0.1,0.3-0.2,0.6-0.4,0.7c-0.2,0.1-0.3,0.2-0.5,0.2s-0.4-0.1-0.5-0.2c-0.2-0.1-0.3-0.4-0.4-0.8c-0.1-0.4-0.2-1.1-0.2-2.1
					c0-1,0.1-1.8,0.2-2.2c0.1-0.3,0.2-0.6,0.4-0.7c0.2-0.1,0.3-0.2,0.5-0.2s0.4,0.1,0.5,0.2c0.2,0.1,0.3,0.4,0.4,0.8
					c0.1,0.4,0.2,1.1,0.2,2.1C346.8,318.8,346.8,319.5,346.7,319.9z"/>
			</g>
		</g>
	</g>
	<g>
		<g>
			<g>
				
					<ellipse transform="matrix(4.588187e-02 -0.9989 0.9989 4.588187e-02 18.0002 507.7241)" class="st7" cx="274.8" cy="244.4" rx="18.1" ry="18.1"/>
				<circle class="st4" cx="274.8" cy="244.4" r="14"/>
				<g>
					<path class="st4" d="M274.2,226.3v4.1c0.2,0,0.4,0,0.6,0c0.2,0,0.4,0,0.6,0c0,0,0-4.1,0-4.1c-0.2,0-0.4,0-0.6,0
						C274.6,226.3,274.4,226.3,274.2,226.3z"/>
					<path class="st4" d="M258.8,235.9l3.6,2.1c0.2-0.4,0.4-0.7,0.6-1c0,0-3.6-2.1-3.6-2.1C259.2,235.2,259,235.5,258.8,235.9z"/>
					<path class="st4" d="M267.3,232.6c0.3-0.2,0.7-0.4,1.1-0.6c0,0-2.1-3.6-2.1-3.6c-0.4,0.2-0.7,0.4-1,0.6L267.3,232.6z"/>
					<path class="st4" d="M288.8,243.8c0,0.2,0,0.4,0,0.6c0,0.2,0,0.4,0,0.6c0,0,4.1,0,4.1,0c0-0.2,0-0.4,0-0.6c0-0.2,0-0.4,0-0.6
						L288.8,243.8C288.8,243.8,288.8,243.8,288.8,243.8z"/>
					<path class="st4" d="M290.2,234.9l-3.6,2.1c0.2,0.3,0.4,0.7,0.6,1.1c0,0,3.6-2.1,3.6-2.1C290.6,235.5,290.4,235.2,290.2,234.9z
						"/>
					<path class="st4" d="M281.3,232c0.4,0.2,0.7,0.4,1,0.6c0,0,2.1-3.6,2.1-3.6c-0.3-0.2-0.7-0.4-1-0.6L281.3,232z"/>
					<path class="st4" d="M282.3,256.3c-0.3,0.2-0.7,0.4-1.1,0.6c0,0,2.1,3.6,2.1,3.6c0.4-0.2,0.7-0.4,1-0.6L282.3,256.3z"/>
					<path class="st4" d="M275.4,262.6v-4.1c-0.2,0-0.4,0-0.6,0c-0.2,0-0.4,0-0.6,0c0,0,0,4.1,0,4.1c0.2,0,0.4,0,0.6,0
						C275,262.6,275.2,262.6,275.4,262.6z"/>
					<path class="st4" d="M290.8,253l-3.6-2.1c-0.2,0.4-0.4,0.7-0.6,1c0,0,3.6,2.1,3.6,2.1C290.4,253.7,290.6,253.3,290.8,253z"/>
					<path class="st4" d="M256.7,245h4.1c0-0.2,0-0.4,0-0.6c0-0.2,0-0.4,0-0.6c0,0-4.1,0-4.1,0c0,0.2,0,0.4,0,0.6
						C256.7,244.6,256.7,244.8,256.7,245z"/>
					<path class="st4" d="M263,252c-0.2-0.3-0.4-0.7-0.6-1.1c0,0-3.6,2.1-3.6,2.1c0.2,0.4,0.4,0.7,0.6,1L263,252z"/>
					<path class="st4" d="M268.3,256.9c-0.4-0.2-0.7-0.4-1-0.6c0,0-2.1,3.6-2.1,3.6c0.3,0.2,0.7,0.4,1,0.6L268.3,256.9z"/>
				</g>
			</g>
			<path class="st7" d="M281,246.1c-0.1-0.3-0.3-0.6-0.5-0.9c-0.2-0.3-0.5-0.5-0.7-0.7c-0.3-0.2-0.6-0.3-1-0.5
				c0.6-0.4,1.1-0.8,1.3-1.3c0.3-0.5,0.4-1.1,0.4-1.7c0-0.3-0.1-0.7-0.2-1c-0.1-0.3-0.3-0.7-0.5-1c-0.2-0.3-0.5-0.6-0.9-0.8
				c-0.3-0.2-0.8-0.4-1.2-0.6c-0.4-0.1-0.8-0.2-1.3-0.3v-2.1H275v2h-1.6v-2H272v2h-1.5h-2v2.3h2v9.3h-2v2.3h2h1.5v2h1.5v-2h1
				c0.2,0,0.4,0,0.5,0v2h1.5v-2.1c0.2,0,0.4,0,0.6-0.1c0.2,0,0.4-0.1,0.6-0.1c0.7-0.2,1.3-0.4,1.7-0.7c0.5-0.3,0.8-0.6,1.1-1
				c0.3-0.4,0.5-0.7,0.6-1.1c0.1-0.4,0.2-0.8,0.2-1.1C281.1,246.8,281.1,246.4,281,246.1z M275.1,239.6c0.4,0,0.7,0,0.9,0
				c0.2,0,0.5,0.1,0.7,0.1c0.5,0.1,0.8,0.4,1,0.6c0.2,0.3,0.3,0.6,0.3,1c0,0.4-0.1,0.7-0.2,1c-0.2,0.3-0.4,0.5-0.8,0.7
				c-0.3,0.1-0.9,0.2-1.6,0.2H273v-3.6H275.1z M278.4,247.8c-0.1,0.2-0.2,0.4-0.3,0.5c-0.1,0.2-0.3,0.3-0.6,0.4
				c-0.2,0.1-0.5,0.2-0.9,0.3c-0.2,0.1-0.5,0.1-0.8,0.1c-0.3,0-0.7,0-1.1,0H273v-3.9h2.4c0.4,0,0.8,0,1,0c0.3,0,0.5,0.1,0.7,0.1
				c0.5,0.1,0.8,0.4,1,0.7c0.2,0.3,0.3,0.6,0.3,1C278.5,247.4,278.5,247.6,278.4,247.8z"/>
		</g>
		<g>
			<path class="st11" d="M301.7,254.9h-50.6c-2.2,0-4,1.8-4,4v44.4c0,2.2,1.8,4,4,4h50.6c2.2,0,4-1.8,4-4v-44.4
				C305.7,256.6,303.9,254.9,301.7,254.9z"/>
			<path class="st3" d="M307.7,287.2h-16.2c-1.5,0-2.7-1.2-2.7-2.7v-7c0-1.5,1.2-2.7,2.7-2.7h16.2c1.5,0,2.7,1.2,2.7,2.7v7
				C310.4,286,309.2,287.2,307.7,287.2z"/>
			<path class="st2" d="M296.7,281c0,1.1-0.9,2.1-2.1,2.1c-1.1,0-2.1-0.9-2.1-2.1c0-1.1,0.9-2.1,2.1-2.1
				C295.8,279,296.7,279.9,296.7,281z"/>
		</g>
	</g>
	<g>
		<g>
			
				<ellipse transform="matrix(7.071779e-02 -0.9975 0.9975 7.071779e-02 -17.2595 448.5116)" class="st7" cx="232.1" cy="233.5" rx="17" ry="17"/>
			
				<ellipse transform="matrix(7.075649e-02 -0.9975 0.9975 7.075649e-02 -17.2678 448.5019)" class="st4" cx="232.1" cy="233.5" rx="13.1" ry="13.1"/>
			<g>
				<path class="st4" d="M231.5,216.5v3.9c0.2,0,0.4,0,0.6,0c0.2,0,0.4,0,0.6,0c0,0,0-3.9,0-3.9c-0.2,0-0.4,0-0.6,0
					C231.9,216.5,231.7,216.5,231.5,216.5z"/>
				<path class="st4" d="M217.1,225.5l3.3,1.9c0.2-0.3,0.4-0.7,0.6-1c0,0-3.3-1.9-3.3-1.9C217.5,224.9,217.3,225.2,217.1,225.5z"/>
				<path class="st4" d="M225,222.4c0.3-0.2,0.7-0.4,1-0.6c0,0-1.9-3.4-1.9-3.4c-0.3,0.2-0.7,0.4-1,0.6L225,222.4z"/>
				<path class="st4" d="M245.2,233c0,0.2,0,0.4,0,0.6c0,0.2,0,0.4,0,0.6c0,0,3.9,0,3.9,0c0-0.2,0-0.4,0-0.6c0-0.2,0-0.4,0-0.6
					L245.2,233C245.2,233,245.2,233,245.2,233z"/>
				<path class="st4" d="M246.5,224.5l-3.3,1.9c0.2,0.3,0.4,0.7,0.6,1c0,0,3.4-1.9,3.4-1.9C246.9,225.2,246.7,224.9,246.5,224.5z"/>
				<path class="st4" d="M238.2,221.9c0.3,0.2,0.7,0.4,1,0.6c0,0,1.9-3.4,1.9-3.4c-0.3-0.2-0.6-0.4-1-0.6L238.2,221.9z"/>
				<path class="st4" d="M239.1,244.6c-0.3,0.2-0.7,0.4-1,0.6c0,0,1.9,3.4,1.9,3.4c0.3-0.2,0.7-0.4,1-0.6L239.1,244.6z"/>
				<path class="st4" d="M232.7,250.5v-3.9c-0.2,0-0.4,0-0.6,0c-0.2,0-0.4,0-0.6,0c0,0,0,3.9,0,3.9c0.2,0,0.4,0,0.6,0
					C232.3,250.5,232.5,250.5,232.7,250.5z"/>
				<path class="st4" d="M247.1,241.5l-3.3-1.9c-0.2,0.3-0.4,0.7-0.6,1c0,0,3.3,1.9,3.3,1.9C246.7,242.2,246.9,241.9,247.1,241.5z"
					/>
				<path class="st4" d="M215.1,234.1h3.9c0-0.2,0-0.4,0-0.6c0-0.2,0-0.4,0-0.6c0,0-3.9,0-3.9,0c0,0.2,0,0.4,0,0.6
					C215.1,233.7,215.1,233.9,215.1,234.1z"/>
				<path class="st4" d="M221,240.6c-0.2-0.3-0.4-0.7-0.6-1c0,0-3.4,1.9-3.4,1.9c0.2,0.3,0.4,0.7,0.6,1L221,240.6z"/>
				<path class="st4" d="M226,245.2c-0.3-0.2-0.7-0.4-1-0.6c0,0-1.9,3.3-1.9,3.3c0.3,0.2,0.6,0.4,1,0.6L226,245.2z"/>
			</g>
		</g>
		<path class="st7" d="M237.9,235.1c-0.1-0.3-0.3-0.6-0.4-0.8c-0.2-0.2-0.4-0.4-0.7-0.6c-0.3-0.2-0.6-0.3-0.9-0.4
			c0.6-0.4,1-0.7,1.3-1.2c0.3-0.5,0.4-1,0.4-1.6c0-0.3-0.1-0.6-0.2-1c-0.1-0.3-0.3-0.6-0.5-0.9c-0.2-0.3-0.5-0.5-0.8-0.8
			c-0.3-0.2-0.7-0.4-1.2-0.6c-0.3-0.1-0.8-0.2-1.2-0.2v-2h-1.4v1.9h-1.5v-1.9h-1.4v1.9H228h-1.9v2.2h1.9v8.7h-1.9v2.2h1.9h1.4v1.9
			h1.4V240h1c0.2,0,0.3,0,0.5,0v1.9h1.4v-2c0.2,0,0.4,0,0.5-0.1c0.2,0,0.4-0.1,0.5-0.1c0.6-0.2,1.2-0.4,1.6-0.7
			c0.4-0.3,0.8-0.6,1-0.9c0.3-0.3,0.4-0.7,0.5-1.1c0.1-0.4,0.2-0.7,0.2-1C238,235.7,238,235.4,237.9,235.1z M232.4,229
			c0.3,0,0.6,0,0.9,0c0.2,0,0.4,0.1,0.6,0.1c0.4,0.1,0.7,0.3,0.9,0.6s0.3,0.6,0.3,0.9c0,0.3-0.1,0.6-0.2,0.9
			c-0.2,0.3-0.4,0.5-0.8,0.6c-0.3,0.1-0.8,0.2-1.5,0.2h-2.2V229H232.4z M235.5,236.7c-0.1,0.2-0.2,0.4-0.3,0.5
			c-0.1,0.2-0.3,0.3-0.5,0.4c-0.2,0.1-0.5,0.2-0.8,0.3c-0.2,0.1-0.5,0.1-0.8,0.1c-0.3,0-0.7,0-1.1,0h-1.6v-3.7h2.3c0.4,0,0.7,0,1,0
			s0.5,0.1,0.7,0.1c0.4,0.1,0.7,0.3,0.9,0.6c0.2,0.3,0.3,0.6,0.3,1C235.6,236.3,235.6,236.5,235.5,236.7z"/>
	</g>
	<g>
		<g>
			<circle class="st7" cx="258.8" cy="204.2" r="16.7"/>
			
				<ellipse transform="matrix(0.9952 -9.828829e-02 9.828829e-02 0.9952 -18.8194 26.4241)" class="st4" cx="258.8" cy="204.2" rx="12.9" ry="12.9"/>
			<g>
				<path class="st4" d="M258.2,187.5v3.8c0.2,0,0.4,0,0.6,0c0.2,0,0.4,0,0.6,0c0,0,0-3.8,0-3.8c-0.2,0-0.4,0-0.6,0
					C258.6,187.5,258.4,187.5,258.2,187.5z"/>
				<path class="st4" d="M244,196.4l3.3,1.9c0.2-0.3,0.4-0.6,0.6-1c0,0-3.3-1.9-3.3-1.9C244.4,195.7,244.2,196,244,196.4z"/>
				<path class="st4" d="M251.8,193.3c0.3-0.2,0.6-0.4,1-0.5c0,0-1.9-3.3-1.9-3.3c-0.3,0.2-0.6,0.4-1,0.6L251.8,193.3z"/>
				<path class="st4" d="M271.7,203.7c0,0.2,0,0.4,0,0.6s0,0.4,0,0.6c0,0,3.8,0,3.8,0c0-0.2,0-0.4,0-0.6s0-0.4,0-0.6L271.7,203.7
					C271.7,203.7,271.7,203.7,271.7,203.7z"/>
				<path class="st4" d="M273,195.4l-3.3,1.9c0.2,0.3,0.4,0.6,0.5,1c0,0,3.3-1.9,3.3-1.9C273.3,196,273.2,195.7,273,195.4z"/>
				<path class="st4" d="M264.8,192.8c0.3,0.2,0.6,0.4,1,0.6c0,0,1.9-3.3,1.9-3.3c-0.3-0.2-0.6-0.4-1-0.6L264.8,192.8z"/>
				<path class="st4" d="M265.7,215.1c-0.3,0.2-0.6,0.4-1,0.5c0,0,1.9,3.3,1.9,3.3c0.3-0.2,0.6-0.4,1-0.6L265.7,215.1z"/>
				<path class="st4" d="M259.3,220.9v-3.8c-0.2,0-0.4,0-0.6,0c-0.2,0-0.4,0-0.6,0c0,0,0,3.8,0,3.8c0.2,0,0.4,0,0.6,0
					C259,220.9,259.2,220.9,259.3,220.9z"/>
				<path class="st4" d="M273.5,212.1l-3.3-1.9c-0.2,0.3-0.4,0.6-0.6,1c0,0,3.3,1.9,3.3,1.9C273.2,212.7,273.3,212.4,273.5,212.1z"
					/>
				<path class="st4" d="M242.1,204.8h3.8c0-0.2,0-0.4,0-0.6s0-0.4,0-0.6c0,0-3.8,0-3.8,0c0,0.2,0,0.4,0,0.6
					S242.1,204.6,242.1,204.8z"/>
				<path class="st4" d="M247.9,211.2c-0.2-0.3-0.4-0.6-0.5-1c0,0-3.3,1.9-3.3,1.9c0.2,0.3,0.4,0.6,0.6,1L247.9,211.2z"/>
				<path class="st4" d="M252.8,215.7c-0.3-0.2-0.6-0.4-1-0.6c0,0-1.9,3.3-1.9,3.3c0.3,0.2,0.6,0.4,1,0.6L252.8,215.7z"/>
			</g>
		</g>
		<path class="st7" d="M264.5,205.8c-0.1-0.3-0.3-0.6-0.4-0.8c-0.2-0.2-0.4-0.4-0.7-0.6c-0.3-0.2-0.6-0.3-0.9-0.4
			c0.6-0.3,1-0.7,1.2-1.2c0.2-0.5,0.4-1,0.4-1.5c0-0.3,0-0.6-0.1-0.9c-0.1-0.3-0.3-0.6-0.5-0.9c-0.2-0.3-0.5-0.5-0.8-0.8
			c-0.3-0.2-0.7-0.4-1.1-0.6c-0.3-0.1-0.7-0.2-1.2-0.2v-1.9H259v1.9h-1.4v-1.9h-1.3v1.9h-1.4h-1.9v2.2h1.9v8.5h-1.9v2.2h1.9h1.4v1.9
			h1.3v-1.9h1c0.2,0,0.3,0,0.5,0v1.9h1.3v-2c0.2,0,0.4,0,0.5-0.1c0.2,0,0.4-0.1,0.5-0.1c0.6-0.2,1.2-0.4,1.6-0.7
			c0.4-0.3,0.7-0.6,1-0.9c0.2-0.3,0.4-0.7,0.5-1c0.1-0.4,0.1-0.7,0.1-1C264.6,206.4,264.6,206,264.5,205.8z M259.1,199.8
			c0.3,0,0.6,0,0.9,0c0.2,0,0.4,0.1,0.6,0.1c0.4,0.1,0.7,0.3,0.9,0.6c0.2,0.3,0.3,0.6,0.3,0.9c0,0.3-0.1,0.6-0.2,0.9
			c-0.2,0.3-0.4,0.5-0.8,0.6c-0.3,0.1-0.8,0.2-1.4,0.2h-2.1v-3.3H259.1z M262.1,207.3c-0.1,0.2-0.2,0.3-0.3,0.5
			c-0.1,0.2-0.3,0.3-0.5,0.4c-0.2,0.1-0.5,0.2-0.8,0.3c-0.2,0.1-0.5,0.1-0.8,0.1c-0.3,0-0.6,0-1.1,0h-1.5v-3.6h2.2c0.4,0,0.7,0,1,0
			c0.2,0,0.5,0.1,0.7,0.1c0.4,0.1,0.7,0.3,0.9,0.6c0.2,0.3,0.3,0.6,0.3,0.9C262.2,207,262.2,207.2,262.1,207.3z"/>
	</g>
</g>
<g>
	<g>
		<g>
			<path class="st6" d="M210.3,279.1v6.1c0,1.6-1.3,2.8-2.8,2.8H160c-1.6,0-2.8-1.3-2.8-2.8v-6.1c0-1.6,1.3-2.8,2.8-2.8h47.5
				C209,276.2,210.3,277.5,210.3,279.1z"/>
			<path class="st6" d="M216,290.8v6.1c0,1.6-1.3,2.8-2.8,2.8h-47.5c-1.6,0-2.8-1.3-2.8-2.8v-6.1c0-1.6,1.3-2.8,2.8-2.8h47.5
				C214.7,288,216,289.2,216,290.8z"/>
			<path class="st6" d="M210.3,302.6v6.1c0,1.6-1.3,2.8-2.8,2.8H160c-1.6,0-2.8-1.3-2.8-2.8v-6.1c0-1.6,1.3-2.8,2.8-2.8h47.5
				C209,299.7,210.3,301,210.3,302.6z"/>
			<path class="st6" d="M207.5,323.2c1.6,0,2.8,1.3,2.8,2.8v6.1c0,1.6-1.3,2.8-2.8,2.8h-26.6c0-12.3-9.4-22.4-21.5-23.4
				c0.2,0,0.4-0.1,0.6-0.1h47.5c1.6,0,2.8,1.3,2.8,2.8v6.1C210.3,321.9,209,323.2,207.5,323.2z"/>
			<path class="st6" d="M207.5,323.2h-29.7H207.5z"/>
			<path class="st6" d="M207.5,323.2h-29.7H207.5z"/>
			<path class="st6" d="M210.3,337.8v6.1c0,1.6-1.3,2.8-2.8,2.8h-29.8c2-3.5,3.2-7.5,3.2-11.8h26.6C209,335,210.3,336.2,210.3,337.8
				z"/>
			<path class="st6" d="M177.7,346.7h-0.1H177.7z"/>
			<path class="st6" d="M210.3,349.6v6.1c0,1.6-1.3,2.8-2.8,2.8H160c-0.2,0-0.5,0-0.7-0.1c7.9-0.7,14.6-5.2,18.4-11.7h29.8
				C209,346.7,210.3,348,210.3,349.6z"/>
			<path class="st6" d="M177.7,346.7h-0.1H177.7z"/>
		</g>
		<g>
			<g>
				<g>
					<g>
						<rect x="166.7" y="276.2" class="st4" width="2.2" height="11.8"/>
					</g>
					<g>
						<rect x="177.3" y="276.2" class="st4" width="2.2" height="11.8"/>
					</g>
					<g>
						<rect x="187.9" y="276.2" class="st4" width="2.2" height="11.8"/>
					</g>
					<g>
						<rect x="198.6" y="276.2" class="st4" width="2.2" height="11.8"/>
					</g>
				</g>
				<g>
					<g>
						<rect x="172.4" y="288" class="st4" width="2.2" height="11.8"/>
					</g>
					<g>
						<rect x="183" y="288" class="st4" width="2.2" height="11.8"/>
					</g>
					<g>
						<rect x="193.7" y="288" class="st4" width="2.2" height="11.8"/>
					</g>
					<g>
						<rect x="204.3" y="288" class="st4" width="2.2" height="11.8"/>
					</g>
				</g>
				<g>
					<g>
						<rect x="172.4" y="311.5" class="st4" width="2.2" height="6.4"/>
					</g>
					<g>
						<rect x="183" y="311.5" class="st4" width="2.2" height="11.8"/>
					</g>
					<g>
						<rect x="193.7" y="311.5" class="st4" width="2.2" height="11.8"/>
					</g>
					<g>
						<rect x="204.3" y="311.5" class="st4" width="2.2" height="11.8"/>
					</g>
				</g>
				<g>
					<g>
						<rect x="183" y="335" class="st4" width="2.2" height="11.7"/>
					</g>
					<g>
						<rect x="193.7" y="335" class="st4" width="2.2" height="11.7"/>
					</g>
					<g>
						<rect x="204.3" y="335" class="st4" width="2.2" height="11.7"/>
					</g>
				</g>
				<g>
					<g>
						<rect x="166.7" y="299.7" class="st4" width="2.2" height="11.8"/>
					</g>
					<g>
						<rect x="177.3" y="299.7" class="st4" width="2.2" height="11.8"/>
					</g>
					<g>
						<rect x="187.9" y="299.7" class="st4" width="2.2" height="11.8"/>
					</g>
					<g>
						<rect x="198.6" y="299.7" class="st4" width="2.2" height="11.8"/>
					</g>
				</g>
				<g>
					<g>
						<rect x="187.9" y="323.2" class="st4" width="2.2" height="11.7"/>
					</g>
					<g>
						<rect x="198.6" y="323.2" class="st4" width="2.2" height="11.7"/>
					</g>
				</g>
				<g>
					<g>
						<rect x="177.3" y="347" class="st4" width="2.2" height="11.5"/>
					</g>
					<g>
						<rect x="187.9" y="347" class="st4" width="2.2" height="11.5"/>
					</g>
					<g>
						<rect x="198.6" y="347" class="st4" width="2.2" height="11.5"/>
					</g>
				</g>
			</g>
			<g>
				<g>
					<path class="st4" d="M207.5,289.1H160c-2.2,0-3.9-1.8-3.9-3.9v-6.1c0-2.2,1.8-3.9,3.9-3.9h47.5c2.2,0,3.9,1.8,3.9,3.9v6.1
						C211.4,287.3,209.6,289.1,207.5,289.1z M160,277.3c-1,0-1.7,0.8-1.7,1.7v6.1c0,1,0.8,1.7,1.7,1.7h47.5c1,0,1.7-0.8,1.7-1.7
						v-6.1c0-1-0.8-1.7-1.7-1.7H160z"/>
				</g>
				<g>
					<path class="st4" d="M213.2,300.8h-47.5c-2.2,0-3.9-1.8-3.9-3.9v-6.1c0-2.2,1.8-3.9,3.9-3.9h47.5c2.2,0,3.9,1.8,3.9,3.9v6.1
						C217.1,299.1,215.3,300.8,213.2,300.8z M165.7,289.1c-1,0-1.7,0.8-1.7,1.7v6.1c0,1,0.8,1.7,1.7,1.7h47.5c1,0,1.7-0.8,1.7-1.7
						v-6.1c0-1-0.8-1.7-1.7-1.7H165.7z"/>
				</g>
				<g>
					<path class="st4" d="M207.5,312.6H160c-2.2,0-3.9-1.8-3.9-3.9v-6.1c0-2.2,1.8-3.9,3.9-3.9h47.5c2.2,0,3.9,1.8,3.9,3.9v6.1
						C211.4,310.8,209.6,312.6,207.5,312.6z M160,300.8c-1,0-1.7,0.8-1.7,1.7v6.1c0,1,0.8,1.7,1.7,1.7h47.5c1,0,1.7-0.8,1.7-1.7
						v-6.1c0-1-0.8-1.7-1.7-1.7H160z"/>
				</g>
				<g>
					<path class="st4" d="M207.5,336.1h-26.6c-0.6,0-1.1-0.5-1.1-1.1c0-11.6-9-21.4-20.5-22.3c-0.5,0-1-0.5-1-1c0-0.5,0.3-1,0.9-1.1
						c0.3-0.1,0.6-0.1,0.8-0.1h47.5c2.2,0,3.9,1.8,3.9,3.9v6.1c0,1.1-0.5,2.1-1.2,2.8c0.7,0.7,1.2,1.7,1.2,2.8v6.1
						C211.4,334.3,209.6,336.1,207.5,336.1z M181.9,333.9h25.5c1,0,1.7-0.8,1.7-1.7v-6.1c0-1-0.8-1.7-1.7-1.7
						c-0.6,0-1.1-0.5-1.1-1.1c0-0.6,0.5-1.1,1.1-1.1c1,0,1.7-0.8,1.7-1.7v-6.1c0-1-0.8-1.7-1.7-1.7h-39.9
						C175.7,316.3,181.5,324.5,181.9,333.9z"/>
				</g>
				<g>
					<rect x="177.8" y="322.1" class="st4" width="29.7" height="2.2"/>
				</g>
				<g>
					<rect x="177.8" y="322.1" class="st4" width="29.7" height="2.2"/>
				</g>
				<g>
					<path class="st4" d="M207.5,347.8h-29.8c-0.4,0-0.8-0.2-1-0.5c-0.2-0.3-0.2-0.8,0-1.1c2-3.4,3-7.3,3-11.2
						c0-0.6,0.5-1.1,1.1-1.1h26.6c2.2,0,3.9,1.8,3.9,3.9v6.1C211.4,346.1,209.6,347.8,207.5,347.8z M179.5,345.6h27.9
						c1,0,1.7-0.8,1.7-1.7v-6.1c0-1-0.8-1.7-1.7-1.7h-25.5C181.8,339.4,181,342.6,179.5,345.6z"/>
				</g>
				<g>
					<rect x="177.6" y="345.6" class="st4" width="0.1" height="2.2"/>
				</g>
				<g>
					<path class="st4" d="M207.5,359.6H160c-0.3,0-0.6,0-1-0.1c-0.5-0.1-0.9-0.6-0.8-1.2c0-0.5,0.5-1,1-1
						c7.3-0.6,13.9-4.8,17.5-11.1c0.2-0.3,0.6-0.5,1-0.5h29.8c2.2,0,3.9,1.8,3.9,3.9v6.1C211.4,357.8,209.6,359.6,207.5,359.6z
						 M167.5,357.4h40c1,0,1.7-0.8,1.7-1.7v-6.1c0-1-0.8-1.7-1.7-1.7h-29.1C175.7,352.1,171.9,355.4,167.5,357.4z"/>
				</g>
				<g>
					<rect x="177.6" y="345.6" class="st4" width="0.1" height="2.2"/>
				</g>
			</g>
		</g>
	</g>
	<g>
		<g>
			<circle class="st7" cx="157.3" cy="334.9" r="24.7"/>
			
				<ellipse transform="matrix(0.2307 -0.973 0.973 0.2307 -204.826 410.7375)" class="st4" cx="157.3" cy="334.9" rx="19.1" ry="19.1"/>
			<g>
				<path class="st4" d="M156.5,310.2v5.6c0.3,0,0.5,0,0.8,0c0.3,0,0.5,0,0.8,0c0,0,0-5.6,0-5.6c-0.3,0-0.5,0-0.8,0
					C157.1,310.2,156.8,310.2,156.5,310.2z"/>
				<path class="st4" d="M135.6,323.3l4.9,2.8c0.3-0.5,0.5-1,0.8-1.4c0,0-4.9-2.8-4.9-2.8C136.1,322.3,135.8,322.8,135.6,323.3z"/>
				<path class="st4" d="M147.1,318.8c0.5-0.3,0.9-0.6,1.4-0.8c0,0-2.8-4.9-2.8-4.9c-0.5,0.3-1,0.5-1.4,0.8L147.1,318.8z"/>
				<path class="st4" d="M176.4,334.1c0,0.3,0,0.5,0,0.8s0,0.5,0,0.8c0,0,5.6,0,5.6,0c0-0.3,0-0.5,0-0.8s0-0.5,0-0.8L176.4,334.1
					C176.4,334.1,176.4,334.1,176.4,334.1z"/>
				<path class="st4" d="M178.3,321.9l-4.8,2.8c0.3,0.5,0.6,0.9,0.8,1.4c0,0,4.9-2.8,4.9-2.8C178.9,322.8,178.6,322.3,178.3,321.9z"
					/>
				<path class="st4" d="M166.2,318c0.5,0.3,1,0.5,1.4,0.8c0,0,2.8-4.9,2.8-4.9c-0.5-0.3-0.9-0.6-1.4-0.8L166.2,318z"/>
				<path class="st4" d="M167.6,351c-0.5,0.3-0.9,0.6-1.4,0.8c0,0,2.8,4.9,2.8,4.9c0.5-0.3,1-0.5,1.4-0.8L167.6,351z"/>
				<path class="st4" d="M158.2,359.6V354c-0.3,0-0.5,0-0.8,0c-0.3,0-0.5,0-0.8,0c0,0,0,5.6,0,5.6c0.3,0,0.5,0,0.8,0
					C157.6,359.6,157.9,359.6,158.2,359.6z"/>
				<path class="st4" d="M179.1,346.5l-4.9-2.8c-0.3,0.5-0.5,1-0.8,1.4c0,0,4.9,2.8,4.9,2.8C178.6,347.5,178.9,347,179.1,346.5z"/>
				<path class="st4" d="M132.7,335.7h5.6c0-0.3,0-0.5,0-0.8s0-0.5,0-0.8c0,0-5.6,0-5.6,0c0,0.3,0,0.5,0,0.8
					S132.7,335.5,132.7,335.7z"/>
				<path class="st4" d="M141.2,345.1c-0.3-0.5-0.6-0.9-0.8-1.4c0,0-4.9,2.8-4.9,2.8c0.3,0.5,0.5,1,0.8,1.4L141.2,345.1z"/>
				<path class="st4" d="M148.5,351.8c-0.5-0.3-1-0.5-1.4-0.8c0,0-2.8,4.9-2.8,4.9c0.5,0.3,0.9,0.6,1.4,0.8L148.5,351.8z"/>
			</g>
		</g>
		<path class="st7" d="M165.8,337.2c-0.2-0.4-0.4-0.8-0.7-1.2c-0.3-0.3-0.6-0.6-1-0.9c-0.4-0.3-0.8-0.5-1.3-0.6
			c0.8-0.5,1.5-1.1,1.8-1.8c0.4-0.7,0.6-1.4,0.6-2.3c0-0.5-0.1-0.9-0.2-1.4c-0.1-0.5-0.4-0.9-0.7-1.3c-0.3-0.4-0.7-0.8-1.2-1.1
			c-0.5-0.3-1-0.6-1.7-0.8c-0.5-0.2-1.1-0.3-1.8-0.3v-2.9h-2v2.8h-2.1v-2.8h-2v2.8h-2.1h-2.8v3.2h2.8v12.6h-2.8v3.2h2.8h2.1v2.8h2
			v-2.8h1.4c0.2,0,0.5,0,0.7,0v2.8h2v-2.9c0.3,0,0.5-0.1,0.8-0.1c0.3,0,0.5-0.1,0.8-0.2c0.9-0.2,1.7-0.6,2.3-1
			c0.6-0.4,1.1-0.9,1.5-1.4c0.4-0.5,0.6-1,0.8-1.5c0.1-0.5,0.2-1,0.2-1.5C166,338.1,165.9,337.6,165.8,337.2z M157.8,328.3
			c0.5,0,0.9,0,1.3,0c0.3,0,0.6,0.1,0.9,0.2c0.6,0.2,1,0.5,1.3,0.9c0.3,0.4,0.4,0.8,0.4,1.3c0,0.5-0.1,0.9-0.3,1.3
			c-0.2,0.4-0.6,0.7-1.1,0.9c-0.5,0.2-1.2,0.3-2.1,0.3h-3.1v-4.9H157.8z M162.3,339.5c-0.1,0.3-0.2,0.5-0.4,0.7
			c-0.2,0.2-0.5,0.4-0.8,0.6c-0.3,0.2-0.7,0.3-1.2,0.4c-0.3,0.1-0.7,0.1-1.1,0.2c-0.4,0-1,0-1.6,0h-2.3v-5.3h3.3c0.6,0,1,0,1.4,0.1
			c0.4,0,0.7,0.1,1,0.2c0.6,0.2,1.1,0.5,1.4,0.9c0.3,0.4,0.4,0.9,0.4,1.4C162.4,339,162.4,339.2,162.3,339.5z"/>
	</g>
</g>
<g>
	<g>
		<path class="st2" d="M100,346.9H66.2c-3,0-5.5-2.5-5.5-5.5v-74.5c0-3,2.5-5.5,5.5-5.5H100c3,0,5.5,2.5,5.5,5.5v74.5
			C105.4,344.5,103,346.9,100,346.9z"/>
		<rect x="63.1" y="273.6" class="st7" width="39.9" height="57.5"/>
		<rect x="80.2" y="337.2" class="st3" width="5.7" height="5.7"/>
		<path class="st3" d="M87.4,266.3h-8.7c-0.7,0-1.2,0.5-1.2,1.2s0.5,1.2,1.2,1.2h8.7c0.7,0,1.2-0.5,1.2-1.2S88.1,266.3,87.4,266.3z"
			/>
	</g>
	<path class="st4" d="M94.2,304.8c-0.6-0.8-1.5-1.5-2.6-2c0.5-0.4,0.9-0.9,1.2-1.4c0.6-1,0.9-2.2,0.9-3.5c0-1.3-0.4-2.6-1-3.6
		c-0.7-1.1-1.9-1.9-3.6-2.4c-0.3-0.1-0.6-0.2-1-0.2v-6.3c0-0.8-0.6-1.4-1.4-1.4c-0.8,0-1.4,0.6-1.4,1.4v6c-0.4,0-0.8,0-1.2,0h-1.9
		v-6c0-0.8-0.6-1.4-1.4-1.4s-1.4,0.6-1.4,1.4v6H78h-5.8c-0.8,0-1.4,0.6-1.4,1.4c0,0.8,0.6,1.4,1.4,1.4h4.4v9v10h-4.4
		c-0.8,0-1.4,0.6-1.4,1.4c0,0.8,0.6,1.4,1.4,1.4H78h1.3v6.5c0,0.8,0.6,1.4,1.4,1.4s1.4-0.6,1.4-1.4V316h0.7c0.9,0,1.7,0,2.4-0.1v6.6
		c0,0.8,0.6,1.4,1.4,1.4c0.8,0,1.4-0.6,1.4-1.4v-6.8c0.3,0,0.5-0.1,0.7-0.1c1.2-0.2,2.1-0.6,2.9-1c0.8-0.4,1.5-1,2-1.6
		c0.6-0.6,1-1.3,1.2-2.1c0.2-0.7,0.3-1.5,0.3-2.3C95.4,307.2,95,305.9,94.2,304.8z M86.6,294.3c0.6,0.1,1.2,0.2,1.6,0.3
		c1,0.3,1.7,0.7,2,1.3c0.4,0.6,0.6,1.3,0.6,2.1c0,0.8-0.2,1.4-0.5,2.1c-0.3,0.5-0.9,1-1.7,1.3c-0.6,0.2-1.7,0.5-4,0.5h-5.3v-7.6h4.6
		C85.1,294.2,85.9,294.2,86.6,294.3z M92.3,310c-0.1,0.4-0.3,0.7-0.6,1c-0.3,0.3-0.7,0.7-1.3,1c-0.6,0.3-1.3,0.6-2.2,0.8
		c-0.6,0.1-1.3,0.2-2.2,0.3c-0.9,0.1-2,0.1-3.2,0.1h-3.4v-8.5h5.3H85c1.2,0,2.1,0,2.9,0.1c0.7,0.1,1.3,0.2,1.8,0.3
		c1,0.3,1.8,0.8,2.2,1.4c0.4,0.6,0.7,1.3,0.7,2.1C92.5,309.1,92.5,309.6,92.3,310z"/>
</g>
<g>
	<rect x="425.9" y="320.8" class="st5" width="43.9" height="40.7"/>
	<path class="st2" d="M452.6,335.9c0-2.6-2.1-4.8-4.8-4.8c-2.6,0-4.8,2.1-4.8,4.8c0,1.9,1.1,3.5,2.6,4.2l-3.4,10.7h5.6h5.6
		l-3.4-10.7C451.5,339.3,452.6,337.7,452.6,335.9z"/>
	<g>
		<path class="st1" d="M433.2,320.8c0-0.1,0-9.7,0-13.3c0-0.6,0-1.2,0-1.8c0-5.4,0-11.5,3.9-15.5c2.4-2.4,6-3.7,10.7-3.7
			c4.8,0,8.4,1.2,10.8,3.7c3.9,3.9,3.9,9.8,3.8,15.6c0,0.6,0,1.2,0,1.8v13.2H457v-13.2c0-0.6,0-1.2,0-1.8c0-4.8,0.1-9.4-2.2-11.7
			c-1.4-1.4-3.6-2-6.9-2c-3.2,0-5.4,0.7-6.8,2.1c-2.4,2.4-2.4,7.1-2.4,11.6c0,0.6,0,1.3,0,1.9c0,3.6,0,13.1,0,13.2L433.2,320.8z"/>
	</g>
</g>
<g>
	<g>
		<rect x="310.9" y="291.4" class="st1" width="2.8" height="16.7"/>
		<rect x="320.2" y="314.6" class="st1" width="16.1" height="2.8"/>
		<rect x="287.6" y="314.6" class="st1" width="16.7" height="2.8"/>
		<rect x="310.9" y="323.9" class="st1" width="2.8" height="16.7"/>
	</g>
	<g>
		<rect x="302.6" y="306.7" class="st6" width="18.6" height="18.6"/>
		<rect x="302.6" y="339.3" class="st4" width="18.6" height="18.6"/>
		<rect x="302.6" y="274.1" class="st4" width="18.6" height="18.6"/>
		<rect x="270" y="306.7" class="st4" width="18.6" height="18.6"/>
		<rect x="335.2" y="306.7" class="st4" width="18.6" height="18.6"/>
	</g>
</g>
<g>
	<polygon class="st6" points="120.2,269.9 120.1,264.1 114.9,264.1 114.9,269.8 114.2,357.7 120.9,357.7 	"/>
	<path class="st1" d="M117.5,278.7c14.6,0,27.7,5.3,36.7,13.7c-4.7-13.1-19.4-22.6-36.7-22.6c-17.3,0-31.9,9.5-36.7,22.6
		C89.8,284,102.9,278.7,117.5,278.7z"/>
</g>
<g>
	<g>
		<path class="st4" d="M33.7,311.6c-0.4,0-0.8,0.4-0.8,0.8v6.7c0,0.4,0.4,0.8,0.8,0.8c0.4,0,0.8-0.4,0.8-0.8v-6.7
			C34.5,312,34.1,311.6,33.7,311.6z"/>
		<path class="st4" d="M37.5,311.6c-0.4,0-0.8,0.4-0.8,0.8v6.7c0,0.4,0.4,0.8,0.8,0.8s0.8-0.4,0.8-0.8v-6.7
			C38.3,312,37.9,311.6,37.5,311.6z"/>
		<path class="st4" d="M41.3,311.6c-0.4,0-0.8,0.4-0.8,0.8v6.7c0,0.4,0.4,0.8,0.8,0.8s0.8-0.4,0.8-0.8v-6.7
			C42.1,312,41.8,311.6,41.3,311.6z"/>
		<path class="st4" d="M45.2,311.6c-0.4,0-0.8,0.4-0.8,0.8v6.7c0,0.4,0.4,0.8,0.8,0.8s0.8-0.4,0.8-0.8v-6.7
			C46,312,45.6,311.6,45.2,311.6z"/>
		<path class="st4" d="M49,311.6c-0.4,0-0.8,0.4-0.8,0.8v6.7c0,0.4,0.4,0.8,0.8,0.8s0.8-0.4,0.8-0.8v-6.7
			C49.8,312,49.4,311.6,49,311.6z"/>
		<path class="st4" d="M52.8,311.6c-0.4,0-0.8,0.4-0.8,0.8v6.7c0,0.4,0.4,0.8,0.8,0.8s0.8-0.4,0.8-0.8v-6.7
			C53.6,312,53.3,311.6,52.8,311.6z"/>
		<path class="st4" d="M56.7,311.6c-0.4,0-0.8,0.4-0.8,0.8v6.7c0,0.4,0.4,0.8,0.8,0.8c0.4,0,0.8-0.4,0.8-0.8v-6.7
			C57.5,312,57.1,311.6,56.7,311.6z"/>
		<path class="st4" d="M60.5,311.6c-0.4,0-0.8,0.4-0.8,0.8v6.7c0,0.4,0.4,0.8,0.8,0.8s0.8-0.4,0.8-0.8v-6.7
			C61.3,312,60.9,311.6,60.5,311.6z"/>
		<path class="st4" d="M33.7,352c-0.4,0-0.8,0.4-0.8,0.8v6.7c0,0.4,0.4,0.8,0.8,0.8c0.4,0,0.8-0.4,0.8-0.8v-6.7
			C34.5,352.3,34.1,352,33.7,352z"/>
		<path class="st4" d="M37.5,352c-0.4,0-0.8,0.4-0.8,0.8v6.7c0,0.4,0.4,0.8,0.8,0.8s0.8-0.4,0.8-0.8v-6.7
			C38.3,352.3,37.9,352,37.5,352z"/>
		<path class="st4" d="M41.3,352c-0.4,0-0.8,0.4-0.8,0.8v6.7c0,0.4,0.4,0.8,0.8,0.8s0.8-0.4,0.8-0.8v-6.7
			C42.1,352.3,41.8,352,41.3,352z"/>
		<path class="st4" d="M45.2,352c-0.4,0-0.8,0.4-0.8,0.8v6.7c0,0.4,0.4,0.8,0.8,0.8s0.8-0.4,0.8-0.8v-6.7
			C46,352.3,45.6,352,45.2,352z"/>
		<path class="st4" d="M49,352c-0.4,0-0.8,0.4-0.8,0.8v6.7c0,0.4,0.4,0.8,0.8,0.8s0.8-0.4,0.8-0.8v-6.7C49.8,352.3,49.4,352,49,352z
			"/>
		<path class="st4" d="M52.8,352c-0.4,0-0.8,0.4-0.8,0.8v6.7c0,0.4,0.4,0.8,0.8,0.8s0.8-0.4,0.8-0.8v-6.7
			C53.6,352.3,53.3,352,52.8,352z"/>
		<path class="st4" d="M56.7,352c-0.4,0-0.8,0.4-0.8,0.8v6.7c0,0.4,0.4,0.8,0.8,0.8c0.4,0,0.8-0.4,0.8-0.8v-6.7
			C57.5,352.3,57.1,352,56.7,352z"/>
		<path class="st4" d="M60.5,352c-0.4,0-0.8,0.4-0.8,0.8v6.7c0,0.4,0.4,0.8,0.8,0.8s0.8-0.4,0.8-0.8v-6.7
			C61.3,352.3,60.9,352,60.5,352z"/>
		<path class="st4" d="M63.9,323.3h6.7c0.4,0,0.8-0.4,0.8-0.8c0-0.4-0.4-0.8-0.8-0.8h-6.7c-0.4,0-0.8,0.4-0.8,0.8
			C63.1,322.9,63.5,323.3,63.9,323.3z"/>
		<path class="st4" d="M70.6,325.6h-6.7c-0.4,0-0.8,0.4-0.8,0.8s0.4,0.8,0.8,0.8h6.7c0.4,0,0.8-0.4,0.8-0.8S71,325.6,70.6,325.6z"/>
		<path class="st4" d="M70.6,329.4h-6.7c-0.4,0-0.8,0.4-0.8,0.8s0.4,0.8,0.8,0.8h6.7c0.4,0,0.8-0.4,0.8-0.8S71,329.4,70.6,329.4z"/>
		<path class="st4" d="M70.6,333.2h-6.7c-0.4,0-0.8,0.4-0.8,0.8c0,0.4,0.4,0.8,0.8,0.8h6.7c0.4,0,0.8-0.4,0.8-0.8
			C71.4,333.6,71,333.2,70.6,333.2z"/>
		<path class="st4" d="M70.6,337.1h-6.7c-0.4,0-0.8,0.4-0.8,0.8c0,0.4,0.4,0.8,0.8,0.8h6.7c0.4,0,0.8-0.4,0.8-0.8
			C71.4,337.4,71,337.1,70.6,337.1z"/>
		<path class="st4" d="M70.6,340.9h-6.7c-0.4,0-0.8,0.4-0.8,0.8c0,0.4,0.4,0.8,0.8,0.8h6.7c0.4,0,0.8-0.4,0.8-0.8
			C71.4,341.3,71,340.9,70.6,340.9z"/>
		<path class="st4" d="M70.6,344.7h-6.7c-0.4,0-0.8,0.4-0.8,0.8c0,0.4,0.4,0.8,0.8,0.8h6.7c0.4,0,0.8-0.4,0.8-0.8
			C71.4,345.1,71,344.7,70.6,344.7z"/>
		<path class="st4" d="M70.6,348.6h-6.7c-0.4,0-0.8,0.4-0.8,0.8c0,0.4,0.4,0.8,0.8,0.8h6.7c0.4,0,0.8-0.4,0.8-0.8
			C71.4,348.9,71,348.6,70.6,348.6z"/>
		<path class="st4" d="M30.3,321.7h-6.7c-0.4,0-0.8,0.4-0.8,0.8c0,0.4,0.4,0.8,0.8,0.8h6.7c0.4,0,0.8-0.4,0.8-0.8
			C31.1,322.1,30.7,321.7,30.3,321.7z"/>
		<path class="st4" d="M30.3,325.6h-6.7c-0.4,0-0.8,0.4-0.8,0.8s0.4,0.8,0.8,0.8h6.7c0.4,0,0.8-0.4,0.8-0.8S30.7,325.6,30.3,325.6z"
			/>
		<path class="st4" d="M30.3,329.4h-6.7c-0.4,0-0.8,0.4-0.8,0.8s0.4,0.8,0.8,0.8h6.7c0.4,0,0.8-0.4,0.8-0.8S30.7,329.4,30.3,329.4z"
			/>
		<path class="st4" d="M30.3,333.2h-6.7c-0.4,0-0.8,0.4-0.8,0.8c0,0.4,0.4,0.8,0.8,0.8h6.7c0.4,0,0.8-0.4,0.8-0.8
			C31.1,333.6,30.7,333.2,30.3,333.2z"/>
		<path class="st4" d="M30.3,337.1h-6.7c-0.4,0-0.8,0.4-0.8,0.8c0,0.4,0.4,0.8,0.8,0.8h6.7c0.4,0,0.8-0.4,0.8-0.8
			C31.1,337.4,30.7,337.1,30.3,337.1z"/>
		<path class="st4" d="M30.3,340.9h-6.7c-0.4,0-0.8,0.4-0.8,0.8c0,0.4,0.4,0.8,0.8,0.8h6.7c0.4,0,0.8-0.4,0.8-0.8
			C31.1,341.3,30.7,340.9,30.3,340.9z"/>
		<path class="st4" d="M30.3,344.7h-6.7c-0.4,0-0.8,0.4-0.8,0.8c0,0.4,0.4,0.8,0.8,0.8h6.7c0.4,0,0.8-0.4,0.8-0.8
			C31.1,345.1,30.7,344.7,30.3,344.7z"/>
		<path class="st4" d="M30.3,348.6h-6.7c-0.4,0-0.8,0.4-0.8,0.8c0,0.4,0.4,0.8,0.8,0.8h6.7c0.4,0,0.8-0.4,0.8-0.8
			C31.1,348.9,30.7,348.6,30.3,348.6z"/>
	</g>
	<g>
		<rect x="30.3" y="319.1" class="st6" width="33.7" height="33.7"/>
		<rect x="35.2" y="323.8" class="st4" width="23.8" height="23.8"/>
	</g>
	<path class="st7" d="M52.1,336.2c-0.2-0.3-0.6-0.6-1-0.8c0.2-0.2,0.3-0.3,0.4-0.5c0.3-0.5,0.4-1,0.4-1.6c0-0.6-0.2-1.2-0.5-1.7
		c-0.3-0.5-0.9-0.9-1.7-1.1c0,0,0,0-0.1,0v-2.7c0-0.4-0.4-0.8-0.8-0.8s-0.8,0.4-0.8,0.8v2.5c-0.2,0-0.4,0-0.6,0h-0.9v-2.5
		c0-0.4-0.4-0.8-0.8-0.8s-0.8,0.4-0.8,0.8v2.5h-0.2h-2.6c-0.4,0-0.8,0.4-0.8,0.8c0,0.4,0.4,0.8,0.8,0.8h1.8v3.8v4.3h-1.8
		c-0.4,0-0.8,0.4-0.8,0.8s0.4,0.8,0.8,0.8h2.6H45v2.7c0,0.4,0.4,0.8,0.8,0.8s0.8-0.4,0.8-0.8v-2.7H47c0.4,0,0.8,0,1.2,0v2.8
		c0,0.4,0.4,0.8,0.8,0.8s0.8-0.4,0.8-0.8v-3c0.5-0.1,0.9-0.3,1.3-0.5c0.4-0.2,0.7-0.5,0.9-0.7c0.3-0.3,0.4-0.6,0.6-1
		c0.1-0.3,0.2-0.7,0.2-1C52.7,337.3,52.5,336.7,52.1,336.2z M48.6,331.8c0.3,0,0.5,0.1,0.7,0.1c0.4,0.1,0.7,0.3,0.8,0.5
		c0.2,0.2,0.2,0.5,0.2,0.8c0,0.3-0.1,0.6-0.2,0.8c-0.1,0.2-0.3,0.4-0.7,0.5c-0.2,0.1-0.7,0.2-1.7,0.2h-2.2v-3.1h1.9
		C48,331.8,48.4,331.8,48.6,331.8z M51,338.6c0,0.1-0.1,0.3-0.2,0.4c-0.1,0.1-0.3,0.3-0.5,0.4c-0.2,0.1-0.5,0.2-0.9,0.3
		c-0.3,0.1-0.6,0.1-0.9,0.1c-0.4,0-0.9,0-1.4,0h-1.4v-3.5h2.2h0.1c0.5,0,0.9,0,1.3,0c0.3,0,0.5,0.1,0.8,0.1c0.4,0.1,0.7,0.3,0.9,0.6
		c0.2,0.2,0.3,0.5,0.3,0.8C51.1,338.2,51.1,338.4,51,338.6z"/>
</g>
<g>
	<polygon class="st12" points="179.1,232.5 157.3,232.5 157.3,207.9 177.6,200.2 	"/>
	<g>
		<rect x="168.5" y="167.8" class="st6" width="36.8" height="72.3"/>
		<g>
			<path class="st4" d="M205.3,240.1h-10.6c0-5.9,4.7-10.6,10.6-10.6V240.1z"/>
			<path class="st4" d="M179.1,240.1h-10.6v-10.6C174.4,229.5,179.1,234.2,179.1,240.1z"/>
			<path class="st4" d="M205.3,178.4c-5.9,0-10.6-4.7-10.6-10.6h10.6V178.4z"/>
			<path class="st4" d="M168.5,178.4v-10.6h10.6C179.1,173.6,174.4,178.4,168.5,178.4z"/>
		</g>
		<g>
			<path class="st4" d="M186.9,218.1c-7.8,0-14.2-6.4-14.2-14.2s6.4-14.2,14.2-14.2s14.2,6.4,14.2,14.2S194.8,218.1,186.9,218.1z"/>
			<g>
				<g>
					<path class="st7" d="M186.3,204.8v-3.6c0-0.5,0.4-1,1-1h5.6c0.5,0,1,0.4,1,1v3.3c0,0.6,0,1.1-0.1,1.5c0,0.4-0.1,0.9-0.2,1.2
						c-0.3,0.9-0.8,1.6-1.4,2c-0.6,0.4-1.3,0.6-2.1,0.6c-0.7,0-1.4-0.2-2-0.5c-0.6-0.4-1.1-0.9-1.4-1.7
						C186.5,206.9,186.3,206,186.3,204.8z M188.3,202.2v2.6c0,1.2,0.1,1.8,0.3,2.1c0.2,0.4,0.4,0.7,0.6,0.8c0.3,0.2,0.6,0.3,1,0.3
						c0.4,0,0.7-0.1,1-0.3c0.3-0.2,0.5-0.5,0.6-1c0.1-0.2,0.1-0.5,0.1-0.8c0-0.4,0.1-0.8,0.1-1.4v-2.3H188.3z"/>
				</g>
				<g>
					<path class="st7" d="M180.2,203.8v-2.6c0-0.5,0.4-1,1-1h6.1c0.5,0,1,0.4,1,1v3.8c0,0.7,0,1.3-0.1,1.7c0,0.5-0.1,0.9-0.2,1.3
						c-0.3,0.9-0.8,1.6-1.4,2.1c-0.6,0.5-1.4,0.7-2.2,0.7c-0.4,0-0.9-0.1-1.3-0.2c-0.4-0.1-0.8-0.4-1.2-0.7
						c-0.3-0.3-0.6-0.7-0.9-1.2c-0.2-0.4-0.4-1-0.6-1.6c-0.1-0.4-0.2-0.9-0.2-1.4C180.2,205.1,180.2,204.5,180.2,203.8z
						 M182.1,202.2v1.6c0,0.7,0,1.2,0.1,1.7c0,0.4,0.1,0.8,0.2,1.1c0.1,0.5,0.2,0.9,0.4,1.1c0.1,0.3,0.3,0.5,0.5,0.6
						c0.2,0.1,0.3,0.2,0.5,0.3c0.2,0.1,0.4,0.1,0.7,0.1c0.4,0,0.7-0.1,1-0.3c0.3-0.2,0.5-0.6,0.7-1.1c0.1-0.2,0.1-0.6,0.2-0.9
						c0-0.4,0.1-0.9,0.1-1.5v-2.8H182.1z"/>
				</g>
				<g>
					<path class="st7" d="M192,201.2v-3.1c0-0.5,0.4-1,1-1s1,0.4,1,1v3.1c0,0.5-0.4,1-1,1S192,201.7,192,201.2z"/>
				</g>
				<g>
					<path class="st7" d="M180.2,201.2v-3.1c0-0.5,0.4-1,1-1c0.5,0,1,0.4,1,1v3.1c0,0.5-0.4,1-1,1
						C180.6,202.2,180.2,201.7,180.2,201.2z"/>
				</g>
				<g>
					<path class="st7" d="M192,202.4c0-0.5,0.4-1,1-1h4c0.5,0,1,0.4,1,1c0,0.5-0.4,1-1,1h-4C192.4,203.4,192,203,192,202.4z"/>
				</g>
				<g>
					<path class="st7" d="M192,206.1c0-0.5,0.4-1,1-1h4c0.5,0,1,0.4,1,1c0,0.5-0.4,1-1,1h-4C192.4,207,192,206.6,192,206.1z"/>
				</g>
				<g>
					<path class="st7" d="M176,202.4c0-0.5,0.4-1,1-1h4c0.5,0,1,0.4,1,1c0,0.5-0.4,1-1,1h-4C176.4,203.4,176,203,176,202.4z"/>
				</g>
				<g>
					<path class="st7" d="M176,206.1c0-0.5,0.4-1,1-1h4c0.5,0,1,0.4,1,1c0,0.5-0.4,1-1,1h-4C176.4,207,176,206.6,176,206.1z"/>
				</g>
			</g>
		</g>
	</g>
	<g>
		<path class="st13" d="M186.8,230.2c-3.6,5.1-5.4,7-9.4,9.9c-4.8,3.4-12.7,8.2-30.6,21.5l-17.7-17.7c0,0,14.7-28.4,19.4-35.9
			c4-6.3,14.4-12.9,19.9-12.9v13.6c-5.9-1.1-8.2,4.2-8.8,6.2c-1.3,4.1,4.5,13.6,8.8,13.5c4.4,0,10.3-6.4,14.5-7.8
			C190.1,218.2,188.6,227.7,186.8,230.2z"/>
		<polygon class="st3" points="146.9,261.6 140.2,268.2 122.5,250.5 129.2,243.9 		"/>
		<path class="st2" d="M132.4,251.7l-2.5-2.5c-0.5-0.5-1.4-0.5-1.9,0c-0.5,0.5-0.5,1.4,0,1.9l2.5,2.5c0.3,0.3,0.6,0.4,0.9,0.4
			s0.7-0.1,0.9-0.4C132.9,253,132.9,252.2,132.4,251.7z"/>
	</g>
</g>
</svg>
