<?xml version="1.0" encoding="utf-8"?>
<!-- Generator: Adobe Illustrator 22.1.0, SVG Export Plug-In . SVG Version: 6.00 Build 0)  -->
<svg version="1.1" id="Layer_1" xmlns="http://www.w3.org/2000/svg" xmlns:xlink="http://www.w3.org/1999/xlink" x="0px" y="0px"
	 viewBox="0 0 500 500" style="enable-background:new 0 0 500 500;" xml:space="preserve">
<style type="text/css">
	.st0{fill:#222338;}
	.st1{opacity:0.3;fill:#1D0E35;}
	.st2{enable-background:new    ;}
	.st3{fill:#E5E3E8;}
	.st4{fill:#D4CED8;}
	.st5{fill:#E0DDE1;}
	.st6{fill:#F1F1F1;}
	.st7{fill:url(#SVGID_1_);}
	.st8{fill:#1F0159;}
	.st9{fill:#3D2F43;}
	.st10{fill:#10191B;}
	.st11{fill:#242A31;}
	.st12{opacity:0.3;}
	.st13{fill:#50298A;}
	.st14{fill:#693AB0;}
	.st15{fill:#7350BA;}
	.st16{fill:#8125BB;}
	.st17{fill:#AC44EE;}
	.st18{fill:#C574F7;}
	.st19{fill:#FFB700;}
	.st20{fill:#FFC400;}
	.st21{fill:#FFDE38;}
	.st22{fill:#F9F7FC;}
	.st23{fill:#F5F3FB;}
	.st24{opacity:0.2;}
	.st25{fill:#828CC0;}
	.st26{fill:#FFFFFF;}
	.st27{fill:#FFD438;}
	.st28{opacity:0.3;fill:#2A1649;}
	.st29{fill:#0D889F;}
	.st30{fill:#A89317;}
	.st31{clip-path:url(#SVGID_3_);}
	.st32{clip-path:url(#SVGID_5_);enable-background:new    ;}
	.st33{clip-path:url(#SVGID_7_);enable-background:new    ;}
	.st34{clip-path:url(#SVGID_9_);enable-background:new    ;}
	.st35{fill:#0E8FA7;}
	.st36{clip-path:url(#SVGID_11_);}
	.st37{clip-path:url(#SVGID_13_);enable-background:new    ;}
	.st38{opacity:0.3;fill:#190D2B;}
	.st39{clip-path:url(#SVGID_15_);enable-background:new    ;}
	.st40{clip-path:url(#SVGID_17_);}
	.st41{fill:#251B29;}
	.st42{clip-path:url(#SVGID_19_);enable-background:new    ;}
	.st43{clip-path:url(#SVGID_21_);}
	.st44{fill:url(#SVGID_22_);}
	.st45{opacity:0.3;fill:#AC44EE;}
	.st46{opacity:0.5;fill:#B7B5BA;}
	.st47{opacity:0.9;fill:#AC44EE;}
	.st48{opacity:0.9;fill:#8B35D2;}
	.st49{opacity:0.9;}
	.st50{fill:#4C1F8C;}
	.st51{fill:#8B35D2;}
	.st52{opacity:0.9;fill:#4C1F8C;}
	.st53{fill:#F3A984;}
	.st54{fill:#6E4CB3;}
	.st55{fill:#8763CD;}
	.st56{fill:#F5A783;}
	.st57{fill:#EE9C76;}
	.st58{fill:#FFBFA2;}
	.st59{fill:#F8B495;}
	.st60{fill:#C99C83;}
	.st61{fill:#B98C74;}
	.st62{opacity:0.3;fill:#211338;}
	.st63{fill:#FF9900;}
	.st64{clip-path:url(#SVGID_24_);enable-background:new    ;}
	.st65{clip-path:url(#SVGID_26_);enable-background:new    ;}
	.st66{clip-path:url(#SVGID_28_);enable-background:new    ;}
	.st67{clip-path:url(#SVGID_30_);enable-background:new    ;}
	.st68{opacity:0.3;fill:#1E1133;}
	.st69{clip-path:url(#SVGID_32_);enable-background:new    ;}
	.st70{clip-path:url(#SVGID_34_);enable-background:new    ;}
	.st71{clip-path:url(#SVGID_36_);enable-background:new    ;}
	.st72{clip-path:url(#SVGID_38_);enable-background:new    ;}
	.st73{clip-path:url(#SVGID_40_);enable-background:new    ;}
	.st74{clip-path:url(#SVGID_42_);enable-background:new    ;}
	.st75{clip-path:url(#SVGID_44_);enable-background:new    ;}
	.st76{clip-path:url(#SVGID_46_);enable-background:new    ;}
	.st77{clip-path:url(#SVGID_48_);enable-background:new    ;}
	.st78{clip-path:url(#SVGID_50_);enable-background:new    ;}
	.st79{clip-path:url(#SVGID_52_);enable-background:new    ;}
	.st80{clip-path:url(#SVGID_54_);enable-background:new    ;}
	.st81{clip-path:url(#SVGID_56_);enable-background:new    ;}
	.st82{clip-path:url(#SVGID_58_);enable-background:new    ;}
	.st83{clip-path:url(#SVGID_60_);enable-background:new    ;}
	.st84{clip-path:url(#SVGID_62_);enable-background:new    ;}
	.st85{clip-path:url(#SVGID_64_);enable-background:new    ;}
	.st86{clip-path:url(#SVGID_66_);enable-background:new    ;}
	.st87{clip-path:url(#SVGID_68_);enable-background:new    ;}
	.st88{clip-path:url(#SVGID_70_);enable-background:new    ;}
	.st89{clip-path:url(#SVGID_72_);enable-background:new    ;}
	.st90{clip-path:url(#SVGID_74_);enable-background:new    ;}
	.st91{clip-path:url(#SVGID_76_);enable-background:new    ;}
	.st92{clip-path:url(#SVGID_78_);enable-background:new    ;}
	.st93{opacity:0.3;fill:#0E0819;}
	.st94{clip-path:url(#SVGID_80_);enable-background:new    ;}
	.st95{clip-path:url(#SVGID_82_);enable-background:new    ;}
	.st96{clip-path:url(#SVGID_84_);enable-background:new    ;}
	.st97{clip-path:url(#SVGID_86_);enable-background:new    ;}
	.st98{clip-path:url(#SVGID_88_);enable-background:new    ;}
	.st99{clip-path:url(#SVGID_90_);enable-background:new    ;}
	.st100{clip-path:url(#SVGID_92_);enable-background:new    ;}
	.st101{clip-path:url(#SVGID_94_);enable-background:new    ;}
	.st102{clip-path:url(#SVGID_96_);enable-background:new    ;}
	.st103{clip-path:url(#SVGID_98_);enable-background:new    ;}
	.st104{clip-path:url(#SVGID_100_);enable-background:new    ;}
	.st105{clip-path:url(#SVGID_102_);enable-background:new    ;}
	.st106{clip-path:url(#SVGID_104_);enable-background:new    ;}
	.st107{clip-path:url(#SVGID_106_);enable-background:new    ;}
	.st108{clip-path:url(#SVGID_108_);enable-background:new    ;}
	.st109{clip-path:url(#SVGID_110_);enable-background:new    ;}
	.st110{clip-path:url(#SVGID_112_);enable-background:new    ;}
	.st111{clip-path:url(#SVGID_114_);enable-background:new    ;}
	.st112{clip-path:url(#SVGID_116_);enable-background:new    ;}
	.st113{clip-path:url(#SVGID_118_);enable-background:new    ;}
	.st114{clip-path:url(#SVGID_120_);enable-background:new    ;}
	.st115{clip-path:url(#SVGID_122_);enable-background:new    ;}
	.st116{clip-path:url(#SVGID_124_);enable-background:new    ;}
	.st117{clip-path:url(#SVGID_126_);enable-background:new    ;}
	.st118{clip-path:url(#SVGID_128_);enable-background:new    ;}
	.st119{clip-path:url(#SVGID_130_);enable-background:new    ;}
	.st120{clip-path:url(#SVGID_132_);enable-background:new    ;}
	.st121{clip-path:url(#SVGID_134_);enable-background:new    ;}
	.st122{clip-path:url(#SVGID_136_);enable-background:new    ;}
	.st123{clip-path:url(#SVGID_138_);enable-background:new    ;}
	.st124{clip-path:url(#SVGID_140_);enable-background:new    ;}
	.st125{clip-path:url(#SVGID_142_);enable-background:new    ;}
	.st126{clip-path:url(#SVGID_144_);enable-background:new    ;}
	.st127{clip-path:url(#SVGID_146_);enable-background:new    ;}
	.st128{clip-path:url(#SVGID_148_);enable-background:new    ;}
	.st129{clip-path:url(#SVGID_150_);enable-background:new    ;}
	.st130{clip-path:url(#SVGID_152_);enable-background:new    ;}
	.st131{clip-path:url(#SVGID_154_);enable-background:new    ;}
	.st132{clip-path:url(#SVGID_156_);enable-background:new    ;}
	.st133{clip-path:url(#SVGID_158_);enable-background:new    ;}
	.st134{clip-path:url(#SVGID_160_);enable-background:new    ;}
	.st135{clip-path:url(#SVGID_162_);enable-background:new    ;}
	.st136{clip-path:url(#SVGID_164_);enable-background:new    ;}
	.st137{clip-path:url(#SVGID_166_);enable-background:new    ;}
	.st138{clip-path:url(#SVGID_168_);enable-background:new    ;}
	.st139{clip-path:url(#SVGID_170_);enable-background:new    ;}
	.st140{clip-path:url(#SVGID_172_);enable-background:new    ;}
	.st141{clip-path:url(#SVGID_174_);enable-background:new    ;}
	.st142{clip-path:url(#SVGID_176_);enable-background:new    ;}
	.st143{clip-path:url(#SVGID_178_);enable-background:new    ;}
	.st144{clip-path:url(#SVGID_180_);enable-background:new    ;}
	.st145{clip-path:url(#SVGID_182_);enable-background:new    ;}
	.st146{clip-path:url(#SVGID_184_);enable-background:new    ;}
	.st147{clip-path:url(#SVGID_186_);enable-background:new    ;}
	.st148{clip-path:url(#SVGID_188_);enable-background:new    ;}
	.st149{clip-path:url(#SVGID_190_);enable-background:new    ;}
	.st150{clip-path:url(#SVGID_192_);enable-background:new    ;}
	.st151{clip-path:url(#SVGID_194_);enable-background:new    ;}
	.st152{clip-path:url(#SVGID_196_);enable-background:new    ;}
	.st153{clip-path:url(#SVGID_198_);enable-background:new    ;}
	.st154{clip-path:url(#SVGID_200_);enable-background:new    ;}
	.st155{clip-path:url(#SVGID_202_);enable-background:new    ;}
	.st156{clip-path:url(#SVGID_204_);enable-background:new    ;}
	.st157{clip-path:url(#SVGID_206_);enable-background:new    ;}
	.st158{clip-path:url(#SVGID_208_);enable-background:new    ;}
	.st159{clip-path:url(#SVGID_210_);enable-background:new    ;}
	.st160{clip-path:url(#SVGID_212_);enable-background:new    ;}
	.st161{clip-path:url(#SVGID_214_);enable-background:new    ;}
	.st162{clip-path:url(#SVGID_216_);enable-background:new    ;}
	.st163{clip-path:url(#SVGID_218_);enable-background:new    ;}
	.st164{clip-path:url(#SVGID_220_);enable-background:new    ;}
	.st165{clip-path:url(#SVGID_222_);enable-background:new    ;}
	.st166{opacity:0.3;fill:#10091E;}
	.st167{clip-path:url(#SVGID_224_);enable-background:new    ;}
	.st168{clip-path:url(#SVGID_226_);enable-background:new    ;}
	.st169{clip-path:url(#SVGID_228_);enable-background:new    ;}
	.st170{clip-path:url(#SVGID_230_);enable-background:new    ;}
	.st171{clip-path:url(#SVGID_232_);enable-background:new    ;}
	.st172{clip-path:url(#SVGID_234_);enable-background:new    ;}
	.st173{clip-path:url(#SVGID_236_);enable-background:new    ;}
	.st174{clip-path:url(#SVGID_238_);enable-background:new    ;}
	.st175{clip-path:url(#SVGID_240_);enable-background:new    ;}
	.st176{clip-path:url(#SVGID_242_);enable-background:new    ;}
	.st177{clip-path:url(#SVGID_244_);enable-background:new    ;}
	.st178{clip-path:url(#SVGID_246_);enable-background:new    ;}
	.st179{clip-path:url(#SVGID_248_);enable-background:new    ;}
	.st180{clip-path:url(#SVGID_250_);enable-background:new    ;}
	.st181{clip-path:url(#SVGID_252_);enable-background:new    ;}
	.st182{clip-path:url(#SVGID_254_);enable-background:new    ;}
	.st183{clip-path:url(#SVGID_256_);enable-background:new    ;}
	.st184{clip-path:url(#SVGID_258_);enable-background:new    ;}
	.st185{clip-path:url(#SVGID_260_);enable-background:new    ;}
	.st186{clip-path:url(#SVGID_262_);enable-background:new    ;}
	.st187{clip-path:url(#SVGID_264_);enable-background:new    ;}
	.st188{clip-path:url(#SVGID_266_);enable-background:new    ;}
	.st189{clip-path:url(#SVGID_268_);enable-background:new    ;}
	.st190{clip-path:url(#SVGID_270_);enable-background:new    ;}
	.st191{clip-path:url(#SVGID_272_);enable-background:new    ;}
	.st192{clip-path:url(#SVGID_274_);enable-background:new    ;}
	.st193{clip-path:url(#SVGID_276_);enable-background:new    ;}
	.st194{clip-path:url(#SVGID_278_);enable-background:new    ;}
	.st195{opacity:0.3;fill:#11091C;}
	.st196{clip-path:url(#SVGID_280_);enable-background:new    ;}
	.st197{clip-path:url(#SVGID_282_);enable-background:new    ;}
	.st198{clip-path:url(#SVGID_284_);enable-background:new    ;}
	.st199{clip-path:url(#SVGID_286_);enable-background:new    ;}
	.st200{clip-path:url(#SVGID_288_);enable-background:new    ;}
	.st201{clip-path:url(#SVGID_290_);enable-background:new    ;}
	.st202{clip-path:url(#SVGID_292_);enable-background:new    ;}
	.st203{clip-path:url(#SVGID_294_);enable-background:new    ;}
	.st204{clip-path:url(#SVGID_296_);enable-background:new    ;}
	.st205{clip-path:url(#SVGID_298_);enable-background:new    ;}
	.st206{clip-path:url(#SVGID_300_);enable-background:new    ;}
	.st207{clip-path:url(#SVGID_302_);enable-background:new    ;}
	.st208{fill:url(#SVGID_303_);}
	.st209{fill:#11091C;}
	.st210{fill:#592B9E;}
	.st211{clip-path:url(#SVGID_305_);enable-background:new    ;}
	.st212{clip-path:url(#SVGID_307_);}
	.st213{clip-path:url(#SVGID_309_);enable-background:new    ;}
	.st214{clip-path:url(#SVGID_311_);}
	.st215{fill:url(#SVGID_312_);}
	.st216{fill:#140B23;}
	.st217{opacity:0.3;fill:#110A1C;}
	.st218{fill:url(#SVGID_313_);}
	.st219{fill:#FFA200;}
	.st220{clip-path:url(#SVGID_315_);enable-background:new    ;}
	.st221{clip-path:url(#SVGID_317_);enable-background:new    ;}
	.st222{clip-path:url(#SVGID_319_);enable-background:new    ;}
	.st223{clip-path:url(#SVGID_321_);enable-background:new    ;}
	.st224{clip-path:url(#SVGID_323_);enable-background:new    ;}
	.st225{clip-path:url(#SVGID_325_);enable-background:new    ;}
	.st226{clip-path:url(#SVGID_327_);enable-background:new    ;}
	.st227{clip-path:url(#SVGID_329_);enable-background:new    ;}
	.st228{clip-path:url(#SVGID_331_);enable-background:new    ;}
	.st229{clip-path:url(#SVGID_333_);enable-background:new    ;}
	.st230{clip-path:url(#SVGID_335_);enable-background:new    ;}
	.st231{clip-path:url(#SVGID_337_);enable-background:new    ;}
	.st232{clip-path:url(#SVGID_339_);enable-background:new    ;}
	.st233{clip-path:url(#SVGID_341_);enable-background:new    ;}
	.st234{clip-path:url(#SVGID_343_);enable-background:new    ;}
	.st235{clip-path:url(#SVGID_345_);enable-background:new    ;}
	.st236{clip-path:url(#SVGID_347_);enable-background:new    ;}
	.st237{clip-path:url(#SVGID_349_);enable-background:new    ;}
	.st238{clip-path:url(#SVGID_351_);enable-background:new    ;}
	.st239{clip-path:url(#SVGID_353_);enable-background:new    ;}
	.st240{clip-path:url(#SVGID_355_);enable-background:new    ;}
	.st241{clip-path:url(#SVGID_357_);enable-background:new    ;}
	.st242{clip-path:url(#SVGID_359_);enable-background:new    ;}
	.st243{clip-path:url(#SVGID_361_);enable-background:new    ;}
	.st244{clip-path:url(#SVGID_363_);enable-background:new    ;}
	.st245{clip-path:url(#SVGID_365_);enable-background:new    ;}
	.st246{clip-path:url(#SVGID_367_);enable-background:new    ;}
	.st247{clip-path:url(#SVGID_369_);enable-background:new    ;}
	.st248{clip-path:url(#SVGID_371_);enable-background:new    ;}
	.st249{clip-path:url(#SVGID_373_);enable-background:new    ;}
	.st250{clip-path:url(#SVGID_375_);enable-background:new    ;}
	.st251{clip-path:url(#SVGID_377_);enable-background:new    ;}
	.st252{clip-path:url(#SVGID_379_);enable-background:new    ;}
	.st253{clip-path:url(#SVGID_381_);enable-background:new    ;}
	.st254{clip-path:url(#SVGID_383_);enable-background:new    ;}
	.st255{clip-path:url(#SVGID_385_);enable-background:new    ;}
	.st256{clip-path:url(#SVGID_387_);enable-background:new    ;}
	.st257{clip-path:url(#SVGID_389_);enable-background:new    ;}
	.st258{clip-path:url(#SVGID_391_);enable-background:new    ;}
	.st259{clip-path:url(#SVGID_393_);enable-background:new    ;}
	.st260{opacity:0.3;fill:#120A1E;}
	.st261{clip-path:url(#SVGID_395_);enable-background:new    ;}
	.st262{clip-path:url(#SVGID_397_);enable-background:new    ;}
	.st263{clip-path:url(#SVGID_399_);enable-background:new    ;}
	.st264{clip-path:url(#SVGID_401_);enable-background:new    ;}
	.st265{clip-path:url(#SVGID_403_);enable-background:new    ;}
	.st266{clip-path:url(#SVGID_405_);enable-background:new    ;}
	.st267{clip-path:url(#SVGID_407_);enable-background:new    ;}
	.st268{clip-path:url(#SVGID_409_);enable-background:new    ;}
	.st269{clip-path:url(#SVGID_411_);enable-background:new    ;}
	.st270{clip-path:url(#SVGID_413_);enable-background:new    ;}
	.st271{clip-path:url(#SVGID_415_);enable-background:new    ;}
	.st272{clip-path:url(#SVGID_417_);enable-background:new    ;}
	.st273{clip-path:url(#SVGID_419_);enable-background:new    ;}
	.st274{clip-path:url(#SVGID_421_);enable-background:new    ;}
	.st275{clip-path:url(#SVGID_423_);enable-background:new    ;}
	.st276{clip-path:url(#SVGID_425_);enable-background:new    ;}
	.st277{clip-path:url(#SVGID_427_);enable-background:new    ;}
	.st278{clip-path:url(#SVGID_429_);enable-background:new    ;}
	.st279{clip-path:url(#SVGID_431_);enable-background:new    ;}
	.st280{clip-path:url(#SVGID_433_);enable-background:new    ;}
	.st281{clip-path:url(#SVGID_435_);enable-background:new    ;}
	.st282{clip-path:url(#SVGID_437_);enable-background:new    ;}
	.st283{clip-path:url(#SVGID_439_);enable-background:new    ;}
	.st284{clip-path:url(#SVGID_441_);enable-background:new    ;}
	.st285{fill:#120A1E;}
	.st286{opacity:0.3;fill:#140B21;}
	.st287{clip-path:url(#SVGID_443_);enable-background:new    ;}
	.st288{clip-path:url(#SVGID_445_);enable-background:new    ;}
	.st289{fill:#C9C9EC;}
	.st290{fill:#B7B7D7;}
	.st291{fill:#E1E1F5;}
	.st292{fill:#DF9B09;}
	.st293{opacity:0.3;fill:#0F0819;}
	.st294{clip-path:url(#SVGID_447_);}
	.st295{clip-path:url(#SVGID_449_);enable-background:new    ;}
	.st296{clip-path:url(#SVGID_451_);enable-background:new    ;}
	.st297{clip-path:url(#SVGID_453_);enable-background:new    ;}
	.st298{clip-path:url(#SVGID_455_);enable-background:new    ;}
	.st299{clip-path:url(#SVGID_457_);enable-background:new    ;}
	.st300{clip-path:url(#SVGID_459_);enable-background:new    ;}
	.st301{clip-path:url(#SVGID_461_);enable-background:new    ;}
	.st302{clip-path:url(#SVGID_463_);enable-background:new    ;}
	.st303{clip-path:url(#SVGID_465_);enable-background:new    ;}
	.st304{clip-path:url(#SVGID_467_);enable-background:new    ;}
	.st305{clip-path:url(#SVGID_469_);enable-background:new    ;}
	.st306{clip-path:url(#SVGID_471_);enable-background:new    ;}
	.st307{clip-path:url(#SVGID_473_);enable-background:new    ;}
	.st308{clip-path:url(#SVGID_475_);enable-background:new    ;}
	.st309{clip-path:url(#SVGID_477_);enable-background:new    ;}
	.st310{clip-path:url(#SVGID_479_);enable-background:new    ;}
	.st311{clip-path:url(#SVGID_481_);enable-background:new    ;}
	.st312{clip-path:url(#SVGID_483_);enable-background:new    ;}
	.st313{fill:#FFE561;}
	.st314{fill:url(#SVGID_484_);}
</style>
<rect y="0" class="st0" width="500" height="500"/>
<g>
	<path class="st166" d="M370.7,326.4l78.9-45.6c1.7-1,1.7-3.4,0-4.3l-84-48.5l-20.7,101.8h13.2C362.5,329.8,366.9,328.6,370.7,326.4
		z"/>
	<g id="smart_watch_1_">
		<g>
			<g>
				<g class="st2">
					<g>
						<polygon class="st3" points="425,276 425,286.2 355.3,326.7 355.4,316.5 						"/>
					</g>
					<path class="st3" d="M430.5,268.4l0,10.2c0,2.8-1.8,5.5-5.5,7.6l0-10.2C428.6,273.9,430.4,271.2,430.5,268.4z"/>
					<g>
						<polygon class="st4" points="328.8,316.5 328.8,326.7 177.5,239.4 177.5,229.2 						"/>
					</g>
					<path class="st4" d="M172,231.6l0-10.2c0,2.8,1.8,5.6,5.5,7.7l0,10.2C173.8,237.2,171.9,234.4,172,231.6z"/>
					<path class="st5" d="M355.4,316.5l0,10.2c-7.3,4.2-19.2,4.2-26.5,0l0-10.2C336.2,320.8,348.1,320.8,355.4,316.5z"/>
					<g>
						<path class="st3" d="M424.9,260.7c7.4,4.2,7.4,11.1,0.1,15.4l-69.6,40.5c-7.3,4.2-19.2,4.2-26.5,0l-151.3-87.4
							c-7.3-4.2-7.4-11.1-0.1-15.4l69.6-40.5c7.3-4.2,19.2-4.2,26.5,0L424.9,260.7z"/>
					</g>
				</g>
			</g>
			<g>
				<path class="st6" d="M424.9,260.7l-13.3-7.7l-96.4,55.7l13.6,7.9c7.4,4.2,19.2,4.2,26.5,0L425,276
					C432.3,271.8,432.3,264.9,424.9,260.7z"/>
				<path class="st6" d="M273.6,173.3c-7.3-4.2-19.2-4.2-26.5,0l-69.6,40.5c-7.3,4.2-7.3,11.1,0.1,15.4l4.6,2.7l96.4-55.7
					L273.6,173.3z"/>
				<linearGradient id="SVGID_1_" gradientUnits="userSpaceOnUse" x1="204.0831" y1="193.3118" x2="401.141" y2="297.5618">
					<stop  offset="7.619050e-02" style="stop-color:#AC44EE"/>
					<stop  offset="7.801442e-02" style="stop-color:#AC44EE"/>
					<stop  offset="0.2581" style="stop-color:#8937CB"/>
					<stop  offset="0.44" style="stop-color:#6E2CAF"/>
					<stop  offset="0.6237" style="stop-color:#5B259C"/>
					<stop  offset="0.8094" style="stop-color:#502090"/>
					<stop  offset="1" style="stop-color:#4C1F8C"/>
				</linearGradient>
				<polygon class="st7" points="411.6,253 315.2,308.6 212.5,249.4 199.3,241.7 192.6,237.9 182.2,231.8 206.5,217.8 225.4,206.9 
					278.6,176.2 289,182.2 				"/>
				<g>
					<polygon class="st8" points="289,182.2 192.6,237.9 182.2,231.8 206.5,217.8 225.4,206.9 278.6,176.2 					"/>
					<path class="st6" d="M214.5,220.1l-1.2,0.2c-0.1-0.1-0.2-0.1-0.3-0.2c-0.1-0.1-0.2-0.1-0.4-0.2l0.3-0.7c0-0.1-0.1-0.2-0.2-0.2
						l-1.7-0.3c-0.2,0-0.3,0-0.4,0.1l-0.3,0.8c-0.3,0-0.5,0.1-0.8,0.1l-1-0.6c-0.1-0.1-0.3-0.1-0.5,0l-1.2,0.7
						c-0.1,0.1-0.1,0.2,0,0.3l1,0.6c-0.1,0.1-0.2,0.3-0.2,0.5l-1.3,0.2c-0.2,0-0.3,0.1-0.2,0.2l0.4,1c0,0.1,0.2,0.2,0.4,0.1l1.3-0.2
						c0.1,0.1,0.2,0.2,0.3,0.2c0.1,0.1,0.2,0.1,0.3,0.1l-0.3,0.7c0,0.1,0.1,0.2,0.2,0.2l1.7,0.3c0.2,0,0.4,0,0.4-0.1l0.3-0.7
						c0.3,0,0.6-0.1,0.9-0.1l0.9,0.5c0.1,0.1,0.3,0.1,0.5,0l1.2-0.7c0.1-0.1,0.1-0.2,0-0.3l-0.9-0.5c0.1-0.2,0.2-0.3,0.2-0.5
						l1.2-0.2c0.2,0,0.3-0.1,0.2-0.2l-0.4-1C214.8,220.1,214.6,220.1,214.5,220.1z M211.8,222c-0.6,0.3-1.5,0.3-2.1,0
						c-0.6-0.3-0.6-0.9,0-1.2c0.6-0.3,1.5-0.3,2.1,0C212.4,221.1,212.4,221.7,211.8,222z"/>
					<g>
						<path class="st6" d="M236.9,201.9c-2.4,1.4-3.2,3.3-2.4,5.1l0.9-0.1c-0.7-1.6,0-3.3,2.1-4.6c2.1-1.2,5.2-1.6,7.9-1.2l0.2-0.5
							C242.6,200.1,239.2,200.5,236.9,201.9z"/>
						<path class="st6" d="M238.9,203.1c-1.6,0.9-2.2,2.3-1.6,3.5l0.9-0.1c-0.5-1,0-2.2,1.4-3c1.4-0.8,3.4-1.1,5.1-0.8l0.2-0.5
							C242.9,201.8,240.5,202.2,238.9,203.1z"/>
						<path class="st6" d="M240.9,204.3c-0.9,0.5-1.2,1.2-0.9,1.9l0.9-0.1c-0.2-0.5,0-1,0.6-1.3c0.6-0.4,1.5-0.5,2.3-0.4l0.2-0.5
							C243.1,203.6,241.8,203.8,240.9,204.3z"/>
						<path class="st6" d="M244.4,206.3c-0.5,0.3-1.3,0.3-1.8,0c-0.2-0.1-0.3-0.2-0.3-0.3c-0.1-0.2,0-0.5,0.3-0.7
							c0.3-0.2,0.8-0.3,1.2-0.2c0.2,0,0.4,0.1,0.6,0.2C244.9,205.5,244.9,206,244.4,206.3z"/>
					</g>
					<g>
						<path class="st6" d="M189.1,231.5c-0.1,0.2-0.3,0.4-0.6,0.6l-0.5-0.3c0.6-0.4,0.5-0.7,0.2-1.1l0.5-0.3l6,3.5l-0.7,0.4
							L189.1,231.5z"/>
						<path class="st6" d="M191.1,230.8c-0.9-0.5-1.1-1.1-0.1-1.7c0.9-0.5,2-0.5,2.9,0.1l3.1,1.8c0.9,0.5,1.1,1.1,0.1,1.7
							c-0.9,0.5-2,0.4-2.9-0.1L191.1,230.8z M194.8,232.2c0.5,0.3,1.1,0.4,1.6,0.1c0.5-0.3,0.4-0.6-0.2-0.9l-3.2-1.8
							c-0.5-0.3-1.1-0.4-1.6-0.1c-0.5,0.3-0.4,0.6,0.2,0.9L194.8,232.2z"/>
						<path class="st6" d="M195.5,228.7l0.8,0.5l-0.6,0.4l-0.8-0.5L195.5,228.7z M198.8,230.6l0.8,0.5l-0.6,0.4l-0.8-0.5
							L198.8,230.6z"/>
						<path class="st6" d="M196,228c-0.9-0.5-1.1-1.1-0.1-1.7c0.9-0.5,2-0.5,2.9,0.1l3.1,1.8c0.9,0.5,1.1,1.1,0.1,1.7
							c-0.9,0.5-2,0.4-2.9-0.1L196,228z M199.7,229.4c0.5,0.3,1.1,0.4,1.6,0.1c0.5-0.3,0.4-0.6-0.2-0.9l-3.2-1.8
							c-0.5-0.3-1.1-0.4-1.6-0.1c-0.5,0.3-0.4,0.6,0.2,0.9L199.7,229.4z"/>
						<path class="st6" d="M199.6,225.9c-0.9-0.5-1.1-1.1-0.1-1.7c0.9-0.5,2-0.5,2.9,0.1l3.1,1.8c0.9,0.5,1.1,1.1,0.1,1.7
							c-0.9,0.5-2,0.4-2.9-0.1L199.6,225.9z M203.4,227.3c0.5,0.3,1.1,0.4,1.6,0.1c0.5-0.3,0.4-0.6-0.2-0.9l-3.2-1.8
							c-0.5-0.3-1.1-0.4-1.6-0.1c-0.5,0.3-0.4,0.6,0.2,0.9L203.4,227.3z"/>
					</g>
					<g>
						<path class="st6" d="M263.5,192.8l1.2,0.7l-0.6,0.4l-1.2-0.7l-1.9,1.1l-0.6-0.4l-2.3-3.5l0.7-0.4l4.2,2.4l0.5-0.3l0.6,0.4
							L263.5,192.8z M261,193.6l1.3-0.8l-2.9-1.7L261,193.6z"/>
						<path class="st6" d="M262.3,188.6l-2,1.2l-0.6-0.3l2.7-1.6l0.6,0.3l3.9,4l-0.7,0.4L262.3,188.6z"/>
						<path class="st6" d="M265.7,187.1l1.9,1.1c0.6,0.3,0.7,0.7,0.1,1.1c-0.6,0.3-1.2,0.3-1.8-0.1l-1.9-1.1
							c-0.6-0.3-0.7-0.7-0.1-1.1C264.4,186.7,265.1,186.8,265.7,187.1z M264.4,187.8l1.9,1.1c0.3,0.2,0.7,0.2,1,0.1
							c0.3-0.2,0.2-0.4-0.1-0.6l-1.9-1.1c-0.3-0.2-0.7-0.2-1-0.1C263.9,187.5,264,187.7,264.4,187.8z M266.7,185.4l3.6,4.8l-0.4,0.2
							l-3.6-4.8L266.7,185.4z M270.8,186.7l1.9,1.1c0.6,0.3,0.7,0.7,0.1,1.1c-0.6,0.3-1.2,0.3-1.8-0.1l-1.9-1.1
							c-0.6-0.3-0.7-0.7-0.1-1C269.6,186.3,270.3,186.4,270.8,186.7z M269.5,187.4l1.9,1.1c0.3,0.2,0.7,0.2,1,0.1
							c0.3-0.2,0.2-0.4-0.1-0.6l-1.9-1.1c-0.3-0.2-0.7-0.2-1-0.1C269.1,187,269.2,187.2,269.5,187.4z"/>
					</g>
					<g>
						<g>
							<path class="st6" d="M278.5,187.6l-8.1-4.7l4.6-2.7l8.1,4.7L278.5,187.6z M271.6,182.9l6.9,4l3.4-1.9l-6.9-4L271.6,182.9z"/>
						</g>
						<polygon class="st6" points="282.5,185 278.5,187.3 275.1,185.3 279.1,183 						"/>
						<polygon class="st6" points="274.1,181.2 272,182.4 270.7,181.7 272.8,180.5 						"/>
					</g>
					<g>
						<polygon class="st6" points="254.5,200.8 252.4,202 248.4,199.7 250.5,198.5 						"/>
						<polygon class="st6" points="257.5,199.1 255.4,200.3 249.9,197.1 252,195.8 						"/>
						<polygon class="st6" points="260.6,197.3 258.5,198.5 250.3,193.8 252.4,192.6 						"/>
					</g>
				</g>
			</g>
			<g>
				<path class="st9" d="M235.3,192.5l-17.2,9.9c-1.2,0.7-3.1,0.7-4.3,0l0,0c-1.2-0.7-1.2-1.8,0-2.5L231,190c1.2-0.7,3.1-0.7,4.3,0
					l0,0C236.5,190.7,236.5,191.8,235.3,192.5z"/>
				<path class="st9" d="M243.8,185.1c-1.7-1-4.4-1-6.1,0c-1.7,1-1.7,2.6,0,3.5c1.7,1,4.4,1,6.1,0
					C245.5,187.6,245.5,186,243.8,185.1z"/>
				<path class="st9" d="M210.4,204.4c-0.9-0.5-2.3-0.5-3.2,0c-0.9,0.5-0.9,1.3,0,1.8c0.9,0.5,2.3,0.5,3.2,0
					C211.2,205.7,211.2,204.9,210.4,204.4z"/>
				<path class="st9" d="M204.9,207.5c-0.9-0.5-2.3-0.5-3.2,0s-0.9,1.3,0,1.8s2.3,0.5,3.2,0C205.8,208.8,205.8,208,204.9,207.5z"/>
			</g>
			<g>
				<path class="st3" d="M370.5,298.9c-0.7,0-1.4-0.2-1.9-0.5l-9-5.2c-0.6-0.4-1-0.9-1-1.5c0-0.6,0.4-1.1,1-1.5l20.5-11.9
					c1.1-0.6,2.8-0.6,3.9,0l9,5.2c0.6,0.4,1,0.9,1,1.5s-0.4,1.1-1,1.5v0l-20.5,11.9C371.9,298.7,371.2,298.9,370.5,298.9z
					 M382,279.2c-0.5,0-1,0.1-1.3,0.3l-20.5,11.9c-0.3,0.2-0.4,0.3-0.4,0.4c0,0.1,0.1,0.2,0.4,0.4l9,5.2c0.7,0.4,1.9,0.4,2.6,0
					l20.5-11.9c0.3-0.2,0.4-0.3,0.4-0.4c0-0.1-0.1-0.2-0.4-0.4l-9-5.2C382.9,279.3,382.5,279.2,382,279.2z"/>
			</g>
			<g>
				<polygon class="st3" points="395.4,295.3 390.6,298 396.5,300.8 396.5,294.7 				"/>
				<polygon class="st6" points="387.5,299.9 387.5,306 396.5,300.8 390.6,298 				"/>
			</g>
			<polygon class="st10" points="395.4,295.3 395.4,300.3 387.5,304.9 387.5,299.9 			"/>
			<polygon class="st11" points="245,195.5 226.3,257.3 248.8,270.3 277.1,177 			"/>
			<polygon class="st11" points="212.5,249.4 225.4,206.9 206.5,217.8 199.3,241.7 			"/>
		</g>
	</g>
	<g class="st12">
		<polygon class="st13" points="375.5,270.7 350.1,256.1 327.6,266.1 334.1,266.1 337.1,288.9 344.4,288.9 		"/>
	</g>
	<g class="st12">
		<polygon class="st13" points="345.7,253.5 320.3,238.9 297.8,248.9 304.3,248.9 307.3,271.7 314.6,271.7 		"/>
	</g>
	<g class="st12">
		<polygon class="st13" points="315.8,236.3 290.4,221.7 267.9,231.7 274.4,231.7 277.4,254.5 284.7,254.5 		"/>
	</g>
	<g class="st12">
		<polygon class="st13" points="286.1,219.1 260.7,204.5 238.2,214.5 244.7,214.5 247.7,237.3 255,237.3 		"/>
	</g>
	<g class="st2">
		<g>
			<polygon class="st13" points="271.4,103 271.1,223.7 247.7,237.3 248.1,116.6 			"/>
		</g>
		<g>
			<polygon class="st14" points="248.1,116.6 247.7,237.3 224.2,223.7 224.5,103 			"/>
		</g>
		<g>
			<polygon class="st15" points="271.4,103 248.1,116.6 224.5,103 247.9,89.4 			"/>
		</g>
	</g>
	<g class="st2">
		<g>
			<polygon class="st16" points="301.2,177.9 300.9,240.9 277.5,254.5 277.8,191.4 			"/>
		</g>
		<g>
			<polygon class="st17" points="277.8,191.4 277.5,254.5 254,240.9 254.3,177.9 			"/>
		</g>
		<g>
			<polygon class="st18" points="301.2,177.9 277.8,191.4 254.3,177.9 277.7,164.3 			"/>
		</g>
	</g>
	<g class="st2">
		<g>
			<polygon class="st19" points="331,164.3 330.6,258.1 307.3,271.7 307.6,177.9 			"/>
		</g>
		<g>
			<polygon class="st20" points="307.6,177.9 307.3,271.7 283.8,258.1 284.1,164.3 			"/>
		</g>
		<g>
			<polygon class="st21" points="331,164.3 307.6,177.9 284.1,164.3 307.5,150.7 			"/>
		</g>
	</g>
	<g class="st2">
		<g>
			<polygon class="st4" points="360.8,237.2 360.4,275.3 337.1,288.9 337.4,250.8 			"/>
		</g>
		<g>
			<polygon class="st5" points="337.4,250.8 337.1,288.9 313.6,275.3 313.9,237.2 			"/>
		</g>
		<g>
			<polygon class="st6" points="360.8,237.2 337.4,250.8 313.9,237.2 337.3,223.6 			"/>
		</g>
	</g>
	<g>
		<g class="st12">
			<g class="st2">
				<g>
					<polygon class="st209" points="238.1,397.8 334.5,341.5 305.4,324.7 243.2,291.6 217.9,277 190.6,261.2 159.3,243.1 
						110.9,271.2 68.8,295.7 56.3,303 73.4,312.8 133.5,347.6 220.5,397.8 					"/>
				</g>
			</g>
		</g>
		<g>
			<g>
				<polygon class="st8" points="150.2,238 47.2,294.4 47.2,297.8 220.3,397.8 220.3,277 				"/>
				<polygon class="st210" points="220.3,277 220.3,397.8 323.3,337.9 323.3,334.4 				"/>
			</g>
			<g>
				<g class="st2">
					<g>
						<polygon class="st14" points="323.3,334.4 220.3,394.3 124.5,339 64.3,304.2 47.2,294.4 59.8,287.1 101.9,262.6 150.2,234.5 
							181.6,252.6 208.9,268.4 234.2,283 294.3,317.7 						"/>
					</g>
				</g>
			</g>
			<g>
				<g>
					<path class="st26" d="M98.4,275.2c1.8-1,3.7-0.9,5.3,0l2.4,1.4c1.9,1.1,1.4,2.2,0,3l-5.5,3.2c-1.7,1-3.6,0.9-5.2,0l-2.4-1.4
						c-1.6-0.9-1.8-2,0-3L98.4,275.2z M95.4,280.6l1.4,0.8c0.7,0.4,1.3,0.5,2.1,0l4.8-2.8c0.7-0.4,0.8-0.8,0.1-1.2l-1.5-0.9
						c-0.9-0.5-1.7-0.2-2.1,0l-4.8,2.8C94.4,279.8,94.9,280.3,95.4,280.6z"/>
					<path class="st26" d="M107.5,280.5c1.8-1,3.7-0.9,5.3,0l2.4,1.4c1.9,1.1,1.4,2.2,0,3l-5.5,3.2c-1.7,1-3.6,0.9-5.2,0l-2.4-1.4
						c-1.6-0.9-1.8-2,0-3L107.5,280.5z M104.5,285.8l1.4,0.8c0.7,0.4,1.3,0.5,2.1,0l4.8-2.8c0.7-0.4,0.8-0.8,0.1-1.2l-1.5-0.9
						c-0.9-0.5-1.7-0.2-2.1,0l-4.8,2.8C103.5,285.1,104,285.5,104.5,285.8z"/>
					<path class="st26" d="M116.6,285.8c1.8-1,3.7-0.9,5.3,0l2.4,1.4c1.9,1.1,1.4,2.2,0,3l-5.5,3.2c-1.7,1-3.6,0.9-5.2,0l-2.4-1.4
						c-1.6-0.9-1.8-2,0-3L116.6,285.8z M113.6,291.1l1.4,0.8c0.7,0.4,1.3,0.5,2.1,0l4.8-2.8c0.7-0.4,0.8-0.8,0.1-1.2l-1.5-0.9
						c-0.9-0.5-1.7-0.2-2.1,0l-4.8,2.8C112.7,290.4,113.1,290.8,113.6,291.1z"/>
					<path class="st26" d="M125.7,291c1.8-1,3.7-0.9,5.3,0l2.4,1.4c1.9,1.1,1.4,2.2,0,3l-5.5,3.2c-1.7,1-3.6,0.9-5.2,0l-2.4-1.4
						c-1.6-0.9-1.8-2-0.1-3L125.7,291z M122.7,296.3l1.4,0.8c0.7,0.4,1.3,0.5,2.1,0l4.8-2.8c0.7-0.4,0.8-0.8,0.1-1.2l-1.5-0.9
						c-0.9-0.5-1.7-0.2-2.1,0l-4.8,2.8C121.8,295.6,122.2,296.1,122.7,296.3z"/>
					<path class="st26" d="M138.4,298.4c1.8-1,3.7-0.9,5.3,0l2.4,1.4c1.9,1.1,1.4,2.2,0,3l-5.5,3.2c-1.7,1-3.6,0.9-5.2,0l-2.4-1.4
						c-1.6-0.9-1.8-2,0-3L138.4,298.4z M135.4,303.7l1.4,0.8c0.7,0.4,1.3,0.5,2.1,0l4.8-2.8c0.7-0.4,0.8-0.8,0.1-1.2l-1.5-0.9
						c-0.9-0.5-1.7-0.2-2.1,0l-4.8,2.8C134.5,303,134.9,303.4,135.4,303.7z"/>
					<path class="st26" d="M147.5,303.6c1.8-1,3.7-0.9,5.3,0l2.4,1.4c1.9,1.1,1.4,2.2,0,3l-5.5,3.2c-1.7,1-3.6,0.9-5.2,0l-2.4-1.4
						c-1.6-0.9-1.8-2,0-3L147.5,303.6z M144.5,308.9l1.4,0.8c0.7,0.4,1.3,0.5,2.1,0l4.8-2.8c0.7-0.4,0.8-0.8,0.1-1.2l-1.5-0.9
						c-0.9-0.5-1.7-0.2-2.1,0l-4.8,2.8C143.6,308.2,144,308.7,144.5,308.9z"/>
					<path class="st26" d="M156.6,308.9c1.8-1,3.7-0.9,5.3,0l2.4,1.4c1.9,1.1,1.4,2.2,0,3l-5.5,3.2c-1.7,1-3.6,0.9-5.2,0l-2.4-1.4
						c-1.6-0.9-1.8-2,0-3L156.6,308.9z M153.6,314.2l1.4,0.8c0.7,0.4,1.3,0.5,2.1,0l4.8-2.8c0.7-0.4,0.8-0.8,0.1-1.2l-1.5-0.9
						c-0.9-0.5-1.7-0.2-2.1,0l-4.8,2.8C152.7,313.5,153.1,313.9,153.6,314.2z"/>
					<path class="st26" d="M165.7,314.1c1.8-1,3.7-0.9,5.3,0l2.4,1.4c1.9,1.1,1.4,2.2,0,3l-5.5,3.2c-1.7,1-3.6,0.9-5.2,0l-2.4-1.4
						c-1.6-0.9-1.8-2,0-3L165.7,314.1z M162.7,319.5l1.4,0.8c0.7,0.4,1.3,0.5,2.1,0l4.8-2.8c0.7-0.4,0.8-0.8,0.1-1.2l-1.5-0.9
						c-0.9-0.5-1.7-0.2-2.1,0l-4.8,2.8C161.8,318.7,162.2,319.2,162.7,319.5z"/>
					<path class="st26" d="M178.4,321.5c1.8-1,3.7-0.9,5.3,0l2.4,1.4c1.9,1.1,1.4,2.2,0,3l-5.5,3.2c-1.7,1-3.6,0.9-5.2,0l-2.4-1.4
						c-1.6-0.9-1.8-2,0-3L178.4,321.5z M175.4,326.8l1.4,0.8c0.7,0.4,1.3,0.5,2.1,0l4.8-2.8c0.7-0.4,0.8-0.8,0.1-1.2l-1.5-0.9
						c-0.9-0.5-1.7-0.2-2.1,0l-4.8,2.8C174.5,326.1,175,326.5,175.4,326.8z"/>
					<path class="st26" d="M187.5,326.7c1.8-1,3.7-0.9,5.3,0l2.4,1.4c1.9,1.1,1.4,2.2,0,3l-5.5,3.2c-1.7,1-3.6,0.9-5.2,0l-2.4-1.4
						c-1.6-0.9-1.8-2,0-3L187.5,326.7z M184.5,332.1l1.4,0.8c0.7,0.4,1.3,0.5,2.1,0l4.8-2.8c0.7-0.4,0.8-0.8,0.1-1.2l-1.5-0.9
						c-0.9-0.5-1.7-0.2-2.1,0l-4.8,2.8C183.6,331.3,184.1,331.8,184.5,332.1z"/>
					<path class="st26" d="M196.6,332c1.8-1,3.7-0.9,5.3,0l2.4,1.4c1.9,1.1,1.4,2.2,0,3l-5.5,3.2c-1.7,1-3.6,0.9-5.2,0l-2.4-1.4
						c-1.6-0.9-1.8-2,0-3L196.6,332z M193.6,337.3l1.4,0.8c0.7,0.4,1.3,0.5,2.1,0l4.8-2.8c0.7-0.4,0.8-0.8,0.1-1.2l-1.5-0.9
						c-0.9-0.5-1.7-0.2-2.1,0l-4.8,2.8C192.7,336.6,193.2,337,193.6,337.3z"/>
					<path class="st26" d="M205.8,337.2c1.8-1,3.7-0.9,5.3,0l2.4,1.4c1.9,1.1,1.4,2.2,0,3l-5.5,3.2c-1.7,1-3.6,0.9-5.2,0l-2.4-1.4
						c-1.6-0.9-1.8-2,0-3L205.8,337.2z M202.8,342.6l1.4,0.8c0.7,0.4,1.3,0.5,2.1,0l4.8-2.8c0.7-0.4,0.8-0.8,0.1-1.2l-1.5-0.9
						c-0.9-0.5-1.7-0.2-2.1,0l-4.8,2.8C201.8,341.8,202.3,342.3,202.8,342.6z"/>
					<path class="st26" d="M218.5,344.6c1.8-1,3.7-0.9,5.3,0l2.4,1.4c1.9,1.1,1.4,2.2,0,3l-5.5,3.2c-1.7,1-3.6,0.9-5.2,0l-2.4-1.4
						c-1.6-0.9-1.8-2,0-3L218.5,344.6z M215.5,349.9l1.4,0.8c0.7,0.4,1.3,0.5,2.1,0l4.8-2.8c0.7-0.4,0.8-0.8,0.1-1.2l-1.5-0.9
						c-0.9-0.5-1.7-0.2-2.1,0l-4.8,2.8C214.5,349.2,215,349.6,215.5,349.9z"/>
					<path class="st26" d="M227.6,349.8c1.8-1,3.7-0.9,5.3,0l2.4,1.4c1.9,1.1,1.4,2.2,0,3l-5.5,3.2c-1.7,1-3.6,0.9-5.2,0l-2.4-1.4
						c-1.6-0.9-1.8-2,0-3L227.6,349.8z M224.6,355.2l1.4,0.8c0.7,0.4,1.3,0.5,2.1,0l4.8-2.8c0.7-0.4,0.8-0.8,0.1-1.2l-1.5-0.9
						c-0.9-0.5-1.7-0.2-2.1,0l-4.8,2.8C223.6,354.4,224.1,354.9,224.6,355.2z"/>
					<path class="st26" d="M236.7,355.1c1.8-1,3.7-0.9,5.3,0l2.4,1.4c1.9,1.1,1.4,2.2,0,3l-5.5,3.2c-1.7,1-3.6,0.9-5.2,0l-2.4-1.4
						c-1.6-0.9-1.8-2,0-3L236.7,355.1z M233.7,360.4l1.4,0.8c0.7,0.4,1.3,0.5,2.1,0l4.8-2.8c0.7-0.4,0.8-0.8,0.1-1.2l-1.5-0.9
						c-0.9-0.5-1.7-0.2-2.1,0l-4.8,2.8C232.8,359.7,233.2,360.1,233.7,360.4z"/>
					<path class="st26" d="M245.8,360.4c1.8-1,3.7-0.9,5.3,0l2.4,1.4c1.9,1.1,1.4,2.2,0,3l-5.5,3.2c-1.7,1-3.6,0.9-5.2,0l-2.4-1.4
						c-1.6-0.9-1.8-2,0-3L245.8,360.4z M242.8,365.7l1.4,0.8c0.7,0.4,1.3,0.5,2.1,0l4.8-2.8c0.7-0.4,0.8-0.8,0.1-1.2l-1.5-0.9
						c-0.9-0.5-1.7-0.2-2.1,0l-4.8,2.8C241.9,365,242.3,365.4,242.8,365.7z"/>
				</g>
				<g>
					<path class="st17" d="M117.3,264.3l7.5-4.3c2.8-1.6,7.4-1.6,10.2,0l8.3,4.8c2.8,1.6,2.8,4.3,0,5.9l-7.5,4.3
						c-2.8,1.6-7.4,1.6-10.2,0l-8.3-4.8C114.5,268.6,114.5,265.9,117.3,264.3z"/>
					<g>
						<g>
							<path class="st26" d="M125,266c0.7,0.1,1.6,0,2.2-0.3c0.6-0.3,0.8-0.8,0.6-1.3c-0.1-0.2-0.3-0.4-0.6-0.6
								c-0.9-0.5-2.3-0.5-3.2,0c-0.9,0.5-0.9,1.3,0,1.8C124.2,265.8,124.6,265.9,125,266z"/>
							<g>
								<path class="st26" d="M141,265l-1.6,0c0,2-1.3,4-3.9,5.5c-2.6,1.5-6.1,2.3-9.5,2.3l0,0.9c3.8,0,7.7-0.8,10.6-2.5
									C139.5,269.4,140.9,267.2,141,265z"/>
								<path class="st26" d="M136.2,265l-1.6,0c0,1.3-0.9,2.6-2.5,3.5s-3.9,1.5-6.1,1.5l0,0.9c2.6,0,5.2-0.6,7.2-1.7
									C135.2,268,136.2,266.5,136.2,265z"/>
								<path class="st26" d="M131.5,265l-1.6,0c0,0.6-0.4,1.2-1.2,1.6c-0.8,0.4-1.8,0.7-2.8,0.7l0,0.9c1.4,0,2.8-0.3,3.9-0.9
									C131,266.6,131.5,265.8,131.5,265z"/>
							</g>
						</g>
					</g>
				</g>
				<g>
					<path class="st26" d="M166.4,288.9l-2.7,1.6c-2.8,1.6-7.4,1.6-10.2,0l-12.2-7c-2.8-1.6-2.8-4.3,0-5.9l7.5-4.3
						c2.8-1.6,7.4-1.6,10.2,0l12.2,7c2.8,1.6,2.8,4.3,0,5.9l-2.7,1.6L166.4,288.9z"/>
					<g>
						<g>
							<g>
								<polygon class="st13" points="164.3,276.3 160.2,276.7 154.7,279.9 146.1,274.9 147.4,274.1 154.7,278.4 159.4,275.6 
									162.6,275.4 								"/>
							</g>
							<g>
								<polygon class="st13" points="146.6,286.5 144.9,285.6 145.4,283.7 150.1,281 142.8,276.8 144.1,276 152.7,281 147.1,284.2 
																	"/>
							</g>
						</g>
						<g>
							<g>
								<polygon class="st13" points="166.4,288.9 165.1,289.7 157.8,285.5 153.1,288.2 149.9,288.5 148.3,287.5 152.3,287.2 
									157.8,284 								"/>
							</g>
							<g>
								<polygon class="st13" points="169.7,287 168.4,287.8 159.8,282.8 165.4,279.6 165.9,277.3 167.6,278.2 167.1,280.1 
									162.4,282.8 								"/>
							</g>
						</g>
					</g>
				</g>
				<polygon class="st26" points="138.8,251.9 186.3,279.4 198.6,272.3 151,244.9 				"/>
				<g>
					<path class="st26" d="M213.3,372.2c-5.2,3-13.6,3-18.7,0c-5.1-3-5.1-7.8,0.1-10.8c5.2-3,13.6-3,18.7,0
						C218.5,364.4,218.4,369.2,213.3,372.2z"/>
					<path class="st14" d="M227.1,380.2c-5.2,3-13.6,3-18.7,0c-5.1-3-5.1-7.8,0.1-10.8c5.2-3,13.6-3,18.7,0
						C232.3,372.4,232.3,377.2,227.1,380.2z"/>
				</g>
				<g>
					<g>
						<path class="st26" d="M258.8,304.1c1.1,0.6,1.8,1.2,2.4,1.8l-1.2,0.7c0,0-1.2-0.9-2.3-1.5c-1.1-0.6-1.8-0.7-4.2,0.7
							c-1.8,1-2.4,1.7-1.1,2.4c1.1,0.7,2.5,1.3,2.5,1.3l-1.2,0.7c-0.9-0.3-2-0.8-3.1-1.4c-2-1.2-1.1-2.5,1.4-3.9
							C254.6,303.5,256.6,302.9,258.8,304.1z"/>
						<path class="st26" d="M260,307.5l1.3,0.7l-0.5,0.6c0.8,0,1.7,0.1,2.5,0.5c0.2,0.1,0.5,0.3,0.6,0.4l-1.5,0.9
							c-0.1-0.1-0.5-0.3-0.8-0.5c-0.6-0.4-1.2-0.6-2.1-0.5l-3.7,2.1l-1.5-0.9L260,307.5z"/>
						<path class="st26" d="M266.8,311.4c1.7,1,2.3,1.5,0.3,2.6c-1,0.6-2,0.5-3.1-0.1l-1.8-1.1c-1.1,0.6-0.7,0.9,0.1,1.3
							c0.9,0.5,1.3,0.8,2.2,1.2l-1,0.6c-1.1-0.3-2.4-1-3.3-1.5c-1.5-0.8-1-1.6,1.1-2.8C263.9,310.2,265,310.3,266.8,311.4z
							 M264.8,313.1c0.3,0.2,0.6,0.2,0.9,0c0.7-0.4,0.8-0.6,0-1c-0.8-0.5-1.1-0.6-2.4,0.1L264.8,313.1z"/>
						<path class="st26" d="M271.9,314.3c0.5,0.3,1.1,0.8,1.4,1.2l3.1-1.8l1.5,0.9l-8.6,5l-1.3-0.7l0.3-0.5c-0.7,0-1.7-0.2-2.4-0.6
							c-1.4-0.8-0.7-1.7,1.1-2.8C268.9,313.9,270.3,313.4,271.9,314.3z M267.7,317.2c0.6,0.3,1.2,0.5,1.7,0.6l2.9-1.7
							c-0.2-0.3-0.6-0.6-1.1-0.9c-0.5-0.3-1-0.3-2.5,0.6C267.3,316.5,267.2,316.9,267.7,317.2z"/>
						<path class="st26" d="M276.1,316.8l1.5,0.9l-5.8,3.4l-1.5-0.9L276.1,316.8z M277.8,315.7c0.2-0.1,0.4-0.1,0.5,0l1.1,0.7
							c0.2,0.1,0.1,0.2,0,0.3l-1,0.6c-0.2,0.1-0.3,0.1-0.5,0l-1.1-0.7c-0.2-0.1-0.2-0.2,0-0.3L277.8,315.7z"/>
						<path class="st26" d="M277.9,318.2l1.3,0.4l1.9-0.8l1.3,0.7l-1.6,0.9l1.3,0.7l-1.2,0.7l-1.3-0.7l-2.3,1.3
							c-0.9,0.5-0.8,0.7-0.7,1c0,0,0.4,0.5,0.5,0.6l-0.9,0.5l-1.3-0.8c-0.9-0.5-0.9-1.1,0.7-2l2.6-1.5l-0.9-0.5L277.9,318.2z"/>
						<path class="st26" d="M290.4,322.4c1.1,0.6,1.8,1.2,2.4,1.8l-1.2,0.7c0,0-1.2-0.9-2.3-1.5c-1.1-0.6-1.8-0.7-4.2,0.7
							c-1.8,1-2.4,1.7-1.1,2.4c1.1,0.7,2.5,1.3,2.5,1.3l-1.2,0.7c-0.9-0.3-2-0.8-3.1-1.4c-2-1.2-1.1-2.5,1.4-3.9
							C286.1,321.7,288.2,321.1,290.4,322.4z"/>
						<path class="st26" d="M287.7,327.8c0.8-0.5,2.1-0.7,3.3,0.1c0,0,1.7,1,1.7,1c0,0,0.4-0.2,0.4-0.2c0.6-0.4,0.4-0.6-0.1-0.9
							c-0.5-0.3-2-1.1-2.5-1.3l0.9-0.5c1.1,0.3,1.9,0.7,3,1.3c1.2,0.7,1.7,1.5,0.2,2.3l-4.1,2.3l-1.2-0.7l0.3-0.6
							c-0.2,0-1.6-0.1-2.5-0.6c-1.1-0.7-0.8-1.4-0.1-1.8L287.7,327.8z M288.8,329.5c0.6,0.4,1.8,0.5,1.8,0.5l1.1-0.6l-1.5-0.7
							c-0.4-0.2-0.8-0.1-1.1,0.1l-0.3,0.2C288.4,329.2,288.6,329.4,288.8,329.5z"/>
						<path class="st26" d="M297.2,329l1.3,0.7l-0.5,0.6c0.8,0,1.7,0.1,2.4,0.5c0.2,0.1,0.5,0.3,0.6,0.4l-1.5,0.9
							c-0.1-0.1-0.5-0.3-0.8-0.5c-0.6-0.4-1.2-0.6-2.1-0.5l-3.7,2.1l-1.5-0.9L297.2,329z"/>
						<path class="st26" d="M303.4,332.5c0.5,0.3,1.1,0.8,1.4,1.2l3.1-1.8l1.5,0.9l-8.6,5l-1.3-0.7l0.3-0.5c-0.7,0-1.7-0.2-2.4-0.6
							c-1.4-0.8-0.7-1.7,1.1-2.8C300.4,332.1,301.9,331.6,303.4,332.5z M299.2,335.4c0.6,0.3,1.2,0.5,1.7,0.6l2.9-1.7
							c-0.2-0.3-0.6-0.6-1.1-0.9c-0.5-0.3-1-0.3-2.5,0.6C298.8,334.7,298.7,335.1,299.2,335.4z"/>
					</g>
				</g>
				<g>
					<g>
						<path class="st26" d="M70,287.6l1.5,0.9l-6,3.5c-0.6,0.3-0.2,0.5,0.1,0.7l2.7,1.6l-1.4,0.8l-3.3-1.9c-0.9-0.5-1.3-1.1-0.1-1.9
							L70,287.6z"/>
						<path class="st26" d="M76.1,293.6c2,1.1,1.9,1.9-0.4,3.3c-2.2,1.2-3.5,1.3-5.5,0.1c-2-1.2-1.8-2,0.3-3.2
							C72.8,292.5,74.1,292.5,76.1,293.6z M71.4,296.3c0.9,0.5,1.2,0.6,2.8-0.3c1.6-0.9,1.6-1.2,0.7-1.7c-0.9-0.5-1.3-0.5-2.9,0.4
							C70.4,295.6,70.6,295.8,71.4,296.3z"/>
						<path class="st26" d="M79.6,295.7l1.3,0.7l-0.5,0.6c0.8,0,1.7,0.1,2.5,0.5c0.2,0.1,0.5,0.3,0.6,0.4l-1.5,0.9
							c-0.1-0.1-0.5-0.3-0.8-0.5c-0.6-0.4-1.2-0.6-2.1-0.5l-3.7,2.1l-1.5-0.9L79.6,295.7z"/>
						<path class="st26" d="M86.4,299.5c1.7,1,2.3,1.5,0.3,2.6c-1,0.6-2,0.5-3.1-0.1l-1.8-1.1c-1.1,0.6-0.7,0.9,0.1,1.3
							c0.9,0.5,1.3,0.8,2.2,1.2l-1,0.6c-1.1-0.3-2.4-1-3.3-1.5c-1.5-0.8-1-1.6,1.1-2.8C83.4,298.3,84.5,298.5,86.4,299.5z
							 M84.3,301.2c0.3,0.2,0.6,0.2,0.9,0c0.7-0.4,0.8-0.6,0-1c-0.8-0.5-1.1-0.6-2.4,0.1L84.3,301.2z"/>
						<path class="st26" d="M89.6,301.5l1.2,0.7l-0.3,0.5c0.9,0.1,1.6,0.1,2.5,0.6c0.7,0.4,1,0.9,0.7,1.3c0.9,0.1,1.9,0.2,2.8,0.8
							c1.3,0.7,0.9,1.5-0.3,2.2l-3.9,2.2l-1.5-0.9l3.9-2.2c0.5-0.3,0.5-0.6,0.2-0.8c-0.6-0.3-1.1-0.5-1.9-0.6c0,0-0.3,0.2-0.3,0.2
							l-3.9,2.2l-1.5-0.9l3.9-2.2c0.5-0.3,0.5-0.6,0.2-0.8c-0.6-0.3-1.1-0.4-1.9-0.5l-4.2,2.4l-1.5-0.9L89.6,301.5z"/>
						<path class="st26" d="M104.2,307.3l1.5,0.9l-8,4.6l-1.5-0.9L104.2,307.3z"/>
						<path class="st26" d="M104.5,310l1.3,0.7l-0.3,0.5c0.7,0,1.7,0.2,2.4,0.6c1.4,0.8,0.7,1.8-1.1,2.8c-1.7,1-3.3,1.6-4.9,0.7
							c-0.5-0.3-1.1-0.8-1.4-1.2l-3.3,1.9l-1.5-0.9L104.5,310z M102.6,314.4c0.5,0.3,1,0.3,2.5-0.6c1.3-0.8,1.4-1.1,0.9-1.4
							c-0.6-0.3-1.2-0.5-1.7-0.6l-2.9,1.7C101.7,313.8,102.1,314.1,102.6,314.4z"/>
						<path class="st26" d="M108.8,314.3c0.9-0.5,1.9-0.7,3.1,0c1.1,0.6,2.6,1.5,2.8,1.9l-1,0.6l-2.6-1.5c-0.4-0.2-0.6-0.2-0.8,0
							l-0.3,0.2c-0.4,0.2-0.2,0.3,0.1,0.5l1.4,0.8c1.1,0.6,0.9,1.3,0,1.8l-0.6,0.3c-1.2,0.7-2.2,0.5-2.9,0.1c-1.1-0.6-2.8-1.7-2.9-2
							l1-0.6l2.7,1.6c0.1,0.1,0.4,0.2,0.8,0l0.3-0.2c0.2-0.1,0.3-0.3,0-0.4l-1.3-0.8c-1-0.6-1.2-1.2-0.1-1.8L108.8,314.3z"/>
						<path class="st26" d="M115.9,316.7l1.5,0.9l-3.9,2.3c-0.6,0.3-0.5,0.6-0.1,0.8c0.6,0.4,1.1,0.5,1.9,0.5l4.2-2.4l1.5,0.9
							l-5.8,3.4l-1.2-0.7l0.3-0.5c-0.9-0.1-1.7-0.1-2.5-0.6c-1.3-0.8-0.8-1.5,0.3-2.2L115.9,316.7z"/>
						<path class="st26" d="M122,320.2l1.2,0.7l-0.3,0.5c0.9,0.1,1.6,0.1,2.5,0.6c0.7,0.4,1,0.9,0.7,1.3c0.9,0.1,1.9,0.2,2.8,0.8
							c1.3,0.7,0.9,1.5-0.3,2.2l-3.9,2.2l-1.5-0.9l3.9-2.2c0.5-0.3,0.5-0.6,0.2-0.8c-0.6-0.3-1.1-0.5-1.9-0.6c0,0-0.3,0.2-0.3,0.2
							l-3.9,2.2l-1.5-0.9l3.9-2.2c0.5-0.3,0.5-0.6,0.2-0.8c-0.6-0.3-1.1-0.4-1.9-0.5l-4.2,2.4l-1.5-0.9L122,320.2z"/>
					</g>
				</g>
			</g>
			<polygon class="st45" points="208.9,268.4 59.8,287.1 101.9,262.6 181.6,252.6 			"/>
			<polygon class="st45" points="294.3,317.7 124.5,339 64.3,304.2 234.2,283 			"/>
		</g>
	</g>
</g>
</svg>
