<svg xmlns="http://www.w3.org/2000/svg" viewBox="0 0 26 26">
  <path d="M13 0C11.894531 0 11 0.894531 11 2L11 12C11 13.105469 11.894531 14 13 14C14.105469 14 15 13.105469 15 12L15 2C15 0.894531 14.105469 0 13 0 Z M 5.84375 2.59375C5.554688 2.628906 5.285156 2.75 5.0625 2.9375C2.089844 5.28125 0.1875 8.925781 0.1875 13C0.1875 20.058594 5.941406 25.8125 13 25.8125C20.058594 25.8125 25.8125 20.058594 25.8125 13C25.8125 8.925781 23.910156 5.28125 20.9375 2.9375C20.289063 2.417969 19.347656 2.523438 18.828125 3.171875C18.308594 3.820313 18.414063 4.761719 19.0625 5.28125C21.34375 7.078125 22.8125 9.863281 22.8125 13C22.8125 18.4375 18.4375 22.8125 13 22.8125C7.5625 22.8125 3.1875 18.4375 3.1875 13C3.1875 9.863281 4.65625 7.078125 6.9375 5.28125C7.484375 4.871094 7.683594 4.148438 7.425781 3.515625C7.167969 2.882813 6.519531 2.507813 5.84375 2.59375Z" fill="#DF1C1C" />
</svg>