<?xml version="1.0" encoding="UTF-8"?>
<!DOCTYPE svg PUBLIC "-//W3C//DTD SVG 1.1//EN" "http://www.w3.org/Graphics/SVG/1.1/DTD/svg11.dtd">
<!-- Creator: CorelDRAW 2018 (64-Bit) -->
<svg xmlns="http://www.w3.org/2000/svg" xml:space="preserve" width="1821px" height="260px" version="1.1" style="shape-rendering:geometricPrecision; text-rendering:geometricPrecision; image-rendering:optimizeQuality; fill-rule:evenodd; clip-rule:evenodd"
viewBox="0 0 1680.21 240.19"
 xmlns:xlink="http://www.w3.org/1999/xlink">
 <defs>
  <style type="text/css">
   <![CDATA[
    .fil0 {fill:#000066;fill-rule:nonzero}
   ]]>
  </style>
 </defs>
 <g id="Layer_x0020_1">
  <metadata id="CorelCorpID_0Corel-Layer"/>
  <path class="fil0" d="M13.23 50.41l-13.23 0.72 0 -51.13 100.83 0c14.77,0 25.52,4.68 32.28,14.1 6.8,9.37 10.18,24.25 10.18,44.66l0 122.67c0,5.76 -0.14,10.62 -0.43,14.59 -0.28,4.02 -0.75,7.62 -1.5,10.92 -1.08,6.3 -3.24,11.76 -6.47,16.38 -3.66,5.46 -8.31,9.67 -13.98,12.55 -5.68,2.88 -12.39,4.32 -20.08,4.32l-100.83 0 0 -51.14 13.23 0.72 0 -139.36zm79.38 139.36l0 -139.12 -28.71 0 0 139.12 28.71 0zm67.24 50.42l0 -51.14 13.23 0.72 0 -139.36 -13.23 0.72 0 -51.13 102.32 0c14.31,0 24.82,4.14 31.63,12.48 6.8,8.29 10.18,20.95 10.18,37.93l0 24.13c0.05,12.12 -1.79,21.37 -5.4,27.85 -3.61,6.48 -10.13,12.24 -19.56,17.28 8.11,2.82 14.64,8.11 19.51,15.85 2.12,3.6 3.52,7.74 4.32,12.3 0.8,4.56 1.18,12.12 1.13,22.69l0 19.2 13.13 -0.72 0 51.2 -41.05 0c-9.24,0 -15.34,-1.86 -18.34,-5.64 -2.96,-3.97 -4.41,-11.77 -4.41,-23.35l0 -68.24 -29.56 0 0 97.23 -63.9 0zm63.9 -141.88l29.56 0 0 -47.66 -29.56 0 0 47.66zm104.62 141.88l0 -51.14 13.24 0.72 0 -139.36 -13.24 0.72 0 -51.13 75.45 0 0 51.31 -11.54 -0.66 0 139.06 11.54 -0.72 0 51.2 -75.45 0zm90.46 0l0 -51.14 13.23 0.72 0 -139.36 -13.23 0.72 0 -51.13 137.09 0 0 77.06 -44.76 0 0 -26.41 -28.43 0 0 45.5 39.18 0 0 43.21 -39.18 0 0 50.53 12.95 -0.9 0 51.2 -76.85 0zm188.56 0l0 -51.14 13.23 0.72 0 -139.36 -19.42 0 0 37.81 -36.03 0 0 -88.22 161.3 0 0 88.22 -36.03 0 0 -37.81 -19.15 0 0 139.3 12.95 -0.72 0 51.2 -76.85 0zm132.4 0l0 -51.14 13.23 0.72 0 -139.36 -13.23 0.72 0 -51.13 60.06 0 44.29 105.51 44.66 -105.51 59.78 0 0 51.31 -13.14 -0.66 0 139.06 13.14 -0.72 0 51.2 -61 0 0 -126.76 -43.39 100.11 -43.31 -100.11 0 126.76 -61.09 0zm223.8 0l0 -51.14 13.23 0.72 0 -139.36 -13.23 0.72 0 -51.13 75.44 0 0 51.31 -11.54 -0.66 0 139.06 11.54 -0.72 0 51.2 -75.44 0zm90.46 0l0 -51.14 13.23 0.72 0 -139.36 -13.23 0.72 0 -51.13 60.29 0 46.12 118.35 0 -118.35 60.33 0 0 51.31 -13.32 -0.66 0 139.06 13.32 -0.72 0 51.2 -60.19 0 -45.75 -117.28 0 117.28 -60.8 0zm181.71 0l0 -51.14 13.23 0.72 0 -139.36 -13.23 0.72 0 -51.13 135.12 0 0 77.06 -43.07 0 0 -26.41 -28.15 0 0 45.5 39.18 0 0 43.21 -39.18 0 0 50.41 28.15 0 0 -30.61 44.99 0 0 81.03 -137.04 0zm150.23 0l0 -51.14 13.23 0.72 0 -139.36 -13.23 0.72 0 -51.13 102.32 0c14.31,0 24.82,4.14 31.63,12.48 6.8,8.29 10.18,20.95 10.18,37.93l0 24.13c0.05,12.12 -1.78,21.37 -5.4,27.85 -3.61,6.48 -10.13,12.24 -19.56,17.28 8.11,2.82 14.64,8.11 19.51,15.85 2.12,3.6 3.52,7.74 4.32,12.3 0.8,4.56 1.18,12.12 1.13,22.69l0 19.2 13.13 -0.72 0 51.2 -41.05 0c-9.24,0 -15.34,-1.86 -18.34,-5.64 -2.96,-3.97 -4.41,-11.77 -4.41,-23.35l0 -68.24 -29.56 0 0 97.23 -63.9 0zm63.9 -141.88l29.56 0 0 -47.66 -29.56 0 0 47.66zm102.65 141.88l0 -73.82 47.86 0 0 23.4 29 0 0 -47.53 -37.21 0c-7.32,0 -13.23,-0.72 -17.74,-2.1 -4.45,-1.44 -8.39,-3.96 -11.77,-7.56 -4.32,-4.44 -7.41,-10.09 -9.29,-16.87 -1.88,-6.84 -2.82,-16.08 -2.82,-27.79l0 -30.78c0,-21.31 3.05,-36.19 9.15,-44.6 6.06,-8.34 16.99,-12.54 32.75,-12.54l81.97 0 0 70.58 -45.04 0 0 -20.17 -29 0 0 43.94 36.88 0c14.4,0 25.15,3.9 32.23,11.7 7.13,7.8 10.7,19.93 10.7,36.31l0 47.35c0,17.23 -3.57,29.95 -10.75,38.17 -7.13,8.23 -18.11,12.31 -32.98,12.31l-83.94 0z"/>
 </g>
</svg>
