<svg xmlns="http://www.w3.org/2000/svg" xmlns:xlink="http://www.w3.org/1999/xlink" width="500" zoomAndPan="magnify" viewBox="0 0 375 374.999991" height="500" preserveAspectRatio="xMidYMid meet" version="1.0"><defs><g/><clipPath id="id1"><path d="M 170 100.027344 L 263.5 100.027344 L 263.5 231.277344 L 170 231.277344 Z M 170 100.027344 " clip-rule="nonzero"/></clipPath><clipPath id="id2"><path d="M 111.25 133 L 225 133 L 225 231.277344 L 111.25 231.277344 Z M 111.25 133 " clip-rule="nonzero"/></clipPath></defs><g fill="#ffffff" fill-opacity="1"><g transform="translate(39.799343, 263.321527)"><g><path d="M 4.171875 -27.765625 L 15.875 -27.765625 C 18.800781 -27.765625 21.398438 -27.179688 23.671875 -26.015625 C 25.953125 -24.859375 27.71875 -23.226562 28.96875 -21.125 C 30.226562 -19.019531 30.859375 -16.609375 30.859375 -13.890625 C 30.859375 -11.160156 30.226562 -8.742188 28.96875 -6.640625 C 27.71875 -4.535156 25.953125 -2.898438 23.671875 -1.734375 C 21.398438 -0.578125 18.800781 0 15.875 0 L 4.171875 0 Z M 15.625 -3.453125 C 17.875 -3.453125 19.851562 -3.882812 21.5625 -4.75 C 23.269531 -5.625 24.582031 -6.847656 25.5 -8.421875 C 26.425781 -10.003906 26.890625 -11.828125 26.890625 -13.890625 C 26.890625 -15.953125 26.425781 -17.769531 25.5 -19.34375 C 24.582031 -20.914062 23.269531 -22.132812 21.5625 -23 C 19.851562 -23.875 17.875 -24.3125 15.625 -24.3125 L 8.125 -24.3125 L 8.125 -3.453125 Z M 15.625 -3.453125 "/></g></g></g><g fill="#ffffff" fill-opacity="1"><g transform="translate(72.555433, 263.321527)"><g><path d="M 22.734375 0 L 16.734375 -8.53125 C 15.992188 -8.476562 15.414062 -8.453125 15 -8.453125 L 8.125 -8.453125 L 8.125 0 L 4.171875 0 L 4.171875 -27.765625 L 15 -27.765625 C 18.59375 -27.765625 21.421875 -26.90625 23.484375 -25.1875 C 25.546875 -23.46875 26.578125 -21.101562 26.578125 -18.09375 C 26.578125 -15.945312 26.046875 -14.117188 24.984375 -12.609375 C 23.929688 -11.109375 22.425781 -10.015625 20.46875 -9.328125 L 27.0625 0 Z M 14.875 -11.828125 C 17.382812 -11.828125 19.300781 -12.367188 20.625 -13.453125 C 21.945312 -14.535156 22.609375 -16.082031 22.609375 -18.09375 C 22.609375 -20.101562 21.945312 -21.640625 20.625 -22.703125 C 19.300781 -23.773438 17.382812 -24.3125 14.875 -24.3125 L 8.125 -24.3125 L 8.125 -11.828125 Z M 14.875 -11.828125 "/></g></g></g><g fill="#ffffff" fill-opacity="1"><g transform="translate(101.385547, 263.321527)"><g><path d="M 4.171875 -27.765625 L 8.125 -27.765625 L 8.125 0 L 4.171875 0 Z M 4.171875 -27.765625 "/></g></g></g><g fill="#ffffff" fill-opacity="1"><g transform="translate(113.678996, 263.321527)"><g><path d="M 8.125 -24.3125 L 8.125 -14.640625 L 22.0625 -14.640625 L 22.0625 -11.234375 L 8.125 -11.234375 L 8.125 0 L 4.171875 0 L 4.171875 -27.765625 L 23.765625 -27.765625 L 23.765625 -24.3125 Z M 8.125 -24.3125 "/></g></g></g><g fill="#ffffff" fill-opacity="1"><g transform="translate(138.860734, 263.321527)"><g><path d="M 9.6875 -24.3125 L 0.15625 -24.3125 L 0.15625 -27.765625 L 23.125 -27.765625 L 23.125 -24.3125 L 13.609375 -24.3125 L 13.609375 0 L 9.6875 0 Z M 9.6875 -24.3125 "/></g></g></g><g fill="#ffffff" fill-opacity="1"><g transform="translate(162.138965, 263.321527)"><g/></g></g><g fill="#ffffff" fill-opacity="1"><g transform="translate(172.806505, 263.321527)"><g><path d="M 29.90625 0 L 29.875 -20.234375 L 19.84375 -3.375 L 18.015625 -3.375 L 7.96875 -20.109375 L 7.96875 0 L 4.171875 0 L 4.171875 -27.765625 L 7.421875 -27.765625 L 19 -8.25 L 30.421875 -27.765625 L 33.6875 -27.765625 L 33.71875 0 Z M 29.90625 0 "/></g></g></g><g fill="#ffffff" fill-opacity="1"><g transform="translate(210.678253, 263.321527)"><g><path d="M 4.171875 -27.765625 L 8.125 -27.765625 L 8.125 0 L 4.171875 0 Z M 4.171875 -27.765625 "/></g></g></g><g fill="#ffffff" fill-opacity="1"><g transform="translate(222.971702, 263.321527)"><g><path d="M 28.046875 -27.765625 L 28.046875 0 L 24.796875 0 L 8.125 -20.703125 L 8.125 0 L 4.171875 0 L 4.171875 -27.765625 L 7.421875 -27.765625 L 24.078125 -7.0625 L 24.078125 -27.765625 Z M 28.046875 -27.765625 "/></g></g></g><g fill="#ffffff" fill-opacity="1"><g transform="translate(255.172605, 263.321527)"><g><path d="M 24.3125 -3.453125 L 24.3125 0 L 4.171875 0 L 4.171875 -27.765625 L 23.765625 -27.765625 L 23.765625 -24.3125 L 8.125 -24.3125 L 8.125 -15.796875 L 22.0625 -15.796875 L 22.0625 -12.421875 L 8.125 -12.421875 L 8.125 -3.453125 Z M 24.3125 -3.453125 "/></g></g></g><g fill="#ffffff" fill-opacity="1"><g transform="translate(281.742305, 263.321527)"><g><path d="M 22.734375 0 L 16.734375 -8.53125 C 15.992188 -8.476562 15.414062 -8.453125 15 -8.453125 L 8.125 -8.453125 L 8.125 0 L 4.171875 0 L 4.171875 -27.765625 L 15 -27.765625 C 18.59375 -27.765625 21.421875 -26.90625 23.484375 -25.1875 C 25.546875 -23.46875 26.578125 -21.101562 26.578125 -18.09375 C 26.578125 -15.945312 26.046875 -14.117188 24.984375 -12.609375 C 23.929688 -11.109375 22.425781 -10.015625 20.46875 -9.328125 L 27.0625 0 Z M 14.875 -11.828125 C 17.382812 -11.828125 19.300781 -12.367188 20.625 -13.453125 C 21.945312 -14.535156 22.609375 -16.082031 22.609375 -18.09375 C 22.609375 -20.101562 21.945312 -21.640625 20.625 -22.703125 C 19.300781 -23.773438 17.382812 -24.3125 14.875 -24.3125 L 8.125 -24.3125 L 8.125 -11.828125 Z M 14.875 -11.828125 "/></g></g></g><g fill="#ffffff" fill-opacity="1"><g transform="translate(310.57242, 263.321527)"><g><path d="M 12.265625 0.3125 C 10.171875 0.3125 8.148438 -0.0078125 6.203125 -0.65625 C 4.265625 -1.300781 2.738281 -2.140625 1.625 -3.171875 L 3.09375 -6.265625 C 4.15625 -5.316406 5.507812 -4.546875 7.15625 -3.953125 C 8.8125 -3.359375 10.515625 -3.0625 12.265625 -3.0625 C 14.554688 -3.0625 16.269531 -3.445312 17.40625 -4.21875 C 18.550781 -5 19.125 -6.039062 19.125 -7.34375 C 19.125 -8.289062 18.8125 -9.0625 18.1875 -9.65625 C 17.5625 -10.25 16.789062 -10.703125 15.875 -11.015625 C 14.96875 -11.335938 13.679688 -11.695312 12.015625 -12.09375 C 9.929688 -12.601562 8.242188 -13.109375 6.953125 -13.609375 C 5.671875 -14.109375 4.570312 -14.878906 3.65625 -15.921875 C 2.75 -16.972656 2.296875 -18.382812 2.296875 -20.15625 C 2.296875 -21.632812 2.6875 -22.96875 3.46875 -24.15625 C 4.25 -25.351562 5.429688 -26.304688 7.015625 -27.015625 C 8.609375 -27.734375 10.582031 -28.09375 12.9375 -28.09375 C 14.570312 -28.09375 16.179688 -27.878906 17.765625 -27.453125 C 19.359375 -27.023438 20.722656 -26.414062 21.859375 -25.625 L 20.546875 -22.453125 C 19.378906 -23.191406 18.132812 -23.753906 16.8125 -24.140625 C 15.5 -24.523438 14.207031 -24.71875 12.9375 -24.71875 C 10.6875 -24.71875 9 -24.304688 7.875 -23.484375 C 6.75 -22.660156 6.1875 -21.601562 6.1875 -20.3125 C 6.1875 -19.363281 6.503906 -18.585938 7.140625 -17.984375 C 7.773438 -17.390625 8.5625 -16.925781 9.5 -16.59375 C 10.4375 -16.269531 11.710938 -15.921875 13.328125 -15.546875 C 15.421875 -15.046875 17.097656 -14.546875 18.359375 -14.046875 C 19.628906 -13.546875 20.722656 -12.78125 21.640625 -11.75 C 22.554688 -10.71875 23.015625 -9.328125 23.015625 -7.578125 C 23.015625 -6.117188 22.613281 -4.785156 21.8125 -3.578125 C 21.019531 -2.378906 19.816406 -1.429688 18.203125 -0.734375 C 16.597656 -0.0351562 14.617188 0.3125 12.265625 0.3125 Z M 12.265625 0.3125 "/></g></g></g><g clip-path="url(#id1)"><path fill="#0c59e7" d="M 187.785156 100.035156 L 181.25 111.371094 L 170.941406 129.25 L 180.652344 146.085938 L 187.792969 133.703125 L 197.757812 150.976562 L 244.0625 231.277344 L 263.484375 231.277344 Z M 187.785156 100.035156 " fill-opacity="1" fill-rule="nonzero"/></g><g clip-path="url(#id2)"><path fill="#ee500e" d="M 127.566406 212.707031 L 167.890625 166.769531 L 205.097656 231.277344 L 224.515625 231.277344 L 167.890625 133.101562 L 149.113281 165.65625 L 111.601562 230.691406 L 111.261719 231.277344 Z M 127.566406 212.707031 " fill-opacity="1" fill-rule="nonzero"/></g></svg>