<?xml version='1.0' encoding='utf-8'?>
<svg xmlns="http://www.w3.org/2000/svg" version="1.1" width="600px" height="976px" viewBox="0 0 600 976"> <g id="layer1"> <g style="fill:rgb(18,79,80); fill-opacity:1.0; stroke-linejoin: miter"> <path d="M225.95804,531.85236Q204.42934,532.14496,189.0396,547.037Q173.94666,562.46246,173.60675,584.00214Q173.93121,605.6224,188.69666,620.8794Q204.24597,636.0926,225.68402,636.40735Q247.21428,636.1677,262.6455,621.3058Q277.77548,605.90967,278.16113,584.36914Q277.95767,562.8265,263.002,547.3106Q247.41953,532.1229,225.97855,531.8523"/> </g> <g style="fill:rgb(153,237,245); fill-opacity:1.0; stroke-linejoin: miter"> <path d="M224.544,538.24084Q205.67708,539.0766,192.58926,552.5315Q179.72122,566.4645,180.01587,585.4761Q180.82806,604.30023,194.33864,617.4535Q208.26923,630.27997,227.18599,629.9981Q246.0546,629.1863,259.1611,615.7445Q272.04666,601.82404,271.77258,582.81165Q270.98047,563.98737,257.48703,550.8207Q243.57336,537.9797,224.65775,538.23755"/> </g> <g style="fill:rgb(255,255,255); fill-opacity:0.18431373; stroke-linejoin: miter"> <path d="M225.29651,538.23267Q224.97784,538.2333,224.65775,538.23755L224.544,538.24084Q211.38712,538.82367,201.04059,545.543L201.0434,545.543L184.16043,603.2364L184.16306,603.2364Q187.16325,609.7797,192.30695,615.36566L257.97076,551.3019L257.97406,551.3019Q257.7327,551.06024,257.48703,550.8207Q243.80879,538.19696,225.29651,538.23267 Z"/> </g> <g style="fill:rgb(38,120,95); fill-opacity:1.0; stroke-linejoin: miter"> <path d="M236.85938,557.11566C236.59857,557.1162,236.4589,557.118,236.45636,557.1212C236.4452,557.14825,236.41089,560.191,236.3813,563.8902L236.32298,570.6155L249.86623,570.7604L263.40973,570.8997L263.47403,564.1199L263.53836,557.33997L250.01106,557.21173C243.68729,557.1518,238.3347,557.1128,236.85938,557.11566 Z M241.16605,559.84015L249.96895,559.9233L258.7721,560.00684L241.16605,559.84015 Z M249.95851,567.3617C249.95409,567.36176,249.94969,567.36176,249.94527,567.3617C249.94084,567.36176,249.93645,567.36176,249.93202,567.36176 Z M241.11589,567.9758L258.70557,568.1426L249.90813,568.0593L241.11589,567.9758 Z"/> </g> <g style="fill:rgb(38,120,95); fill-opacity:1.0; stroke-linejoin: miter"> <path d="M236.27776,556.73224C236.2666,556.7592,236.23225,559.8018,236.2027,563.5011L236.14438,570.22656L249.68767,570.3714L263.23108,570.5107L263.29544,563.73096L263.35977,556.9511L249.83253,556.8228C242.39102,556.7523,236.29425,556.71063,236.27776,556.73224 Z M258.65015,559.933C258.76337,560.5797,259.08435,561.04926,259.64526,561.3854C259.85028,561.5068,260.06644,561.5901,260.256,561.6192C260.4188,561.63696,260.5646,561.6819,260.58072,561.709C260.64493,561.81274,260.60837,565.6528,260.54282,565.70654C260.50998,565.7278,260.3633,565.7644,260.21664,565.78467C259.8689,565.8247,259.31805,566.1286,259.0658,566.4134C258.81342,566.7094,258.6198,567.1146,258.56763,567.4666L258.52692,567.7536L249.72957,567.67053L240.93735,567.58704L240.87039,567.2284C240.83426,567.0328,240.76073,566.7828,240.70741,566.67365C240.45193,566.1666,239.8327,565.67816,239.3291,565.5919C239.20998,565.5746,239.05838,565.5459,238.9933,565.52905L238.86897,565.5062L238.88802,563.4996C238.90915,561.254,238.85823,561.48145,239.34172,561.4155C239.6892,561.3645,240.07628,561.1565,240.3829,560.8558C240.71147,560.5334,240.98256,559.97186,240.98613,559.60846L240.98752,559.45123L249.79042,559.5345L258.5935,559.6179L258.65015,559.933 Z"/> </g> <g style="fill:rgb(38,120,95); fill-opacity:1.0; stroke-linejoin: miter"> <path d="M249.19759,560.26654C248.58913,560.37463,247.95682,560.68335,247.50269,561.0967C247.06488,561.4994,246.80635,561.88745,246.584,562.4604C246.42828,562.855,246.41658,562.947,246.41074,563.5708C246.40494,564.1783,246.42029,564.29236,246.55237,564.65704C246.83218,565.4515,247.33072,566.0746,247.99402,566.4824C249.25075,567.25366,250.93898,567.10144,252.01146,566.1244C253.26448,564.98096,253.51521,563.1662,252.60631,561.76904C251.87904,560.64984,250.49089,560.04016,249.19759,560.26654 Z"/> </g> <g style="fill:rgb(42,175,134); fill-opacity:1.0; stroke-linejoin: miter"> <path d="M249.77168,560.21985C250.88475,560.23035,251.98598,560.81433,252.60631,561.76904C253.51521,563.1662,253.26448,564.98096,252.01146,566.1244C251.3892,566.6914,250.55937,566.9808,249.72688,566.9728C249.12486,566.96704,248.52129,566.80585,247.99402,566.4824C247.33072,566.0746,246.83218,565.4515,246.55237,564.65704C246.42029,564.29236,246.40494,564.1783,246.41074,563.5708C246.41658,562.947,246.42828,562.855,246.584,562.4604C246.80635,561.88745,247.06488,561.4994,247.50269,561.0967C247.95682,560.68335,248.58913,560.37463,249.19759,560.26654C249.38771,560.2332,249.57991,560.21814,249.77168,560.21985 Z M240.98752,559.45123L240.98613,559.60846C240.98256,559.97186,240.71147,560.5334,240.3829,560.8558C240.07628,561.1565,239.6892,561.3645,239.34172,561.4155C238.85823,561.48145,238.90915,561.254,238.88802,563.4996L238.86897,565.5062L238.9933,565.52905C239.05838,565.5459,239.20998,565.5746,239.3291,565.5919C239.8327,565.67816,240.45193,566.1666,240.70741,566.67365C240.76073,566.7828,240.83426,567.0328,240.87039,567.2284L240.93735,567.58704L258.52692,567.7536L258.56763,567.4666C258.6198,567.1146,258.81342,566.7094,259.0658,566.4134C259.31805,566.1286,259.8689,565.8247,260.21664,565.78467C260.3633,565.7644,260.50998,565.7278,260.54282,565.70654C260.60837,565.6528,260.64493,561.81274,260.58072,561.709C260.5646,561.6819,260.4188,561.63696,260.256,561.6192C260.06644,561.5901,259.85028,561.5068,259.64526,561.3854C259.08435,561.04926,258.76337,560.5797,258.65015,559.933L258.5935,559.6179 Z"/> </g> <g style="fill:rgb(0,0,0); fill-opacity:0.039215688; stroke-linejoin: miter"> <path d="M225.29678,538.2323Q224.97812,538.2329,224.65802,538.2372L224.54428,538.2405Q205.67735,539.07623,192.58954,552.5311Q179.7215,566.4641,180.01614,585.4757Q180.82834,604.29987,194.33891,617.4531Q207.84837,629.8918,226.04707,630.00287L226.04713,630.00287L225.87071,538.2342L225.87376,538.23425Q225.58588,538.23175,225.29678,538.2323 Z"/> </g> <g style="fill:rgb(255,186,125); fill-opacity:1.0; stroke-linejoin: miter"> <path d="M215.60938,559.3224Q215.7962,559.32007,215.98944,559.39813Q215.7962,559.32007,215.60938,559.3224Q215.42256,559.32446,215.24205,559.40674L215.24205,559.40674Q215.42256,559.32446,215.60938,559.3224L215.60938,559.3224 Z M208.0065,571.0561Q208.01076,571.0558,208.01418,571.0587Q208.01076,571.0558,208.0065,571.0561Q208.00244,571.056,207.99747,571.0591L207.99747,571.0591Q208.00244,571.056,208.0065,571.0561L208.0065,571.0561 Z M213.85684,595.6937L213.85684,595.6937Q212.24445,596.1532,206.57402,596.9581L206.57402,596.9581Q212.24445,596.1532,213.85684,595.6937L213.85684,595.6937 Z M205.3278,578.5631L205.54716,597.1019L205.54716,597.1019Q205.45851,597.11444,205.36882,597.1269Q205.69235,592.2106,204.93811,579.4303Q205.1403,578.9778,205.3278,578.5631L205.3278,578.5631 Z M215.6027,558.9303Q214.89345,558.9384,214.2657,559.781Q214.0576,560.0773,213.9132,560.40497Q213.37762,562.12,213.08525,562.5053L207.72282,570.785Q207.71944,570.7836,207.71588,570.7837Q207.49353,570.7863,206.06429,576.05945L201.36505,578.44794L200.78102,578.56683Q202.30981,581.6634,202.34782,581.3343Q201.67947,579.2725,198.51578,584.16895Q205.39795,592.0039,205.0349,597.52167Q213.59375,596.4304,214.61043,595.8152Q216.31308,595.19635,219.1506,593.95734Q225.75526,590.5718,226.95853,590.1722Q229.2483,589.19977,235.0099,587.4625Q235.68369,587.2014,235.82443,586.5071Q236.2622,584.77386,235.14261,584.0108Q236.54295,583.50146,236.37851,582.2461Q236.15689,580.4426,235.43715,579.6899Q236.66139,577.70087,236.4994,576.699Q236.43669,575.5076,235.52614,574.7816Q236.31575,572.85156,235.12236,571.3669Q234.27353,570.13043,232.93594,570.0001L217.39857,569.40924L215.52269,570.3005Q215.54518,569.1122,215.66664,568.73126Q217.39333,565.7897,217.54633,563.07056Q217.73268,559.84686,216.21333,559.0712L216.18767,559.0591Q215.88846,558.92694,215.6027,558.9303L215.6027,558.9303 Z"/> </g> <g style="fill:rgb(0,0,0); fill-opacity:1.0; stroke-linejoin: miter"> <path d="M216.87096,560.1113L216.27608,592.9422L229.1528,593.1756L233.4006,593.2528L233.99553,560.42126L216.87096,560.1113 Z"/> </g> <g style="fill:rgb(255,255,255); fill-opacity:1.0; stroke-linejoin: miter"> <path d="M233.18315,563.5519L217.85934,563.2513L217.34875,588.5572L217.35092,588.60187L232.675,588.90283L233.18242,563.59125 Z"/> </g> <g style="fill:rgb(255,0,0); fill-opacity:0.050980393; stroke-linejoin: miter"> <path d="M207.49753,571.2422L207.4483,571.3296L207.4483,571.3296Q207.03426,572.4811,206.06429,576.05945L204.87675,578.6193L204.7273,576.16754L204.38953,576.7683L203.62157,578.13367Q202.7606,580.091,202.89973,580.8805Q202.97865,581.524,203.54488,581.8766Q204.06607,582.1868,204.69681,582.2228L204.69681,582.2228Q204.69681,582.2228,204.69681,582.2228L204.69695,582.22296Q204.79732,582.2286,204.90048,582.2274Q204.96439,582.2266,205.02916,582.2232Q205.06204,582.2206,205.09483,582.2173L205.09483,582.2173Q205.09483,582.2173,205.09483,582.2173L205.09483,582.2173Q205.23616,582.2035,205.37071,582.1776L205.3708,582.17773L205.3278,578.5631L205.37071,582.1776L205.37071,582.1776Q206.6553,581.93256,207.31447,580.6125Q208.41054,578.35913,207.49904,571.2545L207.49753,571.2422 Z"/> </g> <g style="fill:rgb(255,186,125); fill-opacity:1.0; stroke-linejoin: miter"> <path d="M230.30566,584.02466Q230.32748,584.02704,230.34901,584.0332L230.34901,584.0332Q230.32748,584.02704,230.30566,584.02466Q230.28412,584.0224,230.26256,584.02405Q230.28412,584.0224,230.30566,584.02466L230.30566,584.02466 Z M237.7656,593.02765Q237.90578,593.0424,238.02872,593.0811Q237.90578,593.0424,237.7656,593.02765Q237.62532,593.0128,237.46759,593.02216L237.46759,593.02216Q237.62532,593.0128,237.7656,593.02765L237.7656,593.02765 Z M235.63768,593.63947Q235.63713,593.6394,235.6367,593.6394Q235.63599,593.6394,235.63522,593.6393L235.63768,593.63947 Z M241.04802,594.28564Q241.48163,594.3315,241.76192,594.41956L241.76192,594.41956Q241.48163,594.3315,241.04802,594.28564Q240.61467,594.2403,240.02747,594.2374Q240.61467,594.2403,241.04802,594.28564L241.04802,594.28564 Z M241.87636,594.45105Q241.88983,594.45245,241.90926,594.4574L241.90913,594.4574Q241.88983,594.45245,241.87636,594.45105Q241.86278,594.44965,241.8551,594.45184Q241.86278,594.44965,241.87636,594.45105L241.87636,594.45105 Z M252.10298,619.7382Q249.61316,617.859,249.82153,617.85974L250.23029,619.9414Q251.2842,614.7426,254.42787,613.6781L250.0271,618.4843 Z M230.39182,583.48676Q230.34508,583.48193,230.2978,583.48364Q229.16795,583.39685,228.66844,583.75024L228.6136,583.79144Q227.82468,584.3726,228.42104,586.4548L229.13162,588.666L231.89888,596.171Q230.42056,596.89746,230.37297,598.4345Q230.28648,598.55774,230.61163,601.9906Q230.6467,605.25256,230.71083,605.31616Q230.78955,606.25037,231.3734,607.086Q234.42963,611.35406,234.85403,611.66724Q235.70523,612.67,238.70116,615.21875Q239.37953,615.86255,240.6347,617.1661Q245.00269,621.7037,248.0521,620.1861Q249.4856,618.43805,250.02847,615.7678Q251.33385,615.007,253.09923,613.3222Q254.06505,614.463,250.29874,613.037L255.7989,615.6928Q251.92201,610.5861,251.35378,610.0433Q250.89018,609.46545,250.56845,608.78845Q250.0889,607.8127,249.87549,606.07556L249.29025,598.746Q249.07623,597.36835,248.56879,596.64935Q248.1235,596.0449,247.45404,595.79504Q247.07117,595.6448,246.65166,595.5738L244.83,595.3435Q242.37756,593.9949,242.17459,593.9735Q242.16159,593.972,242.15765,593.9765Q241.70398,593.8038,241.0878,593.739Q240.6805,593.6962,240.20247,593.70044Q238.97838,592.7769,238.19824,592.5606Q238.01848,592.50085,237.81795,592.47974Q236.96562,592.3903,235.73247,592.99457L234.17494,590.1698L231.71706,585.1035L231.04303,583.9134Q230.73613,583.52295,230.39182,583.48676L230.39182,583.48676 Z"/> </g> <g style="fill:rgb(0,0,0); fill-opacity:1.0; stroke-linejoin: miter"> <path d="M253.85927,607.35L239.8444,617.73L247.32442,624.70776Q253.73634,621.3081,259.1611,615.7445Q259.73026,615.1298,260.2737,614.505L260.27713,614.505L253.86598,607.35895L253.85927,607.35L253.85927,607.35 Z"/> </g> <g style="fill:rgb(0,0,0); fill-opacity:1.0; stroke-linejoin: miter"> <path d="M205.57518,575.87646L180.0083,585.04816L180.0109,585.04816Q180.01254,585.2618,180.01587,585.4761Q180.55762,598.03186,186.7487,608.0647L213.90773,597.8545L205.59184,575.92004L205.57518,575.87646 Z"/> </g> <g style="fill:rgb(38,120,95); fill-opacity:1.0; stroke-linejoin: miter"> <path d="M232.1368,573.50146L232.13168,573.97516L235.07887,574.00726L238.0259,574.0396L238.03111,573.56604L238.03633,573.0923L235.08919,573.06006L232.14192,573.0277L232.1368,573.50146 Z"/> </g> <g style="fill:rgb(38,120,95); fill-opacity:1.0; stroke-linejoin: miter"> <path d="M232.10965,575.97485L232.10446,576.4486L235.0517,576.4807L237.99881,576.51306L238.004,576.0394L238.00925,575.56586L235.06215,575.53357L232.11488,575.5013L232.10965,575.97485 Z"/> </g> <g style="fill:rgb(38,120,95); fill-opacity:1.0; stroke-linejoin: miter"> <path d="M232.08405,578.3167L232.07855,578.8167L233.97311,578.83765L235.86784,578.8584L235.87332,578.3584L235.87872,577.8583L233.98409,577.8375L232.08952,577.81696L232.08405,578.3167 Z"/> </g> <g style="fill:rgb(0,0,0); fill-opacity:1.0; stroke-linejoin: miter"> <path d="M225.31744,582.43005Q224.64635,582.4092,224.15454,582.8456Q223.66597,583.2988,223.62373,583.9653Q223.60204,584.6356,224.03696,585.1279Q224.49115,585.61914,225.15895,585.66125Q225.83003,585.6828,226.32242,585.24713Q226.8117,584.7945,226.85472,584.128Q226.87715,583.45776,226.443,582.96497Q225.9895,582.4733,225.32176,582.43024"/> </g> <g style="fill:rgb(255,255,255); fill-opacity:1.0; stroke-linejoin: miter"> <path d="M225.26758,583.45844Q225.0258,583.45056,224.845,583.60944Q224.66759,583.7748,224.65201,584.0167Q224.64374,584.25916,224.80428,584.4413Q224.96928,584.6176,225.21074,584.63293Q225.45255,584.6408,225.6334,584.48206Q225.81087,584.31665,225.82658,584.0749Q225.83495,583.83246,225.67436,583.65015Q225.50945,583.474,225.26802,583.45844"/> </g> <g style="fill:rgb(90,173,233); fill-opacity:1.0; stroke-linejoin: miter"> <path d="M225.40488,568.0703L220.37518,569.86865L230.46568,569.9979L225.40593,568.07074L225.40488,568.0703 Z M229.43687,570.41016C229.47125,570.41064,229.48419,570.41516,229.46645,570.4207C229.45453,570.42303,229.4378,570.42395,229.42052,570.42377C229.40318,570.4234,229.38531,570.42194,229.37105,570.41943C229.3401,570.41425,229.35924,570.4096,229.41176,570.4104C229.42105,570.4102,229.42944,570.41003,229.43687,570.41016 Z M220.23921,570.22894L220.23482,570.5511L220.23038,570.8731L230.53685,571.0153L230.54129,570.6933L230.54575,570.37115 Z M221.29803,571.3174L221.2655,573.6793L221.23291,576.0411L222.11563,576.05334L222.14821,573.69147L222.1807,571.32947 Z M223.15887,571.3431L223.12634,573.70496L223.09378,576.0668L223.97649,576.07886L224.00906,573.71704L224.04161,571.3552 Z M224.9363,571.3675L224.91089,573.72955L224.88309,576.09155L225.74197,576.10333L225.76051,575.10614C225.77281,574.55994,225.78987,573.4959,225.80022,572.7468L225.819,571.3797 Z M226.71367,571.3921L226.68112,573.75397L226.64856,576.11584L227.5313,576.12805L227.56386,573.7662L227.5964,571.4043 Z M228.57462,571.41785L228.54205,573.7797L228.50946,576.1416L229.39221,576.15375L229.42479,573.7919L229.45735,571.43 Z M229.91179,576.5763Q229.83151,576.5752,229.75839,576.57544Q229.57127,576.5757,229.32452,576.5824L220.15347,576.4558L220.14899,576.77795L220.14455,577.1L224.53667,577.16046C227.3605,577.19946,228.37227,577.21246,228.74878,577.2042L228.74907,577.2042L228.7479,577.21326L228.74881,577.21405L229.2263,577.21735L229.2266,577.21735C229.2437,577.22266,229.27289,577.2259,229.30582,577.2264C229.34512,577.22687,229.37915,577.22345,229.39378,577.2185L229.39348,577.2185L229.5157,577.21936L229.51602,577.21936C229.57094,577.2299,229.69075,577.2316,229.96428,577.2355L230.45099,577.2421L230.45445,576.9933L230.47273,576.5979L230.47278,576.5971L230.4507,576.5971L230.4507,576.5971L230.45226,576.59534L230.45265,576.59485Q230.15045,576.5795,229.91179,576.5763 Z M229.98189,577.51184Q228.99284,577.5057,228.5535,577.5144Q228.51498,577.5149,228.4746,577.51575L228.4746,577.51575C228.24689,577.5053,227.77806,577.4956,226.93059,577.4839C226.44331,577.4773,225.83083,577.4699,225.06705,577.4613C223.12492,577.4416,221.51924,577.4244,221.50018,577.42413C221.48111,577.4239,221.03505,577.4128,220.51024,577.4009C220.27687,577.39465,220.0949,577.39044,219.9544,577.3885C219.65118,577.38446,219.54118,577.39026,219.52464,577.4063C219.50288,577.4276,219.49373,577.573,219.48865,577.9428L219.48164,578.4509L226.8791,578.5528L226.87807,578.5551L228.43219,578.57184L228.4325,578.57184C228.68419,578.57697,229.00072,578.5822,229.38486,578.5875L231.07639,578.6108L231.08337,578.10266C231.08841,577.7401,231.08336,577.58734,231.0622,577.5655C231.04103,577.54376,230.77625,577.5329,230.01283,577.5224C230.00218,577.5223,229.99168,577.52203,229.98131,577.522L229.98131,577.522L229.98207,577.51373L229.98222,577.51184 Z"/> </g> </g> </svg>